<?xml version="1.0" encoding="UTF-8" standalone="no"?><svg xmlns="http://www.w3.org/2000/svg" xmlns:xlink="http://www.w3.org/1999/xlink" contentScriptType="application/ecmascript" contentStyleType="text/css" height="915px" preserveAspectRatio="none" style="width:1476px;height:915px;" version="1.1" viewBox="0 0 1476 915" width="1476px" zoomAndPan="magnify"><defs><filter height="300%" id="f15q7n6vshtzno" width="300%" x="-1" y="-1"><feGaussianBlur result="blurOut" stdDeviation="2.0"/><feColorMatrix in="blurOut" result="blurOut2" type="matrix" values="0 0 0 0 0 0 0 0 0 0 0 0 0 0 0 0 0 0 .4 0"/><feOffset dx="4.0" dy="4.0" in="blurOut2" result="blurOut3"/><feBlend in="SourceGraphic" in2="blurOut3" mode="normal"/></filter></defs><g><rect fill="#FFFFFF" filter="url(#f15q7n6vshtzno)" height="887.5188" style="stroke: #000000; stroke-width: 2.0;" width="1448" x="11" y="11"/><path d="M130,12 L130,20.7999 L120,30.7999 L11,30.7999 " fill="none" style="stroke: #000000; stroke-width: 2.0;"/><text fill="#000000" font-family="sans-serif" font-size="14" lengthAdjust="spacingAndGlyphs" textLength="109" x="14" y="25.0059">submitter_submit</text><ellipse cx="748" cy="50.7999" fill="#000000" filter="url(#f15q7n6vshtzno)" rx="10" ry="10" style="stroke: none; stroke-width: 1.0;"/><polygon fill="#FEFECE" filter="url(#f15q7n6vshtzno)" points="68.5,80.7999,158.5,80.7999,170.5,92.7999,158.5,104.7999,68.5,104.7999,56.5,92.7999,68.5,80.7999" style="stroke: #A80036; stroke-width: 1.5;"/><text fill="#000000" font-family="sans-serif" font-size="11" lengthAdjust="spacingAndGlyphs" textLength="22" x="117.5" y="115.0189">Text</text><text fill="#000000" font-family="sans-serif" font-size="11" lengthAdjust="spacingAndGlyphs" textLength="90" x="68.5" y="96.4189">Check submission</text><rect fill="#FEFECE" filter="url(#f15q7n6vshtzno)" height="34.4001" rx="12.5" ry="12.5" style="stroke: #A80036; stroke-width: 1.5;" width="156" x="35.5" y="185.1188"/><text fill="#000000" font-family="sans-serif" font-size="12" lengthAdjust="spacingAndGlyphs" textLength="136" x="45.5" y="206.2669">Submit text via IMService</text><rect fill="#FEFECE" filter="url(#f15q7n6vshtzno)" height="34.4001" style="stroke: #A80036; stroke-width: 1.5;" width="50" x="88.5" y="254.1189"/><text fill="#000000" font-family="sans-serif" font-size="12" lengthAdjust="spacingAndGlyphs" textLength="30" x="98.5" y="275.2669">result</text><polygon fill="#FEFECE" filter="url(#f15q7n6vshtzno)" points="100,323.519,127,323.519,139,335.519,127,347.519,100,347.519,88,335.519,100,323.519" style="stroke: #A80036; stroke-width: 1.5;"/><text fill="#000000" font-family="sans-serif" font-size="11" lengthAdjust="spacingAndGlyphs" textLength="29" x="117.5" y="357.7379">failure</text><text fill="#000000" font-family="sans-serif" font-size="11" lengthAdjust="spacingAndGlyphs" textLength="27" x="100" y="339.1379">result</text><text fill="#000000" font-family="sans-serif" font-size="11" lengthAdjust="spacingAndGlyphs" textLength="42" x="139" y="332.538">success</text><ellipse cx="203" cy="335.519" fill="#FFFFFF" filter="url(#f15q7n6vshtzno)" rx="11" ry="11" style="stroke: #000000; stroke-width: 1.0;"/><ellipse cx="203" cy="335.519" fill="#000000" rx="6" ry="6" style="stroke: #7F7F7F; stroke-width: 1.0;"/><polygon fill="#FEFECE" filter="url(#f15q7n6vshtzno)" points="66.5,136.5189,160.5,136.5189,172.5,148.5189,160.5,160.5189,66.5,160.5189,54.5,148.5189,66.5,136.5189" style="stroke: #A80036; stroke-width: 1.5;"/><text fill="#000000" font-family="sans-serif" font-size="11" lengthAdjust="spacingAndGlyphs" textLength="18" x="117.5" y="170.7378">yes</text><text fill="#000000" font-family="sans-serif" font-size="11" lengthAdjust="spacingAndGlyphs" textLength="94" x="66.5" y="152.1378">IMService available</text><text fill="#000000" font-family="sans-serif" font-size="11" lengthAdjust="spacingAndGlyphs" textLength="12" x="172.5" y="145.5379">no</text><polygon fill="#FEFECE" filter="url(#f15q7n6vshtzno)" points="113.5,416.7189,125.5,428.7189,113.5,440.7189,101.5,428.7189,113.5,416.7189" style="stroke: #A80036; stroke-width: 1.5;"/><rect fill="#FEFECE" filter="url(#f15q7n6vshtzno)" height="34.4001" rx="12.5" ry="12.5" style="stroke: #A80036; stroke-width: 1.5;" width="181" x="23" y="524.3188"/><text fill="#000000" font-family="sans-serif" font-size="12" lengthAdjust="spacingAndGlyphs" textLength="161" x="33" y="545.4669">VKService::send_unicode_str</text><rect fill="#FEFECE" filter="url(#f15q7n6vshtzno)" height="34.4001" style="stroke: #A80036; stroke-width: 1.5;" width="50" x="88.5" y="578.9188"/><text fill="#000000" font-family="sans-serif" font-size="12" lengthAdjust="spacingAndGlyphs" textLength="30" x="98.5" y="600.0668">result</text><polygon fill="#FEFECE" filter="url(#f15q7n6vshtzno)" points="100,648.3189,127,648.3189,139,660.3189,127,672.3189,100,672.3189,88,660.3189,100,648.3189" style="stroke: #A80036; stroke-width: 1.5;"/><text fill="#000000" font-family="sans-serif" font-size="11" lengthAdjust="spacingAndGlyphs" textLength="29" x="117.5" y="682.5378">failure</text><text fill="#000000" font-family="sans-serif" font-size="11" lengthAdjust="spacingAndGlyphs" textLength="27" x="100" y="663.9378">result</text><text fill="#000000" font-family="sans-serif" font-size="11" lengthAdjust="spacingAndGlyphs" textLength="42" x="139" y="657.3379">success</text><ellipse cx="203" cy="660.3189" fill="#FFFFFF" filter="url(#f15q7n6vshtzno)" rx="11" ry="11" style="stroke: #000000; stroke-width: 1.0;"/><ellipse cx="203" cy="660.3189" fill="#000000" rx="6" ry="6" style="stroke: #7F7F7F; stroke-width: 1.0;"/><polygon fill="#FEFECE" filter="url(#f15q7n6vshtzno)" points="65.5,475.7189,161.5,475.7189,173.5,487.7189,161.5,499.7189,65.5,499.7189,53.5,487.7189,65.5,475.7189" style="stroke: #A80036; stroke-width: 1.5;"/><text fill="#000000" font-family="sans-serif" font-size="11" lengthAdjust="spacingAndGlyphs" textLength="18" x="117.5" y="509.9378">yes</text><text fill="#000000" font-family="sans-serif" font-size="11" lengthAdjust="spacingAndGlyphs" textLength="96" x="65.5" y="491.3378">VKService available</text><polygon fill="#FEFECE" filter="url(#f15q7n6vshtzno)" points="113.5,746.1187,125.5,758.1187,113.5,770.1187,101.5,758.1187,113.5,746.1187" style="stroke: #A80036; stroke-width: 1.5;"/><rect fill="#FEFECE" filter="url(#f15q7n6vshtzno)" height="34.4001" rx="12.5" ry="12.5" style="stroke: #A80036; stroke-width: 1.5;" width="73" x="77" y="790.1187"/><text fill="#000000" font-family="sans-serif" font-size="12" lengthAdjust="spacingAndGlyphs" textLength="53" x="87" y="811.2668">Emit error</text><polygon fill="#FEFECE" filter="url(#f15q7n6vshtzno)" points="395,80.7999,438,80.7999,450,92.7999,438,104.7999,395,104.7999,383,92.7999,395,80.7999" style="stroke: #A80036; stroke-width: 1.5;"/><text fill="#000000" font-family="sans-serif" font-size="11" lengthAdjust="spacingAndGlyphs" textLength="18" x="420.5" y="115.0189">yes</text><text fill="#000000" font-family="sans-serif" font-size="11" lengthAdjust="spacingAndGlyphs" textLength="43" x="395" y="96.4189">Keycode</text><polygon fill="#FEFECE" filter="url(#f15q7n6vshtzno)" points="368.5,136.5189,464.5,136.5189,476.5,148.5189,464.5,160.5189,368.5,160.5189,356.5,148.5189,368.5,136.5189" style="stroke: #A80036; stroke-width: 1.5;"/><text fill="#000000" font-family="sans-serif" font-size="11" lengthAdjust="spacingAndGlyphs" textLength="96" x="368.5" y="152.1378">VKService available</text><text fill="#000000" font-family="sans-serif" font-size="11" lengthAdjust="spacingAndGlyphs" textLength="18" x="338.5" y="145.5379">yes</text><text fill="#000000" font-family="sans-serif" font-size="11" lengthAdjust="spacingAndGlyphs" textLength="12" x="476.5" y="145.5379">no</text><rect fill="#FEFECE" filter="url(#f15q7n6vshtzno)" height="34.4001" rx="12.5" ry="12.5" style="stroke: #A80036; stroke-width: 1.5;" width="195" x="242" y="170.5189"/><text fill="#000000" font-family="sans-serif" font-size="12" lengthAdjust="spacingAndGlyphs" textLength="175" x="252" y="191.6669">VKService::press_release_key()</text><rect fill="#FEFECE" filter="url(#f15q7n6vshtzno)" height="34.4001" style="stroke: #A80036; stroke-width: 1.5;" width="50" x="314.5" y="239.5189"/><text fill="#000000" font-family="sans-serif" font-size="12" lengthAdjust="spacingAndGlyphs" textLength="30" x="324.5" y="260.667">result</text><rect fill="#FEFECE" filter="url(#f15q7n6vshtzno)" height="34.4001" rx="12.5" ry="12.5" style="stroke: #A80036; stroke-width: 1.5;" width="73" x="303" y="357.519"/><text fill="#000000" font-family="sans-serif" font-size="12" lengthAdjust="spacingAndGlyphs" textLength="53" x="313" y="378.667">Emit error</text><polygon fill="#FEFECE" filter="url(#f15q7n6vshtzno)" points="326,308.919,353,308.919,365,320.919,353,332.919,326,332.919,314,320.919,326,308.919" style="stroke: #A80036; stroke-width: 1.5;"/><text fill="#000000" font-family="sans-serif" font-size="11" lengthAdjust="spacingAndGlyphs" textLength="29" x="343.5" y="343.1379">failure</text><text fill="#000000" font-family="sans-serif" font-size="11" lengthAdjust="spacingAndGlyphs" textLength="27" x="326" y="324.538">result</text><text fill="#000000" font-family="sans-serif" font-size="11" lengthAdjust="spacingAndGlyphs" textLength="42" x="365" y="317.938">success</text><polygon fill="#FEFECE" filter="url(#f15q7n6vshtzno)" points="339.5,411.9191,351.5,423.9191,339.5,435.9191,327.5,423.9191,339.5,411.9191" style="stroke: #A80036; stroke-width: 1.5;"/><rect fill="#FEFECE" filter="url(#f15q7n6vshtzno)" height="34.4001" rx="12.5" ry="12.5" style="stroke: #A80036; stroke-width: 1.5;" width="73" x="457" y="170.5189"/><text fill="#000000" font-family="sans-serif" font-size="12" lengthAdjust="spacingAndGlyphs" textLength="53" x="467" y="191.6669">Emit error</text><polygon fill="#FEFECE" filter="url(#f15q7n6vshtzno)" points="416.5,441.9191,428.5,453.9191,416.5,465.9191,404.5,453.9191,416.5,441.9191" style="stroke: #A80036; stroke-width: 1.5;"/><polygon fill="#FEFECE" filter="url(#f15q7n6vshtzno)" points="647.5,80.7999,723.5,80.7999,735.5,92.7999,723.5,104.7999,647.5,104.7999,635.5,92.7999,647.5,80.7999" style="stroke: #A80036; stroke-width: 1.5;"/><text fill="#000000" font-family="sans-serif" font-size="11" lengthAdjust="spacingAndGlyphs" textLength="18" x="689.5" y="115.0189">yes</text><text fill="#000000" font-family="sans-serif" font-size="11" lengthAdjust="spacingAndGlyphs" textLength="76" x="647.5" y="96.4189">ToggleKeycode</text><polygon fill="#FEFECE" filter="url(#f15q7n6vshtzno)" points="637.5,136.5189,733.5,136.5189,745.5,148.5189,733.5,160.5189,637.5,160.5189,625.5,148.5189,637.5,136.5189" style="stroke: #A80036; stroke-width: 1.5;"/><text fill="#000000" font-family="sans-serif" font-size="11" lengthAdjust="spacingAndGlyphs" textLength="96" x="637.5" y="152.1378">VKService available</text><text fill="#000000" font-family="sans-serif" font-size="11" lengthAdjust="spacingAndGlyphs" textLength="18" x="607.5" y="145.5379">yes</text><text fill="#000000" font-family="sans-serif" font-size="11" lengthAdjust="spacingAndGlyphs" textLength="12" x="745.5" y="145.5379">no</text><rect fill="#FEFECE" filter="url(#f15q7n6vshtzno)" height="34.4001" rx="12.5" ry="12.5" style="stroke: #A80036; stroke-width: 1.5;" width="151" x="540" y="170.5189"/><text fill="#000000" font-family="sans-serif" font-size="12" lengthAdjust="spacingAndGlyphs" textLength="131" x="550" y="191.6669">VKService::toggle_key()</text><rect fill="#FEFECE" filter="url(#f15q7n6vshtzno)" height="34.4001" style="stroke: #A80036; stroke-width: 1.5;" width="50" x="590.5" y="239.5189"/><text fill="#000000" font-family="sans-serif" font-size="12" lengthAdjust="spacingAndGlyphs" textLength="30" x="600.5" y="260.667">result</text><rect fill="#FEFECE" filter="url(#f15q7n6vshtzno)" height="34.4001" rx="12.5" ry="12.5" style="stroke: #A80036; stroke-width: 1.5;" width="73" x="579" y="357.519"/><text fill="#000000" font-family="sans-serif" font-size="12" lengthAdjust="spacingAndGlyphs" textLength="53" x="589" y="378.667">Emit error</text><polygon fill="#FEFECE" filter="url(#f15q7n6vshtzno)" points="602,308.919,629,308.919,641,320.919,629,332.919,602,332.919,590,320.919,602,308.919" style="stroke: #A80036; stroke-width: 1.5;"/><text fill="#000000" font-family="sans-serif" font-size="11" lengthAdjust="spacingAndGlyphs" textLength="29" x="619.5" y="343.1379">failure</text><text fill="#000000" font-family="sans-serif" font-size="11" lengthAdjust="spacingAndGlyphs" textLength="27" x="602" y="324.538">result</text><text fill="#000000" font-family="sans-serif" font-size="11" lengthAdjust="spacingAndGlyphs" textLength="42" x="641" y="317.938">success</text><polygon fill="#FEFECE" filter="url(#f15q7n6vshtzno)" points="615.5,411.9191,627.5,423.9191,615.5,435.9191,603.5,423.9191,615.5,411.9191" style="stroke: #A80036; stroke-width: 1.5;"/><rect fill="#FEFECE" filter="url(#f15q7n6vshtzno)" height="34.4001" rx="12.5" ry="12.5" style="stroke: #A80036; stroke-width: 1.5;" width="73" x="719" y="170.5189"/><text fill="#000000" font-family="sans-serif" font-size="12" lengthAdjust="spacingAndGlyphs" textLength="53" x="729" y="191.6669">Emit error</text><polygon fill="#FEFECE" filter="url(#f15q7n6vshtzno)" points="685.5,441.9191,697.5,453.9191,685.5,465.9191,673.5,453.9191,685.5,441.9191" style="stroke: #A80036; stroke-width: 1.5;"/><polygon fill="#FEFECE" filter="url(#f15q7n6vshtzno)" points="943.25,80.7999,981.25,80.7999,993.25,92.7999,981.25,104.7999,943.25,104.7999,931.25,92.7999,943.25,80.7999" style="stroke: #A80036; stroke-width: 1.5;"/><text fill="#000000" font-family="sans-serif" font-size="11" lengthAdjust="spacingAndGlyphs" textLength="18" x="966.25" y="115.0189">yes</text><text fill="#000000" font-family="sans-serif" font-size="11" lengthAdjust="spacingAndGlyphs" textLength="38" x="943.25" y="96.4189">Modifier</text><polygon fill="#FEFECE" filter="url(#f15q7n6vshtzno)" points="914.25,136.5189,1010.25,136.5189,1022.25,148.5189,1010.25,160.5189,914.25,160.5189,902.25,148.5189,914.25,136.5189" style="stroke: #A80036; stroke-width: 1.5;"/><text fill="#000000" font-family="sans-serif" font-size="11" lengthAdjust="spacingAndGlyphs" textLength="96" x="914.25" y="152.1378">VKService available</text><text fill="#000000" font-family="sans-serif" font-size="11" lengthAdjust="spacingAndGlyphs" textLength="18" x="884.25" y="145.5379">yes</text><text fill="#000000" font-family="sans-serif" font-size="11" lengthAdjust="spacingAndGlyphs" textLength="12" x="1022.25" y="145.5379">no</text><rect fill="#FEFECE" filter="url(#f15q7n6vshtzno)" height="34.4001" rx="12.5" ry="12.5" style="stroke: #A80036; stroke-width: 1.5;" width="176" x="802" y="170.5189"/><text fill="#000000" font-family="sans-serif" font-size="12" lengthAdjust="spacingAndGlyphs" textLength="156" x="812" y="191.6669">VKService::toggle_modifier()</text><rect fill="#FEFECE" filter="url(#f15q7n6vshtzno)" height="34.4001" style="stroke: #A80036; stroke-width: 1.5;" width="50" x="865" y="239.5189"/><text fill="#000000" font-family="sans-serif" font-size="12" lengthAdjust="spacingAndGlyphs" textLength="30" x="875" y="260.667">result</text><rect fill="#FEFECE" filter="url(#f15q7n6vshtzno)" height="34.4001" rx="12.5" ry="12.5" style="stroke: #A80036; stroke-width: 1.5;" width="73" x="853.5" y="357.519"/><text fill="#000000" font-family="sans-serif" font-size="12" lengthAdjust="spacingAndGlyphs" textLength="53" x="863.5" y="378.667">Emit error</text><polygon fill="#FEFECE" filter="url(#f15q7n6vshtzno)" points="876.5,308.919,903.5,308.919,915.5,320.919,903.5,332.919,876.5,332.919,864.5,320.919,876.5,308.919" style="stroke: #A80036; stroke-width: 1.5;"/><text fill="#000000" font-family="sans-serif" font-size="11" lengthAdjust="spacingAndGlyphs" textLength="29" x="894" y="343.1379">failure</text><text fill="#000000" font-family="sans-serif" font-size="11" lengthAdjust="spacingAndGlyphs" textLength="27" x="876.5" y="324.538">result</text><text fill="#000000" font-family="sans-serif" font-size="11" lengthAdjust="spacingAndGlyphs" textLength="42" x="915.5" y="317.938">success</text><polygon fill="#FEFECE" filter="url(#f15q7n6vshtzno)" points="890,411.9191,902,423.9191,890,435.9191,878,423.9191,890,411.9191" style="stroke: #A80036; stroke-width: 1.5;"/><rect fill="#FEFECE" filter="url(#f15q7n6vshtzno)" height="34.4001" rx="12.5" ry="12.5" style="stroke: #A80036; stroke-width: 1.5;" width="73" x="998" y="170.5189"/><text fill="#000000" font-family="sans-serif" font-size="12" lengthAdjust="spacingAndGlyphs" textLength="53" x="1008" y="191.6669">Emit error</text><polygon fill="#FEFECE" filter="url(#f15q7n6vshtzno)" points="962.25,441.9191,974.25,453.9191,962.25,465.9191,950.25,453.9191,962.25,441.9191" style="stroke: #A80036; stroke-width: 1.5;"/><polygon fill="#FEFECE" filter="url(#f15q7n6vshtzno)" points="1286,80.7999,1315,80.7999,1327,92.7999,1315,104.7999,1286,104.7999,1274,92.7999,1286,80.7999" style="stroke: #A80036; stroke-width: 1.5;"/><text fill="#000000" font-family="sans-serif" font-size="11" lengthAdjust="spacingAndGlyphs" textLength="18" x="1304.5" y="115.0189">yes</text><text fill="#000000" font-family="sans-serif" font-size="11" lengthAdjust="spacingAndGlyphs" textLength="29" x="1286" y="96.4189">Erase</text><rect fill="#FEFECE" filter="url(#f15q7n6vshtzno)" height="34.4001" rx="12.5" ry="12.5" style="stroke: #A80036; stroke-width: 1.5;" width="161" x="1220" y="185.1188"/><text fill="#000000" font-family="sans-serif" font-size="12" lengthAdjust="spacingAndGlyphs" textLength="141" x="1230" y="206.2669">Erase chars via IMService</text><rect fill="#FEFECE" filter="url(#f15q7n6vshtzno)" height="34.4001" style="stroke: #A80036; stroke-width: 1.5;" width="50" x="1275.5" y="254.1189"/><text fill="#000000" font-family="sans-serif" font-size="12" lengthAdjust="spacingAndGlyphs" textLength="30" x="1285.5" y="275.2669">result</text><polygon fill="#FEFECE" filter="url(#f15q7n6vshtzno)" points="1287,323.519,1314,323.519,1326,335.519,1314,347.519,1287,347.519,1275,335.519,1287,323.519" style="stroke: #A80036; stroke-width: 1.5;"/><text fill="#000000" font-family="sans-serif" font-size="11" lengthAdjust="spacingAndGlyphs" textLength="29" x="1304.5" y="357.7379">failure</text><text fill="#000000" font-family="sans-serif" font-size="11" lengthAdjust="spacingAndGlyphs" textLength="27" x="1287" y="339.1379">result</text><text fill="#000000" font-family="sans-serif" font-size="11" lengthAdjust="spacingAndGlyphs" textLength="42" x="1326" y="332.538">success</text><ellipse cx="1390" cy="335.519" fill="#FFFFFF" filter="url(#f15q7n6vshtzno)" rx="11" ry="11" style="stroke: #000000; stroke-width: 1.0;"/><ellipse cx="1390" cy="335.519" fill="#000000" rx="6" ry="6" style="stroke: #7F7F7F; stroke-width: 1.0;"/><polygon fill="#FEFECE" filter="url(#f15q7n6vshtzno)" points="1253.5,136.5189,1347.5,136.5189,1359.5,148.5189,1347.5,160.5189,1253.5,160.5189,1241.5,148.5189,1253.5,136.5189" style="stroke: #A80036; stroke-width: 1.5;"/><text fill="#000000" font-family="sans-serif" font-size="11" lengthAdjust="spacingAndGlyphs" textLength="18" x="1304.5" y="170.7378">yes</text><text fill="#000000" font-family="sans-serif" font-size="11" lengthAdjust="spacingAndGlyphs" textLength="94" x="1253.5" y="152.1378">IMService available</text><text fill="#000000" font-family="sans-serif" font-size="11" lengthAdjust="spacingAndGlyphs" textLength="12" x="1359.5" y="145.5379">no</text><polygon fill="#FEFECE" filter="url(#f15q7n6vshtzno)" points="1300.5,416.7189,1312.5,428.7189,1300.5,440.7189,1288.5,428.7189,1300.5,416.7189" style="stroke: #A80036; stroke-width: 1.5;"/><polygon fill="#FEFECE" filter="url(#f15q7n6vshtzno)" points="1252.5,475.7189,1348.5,475.7189,1360.5,487.7189,1348.5,499.7189,1252.5,499.7189,1240.5,487.7189,1252.5,475.7189" style="stroke: #A80036; stroke-width: 1.5;"/><text fill="#000000" font-family="sans-serif" font-size="11" lengthAdjust="spacingAndGlyphs" textLength="96" x="1252.5" y="491.3378">VKService available</text><text fill="#000000" font-family="sans-serif" font-size="11" lengthAdjust="spacingAndGlyphs" textLength="18" x="1222.5" y="484.7379">yes</text><text fill="#000000" font-family="sans-serif" font-size="11" lengthAdjust="spacingAndGlyphs" textLength="12" x="1360.5" y="484.7379">no</text><rect fill="#FEFECE" filter="url(#f15q7n6vshtzno)" height="48.8002" style="stroke: #A80036; stroke-width: 1.5;" width="255" x="1081" y="509.7189"/><text fill="#000000" font-family="sans-serif" font-size="12" lengthAdjust="spacingAndGlyphs" textLength="235" x="1091" y="530.8669">Repeatedly send keycode for 'DELETE' key</text><text fill="#000000" font-family="sans-serif" font-size="12" lengthAdjust="spacingAndGlyphs" textLength="33" x="1091" y="545.267">:result</text><rect fill="#FEFECE" filter="url(#f15q7n6vshtzno)" height="34.4001" rx="12.5" ry="12.5" style="stroke: #A80036; stroke-width: 1.5;" width="73" x="1172" y="627.3189"/><text fill="#000000" font-family="sans-serif" font-size="12" lengthAdjust="spacingAndGlyphs" textLength="53" x="1182" y="648.4669">Emit error</text><polygon fill="#FEFECE" filter="url(#f15q7n6vshtzno)" points="1195,578.7189,1222,578.7189,1234,590.7189,1222,602.7189,1195,602.7189,1183,590.7189,1195,578.7189" style="stroke: #A80036; stroke-width: 1.5;"/><text fill="#000000" font-family="sans-serif" font-size="11" lengthAdjust="spacingAndGlyphs" textLength="29" x="1212.5" y="612.9378">failure</text><text fill="#000000" font-family="sans-serif" font-size="11" lengthAdjust="spacingAndGlyphs" textLength="27" x="1195" y="594.3379">result</text><text fill="#000000" font-family="sans-serif" font-size="11" lengthAdjust="spacingAndGlyphs" textLength="42" x="1234" y="587.7379">success</text><polygon fill="#FEFECE" filter="url(#f15q7n6vshtzno)" points="1208.5,686.3189,1220.5,698.3189,1208.5,710.3189,1196.5,698.3189,1208.5,686.3189" style="stroke: #A80036; stroke-width: 1.5;"/><rect fill="#FEFECE" filter="url(#f15q7n6vshtzno)" height="34.4001" rx="12.5" ry="12.5" style="stroke: #A80036; stroke-width: 1.5;" width="73" x="1356" y="509.7189"/><text fill="#000000" font-family="sans-serif" font-size="12" lengthAdjust="spacingAndGlyphs" textLength="53" x="1366" y="530.8669">Emit error</text><polygon fill="#FEFECE" filter="url(#f15q7n6vshtzno)" points="1300.5,716.3189,1312.5,728.3189,1300.5,740.3189,1288.5,728.3189,1300.5,716.3189" style="stroke: #A80036; stroke-width: 1.5;"/><ellipse cx="748" cy="875.5188" fill="#FFFFFF" filter="url(#f15q7n6vshtzno)" rx="11" ry="11" style="stroke: #000000; stroke-width: 1.0;"/><ellipse cx="748" cy="875.5188" fill="#000000" rx="6" ry="6" style="stroke: #7F7F7F; stroke-width: 1.0;"/><line style="stroke: #A80036; stroke-width: 1.5;" x1="113.5" x2="113.5" y1="219.5189" y2="254.1189"/><polygon fill="#A80036" points="109.5,244.1189,113.5,254.1189,117.5,244.1189,113.5,248.1189" style="stroke: #A80036; stroke-width: 1.0;"/><line style="stroke: #A80036; stroke-width: 1.5;" x1="113.5" x2="113.5" y1="347.519" y2="416.7189"/><polygon fill="#A80036" points="109.5,406.7189,113.5,416.7189,117.5,406.7189,113.5,410.7189" style="stroke: #A80036; stroke-width: 1.0;"/><line style="stroke: #A80036; stroke-width: 1.5;" x1="139" x2="192" y1="335.519" y2="335.519"/><polygon fill="#A80036" points="182,331.519,192,335.519,182,339.519,186,335.519" style="stroke: #A80036; stroke-width: 1.0;"/><line style="stroke: #A80036; stroke-width: 1.5;" x1="113.5" x2="113.5" y1="288.519" y2="323.519"/><polygon fill="#A80036" points="109.5,313.519,113.5,323.519,117.5,313.519,113.5,317.519" style="stroke: #A80036; stroke-width: 1.0;"/><line style="stroke: #A80036; stroke-width: 1.5;" x1="113.5" x2="113.5" y1="160.5189" y2="185.1188"/><polygon fill="#A80036" points="109.5,175.1188,113.5,185.1188,117.5,175.1188,113.5,179.1188" style="stroke: #A80036; stroke-width: 1.0;"/><line style="stroke: #A80036; stroke-width: 1.5;" x1="172.5" x2="228" y1="148.5189" y2="148.5189"/><polygon fill="#A80036" points="224,280.7188,228,290.7188,232,280.7188,228,284.7188" style="stroke: #A80036; stroke-width: 1.5;"/><line style="stroke: #A80036; stroke-width: 1.5;" x1="228" x2="228" y1="148.5189" y2="428.7189"/><line style="stroke: #A80036; stroke-width: 1.5;" x1="228" x2="125.5" y1="428.7189" y2="428.7189"/><polygon fill="#A80036" points="135.5,424.7189,125.5,428.7189,135.5,432.7189,131.5,428.7189" style="stroke: #A80036; stroke-width: 1.0;"/><line style="stroke: #A80036; stroke-width: 1.5;" x1="113.5" x2="113.5" y1="558.7189" y2="578.9188"/><polygon fill="#A80036" points="109.5,568.9188,113.5,578.9188,117.5,568.9188,113.5,572.9188" style="stroke: #A80036; stroke-width: 1.0;"/><line style="stroke: #A80036; stroke-width: 1.5;" x1="113.5" x2="113.5" y1="672.3189" y2="746.1187"/><polygon fill="#A80036" points="109.5,736.1187,113.5,746.1187,117.5,736.1187,113.5,740.1187" style="stroke: #A80036; stroke-width: 1.0;"/><line style="stroke: #A80036; stroke-width: 1.5;" x1="139" x2="192" y1="660.3189" y2="660.3189"/><polygon fill="#A80036" points="182,656.3189,192,660.3189,182,664.3189,186,660.3189" style="stroke: #A80036; stroke-width: 1.0;"/><line style="stroke: #A80036; stroke-width: 1.5;" x1="113.5" x2="113.5" y1="613.3189" y2="648.3189"/><polygon fill="#A80036" points="109.5,638.3189,113.5,648.3189,117.5,638.3189,113.5,642.3189" style="stroke: #A80036; stroke-width: 1.0;"/><line style="stroke: #A80036; stroke-width: 1.5;" x1="113.5" x2="113.5" y1="499.7189" y2="524.3188"/><polygon fill="#A80036" points="109.5,514.3188,113.5,524.3188,117.5,514.3188,113.5,518.3188" style="stroke: #A80036; stroke-width: 1.0;"/><line style="stroke: #A80036; stroke-width: 1.5;" x1="173.5" x2="228" y1="487.7189" y2="487.7189"/><polygon fill="#A80036" points="224,605.5187,228,615.5187,232,605.5187,228,609.5187" style="stroke: #A80036; stroke-width: 1.5;"/><line style="stroke: #A80036; stroke-width: 1.5;" x1="228" x2="228" y1="487.7189" y2="758.1187"/><line style="stroke: #A80036; stroke-width: 1.5;" x1="228" x2="125.5" y1="758.1187" y2="758.1187"/><polygon fill="#A80036" points="135.5,754.1187,125.5,758.1187,135.5,762.1187,131.5,758.1187" style="stroke: #A80036; stroke-width: 1.0;"/><line style="stroke: #A80036; stroke-width: 1.5;" x1="113.5" x2="113.5" y1="440.7189" y2="475.7189"/><polygon fill="#A80036" points="109.5,465.7189,113.5,475.7189,117.5,465.7189,113.5,469.7189" style="stroke: #A80036; stroke-width: 1.0;"/><line style="stroke: #A80036; stroke-width: 1.5;" x1="113.5" x2="113.5" y1="770.1187" y2="790.1187"/><polygon fill="#A80036" points="109.5,780.1187,113.5,790.1187,117.5,780.1187,113.5,784.1187" style="stroke: #A80036; stroke-width: 1.0;"/><line style="stroke: #A80036; stroke-width: 1.5;" x1="339.5" x2="339.5" y1="204.919" y2="239.5189"/><polygon fill="#A80036" points="335.5,229.5189,339.5,239.5189,343.5,229.5189,339.5,233.5189" style="stroke: #A80036; stroke-width: 1.0;"/><line style="stroke: #A80036; stroke-width: 1.5;" x1="339.5" x2="339.5" y1="332.919" y2="357.519"/><polygon fill="#A80036" points="335.5,347.519,339.5,357.519,343.5,347.519,339.5,351.519" style="stroke: #A80036; stroke-width: 1.0;"/><line style="stroke: #A80036; stroke-width: 1.5;" x1="365" x2="386" y1="320.919" y2="320.919"/><polygon fill="#A80036" points="382,364.719,386,374.719,390,364.719,386,368.719" style="stroke: #A80036; stroke-width: 1.5;"/><line style="stroke: #A80036; stroke-width: 1.5;" x1="386" x2="386" y1="320.919" y2="423.9191"/><line style="stroke: #A80036; stroke-width: 1.5;" x1="386" x2="351.5" y1="423.9191" y2="423.9191"/><polygon fill="#A80036" points="361.5,419.9191,351.5,423.9191,361.5,427.9191,357.5,423.9191" style="stroke: #A80036; stroke-width: 1.0;"/><line style="stroke: #A80036; stroke-width: 1.5;" x1="339.5" x2="339.5" y1="391.9191" y2="411.9191"/><polygon fill="#A80036" points="335.5,401.9191,339.5,411.9191,343.5,401.9191,339.5,405.9191" style="stroke: #A80036; stroke-width: 1.0;"/><line style="stroke: #A80036; stroke-width: 1.5;" x1="339.5" x2="339.5" y1="273.919" y2="308.919"/><polygon fill="#A80036" points="335.5,298.919,339.5,308.919,343.5,298.919,339.5,302.919" style="stroke: #A80036; stroke-width: 1.0;"/><line style="stroke: #A80036; stroke-width: 1.5;" x1="356.5" x2="339.5" y1="148.5189" y2="148.5189"/><line style="stroke: #A80036; stroke-width: 1.5;" x1="339.5" x2="339.5" y1="148.5189" y2="170.5189"/><polygon fill="#A80036" points="335.5,160.5189,339.5,170.5189,343.5,160.5189,339.5,164.5189" style="stroke: #A80036; stroke-width: 1.0;"/><line style="stroke: #A80036; stroke-width: 1.5;" x1="476.5" x2="493.5" y1="148.5189" y2="148.5189"/><line style="stroke: #A80036; stroke-width: 1.5;" x1="493.5" x2="493.5" y1="148.5189" y2="170.5189"/><polygon fill="#A80036" points="489.5,160.5189,493.5,170.5189,497.5,160.5189,493.5,164.5189" style="stroke: #A80036; stroke-width: 1.0;"/><line style="stroke: #A80036; stroke-width: 1.5;" x1="339.5" x2="339.5" y1="435.9191" y2="453.9191"/><line style="stroke: #A80036; stroke-width: 1.5;" x1="339.5" x2="404.5" y1="453.9191" y2="453.9191"/><polygon fill="#A80036" points="394.5,449.9191,404.5,453.9191,394.5,457.9191,398.5,453.9191" style="stroke: #A80036; stroke-width: 1.0;"/><line style="stroke: #A80036; stroke-width: 1.5;" x1="493.5" x2="493.5" y1="204.919" y2="453.9191"/><line style="stroke: #A80036; stroke-width: 1.5;" x1="493.5" x2="428.5" y1="453.9191" y2="453.9191"/><polygon fill="#A80036" points="438.5,449.9191,428.5,453.9191,438.5,457.9191,434.5,453.9191" style="stroke: #A80036; stroke-width: 1.0;"/><line style="stroke: #A80036; stroke-width: 1.5;" x1="615.5" x2="615.5" y1="204.919" y2="239.5189"/><polygon fill="#A80036" points="611.5,229.5189,615.5,239.5189,619.5,229.5189,615.5,233.5189" style="stroke: #A80036; stroke-width: 1.0;"/><line style="stroke: #A80036; stroke-width: 1.5;" x1="615.5" x2="615.5" y1="332.919" y2="357.519"/><polygon fill="#A80036" points="611.5,347.519,615.5,357.519,619.5,347.519,615.5,351.519" style="stroke: #A80036; stroke-width: 1.0;"/><line style="stroke: #A80036; stroke-width: 1.5;" x1="641" x2="662" y1="320.919" y2="320.919"/><polygon fill="#A80036" points="658,364.719,662,374.719,666,364.719,662,368.719" style="stroke: #A80036; stroke-width: 1.5;"/><line style="stroke: #A80036; stroke-width: 1.5;" x1="662" x2="662" y1="320.919" y2="423.9191"/><line style="stroke: #A80036; stroke-width: 1.5;" x1="662" x2="627.5" y1="423.9191" y2="423.9191"/><polygon fill="#A80036" points="637.5,419.9191,627.5,423.9191,637.5,427.9191,633.5,423.9191" style="stroke: #A80036; stroke-width: 1.0;"/><line style="stroke: #A80036; stroke-width: 1.5;" x1="615.5" x2="615.5" y1="391.9191" y2="411.9191"/><polygon fill="#A80036" points="611.5,401.9191,615.5,411.9191,619.5,401.9191,615.5,405.9191" style="stroke: #A80036; stroke-width: 1.0;"/><line style="stroke: #A80036; stroke-width: 1.5;" x1="615.5" x2="615.5" y1="273.919" y2="308.919"/><polygon fill="#A80036" points="611.5,298.919,615.5,308.919,619.5,298.919,615.5,302.919" style="stroke: #A80036; stroke-width: 1.0;"/><line style="stroke: #A80036; stroke-width: 1.5;" x1="625.5" x2="615.5" y1="148.5189" y2="148.5189"/><line style="stroke: #A80036; stroke-width: 1.5;" x1="615.5" x2="615.5" y1="148.5189" y2="170.5189"/><polygon fill="#A80036" points="611.5,160.5189,615.5,170.5189,619.5,160.5189,615.5,164.5189" style="stroke: #A80036; stroke-width: 1.0;"/><line style="stroke: #A80036; stroke-width: 1.5;" x1="745.5" x2="755.5" y1="148.5189" y2="148.5189"/><line style="stroke: #A80036; stroke-width: 1.5;" x1="755.5" x2="755.5" y1="148.5189" y2="170.5189"/><polygon fill="#A80036" points="751.5,160.5189,755.5,170.5189,759.5,160.5189,755.5,164.5189" style="stroke: #A80036; stroke-width: 1.0;"/><line style="stroke: #A80036; stroke-width: 1.5;" x1="615.5" x2="615.5" y1="435.9191" y2="453.9191"/><line style="stroke: #A80036; stroke-width: 1.5;" x1="615.5" x2="673.5" y1="453.9191" y2="453.9191"/><polygon fill="#A80036" points="663.5,449.9191,673.5,453.9191,663.5,457.9191,667.5,453.9191" style="stroke: #A80036; stroke-width: 1.0;"/><line style="stroke: #A80036; stroke-width: 1.5;" x1="755.5" x2="755.5" y1="204.919" y2="453.9191"/><line style="stroke: #A80036; stroke-width: 1.5;" x1="755.5" x2="697.5" y1="453.9191" y2="453.9191"/><polygon fill="#A80036" points="707.5,449.9191,697.5,453.9191,707.5,457.9191,703.5,453.9191" style="stroke: #A80036; stroke-width: 1.0;"/><line style="stroke: #A80036; stroke-width: 1.5;" x1="890" x2="890" y1="204.919" y2="239.5189"/><polygon fill="#A80036" points="886,229.5189,890,239.5189,894,229.5189,890,233.5189" style="stroke: #A80036; stroke-width: 1.0;"/><line style="stroke: #A80036; stroke-width: 1.5;" x1="890" x2="890" y1="332.919" y2="357.519"/><polygon fill="#A80036" points="886,347.519,890,357.519,894,347.519,890,351.519" style="stroke: #A80036; stroke-width: 1.0;"/><line style="stroke: #A80036; stroke-width: 1.5;" x1="915.5" x2="936.5" y1="320.919" y2="320.919"/><polygon fill="#A80036" points="932.5,364.719,936.5,374.719,940.5,364.719,936.5,368.719" style="stroke: #A80036; stroke-width: 1.5;"/><line style="stroke: #A80036; stroke-width: 1.5;" x1="936.5" x2="936.5" y1="320.919" y2="423.9191"/><line style="stroke: #A80036; stroke-width: 1.5;" x1="936.5" x2="902" y1="423.9191" y2="423.9191"/><polygon fill="#A80036" points="912,419.9191,902,423.9191,912,427.9191,908,423.9191" style="stroke: #A80036; stroke-width: 1.0;"/><line style="stroke: #A80036; stroke-width: 1.5;" x1="890" x2="890" y1="391.9191" y2="411.9191"/><polygon fill="#A80036" points="886,401.9191,890,411.9191,894,401.9191,890,405.9191" style="stroke: #A80036; stroke-width: 1.0;"/><line style="stroke: #A80036; stroke-width: 1.5;" x1="890" x2="890" y1="273.919" y2="308.919"/><polygon fill="#A80036" points="886,298.919,890,308.919,894,298.919,890,302.919" style="stroke: #A80036; stroke-width: 1.0;"/><line style="stroke: #A80036; stroke-width: 1.5;" x1="902.25" x2="890" y1="148.5189" y2="148.5189"/><line style="stroke: #A80036; stroke-width: 1.5;" x1="890" x2="890" y1="148.5189" y2="170.5189"/><polygon fill="#A80036" points="886,160.5189,890,170.5189,894,160.5189,890,164.5189" style="stroke: #A80036; stroke-width: 1.0;"/><line style="stroke: #A80036; stroke-width: 1.5;" x1="1022.25" x2="1034.5" y1="148.5189" y2="148.5189"/><line style="stroke: #A80036; stroke-width: 1.5;" x1="1034.5" x2="1034.5" y1="148.5189" y2="170.5189"/><polygon fill="#A80036" points="1030.5,160.5189,1034.5,170.5189,1038.5,160.5189,1034.5,164.5189" style="stroke: #A80036; stroke-width: 1.0;"/><line style="stroke: #A80036; stroke-width: 1.5;" x1="890" x2="890" y1="435.9191" y2="453.9191"/><line style="stroke: #A80036; stroke-width: 1.5;" x1="890" x2="950.25" y1="453.9191" y2="453.9191"/><polygon fill="#A80036" points="940.25,449.9191,950.25,453.9191,940.25,457.9191,944.25,453.9191" style="stroke: #A80036; stroke-width: 1.0;"/><line style="stroke: #A80036; stroke-width: 1.5;" x1="1034.5" x2="1034.5" y1="204.919" y2="453.9191"/><line style="stroke: #A80036; stroke-width: 1.5;" x1="1034.5" x2="974.25" y1="453.9191" y2="453.9191"/><polygon fill="#A80036" points="984.25,449.9191,974.25,453.9191,984.25,457.9191,980.25,453.9191" style="stroke: #A80036; stroke-width: 1.0;"/><line style="stroke: #A80036; stroke-width: 1.5;" x1="1300.5" x2="1300.5" y1="219.5189" y2="254.1189"/><polygon fill="#A80036" points="1296.5,244.1189,1300.5,254.1189,1304.5,244.1189,1300.5,248.1189" style="stroke: #A80036; stroke-width: 1.0;"/><line style="stroke: #A80036; stroke-width: 1.5;" x1="1300.5" x2="1300.5" y1="347.519" y2="416.7189"/><polygon fill="#A80036" points="1296.5,406.7189,1300.5,416.7189,1304.5,406.7189,1300.5,410.7189" style="stroke: #A80036; stroke-width: 1.0;"/><line style="stroke: #A80036; stroke-width: 1.5;" x1="1326" x2="1379" y1="335.519" y2="335.519"/><polygon fill="#A80036" points="1369,331.519,1379,335.519,1369,339.519,1373,335.519" style="stroke: #A80036; stroke-width: 1.0;"/><line style="stroke: #A80036; stroke-width: 1.5;" x1="1300.5" x2="1300.5" y1="288.519" y2="323.519"/><polygon fill="#A80036" points="1296.5,313.519,1300.5,323.519,1304.5,313.519,1300.5,317.519" style="stroke: #A80036; stroke-width: 1.0;"/><line style="stroke: #A80036; stroke-width: 1.5;" x1="1300.5" x2="1300.5" y1="160.5189" y2="185.1188"/><polygon fill="#A80036" points="1296.5,175.1188,1300.5,185.1188,1304.5,175.1188,1300.5,179.1188" style="stroke: #A80036; stroke-width: 1.0;"/><line style="stroke: #A80036; stroke-width: 1.5;" x1="1359.5" x2="1423" y1="148.5189" y2="148.5189"/><polygon fill="#A80036" points="1419,280.7188,1423,290.7188,1427,280.7188,1423,284.7188" style="stroke: #A80036; stroke-width: 1.5;"/><line style="stroke: #A80036; stroke-width: 1.5;" x1="1423" x2="1423" y1="148.5189" y2="428.7189"/><line style="stroke: #A80036; stroke-width: 1.5;" x1="1423" x2="1312.5" y1="428.7189" y2="428.7189"/><polygon fill="#A80036" points="1322.5,424.7189,1312.5,428.7189,1322.5,432.7189,1318.5,428.7189" style="stroke: #A80036; stroke-width: 1.0;"/><line style="stroke: #A80036; stroke-width: 1.5;" x1="1208.5" x2="1208.5" y1="602.7189" y2="627.3189"/><polygon fill="#A80036" points="1204.5,617.3189,1208.5,627.3189,1212.5,617.3189,1208.5,621.3189" style="stroke: #A80036; stroke-width: 1.0;"/><line style="stroke: #A80036; stroke-width: 1.5;" x1="1234" x2="1255" y1="590.7189" y2="590.7189"/><polygon fill="#A80036" points="1251,634.5189,1255,644.5189,1259,634.5189,1255,638.5189" style="stroke: #A80036; stroke-width: 1.5;"/><line style="stroke: #A80036; stroke-width: 1.5;" x1="1255" x2="1255" y1="590.7189" y2="698.3189"/><line style="stroke: #A80036; stroke-width: 1.5;" x1="1255" x2="1220.5" y1="698.3189" y2="698.3189"/><polygon fill="#A80036" points="1230.5,694.3189,1220.5,698.3189,1230.5,702.3189,1226.5,698.3189" style="stroke: #A80036; stroke-width: 1.0;"/><line style="stroke: #A80036; stroke-width: 1.5;" x1="1208.5" x2="1208.5" y1="661.719" y2="686.3189"/><polygon fill="#A80036" points="1204.5,676.3189,1208.5,686.3189,1212.5,676.3189,1208.5,680.3189" style="stroke: #A80036; stroke-width: 1.0;"/><line style="stroke: #A80036; stroke-width: 1.5;" x1="1208.5" x2="1208.5" y1="558.5191" y2="578.7189"/><polygon fill="#A80036" points="1204.5,568.7189,1208.5,578.7189,1212.5,568.7189,1208.5,572.7189" style="stroke: #A80036; stroke-width: 1.0;"/><line style="stroke: #A80036; stroke-width: 1.5;" x1="1240.5" x2="1208.5" y1="487.7189" y2="487.7189"/><line style="stroke: #A80036; stroke-width: 1.5;" x1="1208.5" x2="1208.5" y1="487.7189" y2="509.7189"/><polygon fill="#A80036" points="1204.5,499.7189,1208.5,509.7189,1212.5,499.7189,1208.5,503.7189" style="stroke: #A80036; stroke-width: 1.0;"/><line style="stroke: #A80036; stroke-width: 1.5;" x1="1360.5" x2="1392.5" y1="487.7189" y2="487.7189"/><line style="stroke: #A80036; stroke-width: 1.5;" x1="1392.5" x2="1392.5" y1="487.7189" y2="509.7189"/><polygon fill="#A80036" points="1388.5,499.7189,1392.5,509.7189,1396.5,499.7189,1392.5,503.7189" style="stroke: #A80036; stroke-width: 1.0;"/><line style="stroke: #A80036; stroke-width: 1.5;" x1="1208.5" x2="1208.5" y1="710.3189" y2="728.3189"/><line style="stroke: #A80036; stroke-width: 1.5;" x1="1208.5" x2="1288.5" y1="728.3189" y2="728.3189"/><polygon fill="#A80036" points="1278.5,724.3189,1288.5,728.3189,1278.5,732.3189,1282.5,728.3189" style="stroke: #A80036; stroke-width: 1.0;"/><line style="stroke: #A80036; stroke-width: 1.5;" x1="1392.5" x2="1392.5" y1="544.119" y2="728.3189"/><line style="stroke: #A80036; stroke-width: 1.5;" x1="1392.5" x2="1312.5" y1="728.3189" y2="728.3189"/><polygon fill="#A80036" points="1322.5,724.3189,1312.5,728.3189,1322.5,732.3189,1318.5,728.3189" style="stroke: #A80036; stroke-width: 1.0;"/><line style="stroke: #A80036; stroke-width: 1.5;" x1="1300.5" x2="1300.5" y1="440.7189" y2="475.7189"/><polygon fill="#A80036" points="1296.5,465.7189,1300.5,475.7189,1304.5,465.7189,1300.5,469.7189" style="stroke: #A80036; stroke-width: 1.0;"/><line style="stroke: #A80036; stroke-width: 1.5;" x1="113.5" x2="113.5" y1="104.7999" y2="136.5189"/><polygon fill="#A80036" points="109.5,126.5189,113.5,136.5189,117.5,126.5189,113.5,130.5189" style="stroke: #A80036; stroke-width: 1.0;"/><line style="stroke: #A80036; stroke-width: 1.5;" x1="113.5" x2="113.5" y1="824.5188" y2="844.5188"/><polygon fill="#A80036" points="109.5,834.5188,113.5,844.5188,117.5,834.5188,113.5,838.5188" style="stroke: #A80036; stroke-width: 1.0;"/><line style="stroke: #A80036; stroke-width: 1.5;" x1="416.5" x2="416.5" y1="104.7999" y2="136.5189"/><polygon fill="#A80036" points="412.5,126.5189,416.5,136.5189,420.5,126.5189,416.5,130.5189" style="stroke: #A80036; stroke-width: 1.0;"/><line style="stroke: #A80036; stroke-width: 1.5;" x1="416.5" x2="416.5" y1="465.9191" y2="844.5188"/><polygon fill="#A80036" points="412.5,834.5188,416.5,844.5188,420.5,834.5188,416.5,838.5188" style="stroke: #A80036; stroke-width: 1.0;"/><line style="stroke: #A80036; stroke-width: 1.5;" x1="685.5" x2="685.5" y1="104.7999" y2="136.5189"/><polygon fill="#A80036" points="681.5,126.5189,685.5,136.5189,689.5,126.5189,685.5,130.5189" style="stroke: #A80036; stroke-width: 1.0;"/><line style="stroke: #A80036; stroke-width: 1.5;" x1="685.5" x2="685.5" y1="465.9191" y2="844.5188"/><polygon fill="#A80036" points="681.5,834.5188,685.5,844.5188,689.5,834.5188,685.5,838.5188" style="stroke: #A80036; stroke-width: 1.0;"/><line style="stroke: #A80036; stroke-width: 1.5;" x1="962.25" x2="962.25" y1="104.7999" y2="136.5189"/><polygon fill="#A80036" points="958.25,126.5189,962.25,136.5189,966.25,126.5189,962.25,130.5189" style="stroke: #A80036; stroke-width: 1.0;"/><line style="stroke: #A80036; stroke-width: 1.5;" x1="962.25" x2="962.25" y1="465.9191" y2="844.5188"/><polygon fill="#A80036" points="958.25,834.5188,962.25,844.5188,966.25,834.5188,962.25,838.5188" style="stroke: #A80036; stroke-width: 1.0;"/><line style="stroke: #A80036; stroke-width: 1.5;" x1="1300.5" x2="1300.5" y1="104.7999" y2="136.5189"/><polygon fill="#A80036" points="1296.5,126.5189,1300.5,136.5189,1304.5,126.5189,1300.5,130.5189" style="stroke: #A80036; stroke-width: 1.0;"/><line style="stroke: #A80036; stroke-width: 1.5;" x1="1300.5" x2="1300.5" y1="740.3189" y2="844.5188"/><polygon fill="#A80036" points="1296.5,834.5188,1300.5,844.5188,1304.5,834.5188,1300.5,838.5188" style="stroke: #A80036; stroke-width: 1.0;"/><line style="stroke: #A80036; stroke-width: 1.5;" x1="170.5" x2="383" y1="92.7999" y2="92.7999"/><polygon fill="#A80036" points="373,88.7999,383,92.7999,373,96.7999,377,92.7999" style="stroke: #A80036; stroke-width: 1.0;"/><line style="stroke: #A80036; stroke-width: 1.5;" x1="450" x2="635.5" y1="92.7999" y2="92.7999"/><polygon fill="#A80036" points="625.5,88.7999,635.5,92.7999,625.5,96.7999,629.5,92.7999" style="stroke: #A80036; stroke-width: 1.0;"/><line style="stroke: #A80036; stroke-width: 1.5;" x1="735.5" x2="931.25" y1="92.7999" y2="92.7999"/><polygon fill="#A80036" points="921.25,88.7999,931.25,92.7999,921.25,96.7999,925.25,92.7999" style="stroke: #A80036; stroke-width: 1.0;"/><line style="stroke: #A80036; stroke-width: 1.5;" x1="993.25" x2="1274" y1="92.7999" y2="92.7999"/><polygon fill="#A80036" points="1264,88.7999,1274,92.7999,1264,96.7999,1268,92.7999" style="stroke: #A80036; stroke-width: 1.0;"/><line style="stroke: #A80036; stroke-width: 1.5;" x1="748" x2="748" y1="60.7999" y2="65.7999"/><line style="stroke: #A80036; stroke-width: 1.5;" x1="748" x2="113.5" y1="65.7999" y2="65.7999"/><line style="stroke: #A80036; stroke-width: 1.5;" x1="113.5" x2="113.5" y1="65.7999" y2="80.7999"/><polygon fill="#A80036" points="109.5,70.7999,113.5,80.7999,117.5,70.7999,113.5,74.7999" style="stroke: #A80036; stroke-width: 1.0;"/><line style="stroke: #A80036; stroke-width: 1.5;" x1="1327" x2="1443" y1="92.7999" y2="92.7999"/><line style="stroke: #A80036; stroke-width: 1.5;" x1="1443" x2="1443" y1="92.7999" y2="844.5188"/><polygon fill="#A80036" points="1439,834.5188,1443,844.5188,1447,834.5188,1443,838.5188" style="stroke: #A80036; stroke-width: 1.0;"/><line style="stroke: #A80036; stroke-width: 1.5;" x1="113.5" x2="1443" y1="844.5188" y2="844.5188"/><line style="stroke: #A80036; stroke-width: 1.5;" x1="748" x2="748" y1="844.5188" y2="864.5188"/><polygon fill="#A80036" points="744,854.5188,748,864.5188,752,854.5188,748,858.5188" style="stroke: #A80036; stroke-width: 1.0;"/><!--MD5=[68cd6e189c455138d7cc9011127ad397]
@startuml submitter_submit

partition "submitter_submit"{

  start
  if (Check submission) then (Text)
    if (IMService available) then (yes)
      :Submit text via IMService;
      :result]
      if (result) then (success)
        stop
      else (failure)
      endif
    else (no)
    endif
    if (VKService available) then (yes)
      :VKService::send_unicode_str;
      :result]
      if (result) then (success)
        stop
      else (failure)
      endif
    endif
    :Emit error;
  elseif (Keycode) then (yes)
    if (VKService available) then (yes)
      :VKService::press_release_key();
      :result]
      if (result) then (success)
      else (failure)
        :Emit error;
      endif
    else (no)
      :Emit error;
    endif
  elseif (ToggleKeycode) then (yes)
    if (VKService available) then (yes)
      :VKService::toggle_key();
      :result]
      if (result) then (success)
      else (failure)
        :Emit error;
      endif
    else (no)
      :Emit error;
    endif
  elseif (Modifier) then (yes)
    if (VKService available) then (yes)
      :VKService::toggle_modifier();
      :result]
      if (result) then (success)
      else (failure)
        :Emit error;
      endif
    else (no)
      :Emit error;
    endif
  elseif (Erase) then (yes)



    if (IMService available) then (yes)
      :Erase chars via IMService;
      :result]
      if (result) then (success)
        stop
      else (failure)
      endif
    else (no)
    endif
    if (VKService available) then (yes)
      :Repeatedly send keycode for 'DELETE' key
      :result]
      if (result) then (success)
      else (failure)
        :Emit error;
      endif
    else (no)
      :Emit error;
    endif
  endif
  stop
}
@enduml

PlantUML version 1.2020.15(Sun Jun 28 13:39:45 CEST 2020)
(MIT source distribution)
Java Runtime: OpenJDK Runtime Environment
JVM: OpenJDK 64-Bit Server VM
Default Encoding: UTF-8
Language: en
Country: US
--></g></svg>