<?xml version="1.0" encoding="UTF-8" standalone="no"?><svg xmlns="http://www.w3.org/2000/svg" xmlns:xlink="http://www.w3.org/1999/xlink" contentScriptType="application/ecmascript" contentStyleType="text/css" height="1016px" preserveAspectRatio="none" style="width:546px;height:1016px;" version="1.1" viewBox="0 0 546 1016" width="546px" zoomAndPan="magnify"><defs><filter height="300%" id="f1nq64yuvxxohq" width="300%" x="-1" y="-1"><feGaussianBlur result="blurOut" stdDeviation="2.0"/><feColorMatrix in="blurOut" result="blurOut2" type="matrix" values="0 0 0 0 0 0 0 0 0 0 0 0 0 0 0 0 0 0 .4 0"/><feOffset dx="4.0" dy="4.0" in="blurOut2" result="blurOut3"/><feBlend in="SourceGraphic" in2="blurOut3" mode="normal"/></filter></defs><g><rect fill="#FFFFFF" filter="url(#f1nq64yuvxxohq)" height="988.9988" style="stroke: #000000; stroke-width: 2.0;" width="518" x="11" y="11"/><path d="M270,11 L270,20.7999 L260,30.7999 L11,30.7999 " fill="none" style="stroke: #000000; stroke-width: 2.0;"/><text fill="#000000" font-family="sans-serif" font-size="14" lengthAdjust="spacingAndGlyphs" textLength="249" x="14" y="25.0059">GestureModel::convert_to_interaction()</text><ellipse cx="270" cy="50.7999" fill="#000000" filter="url(#f1nq64yuvxxohq)" rx="10" ry="10" style="stroke: none; stroke-width: 1.0;"/><rect fill="#CCCCCC" filter="url(#f1nq64yuvxxohq)" height="33.1999" style="stroke: #1A66C2; stroke-width: 1.5;" width="151" x="267.5" y="104.7999"/><text fill="#000000" font-family="Verdana" font-size="11" lengthAdjust="spacingAndGlyphs" textLength="131" x="277.5" y="125.0189">Interaction::TapShortPress</text><rect fill="#CCCCCC" filter="url(#f1nq64yuvxxohq)" height="33.1999" style="stroke: #1A66C2; stroke-width: 1.5;" width="149" x="268.5" y="181.9998"/><text fill="#000000" font-family="Verdana" font-size="11" lengthAdjust="spacingAndGlyphs" textLength="129" x="278.5" y="202.2188">Interaction::TapLongPress</text><rect fill="#CCCCCC" filter="url(#f1nq64yuvxxohq)" height="33.1999" rx="12.5" ry="12.5" style="stroke: #1A66C2; stroke-width: 1.5;" width="132" x="277" y="259.1997"/><text fill="#000000" font-family="Verdana" font-size="11" lengthAdjust="spacingAndGlyphs" textLength="112" x="287" y="279.4187">Add point to swipe path</text><rect fill="#CCCCCC" filter="url(#f1nq64yuvxxohq)" height="33.1999" style="stroke: #1A66C2; stroke-width: 1.5;" width="133" x="386" y="336.3996"/><text fill="#000000" font-family="Verdana" font-size="11" lengthAdjust="spacingAndGlyphs" textLength="113" x="396" y="356.6186">Interaction::SwipeBegin</text><rect fill="#CCCCCC" filter="url(#f1nq64yuvxxohq)" height="33.1999" style="stroke: #1A66C2; stroke-width: 1.5;" width="133" x="386" y="413.5995"/><text fill="#000000" font-family="Verdana" font-size="11" lengthAdjust="spacingAndGlyphs" textLength="113" x="396" y="433.8185">Interaction::SwipeBegin</text><polygon fill="#CCCCCC" filter="url(#f1nq64yuvxxohq)" points="179,312.3996,374,312.3996,386,324.3996,374,336.3996,179,336.3996,167,324.3996,179,312.3996" style="stroke: #1A66C2; stroke-width: 1.5;"/><text fill="#333333" font-family="Verdana" font-size="11" lengthAdjust="spacingAndGlyphs" textLength="195" x="179" y="328.0186">Previous interpretation was NoGesture?</text><text fill="#333333" font-family="Verdana" font-size="11" lengthAdjust="spacingAndGlyphs" textLength="18" x="386" y="321.4187">yes</text><polygon fill="#CCCCCC" filter="url(#f1nq64yuvxxohq)" points="247,389.5995,306,389.5995,318,401.5995,306,413.5995,247,413.5995,235,401.5995,247,389.5995" style="stroke: #1A66C2; stroke-width: 1.5;"/><text fill="#333333" font-family="Verdana" font-size="11" lengthAdjust="spacingAndGlyphs" textLength="56" x="280.5" y="423.8185">no (Swipe))</text><text fill="#333333" font-family="Verdana" font-size="11" lengthAdjust="spacingAndGlyphs" textLength="59" x="247" y="405.2185">LongPress?</text><text fill="#333333" font-family="Verdana" font-size="11" lengthAdjust="spacingAndGlyphs" textLength="18" x="318" y="398.6186">yes</text><rect fill="#CCCCCC" filter="url(#f1nq64yuvxxohq)" height="33.1999" style="stroke: #1A66C2; stroke-width: 1.5;" width="141" x="272.5" y="466.7994"/><text fill="#000000" font-family="Verdana" font-size="11" lengthAdjust="spacingAndGlyphs" textLength="121" x="282.5" y="487.0184">Interaction::SwipeUpdate</text><polygon fill="#CCCCCC" filter="url(#f1nq64yuvxxohq)" points="343,519.9993,355,531.9993,343,543.9993,331,531.9993,343,519.9993" style="stroke: #1A66C2; stroke-width: 1.5;"/><polygon fill="#CCCCCC" filter="url(#f1nq64yuvxxohq)" points="33,80.7999,155,80.7999,167,92.7999,155,104.7999,33,104.7999,21,92.7999,33,80.7999" style="stroke: #1A66C2; stroke-width: 1.5;"/><text fill="#333333" font-family="Verdana" font-size="11" lengthAdjust="spacingAndGlyphs" textLength="122" x="33" y="96.4189">Interaction is DragBegin?</text><text fill="#333333" font-family="Verdana" font-size="11" lengthAdjust="spacingAndGlyphs" textLength="18" x="167" y="89.8189">yes</text><polygon fill="#CCCCCC" filter="url(#f1nq64yuvxxohq)" points="67.5,157.9998,120.5,157.9998,132.5,169.9998,120.5,181.9998,67.5,181.9998,55.5,169.9998,67.5,157.9998" style="stroke: #1A66C2; stroke-width: 1.5;"/><text fill="#333333" font-family="Verdana" font-size="11" lengthAdjust="spacingAndGlyphs" textLength="53" x="67.5" y="173.6188">LongPress</text><text fill="#333333" font-family="Verdana" font-size="11" lengthAdjust="spacingAndGlyphs" textLength="18" x="132.5" y="167.0189">yes</text><polygon fill="#CCCCCC" filter="url(#f1nq64yuvxxohq)" points="64.5,235.1997,123.5,235.1997,135.5,247.1997,123.5,259.1997,64.5,259.1997,52.5,247.1997,64.5,235.1997" style="stroke: #1A66C2; stroke-width: 1.5;"/><text fill="#333333" font-family="Verdana" font-size="11" lengthAdjust="spacingAndGlyphs" textLength="66" x="98" y="269.4187">no (DragEnd)</text><text fill="#333333" font-family="Verdana" font-size="11" lengthAdjust="spacingAndGlyphs" textLength="59" x="64.5" y="250.8187">DragUpdate</text><text fill="#333333" font-family="Verdana" font-size="11" lengthAdjust="spacingAndGlyphs" textLength="18" x="135.5" y="244.2188">yes</text><rect fill="#CCCCCC" filter="url(#f1nq64yuvxxohq)" height="33.1999" rx="12.5" ry="12.5" style="stroke: #1A66C2; stroke-width: 1.5;" width="101" x="219.5" y="563.9993"/><text fill="#000000" font-family="Verdana" font-size="11" lengthAdjust="spacingAndGlyphs" textLength="81" x="229.5" y="584.2183">Clear swipe path</text><rect fill="#CCCCCC" filter="url(#f1nq64yuvxxohq)" height="33.1999" style="stroke: #1A66C2; stroke-width: 1.5;" width="162" x="298.5" y="641.1992"/><text fill="#000000" font-family="Verdana" font-size="11" lengthAdjust="spacingAndGlyphs" textLength="142" x="308.5" y="661.4182">Interaction::TapShortRelease</text><rect fill="#CCCCCC" filter="url(#f1nq64yuvxxohq)" height="33.1999" style="stroke: #1A66C2; stroke-width: 1.5;" width="160" x="299.5" y="718.3991"/><text fill="#000000" font-family="Verdana" font-size="11" lengthAdjust="spacingAndGlyphs" textLength="140" x="309.5" y="738.6181">Interaction::TapLongRelease</text><polygon fill="#CCCCCC" filter="url(#f1nq64yuvxxohq)" points="91.5,617.1992,286.5,617.1992,298.5,629.1992,286.5,641.1992,91.5,641.1992,79.5,629.1992,91.5,617.1992" style="stroke: #1A66C2; stroke-width: 1.5;"/><text fill="#333333" font-family="Verdana" font-size="11" lengthAdjust="spacingAndGlyphs" textLength="195" x="91.5" y="632.8182">Previous interpretation was NoGesture?</text><text fill="#333333" font-family="Verdana" font-size="11" lengthAdjust="spacingAndGlyphs" textLength="18" x="298.5" y="626.2183">yes</text><polygon fill="#CCCCCC" filter="url(#f1nq64yuvxxohq)" points="159.5,694.3991,218.5,694.3991,230.5,706.3991,218.5,718.3991,159.5,718.3991,147.5,706.3991,159.5,694.3991" style="stroke: #1A66C2; stroke-width: 1.5;"/><text fill="#333333" font-family="Verdana" font-size="11" lengthAdjust="spacingAndGlyphs" textLength="52" x="193" y="728.6181">no (Swipe)</text><text fill="#333333" font-family="Verdana" font-size="11" lengthAdjust="spacingAndGlyphs" textLength="59" x="159.5" y="710.0181">LongPress?</text><text fill="#333333" font-family="Verdana" font-size="11" lengthAdjust="spacingAndGlyphs" textLength="18" x="230.5" y="703.4182">yes</text><rect fill="#CCCCCC" filter="url(#f1nq64yuvxxohq)" height="33.1999" style="stroke: #1A66C2; stroke-width: 1.5;" width="135" x="202.5" y="771.599"/><text fill="#000000" font-family="Verdana" font-size="11" lengthAdjust="spacingAndGlyphs" textLength="115" x="212.5" y="791.818">Interaction::SwipeFinish</text><polygon fill="#CCCCCC" filter="url(#f1nq64yuvxxohq)" points="270,824.7989,282,836.7989,270,848.7989,258,836.7989,270,824.7989" style="stroke: #1A66C2; stroke-width: 1.5;"/><polygon fill="#CCCCCC" filter="url(#f1nq64yuvxxohq)" points="270,868.7989,282,880.7989,270,892.7989,258,880.7989,270,868.7989" style="stroke: #1A66C2; stroke-width: 1.5;"/><rect fill="#CCCCCC" filter="url(#f1nq64yuvxxohq)" height="33.1999" style="stroke: #1A66C2; stroke-width: 1.5;" width="71" x="234.5" y="912.7989"/><text fill="#000000" font-family="Verdana" font-size="11" lengthAdjust="spacingAndGlyphs" textLength="51" x="244.5" y="933.0179">Interaction</text><ellipse cx="270" cy="976.9988" fill="#FFFFFF" filter="url(#f1nq64yuvxxohq)" rx="11" ry="11" style="stroke: #000000; stroke-width: 1.0;"/><ellipse cx="270" cy="976.9988" fill="#000000" rx="6" ry="6" style="stroke: #7F7F7F; stroke-width: 1.0;"/><line style="stroke: #000000; stroke-width: 1.5;" x1="386" x2="452.5" y1="324.3996" y2="324.3996"/><line style="stroke: #000000; stroke-width: 1.5;" x1="452.5" x2="452.5" y1="324.3996" y2="336.3996"/><polygon fill="#000000" points="448.5,326.3996,452.5,336.3996,456.5,326.3996,452.5,330.3996" style="stroke: #000000; stroke-width: 1.0;"/><line style="stroke: #000000; stroke-width: 1.5;" x1="318" x2="452.5" y1="401.5995" y2="401.5995"/><line style="stroke: #000000; stroke-width: 1.5;" x1="452.5" x2="452.5" y1="401.5995" y2="413.5995"/><polygon fill="#000000" points="448.5,403.5995,452.5,413.5995,456.5,403.5995,452.5,407.5995" style="stroke: #000000; stroke-width: 1.0;"/><line style="stroke: #000000; stroke-width: 1.5;" x1="276.5" x2="276.5" y1="336.3996" y2="389.5995"/><polygon fill="#000000" points="272.5,379.5995,276.5,389.5995,280.5,379.5995,276.5,383.5995" style="stroke: #000000; stroke-width: 1.0;"/><line style="stroke: #000000; stroke-width: 1.5;" x1="452.5" x2="452.5" y1="369.5995" y2="384.5995"/><line style="stroke: #000000; stroke-width: 1.5;" x1="452.5" x2="519" y1="384.5995" y2="384.5995"/><line style="stroke: #000000; stroke-width: 1.5;" x1="519" x2="519" y1="384.5995" y2="531.9993"/><line style="stroke: #000000; stroke-width: 1.5;" x1="519" x2="355" y1="531.9993" y2="531.9993"/><polygon fill="#000000" points="365,527.9993,355,531.9993,365,535.9993,361,531.9993" style="stroke: #000000; stroke-width: 1.0;"/><line style="stroke: #000000; stroke-width: 1.5;" x1="452.5" x2="452.5" y1="446.7994" y2="461.7994"/><line style="stroke: #000000; stroke-width: 1.5;" x1="452.5" x2="519" y1="461.7994" y2="461.7994"/><polygon fill="#000000" points="509,457.7994,519,461.7994,509,465.7994,513,461.7994" style="stroke: #000000; stroke-width: 1.0;"/><line style="stroke: #000000; stroke-width: 1.5;" x1="343" x2="343" y1="292.3996" y2="297.3996"/><line style="stroke: #000000; stroke-width: 1.5;" x1="343" x2="276.5" y1="297.3996" y2="297.3996"/><line style="stroke: #000000; stroke-width: 1.5;" x1="276.5" x2="276.5" y1="297.3996" y2="312.3996"/><polygon fill="#000000" points="272.5,302.3996,276.5,312.3996,280.5,302.3996,276.5,306.3996" style="stroke: #000000; stroke-width: 1.0;"/><line style="stroke: #000000; stroke-width: 1.5;" x1="276.5" x2="276.5" y1="413.5995" y2="451.7994"/><line style="stroke: #000000; stroke-width: 1.5;" x1="276.5" x2="343" y1="451.7994" y2="451.7994"/><line style="stroke: #000000; stroke-width: 1.5;" x1="343" x2="343" y1="451.7994" y2="466.7994"/><polygon fill="#000000" points="339,456.7994,343,466.7994,347,456.7994,343,460.7994" style="stroke: #000000; stroke-width: 1.0;"/><line style="stroke: #000000; stroke-width: 1.5;" x1="343" x2="343" y1="499.9993" y2="504.9993"/><line style="stroke: #000000; stroke-width: 1.5;" x1="343" x2="343" y1="504.9993" y2="519.9993"/><polygon fill="#000000" points="339,509.9993,343,519.9993,347,509.9993,343,513.9993" style="stroke: #000000; stroke-width: 1.0;"/><line style="stroke: #000000; stroke-width: 1.5;" x1="298.5" x2="379.5" y1="629.1992" y2="629.1992"/><line style="stroke: #000000; stroke-width: 1.5;" x1="379.5" x2="379.5" y1="629.1992" y2="641.1992"/><polygon fill="#000000" points="375.5,631.1992,379.5,641.1992,383.5,631.1992,379.5,635.1992" style="stroke: #000000; stroke-width: 1.0;"/><line style="stroke: #000000; stroke-width: 1.5;" x1="230.5" x2="379.5" y1="706.3991" y2="706.3991"/><line style="stroke: #000000; stroke-width: 1.5;" x1="379.5" x2="379.5" y1="706.3991" y2="718.3991"/><polygon fill="#000000" points="375.5,708.3991,379.5,718.3991,383.5,708.3991,379.5,712.3991" style="stroke: #000000; stroke-width: 1.0;"/><line style="stroke: #000000; stroke-width: 1.5;" x1="189" x2="189" y1="641.1992" y2="694.3991"/><polygon fill="#000000" points="185,684.3991,189,694.3991,193,684.3991,189,688.3991" style="stroke: #000000; stroke-width: 1.0;"/><line style="stroke: #000000; stroke-width: 1.5;" x1="379.5" x2="379.5" y1="674.3991" y2="689.3991"/><line style="stroke: #000000; stroke-width: 1.5;" x1="379.5" x2="460.5" y1="689.3991" y2="689.3991"/><line style="stroke: #000000; stroke-width: 1.5;" x1="460.5" x2="460.5" y1="689.3991" y2="836.7989"/><line style="stroke: #000000; stroke-width: 1.5;" x1="460.5" x2="282" y1="836.7989" y2="836.7989"/><polygon fill="#000000" points="292,832.7989,282,836.7989,292,840.7989,288,836.7989" style="stroke: #000000; stroke-width: 1.0;"/><line style="stroke: #000000; stroke-width: 1.5;" x1="379.5" x2="379.5" y1="751.599" y2="766.599"/><line style="stroke: #000000; stroke-width: 1.5;" x1="379.5" x2="460.5" y1="766.599" y2="766.599"/><polygon fill="#000000" points="450.5,762.599,460.5,766.599,450.5,770.599,454.5,766.599" style="stroke: #000000; stroke-width: 1.0;"/><line style="stroke: #000000; stroke-width: 1.5;" x1="270" x2="270" y1="597.1992" y2="602.1992"/><line style="stroke: #000000; stroke-width: 1.5;" x1="270" x2="189" y1="602.1992" y2="602.1992"/><line style="stroke: #000000; stroke-width: 1.5;" x1="189" x2="189" y1="602.1992" y2="617.1992"/><polygon fill="#000000" points="185,607.1992,189,617.1992,193,607.1992,189,611.1992" style="stroke: #000000; stroke-width: 1.0;"/><line style="stroke: #000000; stroke-width: 1.5;" x1="189" x2="189" y1="718.3991" y2="756.599"/><line style="stroke: #000000; stroke-width: 1.5;" x1="189" x2="270" y1="756.599" y2="756.599"/><line style="stroke: #000000; stroke-width: 1.5;" x1="270" x2="270" y1="756.599" y2="771.599"/><polygon fill="#000000" points="266,761.599,270,771.599,274,761.599,270,765.599" style="stroke: #000000; stroke-width: 1.0;"/><line style="stroke: #000000; stroke-width: 1.5;" x1="270" x2="270" y1="804.7989" y2="809.7989"/><line style="stroke: #000000; stroke-width: 1.5;" x1="270" x2="270" y1="809.7989" y2="824.7989"/><polygon fill="#000000" points="266,814.7989,270,824.7989,274,814.7989,270,818.7989" style="stroke: #000000; stroke-width: 1.0;"/><line style="stroke: #000000; stroke-width: 1.5;" x1="167" x2="343" y1="92.7999" y2="92.7999"/><line style="stroke: #000000; stroke-width: 1.5;" x1="343" x2="343" y1="92.7999" y2="104.7999"/><polygon fill="#000000" points="339,94.7999,343,104.7999,347,94.7999,343,98.7999" style="stroke: #000000; stroke-width: 1.0;"/><line style="stroke: #000000; stroke-width: 1.5;" x1="132.5" x2="343" y1="169.9998" y2="169.9998"/><line style="stroke: #000000; stroke-width: 1.5;" x1="343" x2="343" y1="169.9998" y2="181.9998"/><polygon fill="#000000" points="339,171.9998,343,181.9998,347,171.9998,343,175.9998" style="stroke: #000000; stroke-width: 1.0;"/><line style="stroke: #000000; stroke-width: 1.5;" x1="135.5" x2="343" y1="247.1997" y2="247.1997"/><line style="stroke: #000000; stroke-width: 1.5;" x1="343" x2="343" y1="247.1997" y2="259.1997"/><polygon fill="#000000" points="339,249.1997,343,259.1997,347,249.1997,343,253.1997" style="stroke: #000000; stroke-width: 1.0;"/><line style="stroke: #000000; stroke-width: 1.5;" x1="94" x2="94" y1="104.7999" y2="157.9998"/><polygon fill="#000000" points="90,147.9998,94,157.9998,98,147.9998,94,151.9998" style="stroke: #000000; stroke-width: 1.0;"/><line style="stroke: #000000; stroke-width: 1.5;" x1="94" x2="94" y1="181.9998" y2="235.1997"/><polygon fill="#000000" points="90,225.1997,94,235.1997,98,225.1997,94,229.1997" style="stroke: #000000; stroke-width: 1.0;"/><line style="stroke: #000000; stroke-width: 1.5;" x1="343" x2="343" y1="137.9998" y2="152.9998"/><line style="stroke: #000000; stroke-width: 1.5;" x1="343" x2="519" y1="152.9998" y2="152.9998"/><line style="stroke: #000000; stroke-width: 1.5;" x1="519" x2="519" y1="152.9998" y2="880.7989"/><line style="stroke: #000000; stroke-width: 1.5;" x1="519" x2="282" y1="880.7989" y2="880.7989"/><polygon fill="#000000" points="292,876.7989,282,880.7989,292,884.7989,288,880.7989" style="stroke: #000000; stroke-width: 1.0;"/><line style="stroke: #000000; stroke-width: 1.5;" x1="343" x2="343" y1="215.1997" y2="230.1997"/><line style="stroke: #000000; stroke-width: 1.5;" x1="343" x2="519" y1="230.1997" y2="230.1997"/><polygon fill="#000000" points="509,226.1997,519,230.1997,509,234.1997,513,230.1997" style="stroke: #000000; stroke-width: 1.0;"/><line style="stroke: #000000; stroke-width: 1.5;" x1="343" x2="343" y1="543.9993" y2="558.9993"/><line style="stroke: #000000; stroke-width: 1.5;" x1="343" x2="519" y1="558.9993" y2="558.9993"/><polygon fill="#000000" points="509,554.9993,519,558.9993,509,562.9993,513,558.9993" style="stroke: #000000; stroke-width: 1.0;"/><line style="stroke: #000000; stroke-width: 1.5;" x1="270" x2="270" y1="60.7999" y2="65.7999"/><line style="stroke: #000000; stroke-width: 1.5;" x1="270" x2="94" y1="65.7999" y2="65.7999"/><line style="stroke: #000000; stroke-width: 1.5;" x1="94" x2="94" y1="65.7999" y2="80.7999"/><polygon fill="#000000" points="90,70.7999,94,80.7999,98,70.7999,94,74.7999" style="stroke: #000000; stroke-width: 1.0;"/><line style="stroke: #000000; stroke-width: 1.5;" x1="94" x2="94" y1="259.1997" y2="548.9993"/><line style="stroke: #000000; stroke-width: 1.5;" x1="94" x2="270" y1="548.9993" y2="548.9993"/><line style="stroke: #000000; stroke-width: 1.5;" x1="270" x2="270" y1="548.9993" y2="563.9993"/><polygon fill="#000000" points="266,553.9993,270,563.9993,274,553.9993,270,557.9993" style="stroke: #000000; stroke-width: 1.0;"/><line style="stroke: #000000; stroke-width: 1.5;" x1="270" x2="270" y1="848.7989" y2="853.7989"/><line style="stroke: #000000; stroke-width: 1.5;" x1="270" x2="270" y1="853.7989" y2="868.7989"/><polygon fill="#000000" points="266,858.7989,270,868.7989,274,858.7989,270,862.7989" style="stroke: #000000; stroke-width: 1.0;"/><line style="stroke: #000000; stroke-width: 1.5;" x1="270" x2="270" y1="892.7989" y2="912.7989"/><polygon fill="#000000" points="266,902.7989,270,912.7989,274,902.7989,270,906.7989" style="stroke: #000000; stroke-width: 1.0;"/><line style="stroke: #000000; stroke-width: 1.5;" x1="270" x2="270" y1="945.9988" y2="965.9988"/><polygon fill="#000000" points="266,955.9988,270,965.9988,274,955.9988,270,959.9988" style="stroke: #000000; stroke-width: 1.0;"/><!--MD5=[2032f49005ba17d97aec4f07f474fd40]
@startuml gesture_model_convert_to_interaction
!pragma useVerticalIf on
!define LIGHTBLUE
!includeurl https://raw.githubusercontent.com/grelltrier/RedDress-PlantUML/master/style.puml

partition "GestureModel::convert_to_interaction()"{  
  start
  
  if (Interaction is DragBegin?) then (yes)
    :Interaction::TapShortPress]
  elseif (LongPress) then (yes)
    :Interaction::TapLongPress]
  elseif (DragUpdate) then (yes)
    :Add point to swipe path;
    if (Previous interpretation was NoGesture?) then (yes)
        :Interaction::SwipeBegin]
    elseif (LongPress?) then (yes)
        :Interaction::SwipeBegin]
    else (no (Swipe)))
        :Interaction::SwipeUpdate]
    endif
  else (no (DragEnd))
    :Clear swipe path;
    if (Previous interpretation was NoGesture?) then (yes)
        :Interaction::TapShortRelease]
    elseif (LongPress?) then (yes)
        :Interaction::TapLongRelease]
    else (no (Swipe))
        :Interaction::SwipeFinish]
    endif
  endif
  :Interaction]
  stop
}
@enduml

@startuml gesture_model_convert_to_interaction
!pragma useVerticalIf on




skinparam stereotypeCBackgroundColor 1a66c2







skinparam backgroundColor fff








skinparam circledCharacter {
  radius 8
  fontSize 11
  fontName Verdana
}

skinparam class {
    backgroundColor ccc
  borderColor 1a66c2
    fontColor 000
  fontName Verdana
  fontSize 11
  stereotypeFontColor 333
  stereotypeFontSize 11
    arrowColor 000
  arrowFontName Verdana
  arrowFontColor 333
  arrowFontSize 11

  attributeFontColor 333
  attributeFontSize 11
  attributeIconSize 11
}


skinparam ActivityBarColor 1a66c2
skinparam activityDiamondBackgroundColor ccc
skinparam activityDiamondBorderColor 1a66c2


skinparam actor {
    backgroundColor 2a86e2
  borderColor 1a66c2
    fontColor 000
  fontName Verdana
  fontSize 11
  stereotypeFontColor 333
  stereotypeFontSize 11
}

skinparam participant {
    backgroundColor ccc
  borderColor 1a66c2
    fontColor 000
  fontName Verdana
  fontSize 11
  stereotypeFontColor 333
  stereotypeFontSize 11
}

skinparam collections {
    backgroundColor ccc
  borderColor 1a66c2
    fontColor 000
  fontName Verdana
  fontSize 11
  stereotypeFontColor 333
  stereotypeFontSize 11
}

skinparam SequenceBox{
    backgroundColor e0e0e0
  borderColor 1a66c2
    fontColor 000
  fontName Verdana
  fontSize 11
  stereotypeFontColor 333
  stereotypeFontSize 11
}


skinparam interface {
    backgroundColor 2a86e2
  borderColor 1a66c2
    fontColor 000
  fontName Verdana
  fontSize 11
  stereotypeFontColor 333
  stereotypeFontSize 11
}

skinparam component {
    backgroundColor ccc
  borderColor 1a66c2
    fontColor 000
  fontName Verdana
  fontSize 11
  stereotypeFontColor 333
  stereotypeFontSize 11
}

skinparam node {
    backgroundColor ccc
  borderColor 1a66c2
    fontColor 000
  fontName Verdana
  fontSize 11
  stereotypeFontColor 333
  stereotypeFontSize 11
}

skinparam database {
    backgroundColor ccc
  borderColor 1a66c2
    fontColor 000
  fontName Verdana
  fontSize 11
  stereotypeFontColor 333
  stereotypeFontSize 11
}

skinparam queue {
    backgroundColor ccc
  borderColor 1a66c2
    fontColor 000
  fontName Verdana
  fontSize 11
  stereotypeFontColor 333
  stereotypeFontSize 11
}


skinparam usecase {
    backgroundColor ccc
  borderColor 1a66c2
    fontColor 000
  fontName Verdana
  fontSize 11
  stereotypeFontColor 333
  stereotypeFontSize 11
    arrowColor 000
  arrowFontName Verdana
  arrowFontColor 333
  arrowFontSize 11
}

skinparam activity {
    backgroundColor ccc
  borderColor 1a66c2
    fontColor 000
  fontName Verdana
  fontSize 11
  stereotypeFontColor 333
  stereotypeFontSize 11
    arrowColor 000
  arrowFontName Verdana
  arrowFontColor 333
  arrowFontSize 11
}

skinparam sequence {
    fontColor 000
  fontName Verdana
  fontSize 11
  stereotypeFontColor 333
  stereotypeFontSize 11
    arrowColor 000
  arrowFontName Verdana
  arrowFontColor 333
  arrowFontSize 11

  lifeLineBorderColor 2a86e2
  lifeLineBackgroundColor e0e0e0
}

skinparam boundary {
    backgroundColor 2a86e2
  borderColor 1a66c2
    fontColor 000
  fontName Verdana
  fontSize 11
  stereotypeFontColor 333
  stereotypeFontSize 11
}

skinparam control {
    backgroundColor 2a86e2
  borderColor 1a66c2
    fontColor 000
  fontName Verdana
  fontSize 11
  stereotypeFontColor 333
  stereotypeFontSize 11
}

skinparam entity {
    backgroundColor 2a86e2
  borderColor 1a66c2
    fontColor 000
  fontName Verdana
  fontSize 11
  stereotypeFontColor 333
  stereotypeFontSize 11
}


skinparam state {
    backgroundColor ccc
  borderColor 1a66c2
    fontColor 000
  fontName Verdana
  fontSize 11
  stereotypeFontColor 333
  stereotypeFontSize 11
    arrowColor 000
  arrowFontName Verdana
  arrowFontColor 333
  arrowFontSize 11
  startColor 2a86e2
  endColor 1a66c2
}


skinparam object {
    backgroundColor ccc
  borderColor 1a66c2
    fontColor 000
  fontName Verdana
  fontSize 11
  stereotypeFontColor 333
  stereotypeFontSize 11
    arrowColor 000
  arrowFontName Verdana
  arrowFontColor 333
  arrowFontSize 11
}


skinparam note {
    backgroundColor 2a86e2
  borderColor 1a66c2
    fontColor 000
  fontName Verdana
  fontSize 11
  stereotypeFontColor 333
  stereotypeFontSize 11
}

skinparam cloud {
    backgroundColor ccc
  borderColor 1a66c2
    fontColor 000
  fontName Verdana
  fontSize 11
  stereotypeFontColor 333
  stereotypeFontSize 11
    arrowColor 000
  arrowFontName Verdana
  arrowFontColor 333
  arrowFontSize 11
}

skinparam rectangle {
    backgroundColor ccc
  borderColor 1a66c2
    fontColor 000
  fontName Verdana
  fontSize 11
  stereotypeFontColor 333
  stereotypeFontSize 11
}

skinparam storage {
    backgroundColor ccc
  borderColor 1a66c2
    fontColor 000
  fontName Verdana
  fontSize 11
  stereotypeFontColor 333
  stereotypeFontSize 11
}


partition "GestureModel::convert_to_interaction()"{  
  start
  
  if (Interaction is DragBegin?) then (yes)
    :Interaction::TapShortPress]
  elseif (LongPress) then (yes)
    :Interaction::TapLongPress]
  elseif (DragUpdate) then (yes)
    :Add point to swipe path;
    if (Previous interpretation was NoGesture?) then (yes)
        :Interaction::SwipeBegin]
    elseif (LongPress?) then (yes)
        :Interaction::SwipeBegin]
    else (no (Swipe)))
        :Interaction::SwipeUpdate]
    endif
  else (no (DragEnd))
    :Clear swipe path;
    if (Previous interpretation was NoGesture?) then (yes)
        :Interaction::TapShortRelease]
    elseif (LongPress?) then (yes)
        :Interaction::TapLongRelease]
    else (no (Swipe))
        :Interaction::SwipeFinish]
    endif
  endif
  :Interaction]
  stop
}
@enduml

PlantUML version 1.2020.19(Mon Oct 12 17:10:01 CEST 2020)
(GPL source distribution)
Java Runtime: OpenJDK Runtime Environment
JVM: OpenJDK 64-Bit Server VM
Default Encoding: UTF-8
Language: en
Country: US
--></g></svg>