<?xml version="1.0" encoding="UTF-8" standalone="no"?><svg xmlns="http://www.w3.org/2000/svg" xmlns:xlink="http://www.w3.org/1999/xlink" contentScriptType="application/ecmascript" contentStyleType="text/css" height="445px" preserveAspectRatio="none" style="width:913px;height:445px;" version="1.1" viewBox="0 0 913 445" width="913px" zoomAndPan="magnify"><defs><filter height="300%" id="f1scc8ycqzjwow" width="300%" x="-1" y="-1"><feGaussianBlur result="blurOut" stdDeviation="2.0"/><feColorMatrix in="blurOut" result="blurOut2" type="matrix" values="0 0 0 0 0 0 0 0 0 0 0 0 0 0 0 0 0 0 .4 0"/><feOffset dx="4.0" dy="4.0" in="blurOut2" result="blurOut3"/><feBlend in="SourceGraphic" in2="blurOut3" mode="normal"/></filter></defs><g><rect fill="#FFFFFF" filter="url(#f1scc8ycqzjwow)" height="417.1997" style="stroke: #000000; stroke-width: 2.0;" width="885.5" x="11" y="11"/><path d="M232,11 L232,20.7999 L222,30.7999 L11,30.7999 " fill="none" style="stroke: #000000; stroke-width: 2.0;"/><text fill="#000000" font-family="sans-serif" font-size="14" lengthAdjust="spacingAndGlyphs" textLength="211" x="14" y="25.0059">UIManager::change_orientation()</text><ellipse cx="453.75" cy="50.7999" fill="#000000" filter="url(#f1scc8ycqzjwow)" rx="10" ry="10" style="stroke: none; stroke-width: 1.0;"/><polygon fill="#CCCCCC" filter="url(#f1scc8ycqzjwow)" points="417.25,80.7999,490.25,80.7999,502.25,92.7999,490.25,104.7999,417.25,104.7999,405.25,92.7999,417.25,80.7999" style="stroke: #1A66C2; stroke-width: 1.5;"/><text fill="#000000" font-family="sans-serif" font-size="11" lengthAdjust="spacingAndGlyphs" textLength="73" x="417.25" y="96.4189">new orientation</text><text fill="#333333" font-family="Verdana" font-size="11" lengthAdjust="spacingAndGlyphs" textLength="50" x="355.25" y="89.8189">landscape</text><text fill="#333333" font-family="Verdana" font-size="11" lengthAdjust="spacingAndGlyphs" textLength="34" x="502.25" y="89.8189">portrait</text><polygon fill="#CCCCCC" filter="url(#f1scc8ycqzjwow)" points="75.5,114.7999,268.5,114.7999,280.5,126.7999,268.5,138.7999,75.5,138.7999,63.5,126.7999,75.5,114.7999" style="stroke: #1A66C2; stroke-width: 1.5;"/><text fill="#000000" font-family="sans-serif" font-size="11" lengthAdjust="spacingAndGlyphs" textLength="193" x="75.5" y="130.4189">name of active layout ends with '_wide'?</text><text fill="#333333" font-family="Verdana" font-size="11" lengthAdjust="spacingAndGlyphs" textLength="18" x="45.5" y="123.8189">yes</text><text fill="#333333" font-family="Verdana" font-size="11" lengthAdjust="spacingAndGlyphs" textLength="12" x="280.5" y="123.8189">no</text><rect fill="#CCCCCC" filter="url(#f1scc8ycqzjwow)" height="33.1999" rx="12.5" ry="12.5" style="stroke: #1A66C2; stroke-width: 1.5;" width="61" x="23" y="148.7999"/><text fill="#000000" font-family="Verdana" font-size="11" lengthAdjust="spacingAndGlyphs" textLength="41" x="33" y="169.0189">Emit info</text><rect fill="#CCCCCC" filter="url(#f1scc8ycqzjwow)" height="33.1999" rx="12.5" ry="12.5" style="stroke: #1A66C2; stroke-width: 1.5;" width="216" x="182.5" y="148.7999"/><text fill="#000000" font-family="Verdana" font-size="11" lengthAdjust="spacingAndGlyphs" textLength="196" x="192.5" y="169.0189">Append '_wide' to name of current layout</text><polygon fill="#CCCCCC" filter="url(#f1scc8ycqzjwow)" points="208.5,216.9998,372.5,216.9998,384.5,228.9998,372.5,240.9998,208.5,240.9998,196.5,228.9998,208.5,216.9998" style="stroke: #1A66C2; stroke-width: 1.5;"/><text fill="#000000" font-family="sans-serif" font-size="11" lengthAdjust="spacingAndGlyphs" textLength="164" x="208.5" y="232.6188">UIManager.change_layout_view()</text><text fill="#333333" font-family="Verdana" font-size="11" lengthAdjust="spacingAndGlyphs" textLength="15" x="181.5" y="226.0189">Ok</text><text fill="#333333" font-family="Verdana" font-size="11" lengthAdjust="spacingAndGlyphs" textLength="24" x="384.5" y="226.0189">error</text><rect fill="#CCCCCC" filter="url(#f1scc8ycqzjwow)" height="33.1999" rx="12.5" ry="12.5" style="stroke: #1A66C2; stroke-width: 1.5;" width="61" x="156" y="250.9998"/><text fill="#000000" font-family="Verdana" font-size="11" lengthAdjust="spacingAndGlyphs" textLength="41" x="166" y="271.2188">Emit info</text><rect fill="#CCCCCC" filter="url(#f1scc8ycqzjwow)" height="33.1999" rx="12.5" ry="12.5" style="stroke: #1A66C2; stroke-width: 1.5;" width="61" x="364" y="250.9998"/><text fill="#000000" font-family="Verdana" font-size="11" lengthAdjust="spacingAndGlyphs" textLength="41" x="374" y="271.2188">Emit info</text><polygon fill="#CCCCCC" filter="url(#f1scc8ycqzjwow)" points="290.5,290.1997,302.5,302.1997,290.5,314.1997,278.5,302.1997,290.5,290.1997" style="stroke: #1A66C2; stroke-width: 1.5;"/><polygon fill="#CCCCCC" filter="url(#f1scc8ycqzjwow)" points="172,320.1997,184,332.1997,172,344.1997,160,332.1997,172,320.1997" style="stroke: #1A66C2; stroke-width: 1.5;"/><polygon fill="#CCCCCC" filter="url(#f1scc8ycqzjwow)" points="639,114.7999,832,114.7999,844,126.7999,832,138.7999,639,138.7999,627,126.7999,639,114.7999" style="stroke: #1A66C2; stroke-width: 1.5;"/><text fill="#000000" font-family="sans-serif" font-size="11" lengthAdjust="spacingAndGlyphs" textLength="193" x="639" y="130.4189">name of active layout ends with '_wide'?</text><text fill="#333333" font-family="Verdana" font-size="11" lengthAdjust="spacingAndGlyphs" textLength="18" x="609" y="123.8189">yes</text><text fill="#333333" font-family="Verdana" font-size="11" lengthAdjust="spacingAndGlyphs" textLength="12" x="844" y="123.8189">no</text><polygon fill="#CCCCCC" filter="url(#f1scc8ycqzjwow)" points="537.5,148.7999,696.5,148.7999,708.5,160.7999,696.5,172.7999,537.5,172.7999,525.5,160.7999,537.5,148.7999" style="stroke: #1A66C2; stroke-width: 1.5;"/><text fill="#000000" font-family="sans-serif" font-size="11" lengthAdjust="spacingAndGlyphs" textLength="159" x="537.5" y="164.4189">ui_manager.change_layout_view</text><text fill="#333333" font-family="Verdana" font-size="11" lengthAdjust="spacingAndGlyphs" textLength="15" x="510.5" y="157.8189">Ok</text><text fill="#333333" font-family="Verdana" font-size="11" lengthAdjust="spacingAndGlyphs" textLength="24" x="708.5" y="157.8189">error</text><rect fill="#CCCCCC" filter="url(#f1scc8ycqzjwow)" height="33.1999" rx="12.5" ry="12.5" style="stroke: #1A66C2; stroke-width: 1.5;" width="61" x="485" y="182.7999"/><text fill="#000000" font-family="Verdana" font-size="11" lengthAdjust="spacingAndGlyphs" textLength="41" x="495" y="203.0189">Emit info</text><rect fill="#CCCCCC" filter="url(#f1scc8ycqzjwow)" height="33.1999" rx="12.5" ry="12.5" style="stroke: #1A66C2; stroke-width: 1.5;" width="82" x="677.5" y="182.7999"/><text fill="#000000" font-family="Verdana" font-size="11" lengthAdjust="spacingAndGlyphs" textLength="62" x="687.5" y="203.0189">Emit warning</text><polygon fill="#CCCCCC" filter="url(#f1scc8ycqzjwow)" points="617,221.9998,629,233.9998,617,245.9998,605,233.9998,617,221.9998" style="stroke: #1A66C2; stroke-width: 1.5;"/><rect fill="#CCCCCC" filter="url(#f1scc8ycqzjwow)" height="33.1999" rx="12.5" ry="12.5" style="stroke: #1A66C2; stroke-width: 1.5;" width="61" x="823.5" y="148.7999"/><text fill="#000000" font-family="Verdana" font-size="11" lengthAdjust="spacingAndGlyphs" textLength="41" x="833.5" y="169.0189">Emit info</text><polygon fill="#CCCCCC" filter="url(#f1scc8ycqzjwow)" points="735.5,251.9998,747.5,263.9998,735.5,275.9998,723.5,263.9998,735.5,251.9998" style="stroke: #1A66C2; stroke-width: 1.5;"/><polygon fill="#CCCCCC" filter="url(#f1scc8ycqzjwow)" points="453.75,350.1997,465.75,362.1997,453.75,374.1997,441.75,362.1997,453.75,350.1997" style="stroke: #1A66C2; stroke-width: 1.5;"/><ellipse cx="453.75" cy="405.1997" fill="#FFFFFF" filter="url(#f1scc8ycqzjwow)" rx="11" ry="11" style="stroke: #000000; stroke-width: 1.0;"/><ellipse cx="453.75" cy="405.1997" fill="#000000" rx="6" ry="6" style="stroke: #7F7F7F; stroke-width: 1.0;"/><line style="stroke: #000000; stroke-width: 1.5;" x1="196.5" x2="186.5" y1="228.9998" y2="228.9998"/><line style="stroke: #000000; stroke-width: 1.5;" x1="186.5" x2="186.5" y1="228.9998" y2="250.9998"/><polygon fill="#000000" points="182.5,240.9998,186.5,250.9998,190.5,240.9998,186.5,244.9998" style="stroke: #000000; stroke-width: 1.0;"/><line style="stroke: #000000; stroke-width: 1.5;" x1="384.5" x2="394.5" y1="228.9998" y2="228.9998"/><line style="stroke: #000000; stroke-width: 1.5;" x1="394.5" x2="394.5" y1="228.9998" y2="250.9998"/><polygon fill="#000000" points="390.5,240.9998,394.5,250.9998,398.5,240.9998,394.5,244.9998" style="stroke: #000000; stroke-width: 1.0;"/><line style="stroke: #000000; stroke-width: 1.5;" x1="186.5" x2="186.5" y1="284.1997" y2="302.1997"/><line style="stroke: #000000; stroke-width: 1.5;" x1="186.5" x2="278.5" y1="302.1997" y2="302.1997"/><polygon fill="#000000" points="268.5,298.1997,278.5,302.1997,268.5,306.1997,272.5,302.1997" style="stroke: #000000; stroke-width: 1.0;"/><line style="stroke: #000000; stroke-width: 1.5;" x1="394.5" x2="394.5" y1="284.1997" y2="302.1997"/><line style="stroke: #000000; stroke-width: 1.5;" x1="394.5" x2="302.5" y1="302.1997" y2="302.1997"/><polygon fill="#000000" points="312.5,298.1997,302.5,302.1997,312.5,306.1997,308.5,302.1997" style="stroke: #000000; stroke-width: 1.0;"/><line style="stroke: #000000; stroke-width: 1.5;" x1="290.5" x2="290.5" y1="181.9998" y2="216.9998"/><polygon fill="#000000" points="286.5,206.9998,290.5,216.9998,294.5,206.9998,290.5,210.9998" style="stroke: #000000; stroke-width: 1.0;"/><line style="stroke: #000000; stroke-width: 1.5;" x1="63.5" x2="53.5" y1="126.7999" y2="126.7999"/><line style="stroke: #000000; stroke-width: 1.5;" x1="53.5" x2="53.5" y1="126.7999" y2="148.7999"/><polygon fill="#000000" points="49.5,138.7999,53.5,148.7999,57.5,138.7999,53.5,142.7999" style="stroke: #000000; stroke-width: 1.0;"/><line style="stroke: #000000; stroke-width: 1.5;" x1="280.5" x2="290.5" y1="126.7999" y2="126.7999"/><line style="stroke: #000000; stroke-width: 1.5;" x1="290.5" x2="290.5" y1="126.7999" y2="148.7999"/><polygon fill="#000000" points="286.5,138.7999,290.5,148.7999,294.5,138.7999,290.5,142.7999" style="stroke: #000000; stroke-width: 1.0;"/><line style="stroke: #000000; stroke-width: 1.5;" x1="53.5" x2="53.5" y1="181.9998" y2="332.1997"/><line style="stroke: #000000; stroke-width: 1.5;" x1="53.5" x2="160" y1="332.1997" y2="332.1997"/><polygon fill="#000000" points="150,328.1997,160,332.1997,150,336.1997,154,332.1997" style="stroke: #000000; stroke-width: 1.0;"/><line style="stroke: #000000; stroke-width: 1.5;" x1="290.5" x2="290.5" y1="314.1997" y2="332.1997"/><line style="stroke: #000000; stroke-width: 1.5;" x1="290.5" x2="184" y1="332.1997" y2="332.1997"/><polygon fill="#000000" points="194,328.1997,184,332.1997,194,336.1997,190,332.1997" style="stroke: #000000; stroke-width: 1.0;"/><line style="stroke: #000000; stroke-width: 1.5;" x1="525.5" x2="515.5" y1="160.7999" y2="160.7999"/><line style="stroke: #000000; stroke-width: 1.5;" x1="515.5" x2="515.5" y1="160.7999" y2="182.7999"/><polygon fill="#000000" points="511.5,172.7999,515.5,182.7999,519.5,172.7999,515.5,176.7999" style="stroke: #000000; stroke-width: 1.0;"/><line style="stroke: #000000; stroke-width: 1.5;" x1="708.5" x2="718.5" y1="160.7999" y2="160.7999"/><line style="stroke: #000000; stroke-width: 1.5;" x1="718.5" x2="718.5" y1="160.7999" y2="182.7999"/><polygon fill="#000000" points="714.5,172.7999,718.5,182.7999,722.5,172.7999,718.5,176.7999" style="stroke: #000000; stroke-width: 1.0;"/><line style="stroke: #000000; stroke-width: 1.5;" x1="515.5" x2="515.5" y1="215.9998" y2="233.9998"/><line style="stroke: #000000; stroke-width: 1.5;" x1="515.5" x2="605" y1="233.9998" y2="233.9998"/><polygon fill="#000000" points="595,229.9998,605,233.9998,595,237.9998,599,233.9998" style="stroke: #000000; stroke-width: 1.0;"/><line style="stroke: #000000; stroke-width: 1.5;" x1="718.5" x2="718.5" y1="215.9998" y2="233.9998"/><line style="stroke: #000000; stroke-width: 1.5;" x1="718.5" x2="629" y1="233.9998" y2="233.9998"/><polygon fill="#000000" points="639,229.9998,629,233.9998,639,237.9998,635,233.9998" style="stroke: #000000; stroke-width: 1.0;"/><line style="stroke: #000000; stroke-width: 1.5;" x1="627" x2="617" y1="126.7999" y2="126.7999"/><line style="stroke: #000000; stroke-width: 1.5;" x1="617" x2="617" y1="126.7999" y2="148.7999"/><polygon fill="#000000" points="613,138.7999,617,148.7999,621,138.7999,617,142.7999" style="stroke: #000000; stroke-width: 1.0;"/><line style="stroke: #000000; stroke-width: 1.5;" x1="844" x2="854" y1="126.7999" y2="126.7999"/><line style="stroke: #000000; stroke-width: 1.5;" x1="854" x2="854" y1="126.7999" y2="148.7999"/><polygon fill="#000000" points="850,138.7999,854,148.7999,858,138.7999,854,142.7999" style="stroke: #000000; stroke-width: 1.0;"/><line style="stroke: #000000; stroke-width: 1.5;" x1="617" x2="617" y1="245.9998" y2="263.9998"/><line style="stroke: #000000; stroke-width: 1.5;" x1="617" x2="723.5" y1="263.9998" y2="263.9998"/><polygon fill="#000000" points="713.5,259.9998,723.5,263.9998,713.5,267.9998,717.5,263.9998" style="stroke: #000000; stroke-width: 1.0;"/><line style="stroke: #000000; stroke-width: 1.5;" x1="854" x2="854" y1="181.9998" y2="263.9998"/><line style="stroke: #000000; stroke-width: 1.5;" x1="854" x2="747.5" y1="263.9998" y2="263.9998"/><polygon fill="#000000" points="757.5,259.9998,747.5,263.9998,757.5,267.9998,753.5,263.9998" style="stroke: #000000; stroke-width: 1.0;"/><line style="stroke: #000000; stroke-width: 1.5;" x1="405.25" x2="172" y1="92.7999" y2="92.7999"/><line style="stroke: #000000; stroke-width: 1.5;" x1="172" x2="172" y1="92.7999" y2="114.7999"/><polygon fill="#000000" points="168,104.7999,172,114.7999,176,104.7999,172,108.7999" style="stroke: #000000; stroke-width: 1.0;"/><line style="stroke: #000000; stroke-width: 1.5;" x1="502.25" x2="735.5" y1="92.7999" y2="92.7999"/><line style="stroke: #000000; stroke-width: 1.5;" x1="735.5" x2="735.5" y1="92.7999" y2="114.7999"/><polygon fill="#000000" points="731.5,104.7999,735.5,114.7999,739.5,104.7999,735.5,108.7999" style="stroke: #000000; stroke-width: 1.0;"/><line style="stroke: #000000; stroke-width: 1.5;" x1="172" x2="172" y1="344.1997" y2="362.1997"/><line style="stroke: #000000; stroke-width: 1.5;" x1="172" x2="441.75" y1="362.1997" y2="362.1997"/><polygon fill="#000000" points="431.75,358.1997,441.75,362.1997,431.75,366.1997,435.75,362.1997" style="stroke: #000000; stroke-width: 1.0;"/><line style="stroke: #000000; stroke-width: 1.5;" x1="735.5" x2="735.5" y1="275.9998" y2="362.1997"/><line style="stroke: #000000; stroke-width: 1.5;" x1="735.5" x2="465.75" y1="362.1997" y2="362.1997"/><polygon fill="#000000" points="475.75,358.1997,465.75,362.1997,475.75,366.1997,471.75,362.1997" style="stroke: #000000; stroke-width: 1.0;"/><line style="stroke: #000000; stroke-width: 1.5;" x1="453.75" x2="453.75" y1="60.7999" y2="80.7999"/><polygon fill="#000000" points="449.75,70.7999,453.75,80.7999,457.75,70.7999,453.75,74.7999" style="stroke: #000000; stroke-width: 1.0;"/><line style="stroke: #000000; stroke-width: 1.5;" x1="453.75" x2="453.75" y1="374.1997" y2="394.1997"/><polygon fill="#000000" points="449.75,384.1997,453.75,394.1997,457.75,384.1997,453.75,388.1997" style="stroke: #000000; stroke-width: 1.0;"/><!--MD5=[51c6d3389fb8dc6a19e70c0b031e7591]
@startuml uimanager::change_orientation
!define LIGHTBLUE
!includeurl https://raw.githubusercontent.com/grelltrier/RedDress-PlantUML/master/style.puml

partition "UIManager::change_orientation()"{
  start
  if (new orientation) then (landscape)
    if (name of active layout ends with '_wide'?) then (yes)
      :Emit info;
    else (no)
      :Append '_wide' to name of current layout;
      if (UIManager.change_layout_view()) then (Ok)
        :Emit info;
      else (error)
        :Emit info;
      endif
    endif
  else (portrait)
    if (name of active layout ends with '_wide'?) then (yes)
      if (ui_manager.change_layout_view) then (Ok)
        :Emit info;
      else (error)
        :Emit warning;
      endif
    else (no)
      :Emit info;
    endif
  endif
  stop
}
@enduml

@startuml uimanager::change_orientation




skinparam stereotypeCBackgroundColor 1a66c2







skinparam backgroundColor fff








skinparam circledCharacter {
  radius 8
  fontSize 11
  fontName Verdana
}

skinparam class {
    backgroundColor ccc
  borderColor 1a66c2
    fontColor 000
  fontName Verdana
  fontSize 11
  stereotypeFontColor 333
  stereotypeFontSize 11
    arrowColor 000
  arrowFontName Verdana
  arrowFontColor 333
  arrowFontSize 11

  attributeFontColor 333
  attributeFontSize 11
  attributeIconSize 11
}


skinparam ActivityBarColor 1a66c2
skinparam activityDiamondBackgroundColor ccc
skinparam activityDiamondBorderColor 1a66c2


skinparam actor {
    backgroundColor 2a86e2
  borderColor 1a66c2
    fontColor 000
  fontName Verdana
  fontSize 11
  stereotypeFontColor 333
  stereotypeFontSize 11
}

skinparam participant {
    backgroundColor ccc
  borderColor 1a66c2
    fontColor 000
  fontName Verdana
  fontSize 11
  stereotypeFontColor 333
  stereotypeFontSize 11
}

skinparam collections {
    backgroundColor ccc
  borderColor 1a66c2
    fontColor 000
  fontName Verdana
  fontSize 11
  stereotypeFontColor 333
  stereotypeFontSize 11
}

skinparam SequenceBox{
    backgroundColor e0e0e0
  borderColor 1a66c2
    fontColor 000
  fontName Verdana
  fontSize 11
  stereotypeFontColor 333
  stereotypeFontSize 11
}


skinparam interface {
    backgroundColor 2a86e2
  borderColor 1a66c2
    fontColor 000
  fontName Verdana
  fontSize 11
  stereotypeFontColor 333
  stereotypeFontSize 11
}

skinparam component {
    backgroundColor ccc
  borderColor 1a66c2
    fontColor 000
  fontName Verdana
  fontSize 11
  stereotypeFontColor 333
  stereotypeFontSize 11
}

skinparam node {
    backgroundColor ccc
  borderColor 1a66c2
    fontColor 000
  fontName Verdana
  fontSize 11
  stereotypeFontColor 333
  stereotypeFontSize 11
}

skinparam database {
    backgroundColor ccc
  borderColor 1a66c2
    fontColor 000
  fontName Verdana
  fontSize 11
  stereotypeFontColor 333
  stereotypeFontSize 11
}

skinparam queue {
    backgroundColor ccc
  borderColor 1a66c2
    fontColor 000
  fontName Verdana
  fontSize 11
  stereotypeFontColor 333
  stereotypeFontSize 11
}


skinparam usecase {
    backgroundColor ccc
  borderColor 1a66c2
    fontColor 000
  fontName Verdana
  fontSize 11
  stereotypeFontColor 333
  stereotypeFontSize 11
    arrowColor 000
  arrowFontName Verdana
  arrowFontColor 333
  arrowFontSize 11
}

skinparam activity {
    backgroundColor ccc
  borderColor 1a66c2
    fontColor 000
  fontName Verdana
  fontSize 11
  stereotypeFontColor 333
  stereotypeFontSize 11
    arrowColor 000
  arrowFontName Verdana
  arrowFontColor 333
  arrowFontSize 11
}

skinparam sequence {
    fontColor 000
  fontName Verdana
  fontSize 11
  stereotypeFontColor 333
  stereotypeFontSize 11
    arrowColor 000
  arrowFontName Verdana
  arrowFontColor 333
  arrowFontSize 11

  lifeLineBorderColor 2a86e2
  lifeLineBackgroundColor e0e0e0
}

skinparam boundary {
    backgroundColor 2a86e2
  borderColor 1a66c2
    fontColor 000
  fontName Verdana
  fontSize 11
  stereotypeFontColor 333
  stereotypeFontSize 11
}

skinparam control {
    backgroundColor 2a86e2
  borderColor 1a66c2
    fontColor 000
  fontName Verdana
  fontSize 11
  stereotypeFontColor 333
  stereotypeFontSize 11
}

skinparam entity {
    backgroundColor 2a86e2
  borderColor 1a66c2
    fontColor 000
  fontName Verdana
  fontSize 11
  stereotypeFontColor 333
  stereotypeFontSize 11
}


skinparam state {
    backgroundColor ccc
  borderColor 1a66c2
    fontColor 000
  fontName Verdana
  fontSize 11
  stereotypeFontColor 333
  stereotypeFontSize 11
    arrowColor 000
  arrowFontName Verdana
  arrowFontColor 333
  arrowFontSize 11
  startColor 2a86e2
  endColor 1a66c2
}


skinparam object {
    backgroundColor ccc
  borderColor 1a66c2
    fontColor 000
  fontName Verdana
  fontSize 11
  stereotypeFontColor 333
  stereotypeFontSize 11
    arrowColor 000
  arrowFontName Verdana
  arrowFontColor 333
  arrowFontSize 11
}


skinparam note {
    backgroundColor 2a86e2
  borderColor 1a66c2
    fontColor 000
  fontName Verdana
  fontSize 11
  stereotypeFontColor 333
  stereotypeFontSize 11
}

skinparam cloud {
    backgroundColor ccc
  borderColor 1a66c2
    fontColor 000
  fontName Verdana
  fontSize 11
  stereotypeFontColor 333
  stereotypeFontSize 11
    arrowColor 000
  arrowFontName Verdana
  arrowFontColor 333
  arrowFontSize 11
}

skinparam rectangle {
    backgroundColor ccc
  borderColor 1a66c2
    fontColor 000
  fontName Verdana
  fontSize 11
  stereotypeFontColor 333
  stereotypeFontSize 11
}

skinparam storage {
    backgroundColor ccc
  borderColor 1a66c2
    fontColor 000
  fontName Verdana
  fontSize 11
  stereotypeFontColor 333
  stereotypeFontSize 11
}


partition "UIManager::change_orientation()"{
  start
  if (new orientation) then (landscape)
    if (name of active layout ends with '_wide'?) then (yes)
      :Emit info;
    else (no)
      :Append '_wide' to name of current layout;
      if (UIManager.change_layout_view()) then (Ok)
        :Emit info;
      else (error)
        :Emit info;
      endif
    endif
  else (portrait)
    if (name of active layout ends with '_wide'?) then (yes)
      if (ui_manager.change_layout_view) then (Ok)
        :Emit info;
      else (error)
        :Emit warning;
      endif
    else (no)
      :Emit info;
    endif
  endif
  stop
}
@enduml

PlantUML version 1.2020.19(Mon Oct 12 17:10:01 CEST 2020)
(GPL source distribution)
Java Runtime: OpenJDK Runtime Environment
JVM: OpenJDK 64-Bit Server VM
Default Encoding: UTF-8
Language: en
Country: US
--></g></svg>