<?xml version="1.0" encoding="UTF-8" standalone="no"?><svg xmlns="http://www.w3.org/2000/svg" xmlns:xlink="http://www.w3.org/1999/xlink" contentScriptType="application/ecmascript" contentStyleType="text/css" height="742px" preserveAspectRatio="none" style="width:423px;height:742px;" version="1.1" viewBox="0 0 423 742" width="423px" zoomAndPan="magnify"><defs><filter height="300%" id="f1vefjp4wmxs0w" width="300%" x="-1" y="-1"><feGaussianBlur result="blurOut" stdDeviation="2.0"/><feColorMatrix in="blurOut" result="blurOut2" type="matrix" values="0 0 0 0 0 0 0 0 0 0 0 0 0 0 0 0 0 0 .4 0"/><feOffset dx="4.0" dy="4.0" in="blurOut2" result="blurOut3"/><feBlend in="SourceGraphic" in2="blurOut3" mode="normal"/></filter></defs><g><rect fill="#FFFFFF" filter="url(#f1vefjp4wmxs0w)" height="714.92" style="stroke: #000000; stroke-width: 2.0;" width="395" x="11" y="11"/><path d="M177,12 L177,20.7999 L167,30.7999 L11,30.7999 " fill="none" style="stroke: #000000; stroke-width: 2.0;"/><text fill="#000000" font-family="sans-serif" font-size="14" lengthAdjust="spacingAndGlyphs" textLength="156" x="14" y="25.0059">GridBuilder::make_grid()</text><ellipse cx="208.5" cy="50.7999" fill="#000000" filter="url(#f1vefjp4wmxs0w)" rx="10" ry="10" style="stroke: none; stroke-width: 1.0;"/><rect fill="#FEFECE" filter="url(#f1vefjp4wmxs0w)" height="34.4001" rx="12.5" ry="12.5" style="stroke: #A80036; stroke-width: 1.5;" width="100" x="158.5" y="80.7999"/><text fill="#000000" font-family="sans-serif" font-size="12" lengthAdjust="spacingAndGlyphs" textLength="80" x="168.5" y="101.948">Make new grid</text><rect fill="#FEFECE" filter="url(#f1vefjp4wmxs0w)" height="34.4001" style="stroke: #A80036; stroke-width: 1.5;" width="77" x="170" y="135.2"/><text fill="#000000" font-family="sans-serif" font-size="12" lengthAdjust="spacingAndGlyphs" textLength="57" x="180" y="156.3481">grid = Grid</text><rect fill="#FEFECE" filter="url(#f1vefjp4wmxs0w)" height="34.4001" rx="12.5" ry="12.5" style="stroke: #A80036; stroke-width: 1.5;" width="220" x="98.5" y="189.6001"/><text fill="#000000" font-family="sans-serif" font-size="12" lengthAdjust="spacingAndGlyphs" textLength="200" x="108.5" y="210.7482">Make new storage for key references</text><rect fill="#FEFECE" filter="url(#f1vefjp4wmxs0w)" height="48.8002" style="stroke: #A80036; stroke-width: 1.5;" width="148" x="134.5" y="244.0002"/><text fill="#000000" font-family="sans-serif" font-size="12" lengthAdjust="spacingAndGlyphs" textLength="100" x="156.5" y="265.1483">&lt;&lt;CentralBuffer&gt;&gt;</text><text fill="#000000" font-family="sans-serif" font-size="12" lengthAdjust="spacingAndGlyphs" textLength="128" x="144.5" y="279.5484">KeyReferences storage</text><rect fill="#FEFECE" filter="url(#f1vefjp4wmxs0w)" height="34.4001" rx="12.5" ry="12.5" style="stroke: #A80036; stroke-width: 1.5;" width="131" x="143" y="368.5194"/><text fill="#000000" font-family="sans-serif" font-size="12" lengthAdjust="spacingAndGlyphs" textLength="111" x="153" y="389.6674">Get KeyMeta of view</text><rect fill="#FEFECE" filter="url(#f1vefjp4wmxs0w)" height="34.4001" rx="12.5" ry="12.5" style="stroke: #A80036; stroke-width: 1.5;" width="167" x="125" y="422.9195"/><text fill="#000000" font-family="sans-serif" font-size="12" lengthAdjust="spacingAndGlyphs" textLength="147" x="135" y="444.0675">GridBuilder::make_button()</text><rect fill="#FEFECE" filter="url(#f1vefjp4wmxs0w)" height="34.4001" rx="12.5" ry="12.5" style="stroke: #A80036; stroke-width: 1.5;" width="181" x="118" y="492.3196"/><text fill="#000000" font-family="sans-serif" font-size="12" lengthAdjust="spacingAndGlyphs" textLength="161" x="128" y="513.4676">GridBuilder::attach_popover()</text><rect fill="#FEFECE" filter="url(#f1vefjp4wmxs0w)" height="48.8002" rx="12.5" ry="12.5" style="stroke: #A80036; stroke-width: 1.5;" width="339" x="39" y="546.7197"/><text fill="#000000" font-family="sans-serif" font-size="12" lengthAdjust="spacingAndGlyphs" textLength="233" x="49" y="567.8677">Place new button at that location in the grid</text><text fill="#000000" font-family="sans-serif" font-size="12" lengthAdjust="spacingAndGlyphs" textLength="319" x="49" y="582.2678">:Add the button and its Popover to hashmap_with_key_refs</text><polygon fill="#FEFECE" filter="url(#f1vefjp4wmxs0w)" points="100,312.8004,317,312.8004,329,324.8004,317,336.8004,100,336.8004,88,324.8004,100,312.8004" style="stroke: #A80036; stroke-width: 1.5;"/><text fill="#000000" font-family="sans-serif" font-size="11" lengthAdjust="spacingAndGlyphs" textLength="19" x="212.5" y="347.0194">true</text><text fill="#000000" font-family="sans-serif" font-size="11" lengthAdjust="spacingAndGlyphs" textLength="217" x="100" y="328.4194">for each Location in KeyArrangement of view</text><text fill="#000000" font-family="sans-serif" font-size="11" lengthAdjust="spacingAndGlyphs" textLength="23" x="65" y="321.8195">false</text><rect fill="#FEFECE" filter="url(#f1vefjp4wmxs0w)" height="34.4001" style="stroke: #A80036; stroke-width: 1.5;" width="188" x="114.5" y="637.5199"/><text fill="#000000" font-family="sans-serif" font-size="12" lengthAdjust="spacingAndGlyphs" textLength="168" x="124.5" y="658.6679">(grid, hashmap_with_key_refs)</text><ellipse cx="208.5" cy="702.92" fill="#FFFFFF" filter="url(#f1vefjp4wmxs0w)" rx="11" ry="11" style="stroke: #000000; stroke-width: 1.0;"/><ellipse cx="208.5" cy="702.92" fill="#000000" rx="6" ry="6" style="stroke: #7F7F7F; stroke-width: 1.0;"/><line style="stroke: #A80036; stroke-width: 1.5;" x1="208.5" x2="208.5" y1="60.7999" y2="80.7999"/><polygon fill="#A80036" points="204.5,70.7999,208.5,80.7999,212.5,70.7999,208.5,74.7999" style="stroke: #A80036; stroke-width: 1.0;"/><line style="stroke: #A80036; stroke-width: 1.5;" x1="208.5" x2="208.5" y1="115.2" y2="135.2"/><polygon fill="#A80036" points="204.5,125.2,208.5,135.2,212.5,125.2,208.5,129.2" style="stroke: #A80036; stroke-width: 1.0;"/><line style="stroke: #A80036; stroke-width: 1.5;" x1="208.5" x2="208.5" y1="169.6001" y2="189.6001"/><polygon fill="#A80036" points="204.5,179.6001,208.5,189.6001,212.5,179.6001,208.5,183.6001" style="stroke: #A80036; stroke-width: 1.0;"/><line style="stroke: #A80036; stroke-width: 1.5;" x1="208.5" x2="208.5" y1="224.0002" y2="244.0002"/><polygon fill="#A80036" points="204.5,234.0002,208.5,244.0002,212.5,234.0002,208.5,238.0002" style="stroke: #A80036; stroke-width: 1.0;"/><line style="stroke: #A80036; stroke-width: 1.5;" x1="208.5" x2="208.5" y1="402.9195" y2="422.9195"/><polygon fill="#A80036" points="204.5,412.9195,208.5,422.9195,212.5,412.9195,208.5,416.9195" style="stroke: #A80036; stroke-width: 1.0;"/><line style="stroke: #A80036; stroke-width: 1.5;" x1="208.5" x2="208.5" y1="457.3196" y2="492.3196"/><polygon fill="#A80036" points="204.5,482.3196,208.5,492.3196,212.5,482.3196,208.5,486.3196" style="stroke: #A80036; stroke-width: 1.0;"/><line style="stroke: #A80036; stroke-width: 1.5;" x1="208.5" x2="208.5" y1="526.7197" y2="546.7197"/><polygon fill="#A80036" points="204.5,536.7197,208.5,546.7197,212.5,536.7197,208.5,540.7197" style="stroke: #A80036; stroke-width: 1.0;"/><line style="stroke: #A80036; stroke-width: 1.5;" x1="208.5" x2="208.5" y1="336.8004" y2="368.5194"/><polygon fill="#A80036" points="204.5,358.5194,208.5,368.5194,212.5,358.5194,208.5,362.5194" style="stroke: #A80036; stroke-width: 1.0;"/><line style="stroke: #A80036; stroke-width: 1.5;" x1="208.5" x2="208.5" y1="595.5199" y2="605.5199"/><line style="stroke: #A80036; stroke-width: 1.5;" x1="208.5" x2="390" y1="605.5199" y2="605.5199"/><polygon fill="#A80036" points="386,473.4197,390,463.4197,394,473.4197,390,469.4197" style="stroke: #A80036; stroke-width: 1.5;"/><line style="stroke: #A80036; stroke-width: 1.5;" x1="390" x2="390" y1="324.8004" y2="605.5199"/><line style="stroke: #A80036; stroke-width: 1.5;" x1="390" x2="329" y1="324.8004" y2="324.8004"/><polygon fill="#A80036" points="339,320.8004,329,324.8004,339,328.8004,335,324.8004" style="stroke: #A80036; stroke-width: 1.0;"/><line style="stroke: #A80036; stroke-width: 1.5;" x1="88" x2="27" y1="324.8004" y2="324.8004"/><polygon fill="#A80036" points="23,459.4197,27,469.4197,31,459.4197,27,463.4197" style="stroke: #A80036; stroke-width: 1.5;"/><line style="stroke: #A80036; stroke-width: 1.5;" x1="27" x2="27" y1="324.8004" y2="617.5199"/><line style="stroke: #A80036; stroke-width: 1.5;" x1="27" x2="208.5" y1="617.5199" y2="617.5199"/><line style="stroke: #A80036; stroke-width: 1.5;" x1="208.5" x2="208.5" y1="617.5199" y2="637.5199"/><polygon fill="#A80036" points="204.5,627.5199,208.5,637.5199,212.5,627.5199,208.5,631.5199" style="stroke: #A80036; stroke-width: 1.0;"/><line style="stroke: #A80036; stroke-width: 1.5;" x1="208.5" x2="208.5" y1="292.8004" y2="312.8004"/><polygon fill="#A80036" points="204.5,302.8004,208.5,312.8004,212.5,302.8004,208.5,306.8004" style="stroke: #A80036; stroke-width: 1.0;"/><line style="stroke: #A80036; stroke-width: 1.5;" x1="208.5" x2="208.5" y1="671.92" y2="691.92"/><polygon fill="#A80036" points="204.5,681.92,208.5,691.92,212.5,681.92,208.5,685.92" style="stroke: #A80036; stroke-width: 1.0;"/><!--MD5=[95e94b013210a1a3d660de6f48aef7c8]
@startuml grid_builder_make_grid

partition "GridBuilder::make_grid()"{  
  start
  :Make new grid;
  :grid = Grid]
  :Make new storage for key references;
  :    <<CentralBuffer>>
  KeyReferences storage]

  while (for each Location in KeyArrangement of view) is (true)
    :Get KeyMeta of view;
    :GridBuilder::make_button();
    :GridBuilder::attach_popover();
    :Place new button at that location in the grid
    :Add the button and its Popover to hashmap_with_key_refs;
  endwhile (false)
  :(grid, hashmap_with_key_refs)]
  stop
}
@enduml

PlantUML version 1.2020.15(Sun Jun 28 13:39:45 CEST 2020)
(MIT source distribution)
Java Runtime: OpenJDK Runtime Environment
JVM: OpenJDK 64-Bit Server VM
Default Encoding: UTF-8
Language: en
Country: US
--></g></svg>