<?xml version="1.0" encoding="UTF-8" standalone="no"?><svg xmlns="http://www.w3.org/2000/svg" xmlns:xlink="http://www.w3.org/1999/xlink" contentScriptType="application/ecmascript" contentStyleType="text/css" height="1106px" preserveAspectRatio="none" style="width:319px;height:1106px;" version="1.1" viewBox="0 0 319 1106" width="319px" zoomAndPan="magnify"><defs><filter height="300%" id="fy1lya837ydza" width="300%" x="-1" y="-1"><feGaussianBlur result="blurOut" stdDeviation="2.0"/><feColorMatrix in="blurOut" result="blurOut2" type="matrix" values="0 0 0 0 0 0 0 0 0 0 0 0 0 0 0 0 0 0 .4 0"/><feOffset dx="4.0" dy="4.0" in="blurOut2" result="blurOut3"/><feBlend in="SourceGraphic" in2="blurOut3" mode="normal"/></filter></defs><g><rect fill="#FFFFFF" filter="url(#fy1lya837ydza)" height="1078.3394" style="stroke: #000000; stroke-width: 2.0;" width="291" x="11" y="11"/><path d="M209,12 L209,20.7999 L199,30.7999 L11,30.7999 " fill="none" style="stroke: #000000; stroke-width: 2.0;"/><text fill="#000000" font-family="sans-serif" font-size="14" lengthAdjust="spacingAndGlyphs" textLength="188" x="14" y="25.0059">GridBuilder::attach_popover()</text><ellipse cx="156.5" cy="50.7999" fill="#000000" filter="url(#fy1lya837ydza)" rx="10" ry="10" style="stroke: none; stroke-width: 1.0;"/><rect fill="#FEFECE" filter="url(#fy1lya837ydza)" height="34.4001" rx="12.5" ry="12.5" style="stroke: #A80036; stroke-width: 1.5;" width="231" x="41" y="80.7999"/><text fill="#000000" font-family="sans-serif" font-size="12" lengthAdjust="spacingAndGlyphs" textLength="211" x="51" y="101.948">Create a new option to have a popover</text><rect fill="#FEFECE" filter="url(#fy1lya837ydza)" height="34.4001" style="stroke: #A80036; stroke-width: 1.5;" width="143" x="85" y="135.2"/><text fill="#000000" font-family="sans-serif" font-size="12" lengthAdjust="spacingAndGlyphs" textLength="123" x="95" y="156.3481">popover_option=None</text><rect fill="#FEFECE" filter="url(#fy1lya837ydza)" height="34.4001" rx="12.5" ry="12.5" style="stroke: #A80036; stroke-width: 1.5;" width="131" x="91" y="238.2001"/><text fill="#000000" font-family="sans-serif" font-size="12" lengthAdjust="spacingAndGlyphs" textLength="111" x="101" y="259.3482">Create new popover</text><rect fill="#FEFECE" filter="url(#fy1lya837ydza)" height="34.4001" style="stroke: #A80036; stroke-width: 1.5;" width="118" x="97.5" y="292.6002"/><text fill="#000000" font-family="sans-serif" font-size="12" lengthAdjust="spacingAndGlyphs" textLength="98" x="107.5" y="313.7483">popover=Popover</text><rect fill="#FEFECE" filter="url(#fy1lya837ydza)" height="34.4001" rx="12.5" ry="12.5" style="stroke: #A80036; stroke-width: 1.5;" width="148" x="82.5" y="347.0003"/><text fill="#000000" font-family="sans-serif" font-size="12" lengthAdjust="spacingAndGlyphs" textLength="128" x="92.5" y="368.1484">Create new vertical box</text><rect fill="#FEFECE" filter="url(#fy1lya837ydza)" height="34.4001" rx="12.5" ry="12.5" style="stroke: #A80036; stroke-width: 1.5;" width="122" x="95.5" y="457.1193"/><text fill="#000000" font-family="sans-serif" font-size="12" lengthAdjust="spacingAndGlyphs" textLength="102" x="105.5" y="478.2674">Add horizontal box</text><rect fill="#FEFECE" filter="url(#fy1lya837ydza)" height="77.6004" rx="12.5" ry="12.5" style="stroke: #A80036; stroke-width: 1.5;" width="179" x="67" y="567.2383"/><text fill="#000000" font-family="sans-serif" font-size="12" lengthAdjust="spacingAndGlyphs" textLength="131" x="77" y="588.3864">Make new popup button</text><text fill="#000000" font-family="sans-serif" font-size="12" lengthAdjust="spacingAndGlyphs" textLength="159" x="77" y="602.7865">Add style class 'popover_key'</text><text fill="#000000" font-family="sans-serif" font-size="12" lengthAdjust="spacingAndGlyphs" textLength="104" x="77" y="617.1866">Set its label to its id</text><text fill="#000000" font-family="sans-serif" font-size="12" lengthAdjust="spacingAndGlyphs" textLength="124" x="77" y="631.5867">Add it to horizontal box</text><rect fill="#FEFECE" filter="url(#fy1lya837ydza)" height="63.2003" rx="12.5" ry="12.5" style="stroke: #A80036; stroke-width: 1.5;" width="191" x="61" y="666.5387"/><text fill="#000000" font-family="sans-serif" font-size="12" lengthAdjust="spacingAndGlyphs" textLength="152" x="71" y="687.6868">Connect its 'clicked' event to</text><text fill="#000000" font-family="sans-serif" font-size="12" lengthAdjust="spacingAndGlyphs" textLength="171" x="71" y="702.0869">sending a SubmitText message</text><text fill="#000000" font-family="sans-serif" font-size="12" lengthAdjust="spacingAndGlyphs" textLength="50" x="71" y="716.487">with its id</text><polygon fill="#FEFECE" filter="url(#fy1lya837ydza)" points="88,511.5194,225,511.5194,237,523.5194,225,535.5194,88,535.5194,76,523.5194,88,511.5194" style="stroke: #A80036; stroke-width: 1.5;"/><text fill="#000000" font-family="sans-serif" font-size="11" lengthAdjust="spacingAndGlyphs" textLength="19" x="160.5" y="545.7383">true</text><text fill="#000000" font-family="sans-serif" font-size="11" lengthAdjust="spacingAndGlyphs" textLength="137" x="88" y="527.1384">for popup_id in popup_string</text><text fill="#000000" font-family="sans-serif" font-size="11" lengthAdjust="spacingAndGlyphs" textLength="23" x="53" y="520.5384">false</text><rect fill="#FEFECE" filter="url(#fy1lya837ydza)" height="34.4001" rx="12.5" ry="12.5" style="stroke: #A80036; stroke-width: 1.5;" width="200" x="56.5" y="771.739"/><text fill="#000000" font-family="sans-serif" font-size="12" lengthAdjust="spacingAndGlyphs" textLength="180" x="66.5" y="792.8871">Add horizontal box to vertical box</text><polygon fill="#FEFECE" filter="url(#fy1lya837ydza)" points="88.5,401.4004,224.5,401.4004,236.5,413.4004,224.5,425.4004,88.5,425.4004,76.5,413.4004,88.5,401.4004" style="stroke: #A80036; stroke-width: 1.5;"/><text fill="#000000" font-family="sans-serif" font-size="11" lengthAdjust="spacingAndGlyphs" textLength="19" x="160.5" y="435.6193">true</text><text fill="#000000" font-family="sans-serif" font-size="11" lengthAdjust="spacingAndGlyphs" textLength="136" x="88.5" y="417.0194">for popup_string in KeyMeta</text><text fill="#000000" font-family="sans-serif" font-size="11" lengthAdjust="spacingAndGlyphs" textLength="23" x="53.5" y="410.4194">false</text><rect fill="#FEFECE" filter="url(#fy1lya837ydza)" height="34.4001" rx="12.5" ry="12.5" style="stroke: #A80036; stroke-width: 1.5;" width="168" x="72.5" y="848.1391"/><text fill="#000000" font-family="sans-serif" font-size="12" lengthAdjust="spacingAndGlyphs" textLength="148" x="82.5" y="869.2872">Add vertical box to popover</text><rect fill="#FEFECE" filter="url(#fy1lya837ydza)" height="34.4001" rx="12.5" ry="12.5" style="stroke: #A80036; stroke-width: 1.5;" width="204" x="54.5" y="902.5392"/><text fill="#000000" font-family="sans-serif" font-size="12" lengthAdjust="spacingAndGlyphs" textLength="184" x="64.5" y="923.6873">popover_option = Some(popover)</text><polygon fill="#FEFECE" filter="url(#fy1lya837ydza)" points="86.5,189.6001,226.5,189.6001,238.5,201.6001,226.5,213.6001,86.5,213.6001,74.5,201.6001,86.5,189.6001" style="stroke: #A80036; stroke-width: 1.5;"/><text fill="#000000" font-family="sans-serif" font-size="11" lengthAdjust="spacingAndGlyphs" textLength="18" x="160.5" y="223.8191">yes</text><text fill="#000000" font-family="sans-serif" font-size="11" lengthAdjust="spacingAndGlyphs" textLength="140" x="86.5" y="205.2191">Key ought to have a popover</text><text fill="#000000" font-family="sans-serif" font-size="11" lengthAdjust="spacingAndGlyphs" textLength="12" x="238.5" y="198.6192">no</text><polygon fill="#FEFECE" filter="url(#fy1lya837ydza)" points="156.5,956.9393,168.5,968.9393,156.5,980.9393,144.5,968.9393,156.5,956.9393" style="stroke: #A80036; stroke-width: 1.5;"/><rect fill="#FEFECE" filter="url(#fy1lya837ydza)" height="34.4001" style="stroke: #A80036; stroke-width: 1.5;" width="106" x="103.5" y="1000.9393"/><text fill="#000000" font-family="sans-serif" font-size="12" lengthAdjust="spacingAndGlyphs" textLength="86" x="113.5" y="1022.0874">popover_option</text><ellipse cx="156.5" cy="1066.3394" fill="#FFFFFF" filter="url(#fy1lya837ydza)" rx="11" ry="11" style="stroke: #000000; stroke-width: 1.0;"/><ellipse cx="156.5" cy="1066.3394" fill="#000000" rx="6" ry="6" style="stroke: #7F7F7F; stroke-width: 1.0;"/><line style="stroke: #A80036; stroke-width: 1.5;" x1="156.5" x2="156.5" y1="60.7999" y2="80.7999"/><polygon fill="#A80036" points="152.5,70.7999,156.5,80.7999,160.5,70.7999,156.5,74.7999" style="stroke: #A80036; stroke-width: 1.0;"/><line style="stroke: #A80036; stroke-width: 1.5;" x1="156.5" x2="156.5" y1="115.2" y2="135.2"/><polygon fill="#A80036" points="152.5,125.2,156.5,135.2,160.5,125.2,156.5,129.2" style="stroke: #A80036; stroke-width: 1.0;"/><line style="stroke: #A80036; stroke-width: 1.5;" x1="156.5" x2="156.5" y1="272.6002" y2="292.6002"/><polygon fill="#A80036" points="152.5,282.6002,156.5,292.6002,160.5,282.6002,156.5,286.6002" style="stroke: #A80036; stroke-width: 1.0;"/><line style="stroke: #A80036; stroke-width: 1.5;" x1="156.5" x2="156.5" y1="327.0003" y2="347.0003"/><polygon fill="#A80036" points="152.5,337.0003,156.5,347.0003,160.5,337.0003,156.5,341.0003" style="stroke: #A80036; stroke-width: 1.0;"/><line style="stroke: #A80036; stroke-width: 1.5;" x1="156.5" x2="156.5" y1="644.8387" y2="666.5387"/><polygon fill="#A80036" points="152.5,656.5387,156.5,666.5387,160.5,656.5387,156.5,660.5387" style="stroke: #A80036; stroke-width: 1.0;"/><line style="stroke: #A80036; stroke-width: 1.5;" x1="156.5" x2="156.5" y1="535.5194" y2="567.2383"/><polygon fill="#A80036" points="152.5,557.2383,156.5,567.2383,160.5,557.2383,156.5,561.2383" style="stroke: #A80036; stroke-width: 1.0;"/><line style="stroke: #A80036; stroke-width: 1.5;" x1="156.5" x2="156.5" y1="729.739" y2="739.739"/><line style="stroke: #A80036; stroke-width: 1.5;" x1="156.5" x2="264" y1="739.739" y2="739.739"/><polygon fill="#A80036" points="260,646.5387,264,636.5387,268,646.5387,264,642.5387" style="stroke: #A80036; stroke-width: 1.5;"/><line style="stroke: #A80036; stroke-width: 1.5;" x1="264" x2="264" y1="523.5194" y2="739.739"/><line style="stroke: #A80036; stroke-width: 1.5;" x1="264" x2="237" y1="523.5194" y2="523.5194"/><polygon fill="#A80036" points="247,519.5194,237,523.5194,247,527.5194,243,523.5194" style="stroke: #A80036; stroke-width: 1.0;"/><line style="stroke: #A80036; stroke-width: 1.5;" x1="76" x2="49" y1="523.5194" y2="523.5194"/><polygon fill="#A80036" points="45,632.5387,49,642.5387,53,632.5387,49,636.5387" style="stroke: #A80036; stroke-width: 1.5;"/><line style="stroke: #A80036; stroke-width: 1.5;" x1="49" x2="49" y1="523.5194" y2="751.739"/><line style="stroke: #A80036; stroke-width: 1.5;" x1="49" x2="156.5" y1="751.739" y2="751.739"/><line style="stroke: #A80036; stroke-width: 1.5;" x1="156.5" x2="156.5" y1="751.739" y2="771.739"/><polygon fill="#A80036" points="152.5,761.739,156.5,771.739,160.5,761.739,156.5,765.739" style="stroke: #A80036; stroke-width: 1.0;"/><line style="stroke: #A80036; stroke-width: 1.5;" x1="156.5" x2="156.5" y1="491.5194" y2="511.5194"/><polygon fill="#A80036" points="152.5,501.5194,156.5,511.5194,160.5,501.5194,156.5,505.5194" style="stroke: #A80036; stroke-width: 1.0;"/><line style="stroke: #A80036; stroke-width: 1.5;" x1="156.5" x2="156.5" y1="425.4004" y2="457.1193"/><polygon fill="#A80036" points="152.5,447.1193,156.5,457.1193,160.5,447.1193,156.5,451.1193" style="stroke: #A80036; stroke-width: 1.0;"/><line style="stroke: #A80036; stroke-width: 1.5;" x1="156.5" x2="156.5" y1="806.1391" y2="816.1391"/><line style="stroke: #A80036; stroke-width: 1.5;" x1="156.5" x2="276" y1="816.1391" y2="816.1391"/><polygon fill="#A80036" points="272,627.9388,276,617.9388,280,627.9388,276,623.9388" style="stroke: #A80036; stroke-width: 1.5;"/><line style="stroke: #A80036; stroke-width: 1.5;" x1="276" x2="276" y1="413.4004" y2="816.1391"/><line style="stroke: #A80036; stroke-width: 1.5;" x1="276" x2="236.5" y1="413.4004" y2="413.4004"/><polygon fill="#A80036" points="246.5,409.4004,236.5,413.4004,246.5,417.4004,242.5,413.4004" style="stroke: #A80036; stroke-width: 1.0;"/><line style="stroke: #A80036; stroke-width: 1.5;" x1="76.5" x2="27" y1="413.4004" y2="413.4004"/><polygon fill="#A80036" points="23,613.9388,27,623.9388,31,613.9388,27,617.9388" style="stroke: #A80036; stroke-width: 1.5;"/><line style="stroke: #A80036; stroke-width: 1.5;" x1="27" x2="27" y1="413.4004" y2="828.1391"/><line style="stroke: #A80036; stroke-width: 1.5;" x1="27" x2="156.5" y1="828.1391" y2="828.1391"/><line style="stroke: #A80036; stroke-width: 1.5;" x1="156.5" x2="156.5" y1="828.1391" y2="848.1391"/><polygon fill="#A80036" points="152.5,838.1391,156.5,848.1391,160.5,838.1391,156.5,842.1391" style="stroke: #A80036; stroke-width: 1.0;"/><line style="stroke: #A80036; stroke-width: 1.5;" x1="156.5" x2="156.5" y1="381.4004" y2="401.4004"/><polygon fill="#A80036" points="152.5,391.4004,156.5,401.4004,160.5,391.4004,156.5,395.4004" style="stroke: #A80036; stroke-width: 1.0;"/><line style="stroke: #A80036; stroke-width: 1.5;" x1="156.5" x2="156.5" y1="882.5392" y2="902.5392"/><polygon fill="#A80036" points="152.5,892.5392,156.5,902.5392,160.5,892.5392,156.5,896.5392" style="stroke: #A80036; stroke-width: 1.0;"/><line style="stroke: #A80036; stroke-width: 1.5;" x1="156.5" x2="156.5" y1="213.6001" y2="238.2001"/><polygon fill="#A80036" points="152.5,228.2001,156.5,238.2001,160.5,228.2001,156.5,232.2001" style="stroke: #A80036; stroke-width: 1.0;"/><line style="stroke: #A80036; stroke-width: 1.5;" x1="238.5" x2="286" y1="201.6001" y2="201.6001"/><polygon fill="#A80036" points="282,573.2387,286,583.2387,290,573.2387,286,577.2387" style="stroke: #A80036; stroke-width: 1.5;"/><line style="stroke: #A80036; stroke-width: 1.5;" x1="286" x2="286" y1="201.6001" y2="968.9393"/><line style="stroke: #A80036; stroke-width: 1.5;" x1="286" x2="168.5" y1="968.9393" y2="968.9393"/><polygon fill="#A80036" points="178.5,964.9393,168.5,968.9393,178.5,972.9393,174.5,968.9393" style="stroke: #A80036; stroke-width: 1.0;"/><line style="stroke: #A80036; stroke-width: 1.5;" x1="156.5" x2="156.5" y1="936.9393" y2="956.9393"/><polygon fill="#A80036" points="152.5,946.9393,156.5,956.9393,160.5,946.9393,156.5,950.9393" style="stroke: #A80036; stroke-width: 1.0;"/><line style="stroke: #A80036; stroke-width: 1.5;" x1="156.5" x2="156.5" y1="169.6001" y2="189.6001"/><polygon fill="#A80036" points="152.5,179.6001,156.5,189.6001,160.5,179.6001,156.5,183.6001" style="stroke: #A80036; stroke-width: 1.0;"/><line style="stroke: #A80036; stroke-width: 1.5;" x1="156.5" x2="156.5" y1="980.9393" y2="1000.9393"/><polygon fill="#A80036" points="152.5,990.9393,156.5,1000.9393,160.5,990.9393,156.5,994.9393" style="stroke: #A80036; stroke-width: 1.0;"/><line style="stroke: #A80036; stroke-width: 1.5;" x1="156.5" x2="156.5" y1="1035.3394" y2="1055.3394"/><polygon fill="#A80036" points="152.5,1045.3394,156.5,1055.3394,160.5,1045.3394,156.5,1049.3394" style="stroke: #A80036; stroke-width: 1.0;"/><!--MD5=[446fc6eb7d537c01aadc93d5e66734f6]
@startuml grid_builder_attach_popover

partition "GridBuilder::attach_popover()"{
  start
  :Create a new option to have a popover;
  :popover_option=None]

  if (Key ought to have a popover) then (yes)
    :Create new popover;
    :popover=Popover]
    :Create new vertical box;
    while (for popup_string in KeyMeta) is (true)
      :Add horizontal box;
      while (for popup_id in popup_string) is (true)
        :Make new popup button
        Add style class 'popover_key'
        Set its label to its id
        Add it to horizontal box;
        :Connect its 'clicked' event to 
        sending a SubmitText message
        with its id;
      endwhile (false)
      :Add horizontal box to vertical box;
    endwhile (false)
    :Add vertical box to popover;
    :popover_option = Some(popover);
  else (no)
  endif
  :popover_option]
  stop
}
@enduml

PlantUML version 1.2020.15(Sun Jun 28 13:39:45 CEST 2020)
(MIT source distribution)
Java Runtime: OpenJDK Runtime Environment
JVM: OpenJDK 64-Bit Server VM
Default Encoding: UTF-8
Language: en
Country: US
--></g></svg>