<?xml version="1.0" encoding="UTF-8" standalone="no"?><svg xmlns="http://www.w3.org/2000/svg" xmlns:xlink="http://www.w3.org/1999/xlink" contentScriptType="application/ecmascript" contentStyleType="text/css" height="707px" preserveAspectRatio="none" style="width:582px;height:707px;" version="1.1" viewBox="0 0 582 707" width="582px" zoomAndPan="magnify"><defs><filter height="300%" id="fpayini37bsss" width="300%" x="-1" y="-1"><feGaussianBlur result="blurOut" stdDeviation="2.0"/><feColorMatrix in="blurOut" result="blurOut2" type="matrix" values="0 0 0 0 0 0 0 0 0 0 0 0 0 0 0 0 0 0 .4 0"/><feOffset dx="4.0" dy="4.0" in="blurOut2" result="blurOut3"/><feBlend in="SourceGraphic" in2="blurOut3" mode="normal"/></filter></defs><g><rect fill="#FFFFFF" filter="url(#fpayini37bsss)" height="679.6007" style="stroke: #000000; stroke-width: 2.0;" width="554" x="11" y="11"/><path d="M193,12 L193,20.7999 L183,30.7999 L11,30.7999 " fill="none" style="stroke: #000000; stroke-width: 2.0;"/><text fill="#000000" font-family="sans-serif" font-size="14" lengthAdjust="spacingAndGlyphs" textLength="172" x="14" y="25.0059">GridBuilder::make_button()</text><ellipse cx="268.875" cy="50.7999" fill="#000000" filter="url(#fpayini37bsss)" rx="10" ry="10" style="stroke: none; stroke-width: 1.0;"/><rect fill="#FEFECE" filter="url(#fpayini37bsss)" height="34.4001" rx="12.5" ry="12.5" style="stroke: #A80036; stroke-width: 1.5;" width="152" x="192.875" y="80.7999"/><text fill="#000000" font-family="sans-serif" font-size="12" lengthAdjust="spacingAndGlyphs" textLength="132" x="202.875" y="101.948">Make new ToggleButton</text><rect fill="#FEFECE" filter="url(#fpayini37bsss)" height="34.4001" style="stroke: #A80036; stroke-width: 1.5;" width="140" x="198.875" y="135.2"/><text fill="#000000" font-family="sans-serif" font-size="12" lengthAdjust="spacingAndGlyphs" textLength="120" x="208.875" y="156.3481">button = ToggleButton</text><rect fill="#FEFECE" filter="url(#fpayini37bsss)" height="48.8002" rx="12.5" ry="12.5" style="stroke: #A80036; stroke-width: 1.5;" width="243" x="147.375" y="189.6001"/><text fill="#000000" font-family="sans-serif" font-size="12" lengthAdjust="spacingAndGlyphs" textLength="107" x="157.375" y="210.7482">Add style class 'key'</text><text fill="#000000" font-family="sans-serif" font-size="12" lengthAdjust="spacingAndGlyphs" textLength="223" x="157.375" y="225.1483">Add style class which is named its key_id</text><rect fill="#FEFECE" filter="url(#fpayini37bsss)" height="34.4001" rx="12.5" ry="12.5" style="stroke: #A80036; stroke-width: 1.5;" width="163" x="187.375" y="307.0003"/><text fill="#000000" font-family="sans-serif" font-size="12" lengthAdjust="spacingAndGlyphs" textLength="143" x="197.375" y="328.1484">Add all of the style classes</text><polygon fill="#FEFECE" filter="url(#fpayini37bsss)" points="183.375,258.4003,354.375,258.4003,366.375,270.4003,354.375,282.4003,183.375,282.4003,171.375,270.4003,183.375,258.4003" style="stroke: #A80036; stroke-width: 1.5;"/><text fill="#000000" font-family="sans-serif" font-size="11" lengthAdjust="spacingAndGlyphs" textLength="18" x="272.875" y="292.6193">yes</text><text fill="#000000" font-family="sans-serif" font-size="11" lengthAdjust="spacingAndGlyphs" textLength="171" x="183.375" y="274.0193">More style classes are to be added</text><polygon fill="#FEFECE" filter="url(#fpayini37bsss)" points="268.875,361.4004,280.875,373.4004,268.875,385.4004,256.875,373.4004,268.875,361.4004" style="stroke: #A80036; stroke-width: 1.5;"/><polygon fill="#FEFECE" filter="url(#fpayini37bsss)" points="223.375,405.4004,314.375,405.4004,326.375,417.4004,314.375,429.4004,223.375,429.4004,211.375,417.4004,223.375,405.4004" style="stroke: #A80036; stroke-width: 1.5;"/><text fill="#000000" font-family="sans-serif" font-size="11" lengthAdjust="spacingAndGlyphs" textLength="91" x="223.375" y="421.0194">Key should display</text><text fill="#000000" font-family="sans-serif" font-size="11" lengthAdjust="spacingAndGlyphs" textLength="18" x="193.375" y="414.4194">text</text><text fill="#000000" font-family="sans-serif" font-size="11" lengthAdjust="spacingAndGlyphs" textLength="29" x="326.375" y="414.4194">image</text><rect fill="#FEFECE" filter="url(#fpayini37bsss)" height="34.4001" rx="12.5" ry="12.5" style="stroke: #A80036; stroke-width: 1.5;" width="171" x="23" y="439.4004"/><text fill="#000000" font-family="sans-serif" font-size="12" lengthAdjust="spacingAndGlyphs" textLength="151" x="33" y="460.5485">Set button's label to that text</text><polygon fill="#FEFECE" filter="url(#fpayini37bsss)" points="387.75,439.4004,470.75,439.4004,482.75,451.4004,470.75,463.4004,387.75,463.4004,375.75,451.4004,387.75,439.4004" style="stroke: #A80036; stroke-width: 1.5;"/><text fill="#000000" font-family="sans-serif" font-size="11" lengthAdjust="spacingAndGlyphs" textLength="83" x="387.75" y="455.0194">Image was found</text><text fill="#000000" font-family="sans-serif" font-size="11" lengthAdjust="spacingAndGlyphs" textLength="18" x="357.75" y="448.4194">yes</text><text fill="#000000" font-family="sans-serif" font-size="11" lengthAdjust="spacingAndGlyphs" textLength="23" x="482.75" y="448.4194">false</text><rect fill="#FEFECE" filter="url(#fpayini37bsss)" height="48.8002" rx="12.5" ry="12.5" style="stroke: #A80036; stroke-width: 1.5;" width="236" x="224" y="473.4004"/><text fill="#000000" font-family="sans-serif" font-size="12" lengthAdjust="spacingAndGlyphs" textLength="167" x="234" y="494.5485">Set button to display the image</text><text fill="#000000" font-family="sans-serif" font-size="12" lengthAdjust="spacingAndGlyphs" textLength="216" x="234" y="508.9486">Have the button always show the image</text><rect fill="#FEFECE" filter="url(#fpayini37bsss)" height="34.4001" rx="12.5" ry="12.5" style="stroke: #A80036; stroke-width: 1.5;" width="73" x="480" y="473.4004"/><text fill="#000000" font-family="sans-serif" font-size="12" lengthAdjust="spacingAndGlyphs" textLength="53" x="490" y="494.5485">Emit error</text><polygon fill="#FEFECE" filter="url(#fpayini37bsss)" points="429.25,528.2006,441.25,540.2006,429.25,552.2006,417.25,540.2006,429.25,528.2006" style="stroke: #A80036; stroke-width: 1.5;"/><polygon fill="#FEFECE" filter="url(#fpayini37bsss)" points="268.875,558.2006,280.875,570.2006,268.875,582.2006,256.875,570.2006,268.875,558.2006" style="stroke: #A80036; stroke-width: 1.5;"/><rect fill="#FEFECE" filter="url(#fpayini37bsss)" height="34.4001" style="stroke: #A80036; stroke-width: 1.5;" width="54" x="241.875" y="602.2006"/><text fill="#000000" font-family="sans-serif" font-size="12" lengthAdjust="spacingAndGlyphs" textLength="34" x="251.875" y="623.3487">button</text><ellipse cx="268.875" cy="667.6007" fill="#FFFFFF" filter="url(#fpayini37bsss)" rx="11" ry="11" style="stroke: #000000; stroke-width: 1.0;"/><ellipse cx="268.875" cy="667.6007" fill="#000000" rx="6" ry="6" style="stroke: #7F7F7F; stroke-width: 1.0;"/><line style="stroke: #A80036; stroke-width: 1.5;" x1="268.875" x2="268.875" y1="60.7999" y2="80.7999"/><polygon fill="#A80036" points="264.875,70.7999,268.875,80.7999,272.875,70.7999,268.875,74.7999" style="stroke: #A80036; stroke-width: 1.0;"/><line style="stroke: #A80036; stroke-width: 1.5;" x1="268.875" x2="268.875" y1="115.2" y2="135.2"/><polygon fill="#A80036" points="264.875,125.2,268.875,135.2,272.875,125.2,268.875,129.2" style="stroke: #A80036; stroke-width: 1.0;"/><line style="stroke: #A80036; stroke-width: 1.5;" x1="268.875" x2="268.875" y1="169.6001" y2="189.6001"/><polygon fill="#A80036" points="264.875,179.6001,268.875,189.6001,272.875,179.6001,268.875,183.6001" style="stroke: #A80036; stroke-width: 1.0;"/><line style="stroke: #A80036; stroke-width: 1.5;" x1="268.875" x2="268.875" y1="282.4003" y2="307.0003"/><polygon fill="#A80036" points="264.875,297.0003,268.875,307.0003,272.875,297.0003,268.875,301.0003" style="stroke: #A80036; stroke-width: 1.0;"/><line style="stroke: #A80036; stroke-width: 1.5;" x1="366.375" x2="378.375" y1="270.4003" y2="270.4003"/><polygon fill="#A80036" points="374.375,314.2003,378.375,324.2003,382.375,314.2003,378.375,318.2003" style="stroke: #A80036; stroke-width: 1.5;"/><line style="stroke: #A80036; stroke-width: 1.5;" x1="378.375" x2="378.375" y1="270.4003" y2="373.4004"/><line style="stroke: #A80036; stroke-width: 1.5;" x1="378.375" x2="280.875" y1="373.4004" y2="373.4004"/><polygon fill="#A80036" points="290.875,369.4004,280.875,373.4004,290.875,377.4004,286.875,373.4004" style="stroke: #A80036; stroke-width: 1.0;"/><line style="stroke: #A80036; stroke-width: 1.5;" x1="268.875" x2="268.875" y1="341.4004" y2="361.4004"/><polygon fill="#A80036" points="264.875,351.4004,268.875,361.4004,272.875,351.4004,268.875,355.4004" style="stroke: #A80036; stroke-width: 1.0;"/><line style="stroke: #A80036; stroke-width: 1.5;" x1="268.875" x2="268.875" y1="238.4003" y2="258.4003"/><polygon fill="#A80036" points="264.875,248.4003,268.875,258.4003,272.875,248.4003,268.875,252.4003" style="stroke: #A80036; stroke-width: 1.0;"/><line style="stroke: #A80036; stroke-width: 1.5;" x1="375.75" x2="342" y1="451.4004" y2="451.4004"/><line style="stroke: #A80036; stroke-width: 1.5;" x1="342" x2="342" y1="451.4004" y2="473.4004"/><polygon fill="#A80036" points="338,463.4004,342,473.4004,346,463.4004,342,467.4004" style="stroke: #A80036; stroke-width: 1.0;"/><line style="stroke: #A80036; stroke-width: 1.5;" x1="482.75" x2="516.5" y1="451.4004" y2="451.4004"/><line style="stroke: #A80036; stroke-width: 1.5;" x1="516.5" x2="516.5" y1="451.4004" y2="473.4004"/><polygon fill="#A80036" points="512.5,463.4004,516.5,473.4004,520.5,463.4004,516.5,467.4004" style="stroke: #A80036; stroke-width: 1.0;"/><line style="stroke: #A80036; stroke-width: 1.5;" x1="342" x2="342" y1="522.2006" y2="540.2006"/><line style="stroke: #A80036; stroke-width: 1.5;" x1="342" x2="417.25" y1="540.2006" y2="540.2006"/><polygon fill="#A80036" points="407.25,536.2006,417.25,540.2006,407.25,544.2006,411.25,540.2006" style="stroke: #A80036; stroke-width: 1.0;"/><line style="stroke: #A80036; stroke-width: 1.5;" x1="516.5" x2="516.5" y1="507.8005" y2="540.2006"/><line style="stroke: #A80036; stroke-width: 1.5;" x1="516.5" x2="441.25" y1="540.2006" y2="540.2006"/><polygon fill="#A80036" points="451.25,536.2006,441.25,540.2006,451.25,544.2006,447.25,540.2006" style="stroke: #A80036; stroke-width: 1.0;"/><line style="stroke: #A80036; stroke-width: 1.5;" x1="211.375" x2="108.5" y1="417.4004" y2="417.4004"/><line style="stroke: #A80036; stroke-width: 1.5;" x1="108.5" x2="108.5" y1="417.4004" y2="439.4004"/><polygon fill="#A80036" points="104.5,429.4004,108.5,439.4004,112.5,429.4004,108.5,433.4004" style="stroke: #A80036; stroke-width: 1.0;"/><line style="stroke: #A80036; stroke-width: 1.5;" x1="326.375" x2="429.25" y1="417.4004" y2="417.4004"/><line style="stroke: #A80036; stroke-width: 1.5;" x1="429.25" x2="429.25" y1="417.4004" y2="439.4004"/><polygon fill="#A80036" points="425.25,429.4004,429.25,439.4004,433.25,429.4004,429.25,433.4004" style="stroke: #A80036; stroke-width: 1.0;"/><line style="stroke: #A80036; stroke-width: 1.5;" x1="108.5" x2="108.5" y1="473.8005" y2="570.2006"/><line style="stroke: #A80036; stroke-width: 1.5;" x1="108.5" x2="256.875" y1="570.2006" y2="570.2006"/><polygon fill="#A80036" points="246.875,566.2006,256.875,570.2006,246.875,574.2006,250.875,570.2006" style="stroke: #A80036; stroke-width: 1.0;"/><line style="stroke: #A80036; stroke-width: 1.5;" x1="429.25" x2="429.25" y1="552.2006" y2="570.2006"/><line style="stroke: #A80036; stroke-width: 1.5;" x1="429.25" x2="280.875" y1="570.2006" y2="570.2006"/><polygon fill="#A80036" points="290.875,566.2006,280.875,570.2006,290.875,574.2006,286.875,570.2006" style="stroke: #A80036; stroke-width: 1.0;"/><line style="stroke: #A80036; stroke-width: 1.5;" x1="268.875" x2="268.875" y1="385.4004" y2="405.4004"/><polygon fill="#A80036" points="264.875,395.4004,268.875,405.4004,272.875,395.4004,268.875,399.4004" style="stroke: #A80036; stroke-width: 1.0;"/><line style="stroke: #A80036; stroke-width: 1.5;" x1="268.875" x2="268.875" y1="582.2006" y2="602.2006"/><polygon fill="#A80036" points="264.875,592.2006,268.875,602.2006,272.875,592.2006,268.875,596.2006" style="stroke: #A80036; stroke-width: 1.0;"/><line style="stroke: #A80036; stroke-width: 1.5;" x1="268.875" x2="268.875" y1="636.6007" y2="656.6007"/><polygon fill="#A80036" points="264.875,646.6007,268.875,656.6007,272.875,646.6007,268.875,650.6007" style="stroke: #A80036; stroke-width: 1.0;"/><!--MD5=[17ed087d424888e661fce62c7efe144d]
@startuml grid_builder_make_button

partition "GridBuilder::make_button()"{
  start
  :Make new ToggleButton;
  :button = ToggleButton]
  :Add style class 'key'
  Add style class which is named its key_id;

  if (More style classes are to be added) then (yes)
    :Add all of the style classes;
  endif
  if (Key should display) then (text)
    :Set button's label to that text;
  else (image)
    if (Image was found) then (yes)
      :Set button to display the image
      Have the button always show the image;
    else (false)
      :Emit error;
    endif
  endif
  :button]
  stop
}
@enduml

PlantUML version 1.2020.15(Sun Jun 28 13:39:45 CEST 2020)
(MIT source distribution)
Java Runtime: OpenJDK Runtime Environment
JVM: OpenJDK 64-Bit Server VM
Default Encoding: UTF-8
Language: en
Country: US
--></g></svg>