<?xml version="1.0" encoding="UTF-8" standalone="no"?><svg xmlns="http://www.w3.org/2000/svg" xmlns:xlink="http://www.w3.org/1999/xlink" contentScriptType="application/ecmascript" contentStyleType="text/css" height="521px" preserveAspectRatio="none" style="width:1694px;height:521px;" version="1.1" viewBox="0 0 1694 521" width="1694px" zoomAndPan="magnify"><defs><filter height="300%" id="f3ybp2dz3k32i" width="300%" x="-1" y="-1"><feGaussianBlur result="blurOut" stdDeviation="2.0"/><feColorMatrix in="blurOut" result="blurOut2" type="matrix" values="0 0 0 0 0 0 0 0 0 0 0 0 0 0 0 0 0 0 .4 0"/><feOffset dx="4.0" dy="4.0" in="blurOut2" result="blurOut3"/><feBlend in="SourceGraphic" in2="blurOut3" mode="normal"/></filter></defs><g><rect fill="#FFFFFF" filter="url(#f3ybp2dz3k32i)" height="493.0003" style="stroke: #000000; stroke-width: 2.0;" width="1666" x="11" y="11"/><path d="M123,12 L123,20.7999 L113,30.7999 L11,30.7999 " fill="none" style="stroke: #000000; stroke-width: 2.0;"/><text fill="#000000" font-family="sans-serif" font-size="14" lengthAdjust="spacingAndGlyphs" textLength="102" x="14" y="25.0059">user_interaction</text><ellipse cx="751" cy="50.7999" fill="#000000" filter="url(#f3ybp2dz3k32i)" rx="10" ry="10" style="stroke: none; stroke-width: 1.0;"/><rect fill="#FEFECE" filter="url(#f3ybp2dz3k32i)" height="34.4001" rx="12.5" ry="12.5" style="stroke: #A80036; stroke-width: 1.5;" width="160" x="671" y="80.7999"/><text fill="#000000" font-family="sans-serif" font-size="12" lengthAdjust="spacingAndGlyphs" textLength="140" x="681" y="101.948">User interacts with screen</text><path d="M1509,294.6001 L1509,382.6002 L1667,382.6002 L1667,304.6001 L1657,294.6001 L1509,294.6001 " fill="#FBFB77" filter="url(#f3ybp2dz3k32i)" style="stroke: #A80036; stroke-width: 1.0;"/><path d="M1657,294.6001 L1657,304.6001 L1667,304.6001 L1657,294.6001 " fill="#FBFB77" style="stroke: #A80036; stroke-width: 1.0;"/><text fill="#000000" font-family="sans-serif" font-size="13" lengthAdjust="spacingAndGlyphs" textLength="137" x="1515" y="311.6772">The messages are sent</text><text fill="#000000" font-family="sans-serif" font-size="13" lengthAdjust="spacingAndGlyphs" textLength="111" x="1515" y="327.2772">to the Relm stream</text><text fill="#000000" font-family="sans-serif" font-size="13" lengthAdjust="spacingAndGlyphs" textLength="106" x="1515" y="342.8772">and handled in the</text><text fill="#000000" font-family="sans-serif" font-size="13" lengthAdjust="spacingAndGlyphs" textLength="109" x="1515" y="358.4772">update() method of</text><text fill="#000000" font-family="sans-serif" font-size="13" lengthAdjust="spacingAndGlyphs" textLength="85" x="1515" y="374.0772">the Win struct.</text><polygon fill="#FEFECE" filter="url(#f3ybp2dz3k32i)" points="318,135.2,352,135.2,364,147.2,352,159.2,318,159.2,306,147.2,318,135.2" style="stroke: #A80036; stroke-width: 1.5;"/><text fill="#000000" font-family="sans-serif" font-size="11" lengthAdjust="spacingAndGlyphs" textLength="18" x="339" y="169.419">yes</text><text fill="#000000" font-family="sans-serif" font-size="11" lengthAdjust="spacingAndGlyphs" textLength="34" x="318" y="150.819">press?</text><polygon fill="#FEFECE" filter="url(#f3ybp2dz3k32i)" points="335,192.3999,335,192.3999,347,204.3999,335,216.3999,335,216.3999,323,204.3999,335,192.3999" style="stroke: #A80036; stroke-width: 1.5;"/><text fill="#000000" font-family="sans-serif" font-size="11" lengthAdjust="spacingAndGlyphs" textLength="51" x="272" y="201.419">immediatly</text><text fill="#000000" font-family="sans-serif" font-size="11" lengthAdjust="spacingAndGlyphs" textLength="97" x="347" y="201.419">after specified delay</text><rect fill="#FEFECE" filter="url(#f3ybp2dz3k32i)" height="34.4001" rx="12.5" ry="12.5" style="stroke: #A80036; stroke-width: 1.5;" width="207" x="70.5" y="226.3999"/><text fill="#000000" font-family="sans-serif" font-size="12" lengthAdjust="spacingAndGlyphs" textLength="187" x="80.5" y="247.548">GestureDrag detects begin of drag</text><rect fill="#FEFECE" filter="url(#f3ybp2dz3k32i)" height="34.4001" style="stroke: #A80036; stroke-width: 1.5;" width="116" x="116" y="295.8"/><text fill="#000000" font-family="sans-serif" font-size="12" lengthAdjust="spacingAndGlyphs" textLength="96" x="126" y="316.9481">drag_begin event</text><rect fill="#FEFECE" filter="url(#f3ybp2dz3k32i)" height="34.4001" style="stroke: #A80036; stroke-width: 1.5;" width="302" x="23" y="365.2001"/><text fill="#000000" font-family="sans-serif" font-size="12" lengthAdjust="spacingAndGlyphs" textLength="282" x="33" y="386.3482">Msg::GestureSignal(x, y, GestureSignal::DragBegin)</text><ellipse cx="174" cy="445.6002" fill="#FFFFFF" filter="url(#f3ybp2dz3k32i)" rx="11" ry="11" style="stroke: #000000; stroke-width: 1.0;"/><ellipse cx="174" cy="445.6002" fill="#000000" rx="6" ry="6" style="stroke: #7F7F7F; stroke-width: 1.0;"/><rect fill="#FEFECE" filter="url(#f3ybp2dz3k32i)" height="34.4001" rx="12.5" ry="12.5" style="stroke: #A80036; stroke-width: 1.5;" width="224" x="384" y="226.3999"/><text fill="#000000" font-family="sans-serif" font-size="12" lengthAdjust="spacingAndGlyphs" textLength="204" x="394" y="247.548">GestureLongPress detects long press</text><rect fill="#FEFECE" filter="url(#f3ybp2dz3k32i)" height="34.4001" style="stroke: #A80036; stroke-width: 1.5;" width="97" x="447.5" y="295.8"/><text fill="#000000" font-family="sans-serif" font-size="12" lengthAdjust="spacingAndGlyphs" textLength="77" x="457.5" y="316.9481">pressed event</text><rect fill="#FEFECE" filter="url(#f3ybp2dz3k32i)" height="34.4001" style="stroke: #A80036; stroke-width: 1.5;" width="302" x="345" y="365.2001"/><text fill="#000000" font-family="sans-serif" font-size="12" lengthAdjust="spacingAndGlyphs" textLength="282" x="355" y="386.3482">Msg::GestureSignal(x, y, GestureSignal::LongPress)</text><ellipse cx="496" cy="445.6002" fill="#FFFFFF" filter="url(#f3ybp2dz3k32i)" rx="11" ry="11" style="stroke: #000000; stroke-width: 1.0;"/><ellipse cx="496" cy="445.6002" fill="#000000" rx="6" ry="6" style="stroke: #7F7F7F; stroke-width: 1.0;"/><polygon fill="#FEFECE" filter="url(#f3ybp2dz3k32i)" points="848,135.2,882,135.2,894,147.2,882,159.2,848,159.2,836,147.2,848,135.2" style="stroke: #A80036; stroke-width: 1.5;"/><text fill="#000000" font-family="sans-serif" font-size="11" lengthAdjust="spacingAndGlyphs" textLength="18" x="869" y="169.419">yes</text><text fill="#000000" font-family="sans-serif" font-size="11" lengthAdjust="spacingAndGlyphs" textLength="34" x="848" y="150.819">swipe?</text><text fill="#000000" font-family="sans-serif" font-size="11" lengthAdjust="spacingAndGlyphs" textLength="59" x="894" y="144.219">no (release)</text><rect fill="#FEFECE" filter="url(#f3ybp2dz3k32i)" height="34.4001" rx="12.5" ry="12.5" style="stroke: #A80036; stroke-width: 1.5;" width="214" x="758" y="192.3999"/><text fill="#000000" font-family="sans-serif" font-size="12" lengthAdjust="spacingAndGlyphs" textLength="194" x="768" y="213.548">GestureDrag detects update of drag</text><rect fill="#FEFECE" filter="url(#f3ybp2dz3k32i)" height="34.4001" style="stroke: #A80036; stroke-width: 1.5;" width="123" x="803.5" y="261.8"/><text fill="#000000" font-family="sans-serif" font-size="12" lengthAdjust="spacingAndGlyphs" textLength="103" x="813.5" y="282.9481">drag_update event</text><rect fill="#FEFECE" filter="url(#f3ybp2dz3k32i)" height="34.4001" rx="12.5" ry="12.5" style="stroke: #A80036; stroke-width: 1.5;" width="416" x="657" y="331.2001"/><text fill="#000000" font-family="sans-serif" font-size="12" lengthAdjust="spacingAndGlyphs" textLength="396" x="667" y="352.3482">Calculate x and y coordinate of message from events startpoint and offset</text><rect fill="#FEFECE" filter="url(#f3ybp2dz3k32i)" height="34.4001" style="stroke: #A80036; stroke-width: 1.5;" width="310" x="710" y="400.6002"/><text fill="#000000" font-family="sans-serif" font-size="12" lengthAdjust="spacingAndGlyphs" textLength="290" x="720" y="421.7483">Msg::GestureSignal(x, y, GestureSignal::DragUpdate)</text><ellipse cx="865" cy="481.0003" fill="#FFFFFF" filter="url(#f3ybp2dz3k32i)" rx="11" ry="11" style="stroke: #000000; stroke-width: 1.0;"/><ellipse cx="865" cy="481.0003" fill="#000000" rx="6" ry="6" style="stroke: #7F7F7F; stroke-width: 1.0;"/><rect fill="#FEFECE" filter="url(#f3ybp2dz3k32i)" height="34.4001" rx="12.5" ry="12.5" style="stroke: #A80036; stroke-width: 1.5;" width="197" x="1192.5" y="188.8"/><text fill="#000000" font-family="sans-serif" font-size="12" lengthAdjust="spacingAndGlyphs" textLength="177" x="1202.5" y="209.9481">GestureDrag detects end of drag</text><rect fill="#FEFECE" filter="url(#f3ybp2dz3k32i)" height="34.4001" style="stroke: #A80036; stroke-width: 1.5;" width="106" x="1238" y="258.2001"/><text fill="#000000" font-family="sans-serif" font-size="12" lengthAdjust="spacingAndGlyphs" textLength="86" x="1248" y="279.3482">drag_end event</text><rect fill="#FEFECE" filter="url(#f3ybp2dz3k32i)" height="34.4001" rx="12.5" ry="12.5" style="stroke: #A80036; stroke-width: 1.5;" width="416" x="1083" y="327.6002"/><text fill="#000000" font-family="sans-serif" font-size="12" lengthAdjust="spacingAndGlyphs" textLength="396" x="1093" y="348.7483">Calculate x and y coordinate of message from events startpoint and offset</text><rect fill="#FEFECE" filter="url(#f3ybp2dz3k32i)" height="34.4001" style="stroke: #A80036; stroke-width: 1.5;" width="292" x="1145" y="397.0003"/><text fill="#000000" font-family="sans-serif" font-size="12" lengthAdjust="spacingAndGlyphs" textLength="272" x="1155" y="418.1484">Msg::GestureSignal(x, y, GestureSignal::DragEnd)</text><ellipse cx="1291" cy="477.4004" fill="#FFFFFF" filter="url(#f3ybp2dz3k32i)" rx="11" ry="11" style="stroke: #000000; stroke-width: 1.0;"/><ellipse cx="1291" cy="477.4004" fill="#000000" rx="6" ry="6" style="stroke: #7F7F7F; stroke-width: 1.0;"/><line style="stroke: #A80036; stroke-width: 1.5;" x1="751" x2="751" y1="60.7999" y2="80.7999"/><polygon fill="#A80036" points="747,70.7999,751,80.7999,755,70.7999,751,74.7999" style="stroke: #A80036; stroke-width: 1.0;"/><line style="stroke: #A80036; stroke-width: 1.5;" x1="174" x2="174" y1="260.8" y2="295.8"/><polygon fill="#A80036" points="170,285.8,174,295.8,178,285.8,174,289.8" style="stroke: #A80036; stroke-width: 1.0;"/><line style="stroke: #A80036; stroke-width: 1.5;" x1="174" x2="174" y1="330.2001" y2="365.2001"/><polygon fill="#A80036" points="170,355.2001,174,365.2001,178,355.2001,174,359.2001" style="stroke: #A80036; stroke-width: 1.0;"/><line style="stroke: #A80036; stroke-width: 1.5;" x1="174" x2="174" y1="399.6002" y2="434.6002"/><polygon fill="#A80036" points="170,424.6002,174,434.6002,178,424.6002,174,428.6002" style="stroke: #A80036; stroke-width: 1.0;"/><line style="stroke: #A80036; stroke-width: 1.5;" x1="496" x2="496" y1="260.8" y2="295.8"/><polygon fill="#A80036" points="492,285.8,496,295.8,500,285.8,496,289.8" style="stroke: #A80036; stroke-width: 1.0;"/><line style="stroke: #A80036; stroke-width: 1.5;" x1="496" x2="496" y1="330.2001" y2="365.2001"/><polygon fill="#A80036" points="492,355.2001,496,365.2001,500,355.2001,496,359.2001" style="stroke: #A80036; stroke-width: 1.0;"/><line style="stroke: #A80036; stroke-width: 1.5;" x1="496" x2="496" y1="399.6002" y2="434.6002"/><polygon fill="#A80036" points="492,424.6002,496,434.6002,500,424.6002,496,428.6002" style="stroke: #A80036; stroke-width: 1.0;"/><line style="stroke: #A80036; stroke-width: 1.5;" x1="323" x2="174" y1="204.3999" y2="204.3999"/><line style="stroke: #A80036; stroke-width: 1.5;" x1="174" x2="174" y1="204.3999" y2="226.3999"/><polygon fill="#A80036" points="170,216.3999,174,226.3999,178,216.3999,174,220.3999" style="stroke: #A80036; stroke-width: 1.0;"/><line style="stroke: #A80036; stroke-width: 1.5;" x1="347" x2="496" y1="204.3999" y2="204.3999"/><line style="stroke: #A80036; stroke-width: 1.5;" x1="496" x2="496" y1="204.3999" y2="226.3999"/><polygon fill="#A80036" points="492,216.3999,496,226.3999,500,216.3999,496,220.3999" style="stroke: #A80036; stroke-width: 1.0;"/><line style="stroke: #A80036; stroke-width: 1.5;" x1="865" x2="865" y1="226.8" y2="261.8"/><polygon fill="#A80036" points="861,251.8,865,261.8,869,251.8,865,255.8" style="stroke: #A80036; stroke-width: 1.0;"/><line style="stroke: #A80036; stroke-width: 1.5;" x1="865" x2="865" y1="296.2001" y2="331.2001"/><polygon fill="#A80036" points="861,321.2001,865,331.2001,869,321.2001,865,325.2001" style="stroke: #A80036; stroke-width: 1.0;"/><line style="stroke: #A80036; stroke-width: 1.5;" x1="865" x2="865" y1="365.6002" y2="400.6002"/><polygon fill="#A80036" points="861,390.6002,865,400.6002,869,390.6002,865,394.6002" style="stroke: #A80036; stroke-width: 1.0;"/><line style="stroke: #A80036; stroke-width: 1.5;" x1="865" x2="865" y1="435.0003" y2="470.0003"/><polygon fill="#A80036" points="861,460.0003,865,470.0003,869,460.0003,865,464.0003" style="stroke: #A80036; stroke-width: 1.0;"/><line style="stroke: #A80036; stroke-width: 1.5;" x1="1291" x2="1291" y1="223.2001" y2="258.2001"/><polygon fill="#A80036" points="1287,248.2001,1291,258.2001,1295,248.2001,1291,252.2001" style="stroke: #A80036; stroke-width: 1.0;"/><line style="stroke: #A80036; stroke-width: 1.5;" x1="1291" x2="1291" y1="292.6002" y2="327.6002"/><polygon fill="#A80036" points="1287,317.6002,1291,327.6002,1295,317.6002,1291,321.6002" style="stroke: #A80036; stroke-width: 1.0;"/><line style="stroke: #A80036; stroke-width: 1.5;" x1="1291" x2="1291" y1="362.0003" y2="397.0003"/><polygon fill="#A80036" points="1287,387.0003,1291,397.0003,1295,387.0003,1291,391.0003" style="stroke: #A80036; stroke-width: 1.0;"/><line style="stroke: #A80036; stroke-width: 1.5;" x1="1291" x2="1291" y1="431.4004" y2="466.4004"/><polygon fill="#A80036" points="1287,456.4004,1291,466.4004,1295,456.4004,1291,460.4004" style="stroke: #A80036; stroke-width: 1.0;"/><line style="stroke: #A80036; stroke-width: 1.5;" x1="335" x2="335" y1="159.2" y2="192.3999"/><polygon fill="#A80036" points="331,182.3999,335,192.3999,339,182.3999,335,186.3999" style="stroke: #A80036; stroke-width: 1.0;"/><line style="stroke: #A80036; stroke-width: 1.5;" x1="865" x2="865" y1="159.2" y2="192.3999"/><polygon fill="#A80036" points="861,182.3999,865,192.3999,869,182.3999,865,186.3999" style="stroke: #A80036; stroke-width: 1.0;"/><line style="stroke: #A80036; stroke-width: 1.5;" x1="364" x2="836" y1="147.2" y2="147.2"/><polygon fill="#A80036" points="826,143.2,836,147.2,826,151.2,830,147.2" style="stroke: #A80036; stroke-width: 1.0;"/><line style="stroke: #A80036; stroke-width: 1.5;" x1="751" x2="751" y1="115.2" y2="120.2"/><line style="stroke: #A80036; stroke-width: 1.5;" x1="751" x2="335" y1="120.2" y2="120.2"/><line style="stroke: #A80036; stroke-width: 1.5;" x1="335" x2="335" y1="120.2" y2="135.2"/><polygon fill="#A80036" points="331,125.2,335,135.2,339,125.2,335,129.2" style="stroke: #A80036; stroke-width: 1.0;"/><line style="stroke: #A80036; stroke-width: 1.5;" x1="894" x2="1291" y1="147.2" y2="147.2"/><line style="stroke: #A80036; stroke-width: 1.5;" x1="1291" x2="1291" y1="147.2" y2="188.8"/><polygon fill="#A80036" points="1287,178.8,1291,188.8,1295,178.8,1291,182.8" style="stroke: #A80036; stroke-width: 1.0;"/><!--MD5=[80bc74b22c7e740f997fd879f075cbf7]
@startuml user_interaction

partition "user_interaction"{

  start
  :User interacts with screen;
  if (press?) then (yes)
    if () then (immediatly)
      :GestureDrag detects begin of drag;
      :drag_begin event]
      :Msg::GestureSignal(x, y, GestureSignal::DragBegin)]
    stop
    else (after specified delay)
      :GestureLongPress detects long press;
      :pressed event]
      :Msg::GestureSignal(x, y, GestureSignal::LongPress)]
    stop
    endif
  elseif (swipe?) then (yes)
    :GestureDrag detects update of drag;
    :drag_update event]
    :Calculate x and y coordinate of message from events startpoint and offset;
    :Msg::GestureSignal(x, y, GestureSignal::DragUpdate)]
    stop
  else (no (release))
    :GestureDrag detects end of drag;
    :drag_end event]
    :Calculate x and y coordinate of message from events startpoint and offset;
    :Msg::GestureSignal(x, y, GestureSignal::DragEnd)]
    stop
  endif

  floating note right
    The messages are sent
    to the Relm stream 
    and handled in the
    update() method of
    the Win struct.
  end note
}
@enduml

PlantUML version 1.2020.15(Sun Jun 28 13:39:45 CEST 2020)
(MIT source distribution)
Java Runtime: OpenJDK Runtime Environment
JVM: OpenJDK 64-Bit Server VM
Default Encoding: UTF-8
Language: en
Country: US
--></g></svg>