<?xml version="1.0" encoding="UTF-8" standalone="no"?><svg xmlns="http://www.w3.org/2000/svg" xmlns:xlink="http://www.w3.org/1999/xlink" contentScriptType="application/ecmascript" contentStyleType="text/css" height="674px" preserveAspectRatio="none" style="width:363px;height:674px;" version="1.1" viewBox="0 0 363 674" width="363px" zoomAndPan="magnify"><defs><filter height="300%" id="f1mgznn31n4gsc" width="300%" x="-1" y="-1"><feGaussianBlur result="blurOut" stdDeviation="2.0"/><feColorMatrix in="blurOut" result="blurOut2" type="matrix" values="0 0 0 0 0 0 0 0 0 0 0 0 0 0 0 0 0 0 .4 0"/><feOffset dx="4.0" dy="4.0" in="blurOut2" result="blurOut3"/><feBlend in="SourceGraphic" in2="blurOut3" mode="normal"/></filter></defs><g><rect fill="#FFFFFF" filter="url(#f1mgznn31n4gsc)" height="646.2008" style="stroke: #000000; stroke-width: 2.0;" width="335" x="11" y="11"/><path d="M146,12 L146,20.7999 L136,30.7999 L11,30.7999 " fill="none" style="stroke: #000000; stroke-width: 2.0;"/><text fill="#000000" font-family="sans-serif" font-size="14" lengthAdjust="spacingAndGlyphs" textLength="125" x="14" y="25.0059">DBusService::new()</text><ellipse cx="184.5" cy="50.7999" fill="#000000" filter="url(#f1mgznn31n4gsc)" rx="10" ry="10" style="stroke: none; stroke-width: 1.0;"/><rect fill="#FEFECE" filter="url(#f1mgznn31n4gsc)" height="34.4001" rx="12.5" ry="12.5" style="stroke: #A80036; stroke-width: 1.5;" width="126" x="121.5" y="80.7999"/><text fill="#000000" font-family="sans-serif" font-size="12" lengthAdjust="spacingAndGlyphs" textLength="106" x="131.5" y="101.948">Set visibility to false</text><rect fill="#FEFECE" filter="url(#f1mgznn31n4gsc)" height="34.4001" rx="12.5" ry="12.5" style="stroke: #A80036; stroke-width: 1.5;" width="102" x="133.5" y="135.2"/><text fill="#000000" font-family="sans-serif" font-size="12" lengthAdjust="spacingAndGlyphs" textLength="82" x="143.5" y="156.3481">visibility = false</text><rect fill="#FEFECE" filter="url(#f1mgznn31n4gsc)" height="34.4001" rx="12.5" ry="12.5" style="stroke: #A80036; stroke-width: 1.5;" width="119" x="125" y="189.6001"/><text fill="#000000" font-family="sans-serif" font-size="12" lengthAdjust="spacingAndGlyphs" textLength="99" x="135" y="210.7482">DBusClient::new()</text><rect fill="#FFFFFF" filter="url(#f1mgznn31n4gsc)" height="314.8004" style="stroke: #000000; stroke-width: 2.0;" width="315" x="21" y="234.0002"/><path d="M249,235.0002 L249,243.8002 L239,253.8002 L21,253.8002 " fill="none" style="stroke: #000000; stroke-width: 2.0;"/><text fill="#000000" font-family="sans-serif" font-size="14" lengthAdjust="spacingAndGlyphs" textLength="218" x="24" y="248.0062">DBusServer::spawn_and_detach()</text><rect fill="#000000" filter="url(#f1mgznn31n4gsc)" height="6" rx="2.5" ry="2.5" style="stroke: #000000; stroke-width: 1.0;" width="295" x="31" y="270.8002"/><rect fill="#FEFECE" filter="url(#f1mgznn31n4gsc)" height="48.8002" rx="12.5" ry="12.5" style="stroke: #A80036; stroke-width: 1.5;" width="202" x="69.5" y="296.8002"/><text fill="#000000" font-family="sans-serif" font-size="12" lengthAdjust="spacingAndGlyphs" textLength="127" x="79.5" y="317.9482">Connect to session bus</text><text fill="#000000" font-family="sans-serif" font-size="12" lengthAdjust="spacingAndGlyphs" textLength="182" x="79.5" y="332.3483">Request the name 'sm.puri.OSK0'</text><rect fill="#FEFECE" filter="url(#f1mgznn31n4gsc)" height="48.8002" rx="12.5" ry="12.5" style="stroke: #A80036; stroke-width: 1.5;" width="255" x="43" y="365.6004"/><text fill="#000000" font-family="sans-serif" font-size="12" lengthAdjust="spacingAndGlyphs" textLength="184" x="53" y="386.7484">Create the interface to provide the</text><text fill="#000000" font-family="sans-serif" font-size="12" lengthAdjust="spacingAndGlyphs" textLength="235" x="53" y="401.1485">SetVisible method and the 'Visible' property</text><rect fill="#FEFECE" filter="url(#f1mgznn31n4gsc)" height="34.4001" rx="12.5" ry="12.5" style="stroke: #A80036; stroke-width: 1.5;" width="164" x="88.5" y="434.4006"/><text fill="#000000" font-family="sans-serif" font-size="12" lengthAdjust="spacingAndGlyphs" textLength="144" x="98.5" y="455.5486">Serve DBusClients forever</text><ellipse cx="170.5" cy="499.8007" fill="#FFFFFF" filter="url(#f1mgznn31n4gsc)" rx="11" ry="11" style="stroke: #000000; stroke-width: 1.0;"/><ellipse cx="170.5" cy="499.8007" fill="#000000" rx="6" ry="6" style="stroke: #7F7F7F; stroke-width: 1.0;"/><rect fill="#000000" filter="url(#f1mgznn31n4gsc)" height="6" rx="2.5" ry="2.5" style="stroke: #000000; stroke-width: 1.0;" width="295" x="31" y="530.8007"/><rect fill="#FEFECE" filter="url(#f1mgznn31n4gsc)" height="34.4001" style="stroke: #A80036; stroke-width: 1.5;" width="91" x="139" y="568.8007"/><text fill="#000000" font-family="sans-serif" font-size="12" lengthAdjust="spacingAndGlyphs" textLength="71" x="149" y="589.9487">DBusService</text><ellipse cx="184.5" cy="634.2008" fill="#FFFFFF" filter="url(#f1mgznn31n4gsc)" rx="11" ry="11" style="stroke: #000000; stroke-width: 1.0;"/><ellipse cx="184.5" cy="634.2008" fill="#000000" rx="6" ry="6" style="stroke: #7F7F7F; stroke-width: 1.0;"/><line style="stroke: #A80036; stroke-width: 1.5;" x1="184.5" x2="184.5" y1="60.7999" y2="80.7999"/><polygon fill="#A80036" points="180.5,70.7999,184.5,80.7999,188.5,70.7999,184.5,74.7999" style="stroke: #A80036; stroke-width: 1.0;"/><line style="stroke: #A80036; stroke-width: 1.5;" x1="184.5" x2="184.5" y1="115.2" y2="135.2"/><polygon fill="#A80036" points="180.5,125.2,184.5,135.2,188.5,125.2,184.5,129.2" style="stroke: #A80036; stroke-width: 1.0;"/><line style="stroke: #A80036; stroke-width: 1.5;" x1="184.5" x2="184.5" y1="169.6001" y2="189.6001"/><polygon fill="#A80036" points="180.5,179.6001,184.5,189.6001,188.5,179.6001,184.5,183.6001" style="stroke: #A80036; stroke-width: 1.0;"/><line style="stroke: #A80036; stroke-width: 1.5;" x1="170.5" x2="170.5" y1="345.6004" y2="365.6004"/><polygon fill="#A80036" points="166.5,355.6004,170.5,365.6004,174.5,355.6004,170.5,359.6004" style="stroke: #A80036; stroke-width: 1.0;"/><line style="stroke: #A80036; stroke-width: 1.5;" x1="170.5" x2="170.5" y1="414.4006" y2="434.4006"/><polygon fill="#A80036" points="166.5,424.4006,170.5,434.4006,174.5,424.4006,170.5,428.4006" style="stroke: #A80036; stroke-width: 1.0;"/><line style="stroke: #A80036; stroke-width: 1.5;" x1="170.5" x2="170.5" y1="468.8007" y2="488.8007"/><polygon fill="#A80036" points="166.5,478.8007,170.5,488.8007,174.5,478.8007,170.5,482.8007" style="stroke: #A80036; stroke-width: 1.0;"/><line style="stroke: #A80036; stroke-width: 1.5;" x1="170.5" x2="170.5" y1="276.8002" y2="296.8002"/><polygon fill="#A80036" points="166.5,286.8002,170.5,296.8002,174.5,286.8002,170.5,290.8002" style="stroke: #A80036; stroke-width: 1.0;"/><line style="stroke: #A80036; stroke-width: 1.5;" x1="312" x2="312" y1="276.8002" y2="530.8007"/><polygon fill="#A80036" points="308,520.8007,312,530.8007,316,520.8007,312,524.8007" style="stroke: #A80036; stroke-width: 1.0;"/><line style="stroke: #A80036; stroke-width: 1.5;" x1="184.5" x2="184.5" y1="224.0002" y2="270.8002"/><polygon fill="#A80036" points="180.5,260.8002,184.5,270.8002,188.5,260.8002,184.5,264.8002" style="stroke: #A80036; stroke-width: 1.0;"/><line style="stroke: #A80036; stroke-width: 1.5;" x1="184.5" x2="184.5" y1="536.8007" y2="568.8007"/><polygon fill="#A80036" points="180.5,558.8007,184.5,568.8007,188.5,558.8007,184.5,562.8007" style="stroke: #A80036; stroke-width: 1.0;"/><line style="stroke: #A80036; stroke-width: 1.5;" x1="184.5" x2="184.5" y1="603.2008" y2="623.2008"/><polygon fill="#A80036" points="180.5,613.2008,184.5,623.2008,188.5,613.2008,184.5,617.2008" style="stroke: #A80036; stroke-width: 1.0;"/><!--MD5=[a0f973653bfde5c88a4242b23fabd960]
@startuml dbus_service_new

partition "DBusService::new()"{
  start
  :Set visibility to false;
  :visibility = false;
  :DBusClient::new();
  partition "DBusServer::spawn_and_detach()"{
    fork
    :Connect to session bus
    Request the name 'sm.puri.OSK0';
    :Create the interface to provide the 
    SetVisible method and the 'Visible' property;
    :Serve DBusClients forever;
    stop
    fork again
    end fork
  }

  :DBusService]
  stop
}
@enduml

PlantUML version 1.2020.15(Sun Jun 28 13:39:45 CEST 2020)
(MIT source distribution)
Java Runtime: OpenJDK Runtime Environment
JVM: OpenJDK 64-Bit Server VM
Default Encoding: UTF-8
Language: en
Country: US
--></g></svg>