<?xml version="1.0" encoding="UTF-8" standalone="no"?><svg xmlns="http://www.w3.org/2000/svg" xmlns:xlink="http://www.w3.org/1999/xlink" contentScriptType="application/ecmascript" contentStyleType="text/css" height="1152px" preserveAspectRatio="none" style="width:407px;height:1152px;" version="1.1" viewBox="0 0 407 1152" width="407px" zoomAndPan="magnify"><defs><filter height="300%" id="f1qrhsjjetzicn" width="300%" x="-1" y="-1"><feGaussianBlur result="blurOut" stdDeviation="2.0"/><feColorMatrix in="blurOut" result="blurOut2" type="matrix" values="0 0 0 0 0 0 0 0 0 0 0 0 0 0 0 0 0 0 .4 0"/><feOffset dx="4.0" dy="4.0" in="blurOut2" result="blurOut3"/><feBlend in="SourceGraphic" in2="blurOut3" mode="normal"/></filter></defs><g><rect fill="#FFFFFF" filter="url(#f1qrhsjjetzicn)" height="1124.4174" style="stroke: #000000; stroke-width: 2.0;" width="379.5" x="11" y="11"/><path d="M229,11 L229,20.7999 L219,30.7999 L11,30.7999 " fill="none" style="stroke: #000000; stroke-width: 2.0;"/><text fill="#000000" font-family="sans-serif" font-size="14" lengthAdjust="spacingAndGlyphs" textLength="208" x="14" y="25.0059">LayoutYamlParser::get_layouts()</text><ellipse cx="235.5" cy="50.7999" fill="#000000" filter="url(#f1qrhsjjetzicn)" rx="10" ry="10" style="stroke: none; stroke-width: 1.0;"/><rect fill="#CCCCCC" filter="url(#f1qrhsjjetzicn)" height="46.3998" style="stroke: #1A66C2; stroke-width: 1.5;" width="153" x="159" y="80.7999"/><text fill="#000000" font-family="Verdana" font-size="11" lengthAdjust="spacingAndGlyphs" textLength="88" x="193" y="101.0189">&lt;&lt;CentralBuffer&gt;&gt;</text><text fill="#000000" font-family="Verdana" font-size="11" lengthAdjust="spacingAndGlyphs" textLength="133" x="169" y="114.2188">LayoutDeserialized storage</text><polygon fill="#CCCCCC" filter="url(#f1qrhsjjetzicn)" points="199.5,195.7997,271.5,195.7997,283.5,207.7997,271.5,219.7997,199.5,219.7997,187.5,207.7997,199.5,195.7997" style="stroke: #1A66C2; stroke-width: 1.5;"/><text fill="#000000" font-family="sans-serif" font-size="11" lengthAdjust="spacingAndGlyphs" textLength="72" x="199.5" y="211.4187">Read directory</text><text fill="#333333" font-family="Verdana" font-size="11" lengthAdjust="spacingAndGlyphs" textLength="42" x="145.5" y="204.8187">success</text><text fill="#333333" font-family="Verdana" font-size="11" lengthAdjust="spacingAndGlyphs" textLength="29" x="283.5" y="204.8187">failure</text><rect fill="#CCCCCC" filter="url(#f1qrhsjjetzicn)" height="33.1999" style="stroke: #1A66C2; stroke-width: 1.5;" width="88" x="104" y="285.5186"/><text fill="#000000" font-family="Verdana" font-size="11" lengthAdjust="spacingAndGlyphs" textLength="68" x="114" y="305.7375">LayoutSource</text><rect fill="#CCCCCC" filter="url(#f1qrhsjjetzicn)" height="33.1999" rx="12.5" ry="12.5" style="stroke: #1A66C2; stroke-width: 1.5;" width="218" x="39" y="338.7185"/><text fill="#000000" font-family="Verdana" font-size="11" lengthAdjust="spacingAndGlyphs" textLength="198" x="49" y="358.9374">LayoutDeserialized::from(layout_source)</text><rect fill="#CCCCCC" filter="url(#f1qrhsjjetzicn)" height="33.1999" style="stroke: #1A66C2; stroke-width: 1.5;" width="113" x="91.5" y="405.8185"/><text fill="#000000" font-family="Verdana" font-size="11" lengthAdjust="spacingAndGlyphs" textLength="93" x="101.5" y="426.0374">LayoutDeserialized</text><rect fill="#CCCCCC" filter="url(#f1qrhsjjetzicn)" height="33.1999" rx="12.5" ry="12.5" style="stroke: #1A66C2; stroke-width: 1.5;" width="175" x="60.5" y="459.0184"/><text fill="#000000" font-family="Verdana" font-size="11" lengthAdjust="spacingAndGlyphs" textLength="155" x="70.5" y="479.2373">Add deserialized layout to buffer</text><polygon fill="#CCCCCC" filter="url(#f1qrhsjjetzicn)" points="100,229.7997,196,229.7997,208,241.7997,196,253.7997,100,253.7997,88,241.7997,100,229.7997" style="stroke: #1A66C2; stroke-width: 1.5;"/><text fill="#333333" font-family="Verdana" font-size="11" lengthAdjust="spacingAndGlyphs" textLength="18" x="152" y="264.0186">yes</text><text fill="#000000" font-family="sans-serif" font-size="11" lengthAdjust="spacingAndGlyphs" textLength="96" x="100" y="245.4187">YAML file available?</text><text fill="#333333" font-family="Verdana" font-size="11" lengthAdjust="spacingAndGlyphs" textLength="12" x="76" y="238.8187">no</text><rect fill="#CCCCCC" filter="url(#f1qrhsjjetzicn)" height="33.1999" rx="12.5" ry="12.5" style="stroke: #1A66C2; stroke-width: 1.5;" width="68" x="289" y="229.7997"/><text fill="#000000" font-family="Verdana" font-size="11" lengthAdjust="spacingAndGlyphs" textLength="48" x="299" y="250.0186">Emit error</text><polygon fill="#CCCCCC" filter="url(#f1qrhsjjetzicn)" points="235.5,520.2183,247.5,532.2183,235.5,544.2183,223.5,532.2183,235.5,520.2183" style="stroke: #1A66C2; stroke-width: 1.5;"/><polygon fill="#CCCCCC" filter="url(#f1qrhsjjetzicn)" points="167,147.1997,304,147.1997,316,159.1997,304,171.1997,167,171.1997,155,159.1997,167,147.1997" style="stroke: #1A66C2; stroke-width: 1.5;"/><text fill="#333333" font-family="Verdana" font-size="11" lengthAdjust="spacingAndGlyphs" textLength="42" x="239.5" y="181.4187">success</text><text fill="#000000" font-family="sans-serif" font-size="11" lengthAdjust="spacingAndGlyphs" textLength="137" x="167" y="162.8187">Get path to layout definitions</text><text fill="#333333" font-family="Verdana" font-size="11" lengthAdjust="spacingAndGlyphs" textLength="29" x="316" y="156.2188">failure</text><polygon fill="#CCCCCC" filter="url(#f1qrhsjjetzicn)" points="235.5,564.2183,247.5,576.2183,235.5,588.2183,223.5,576.2183,235.5,564.2183" style="stroke: #1A66C2; stroke-width: 1.5;"/><rect fill="#CCCCCC" filter="url(#f1qrhsjjetzicn)" height="33.1999" rx="12.5" ry="12.5" style="stroke: #1A66C2; stroke-width: 1.5;" width="127" x="172" y="608.2183"/><text fill="#000000" font-family="Verdana" font-size="11" lengthAdjust="spacingAndGlyphs" textLength="107" x="182" y="628.4372">get_locale_language()</text><rect fill="#CCCCCC" filter="url(#f1qrhsjjetzicn)" height="33.1999" style="stroke: #1A66C2; stroke-width: 1.5;" width="105" x="183" y="661.4182"/><text fill="#000000" font-family="Verdana" font-size="11" lengthAdjust="spacingAndGlyphs" textLength="85" x="193" y="681.6371">Language of user</text><rect fill="#CCCCCC" filter="url(#f1qrhsjjetzicn)" height="33.1999" rx="12.5" ry="12.5" style="stroke: #1A66C2; stroke-width: 1.5;" width="82" x="194.5" y="763.218"/><text fill="#000000" font-family="Verdana" font-size="11" lengthAdjust="spacingAndGlyphs" textLength="62" x="204.5" y="783.4369">Emit warning</text><rect fill="#CCCCCC" filter="url(#f1qrhsjjetzicn)" height="33.1999" rx="12.5" ry="12.5" style="stroke: #1A66C2; stroke-width: 1.5;" width="201" x="135" y="816.4179"/><text fill="#000000" font-family="Verdana" font-size="11" lengthAdjust="spacingAndGlyphs" textLength="181" x="145" y="836.6368">Deserialize layout from fallback string</text><rect fill="#CCCCCC" filter="url(#f1qrhsjjetzicn)" height="33.1999" style="stroke: #1A66C2; stroke-width: 1.5;" width="113" x="179" y="884.6178"/><text fill="#000000" font-family="Verdana" font-size="11" lengthAdjust="spacingAndGlyphs" textLength="93" x="189" y="904.8367">LayoutDeserialized</text><rect fill="#CCCCCC" filter="url(#f1qrhsjjetzicn)" height="33.1999" rx="12.5" ry="12.5" style="stroke: #1A66C2; stroke-width: 1.5;" width="175" x="148" y="937.8177"/><text fill="#000000" font-family="Verdana" font-size="11" lengthAdjust="spacingAndGlyphs" textLength="155" x="158" y="958.0366">Add deserialized layout to buffer</text><polygon fill="#CCCCCC" filter="url(#f1qrhsjjetzicn)" points="140.5,714.6181,330.5,714.6181,342.5,726.6181,330.5,738.6181,140.5,738.6181,128.5,726.6181,140.5,714.6181" style="stroke: #1A66C2; stroke-width: 1.5;"/><text fill="#333333" font-family="Verdana" font-size="11" lengthAdjust="spacingAndGlyphs" textLength="12" x="239.5" y="748.837">no</text><text fill="#000000" font-family="sans-serif" font-size="11" lengthAdjust="spacingAndGlyphs" textLength="190" x="140.5" y="730.237">Layout with language of user available?</text><text fill="#333333" font-family="Verdana" font-size="11" lengthAdjust="spacingAndGlyphs" textLength="18" x="342.5" y="723.6371">yes</text><polygon fill="#CCCCCC" filter="url(#f1qrhsjjetzicn)" points="235.5,991.0176,247.5,1003.0176,235.5,1015.0176,223.5,1003.0176,235.5,991.0176" style="stroke: #1A66C2; stroke-width: 1.5;"/><rect fill="#CCCCCC" filter="url(#f1qrhsjjetzicn)" height="46.3998" style="stroke: #1A66C2; stroke-width: 1.5;" width="153" x="159" y="1035.0176"/><text fill="#000000" font-family="Verdana" font-size="11" lengthAdjust="spacingAndGlyphs" textLength="88" x="193" y="1055.2365">&lt;&lt;CentralBuffer&gt;&gt;</text><text fill="#000000" font-family="Verdana" font-size="11" lengthAdjust="spacingAndGlyphs" textLength="133" x="169" y="1068.4364">LayoutDeserialized storage</text><ellipse cx="235.5" cy="1112.4174" fill="#FFFFFF" filter="url(#f1qrhsjjetzicn)" rx="11" ry="11" style="stroke: #000000; stroke-width: 1.0;"/><ellipse cx="235.5" cy="1112.4174" fill="#000000" rx="6" ry="6" style="stroke: #7F7F7F; stroke-width: 1.0;"/><line style="stroke: #000000; stroke-width: 1.5;" x1="235.5" x2="235.5" y1="60.7999" y2="80.7999"/><polygon fill="#000000" points="231.5,70.7999,235.5,80.7999,239.5,70.7999,235.5,74.7999" style="stroke: #000000; stroke-width: 1.0;"/><line style="stroke: #000000; stroke-width: 1.5;" x1="148" x2="148" y1="318.7185" y2="338.7185"/><polygon fill="#000000" points="144,328.7185,148,338.7185,152,328.7185,148,332.7185" style="stroke: #000000; stroke-width: 1.0;"/><line style="stroke: #000000; stroke-width: 1.5;" x1="148" x2="148" y1="371.9184" y2="405.8185"/><polygon fill="#000000" points="144,395.8185,148,405.8185,152,395.8185,148,399.8185" style="stroke: #000000; stroke-width: 1.0;"/><line style="stroke: #000000; stroke-width: 1.5;" x1="148" x2="148" y1="439.0184" y2="459.0184"/><polygon fill="#000000" points="144,449.0184,148,459.0184,152,449.0184,148,453.0184" style="stroke: #000000; stroke-width: 1.0;"/><line style="stroke: #000000; stroke-width: 1.5;" x1="148" x2="148" y1="253.7997" y2="285.5186"/><polygon fill="#000000" points="144,275.5186,148,285.5186,152,275.5186,148,279.5186" style="stroke: #000000; stroke-width: 1.0;"/><line style="stroke: #000000; stroke-width: 1.5;" x1="148" x2="148" y1="492.2183" y2="502.2183"/><line style="stroke: #000000; stroke-width: 1.5;" x1="148" x2="269" y1="502.2183" y2="502.2183"/><polygon fill="#000000" points="265,380.8185,269,370.8185,273,380.8185,269,376.8185" style="stroke: #000000; stroke-width: 1.5;"/><line style="stroke: #000000; stroke-width: 1.5;" x1="269" x2="269" y1="241.7997" y2="502.2183"/><line style="stroke: #000000; stroke-width: 1.5;" x1="269" x2="208" y1="241.7997" y2="241.7997"/><polygon fill="#000000" points="218,237.7997,208,241.7997,218,245.7997,214,241.7997" style="stroke: #000000; stroke-width: 1.0;"/><line style="stroke: #000000; stroke-width: 1.5;" x1="88" x2="27" y1="241.7997" y2="241.7997"/><polygon fill="#000000" points="23,375.8185,27,385.8185,31,375.8185,27,379.8185" style="stroke: #000000; stroke-width: 1.5;"/><line style="stroke: #000000; stroke-width: 1.5;" x1="27" x2="27" y1="241.7997" y2="532.2183"/><line style="stroke: #000000; stroke-width: 1.5;" x1="27" x2="223.5" y1="532.2183" y2="532.2183"/><polygon fill="#000000" points="213.5,528.2183,223.5,532.2183,213.5,536.2183,217.5,532.2183" style="stroke: #000000; stroke-width: 1.0;"/><line style="stroke: #000000; stroke-width: 1.5;" x1="187.5" x2="148" y1="207.7997" y2="207.7997"/><line style="stroke: #000000; stroke-width: 1.5;" x1="148" x2="148" y1="207.7997" y2="229.7997"/><polygon fill="#000000" points="144,219.7997,148,229.7997,152,219.7997,148,223.7997" style="stroke: #000000; stroke-width: 1.0;"/><line style="stroke: #000000; stroke-width: 1.5;" x1="283.5" x2="323" y1="207.7997" y2="207.7997"/><line style="stroke: #000000; stroke-width: 1.5;" x1="323" x2="323" y1="207.7997" y2="229.7997"/><polygon fill="#000000" points="319,219.7997,323,229.7997,327,219.7997,323,223.7997" style="stroke: #000000; stroke-width: 1.0;"/><line style="stroke: #000000; stroke-width: 1.5;" x1="323" x2="323" y1="262.9996" y2="532.2183"/><line style="stroke: #000000; stroke-width: 1.5;" x1="323" x2="247.5" y1="532.2183" y2="532.2183"/><polygon fill="#000000" points="257.5,528.2183,247.5,532.2183,257.5,536.2183,253.5,532.2183" style="stroke: #000000; stroke-width: 1.0;"/><line style="stroke: #000000; stroke-width: 1.5;" x1="235.5" x2="235.5" y1="171.1997" y2="195.7997"/><polygon fill="#000000" points="231.5,185.7997,235.5,195.7997,239.5,185.7997,235.5,189.7997" style="stroke: #000000; stroke-width: 1.0;"/><line style="stroke: #000000; stroke-width: 1.5;" x1="316" x2="374.5" y1="159.1997" y2="159.1997"/><polygon fill="#000000" points="370.5,358.8185,374.5,368.8185,378.5,358.8185,374.5,362.8185" style="stroke: #000000; stroke-width: 1.5;"/><line style="stroke: #000000; stroke-width: 1.5;" x1="374.5" x2="374.5" y1="159.1997" y2="576.2183"/><line style="stroke: #000000; stroke-width: 1.5;" x1="374.5" x2="247.5" y1="576.2183" y2="576.2183"/><polygon fill="#000000" points="257.5,572.2183,247.5,576.2183,257.5,580.2183,253.5,576.2183" style="stroke: #000000; stroke-width: 1.0;"/><line style="stroke: #000000; stroke-width: 1.5;" x1="235.5" x2="235.5" y1="544.2183" y2="564.2183"/><polygon fill="#000000" points="231.5,554.2183,235.5,564.2183,239.5,554.2183,235.5,558.2183" style="stroke: #000000; stroke-width: 1.0;"/><line style="stroke: #000000; stroke-width: 1.5;" x1="235.5" x2="235.5" y1="127.1997" y2="147.1997"/><polygon fill="#000000" points="231.5,137.1997,235.5,147.1997,239.5,137.1997,235.5,141.1997" style="stroke: #000000; stroke-width: 1.0;"/><line style="stroke: #000000; stroke-width: 1.5;" x1="235.5" x2="235.5" y1="588.2183" y2="608.2183"/><polygon fill="#000000" points="231.5,598.2183,235.5,608.2183,239.5,598.2183,235.5,602.2183" style="stroke: #000000; stroke-width: 1.0;"/><line style="stroke: #000000; stroke-width: 1.5;" x1="235.5" x2="235.5" y1="641.4182" y2="661.4182"/><polygon fill="#000000" points="231.5,651.4182,235.5,661.4182,239.5,651.4182,235.5,655.4182" style="stroke: #000000; stroke-width: 1.0;"/><line style="stroke: #000000; stroke-width: 1.5;" x1="235.5" x2="235.5" y1="796.4179" y2="816.4179"/><polygon fill="#000000" points="231.5,806.4179,235.5,816.4179,239.5,806.4179,235.5,810.4179" style="stroke: #000000; stroke-width: 1.0;"/><line style="stroke: #000000; stroke-width: 1.5;" x1="235.5" x2="235.5" y1="849.6178" y2="884.6178"/><polygon fill="#000000" points="231.5,874.6178,235.5,884.6178,239.5,874.6178,235.5,878.6178" style="stroke: #000000; stroke-width: 1.0;"/><line style="stroke: #000000; stroke-width: 1.5;" x1="235.5" x2="235.5" y1="917.8177" y2="937.8177"/><polygon fill="#000000" points="231.5,927.8177,235.5,937.8177,239.5,927.8177,235.5,931.8177" style="stroke: #000000; stroke-width: 1.0;"/><line style="stroke: #000000; stroke-width: 1.5;" x1="235.5" x2="235.5" y1="738.6181" y2="763.218"/><polygon fill="#000000" points="231.5,753.218,235.5,763.218,239.5,753.218,235.5,757.218" style="stroke: #000000; stroke-width: 1.0;"/><line style="stroke: #000000; stroke-width: 1.5;" x1="342.5" x2="354.5" y1="726.6181" y2="726.6181"/><polygon fill="#000000" points="350.5,857.1178,354.5,867.1178,358.5,857.1178,354.5,861.1178" style="stroke: #000000; stroke-width: 1.5;"/><line style="stroke: #000000; stroke-width: 1.5;" x1="354.5" x2="354.5" y1="726.6181" y2="1003.0176"/><line style="stroke: #000000; stroke-width: 1.5;" x1="354.5" x2="247.5" y1="1003.0176" y2="1003.0176"/><polygon fill="#000000" points="257.5,999.0176,247.5,1003.0176,257.5,1007.0176,253.5,1003.0176" style="stroke: #000000; stroke-width: 1.0;"/><line style="stroke: #000000; stroke-width: 1.5;" x1="235.5" x2="235.5" y1="971.0176" y2="991.0176"/><polygon fill="#000000" points="231.5,981.0176,235.5,991.0176,239.5,981.0176,235.5,985.0176" style="stroke: #000000; stroke-width: 1.0;"/><line style="stroke: #000000; stroke-width: 1.5;" x1="235.5" x2="235.5" y1="694.6181" y2="714.6181"/><polygon fill="#000000" points="231.5,704.6181,235.5,714.6181,239.5,704.6181,235.5,708.6181" style="stroke: #000000; stroke-width: 1.0;"/><line style="stroke: #000000; stroke-width: 1.5;" x1="235.5" x2="235.5" y1="1015.0176" y2="1035.0176"/><polygon fill="#000000" points="231.5,1025.0176,235.5,1035.0176,239.5,1025.0176,235.5,1029.0176" style="stroke: #000000; stroke-width: 1.0;"/><line style="stroke: #000000; stroke-width: 1.5;" x1="235.5" x2="235.5" y1="1081.4174" y2="1101.4174"/><polygon fill="#000000" points="231.5,1091.4174,235.5,1101.4174,239.5,1091.4174,235.5,1095.4174" style="stroke: #000000; stroke-width: 1.0;"/><!--MD5=[68354f36b77f9b289ddfbb1a78eb7ddf]
@startuml layout_yaml_parser_get_layouts
!define LIGHTBLUE
!includeurl https://raw.githubusercontent.com/grelltrier/RedDress-PlantUML/master/style.puml

partition "LayoutYamlParser::get_layouts()"{
    
    start

    :        <<CentralBuffer>>
    LayoutDeserialized storage]

    if (Get path to layout definitions) then (success)
        if (Read directory) then (success)
            while (YAML file available?) is (yes)
                :LayoutSource]
                :LayoutDeserialized::from(layout_source);
                :LayoutDeserialized]
                :Add deserialized layout to buffer;
            endwhile (no)
        else (failure)
            :Emit error;
        endif
    else (failure)
    endif

    :get_locale_language();
    :Language of user]
    if (Layout with language of user available?) then (yes)
    else (no)
        :Emit warning;
        :Deserialize layout from fallback string;
        :LayoutDeserialized]
        :Add deserialized layout to buffer;
    endif

    :        <<CentralBuffer>>
    LayoutDeserialized storage]

    stop
}
@enduml

@startuml layout_yaml_parser_get_layouts




skinparam stereotypeCBackgroundColor 1a66c2







skinparam backgroundColor fff








skinparam circledCharacter {
  radius 8
  fontSize 11
  fontName Verdana
}

skinparam class {
    backgroundColor ccc
  borderColor 1a66c2
    fontColor 000
  fontName Verdana
  fontSize 11
  stereotypeFontColor 333
  stereotypeFontSize 11
    arrowColor 000
  arrowFontName Verdana
  arrowFontColor 333
  arrowFontSize 11

  attributeFontColor 333
  attributeFontSize 11
  attributeIconSize 11
}


skinparam ActivityBarColor 1a66c2
skinparam activityDiamondBackgroundColor ccc
skinparam activityDiamondBorderColor 1a66c2


skinparam actor {
    backgroundColor 2a86e2
  borderColor 1a66c2
    fontColor 000
  fontName Verdana
  fontSize 11
  stereotypeFontColor 333
  stereotypeFontSize 11
}

skinparam participant {
    backgroundColor ccc
  borderColor 1a66c2
    fontColor 000
  fontName Verdana
  fontSize 11
  stereotypeFontColor 333
  stereotypeFontSize 11
}

skinparam collections {
    backgroundColor ccc
  borderColor 1a66c2
    fontColor 000
  fontName Verdana
  fontSize 11
  stereotypeFontColor 333
  stereotypeFontSize 11
}

skinparam SequenceBox{
    backgroundColor e0e0e0
  borderColor 1a66c2
    fontColor 000
  fontName Verdana
  fontSize 11
  stereotypeFontColor 333
  stereotypeFontSize 11
}


skinparam interface {
    backgroundColor 2a86e2
  borderColor 1a66c2
    fontColor 000
  fontName Verdana
  fontSize 11
  stereotypeFontColor 333
  stereotypeFontSize 11
}

skinparam component {
    backgroundColor ccc
  borderColor 1a66c2
    fontColor 000
  fontName Verdana
  fontSize 11
  stereotypeFontColor 333
  stereotypeFontSize 11
}

skinparam node {
    backgroundColor ccc
  borderColor 1a66c2
    fontColor 000
  fontName Verdana
  fontSize 11
  stereotypeFontColor 333
  stereotypeFontSize 11
}

skinparam database {
    backgroundColor ccc
  borderColor 1a66c2
    fontColor 000
  fontName Verdana
  fontSize 11
  stereotypeFontColor 333
  stereotypeFontSize 11
}

skinparam queue {
    backgroundColor ccc
  borderColor 1a66c2
    fontColor 000
  fontName Verdana
  fontSize 11
  stereotypeFontColor 333
  stereotypeFontSize 11
}


skinparam usecase {
    backgroundColor ccc
  borderColor 1a66c2
    fontColor 000
  fontName Verdana
  fontSize 11
  stereotypeFontColor 333
  stereotypeFontSize 11
    arrowColor 000
  arrowFontName Verdana
  arrowFontColor 333
  arrowFontSize 11
}

skinparam activity {
    backgroundColor ccc
  borderColor 1a66c2
    fontColor 000
  fontName Verdana
  fontSize 11
  stereotypeFontColor 333
  stereotypeFontSize 11
    arrowColor 000
  arrowFontName Verdana
  arrowFontColor 333
  arrowFontSize 11
}

skinparam sequence {
    fontColor 000
  fontName Verdana
  fontSize 11
  stereotypeFontColor 333
  stereotypeFontSize 11
    arrowColor 000
  arrowFontName Verdana
  arrowFontColor 333
  arrowFontSize 11

  lifeLineBorderColor 2a86e2
  lifeLineBackgroundColor e0e0e0
}

skinparam boundary {
    backgroundColor 2a86e2
  borderColor 1a66c2
    fontColor 000
  fontName Verdana
  fontSize 11
  stereotypeFontColor 333
  stereotypeFontSize 11
}

skinparam control {
    backgroundColor 2a86e2
  borderColor 1a66c2
    fontColor 000
  fontName Verdana
  fontSize 11
  stereotypeFontColor 333
  stereotypeFontSize 11
}

skinparam entity {
    backgroundColor 2a86e2
  borderColor 1a66c2
    fontColor 000
  fontName Verdana
  fontSize 11
  stereotypeFontColor 333
  stereotypeFontSize 11
}


skinparam state {
    backgroundColor ccc
  borderColor 1a66c2
    fontColor 000
  fontName Verdana
  fontSize 11
  stereotypeFontColor 333
  stereotypeFontSize 11
    arrowColor 000
  arrowFontName Verdana
  arrowFontColor 333
  arrowFontSize 11
  startColor 2a86e2
  endColor 1a66c2
}


skinparam object {
    backgroundColor ccc
  borderColor 1a66c2
    fontColor 000
  fontName Verdana
  fontSize 11
  stereotypeFontColor 333
  stereotypeFontSize 11
    arrowColor 000
  arrowFontName Verdana
  arrowFontColor 333
  arrowFontSize 11
}


skinparam note {
    backgroundColor 2a86e2
  borderColor 1a66c2
    fontColor 000
  fontName Verdana
  fontSize 11
  stereotypeFontColor 333
  stereotypeFontSize 11
}

skinparam cloud {
    backgroundColor ccc
  borderColor 1a66c2
    fontColor 000
  fontName Verdana
  fontSize 11
  stereotypeFontColor 333
  stereotypeFontSize 11
    arrowColor 000
  arrowFontName Verdana
  arrowFontColor 333
  arrowFontSize 11
}

skinparam rectangle {
    backgroundColor ccc
  borderColor 1a66c2
    fontColor 000
  fontName Verdana
  fontSize 11
  stereotypeFontColor 333
  stereotypeFontSize 11
}

skinparam storage {
    backgroundColor ccc
  borderColor 1a66c2
    fontColor 000
  fontName Verdana
  fontSize 11
  stereotypeFontColor 333
  stereotypeFontSize 11
}


partition "LayoutYamlParser::get_layouts()"{
    
    start

    :        <<CentralBuffer>>
    LayoutDeserialized storage]

    if (Get path to layout definitions) then (success)
        if (Read directory) then (success)
            while (YAML file available?) is (yes)
                :LayoutSource]
                :LayoutDeserialized::from(layout_source);
                :LayoutDeserialized]
                :Add deserialized layout to buffer;
            endwhile (no)
        else (failure)
            :Emit error;
        endif
    else (failure)
    endif

    :get_locale_language();
    :Language of user]
    if (Layout with language of user available?) then (yes)
    else (no)
        :Emit warning;
        :Deserialize layout from fallback string;
        :LayoutDeserialized]
        :Add deserialized layout to buffer;
    endif

    :        <<CentralBuffer>>
    LayoutDeserialized storage]

    stop
}
@enduml

PlantUML version 1.2020.19(Mon Oct 12 17:10:01 CEST 2020)
(GPL source distribution)
Java Runtime: OpenJDK Runtime Environment
JVM: OpenJDK 64-Bit Server VM
Default Encoding: UTF-8
Language: en
Country: US
--></g></svg>