<?xml version="1.0" encoding="UTF-8" standalone="no"?><svg xmlns="http://www.w3.org/2000/svg" xmlns:xlink="http://www.w3.org/1999/xlink" contentScriptType="application/ecmascript" contentStyleType="text/css" height="304px" preserveAspectRatio="none" style="width:531px;height:304px;" version="1.1" viewBox="0 0 531 304" width="531px" zoomAndPan="magnify"><defs><filter height="300%" id="f14lw7xxq3yfon" width="300%" x="-1" y="-1"><feGaussianBlur result="blurOut" stdDeviation="2.0"/><feColorMatrix in="blurOut" result="blurOut2" type="matrix" values="0 0 0 0 0 0 0 0 0 0 0 0 0 0 0 0 0 0 .4 0"/><feOffset dx="4.0" dy="4.0" in="blurOut2" result="blurOut3"/><feBlend in="SourceGraphic" in2="blurOut3" mode="normal"/></filter></defs><g><rect fill="#FFFFFF" filter="url(#f14lw7xxq3yfon)" height="276.6001" style="stroke: #000000; stroke-width: 2.0;" width="503" x="11" y="11"/><path d="M173,12 L173,20.7999 L163,30.7999 L11,30.7999 " fill="none" style="stroke: #000000; stroke-width: 2.0;"/><text fill="#000000" font-family="sans-serif" font-size="14" lengthAdjust="spacingAndGlyphs" textLength="152" x="14" y="25.0059">VKService::toggle_key()</text><ellipse cx="265.25" cy="50.7999" fill="#000000" filter="url(#f14lw7xxq3yfon)" rx="10" ry="10" style="stroke: none; stroke-width: 1.0;"/><polygon fill="#FEFECE" filter="url(#f14lw7xxq3yfon)" points="206.75,80.7999,323.75,80.7999,335.75,92.7999,323.75,104.7999,206.75,104.7999,194.75,92.7999,206.75,80.7999" style="stroke: #A80036; stroke-width: 1.5;"/><text fill="#000000" font-family="sans-serif" font-size="11" lengthAdjust="spacingAndGlyphs" textLength="117" x="206.75" y="96.4189">key is already pressed?</text><text fill="#000000" font-family="sans-serif" font-size="11" lengthAdjust="spacingAndGlyphs" textLength="18" x="176.75" y="89.8189">yes</text><text fill="#000000" font-family="sans-serif" font-size="11" lengthAdjust="spacingAndGlyphs" textLength="12" x="335.75" y="89.8189">no</text><rect fill="#FEFECE" filter="url(#f14lw7xxq3yfon)" height="34.4001" rx="12.5" ry="12.5" style="stroke: #A80036; stroke-width: 1.5;" width="235" x="23" y="114.7999"/><text fill="#000000" font-family="sans-serif" font-size="12" lengthAdjust="spacingAndGlyphs" textLength="215" x="33" y="135.948">Use VKService::send_key() to release it</text><rect fill="#FEFECE" filter="url(#f14lw7xxq3yfon)" height="34.4001" rx="12.5" ry="12.5" style="stroke: #A80036; stroke-width: 1.5;" width="224" x="278" y="114.7999"/><text fill="#000000" font-family="sans-serif" font-size="12" lengthAdjust="spacingAndGlyphs" textLength="204" x="288" y="135.948">Use VKService::send_key() to press it</text><polygon fill="#FEFECE" filter="url(#f14lw7xxq3yfon)" points="265.25,155.2,277.25,167.2,265.25,179.2,253.25,167.2,265.25,155.2" style="stroke: #A80036; stroke-width: 1.5;"/><rect fill="#FEFECE" filter="url(#f14lw7xxq3yfon)" height="34.4001" style="stroke: #A80036; stroke-width: 1.5;" width="50" x="240.25" y="199.2"/><text fill="#000000" font-family="sans-serif" font-size="12" lengthAdjust="spacingAndGlyphs" textLength="30" x="250.25" y="220.3481">result</text><ellipse cx="265.25" cy="264.6001" fill="#FFFFFF" filter="url(#f14lw7xxq3yfon)" rx="11" ry="11" style="stroke: #000000; stroke-width: 1.0;"/><ellipse cx="265.25" cy="264.6001" fill="#000000" rx="6" ry="6" style="stroke: #7F7F7F; stroke-width: 1.0;"/><line style="stroke: #A80036; stroke-width: 1.5;" x1="194.75" x2="140.5" y1="92.7999" y2="92.7999"/><line style="stroke: #A80036; stroke-width: 1.5;" x1="140.5" x2="140.5" y1="92.7999" y2="114.7999"/><polygon fill="#A80036" points="136.5,104.7999,140.5,114.7999,144.5,104.7999,140.5,108.7999" style="stroke: #A80036; stroke-width: 1.0;"/><line style="stroke: #A80036; stroke-width: 1.5;" x1="335.75" x2="390" y1="92.7999" y2="92.7999"/><line style="stroke: #A80036; stroke-width: 1.5;" x1="390" x2="390" y1="92.7999" y2="114.7999"/><polygon fill="#A80036" points="386,104.7999,390,114.7999,394,104.7999,390,108.7999" style="stroke: #A80036; stroke-width: 1.0;"/><line style="stroke: #A80036; stroke-width: 1.5;" x1="140.5" x2="140.5" y1="149.2" y2="167.2"/><line style="stroke: #A80036; stroke-width: 1.5;" x1="140.5" x2="253.25" y1="167.2" y2="167.2"/><polygon fill="#A80036" points="243.25,163.2,253.25,167.2,243.25,171.2,247.25,167.2" style="stroke: #A80036; stroke-width: 1.0;"/><line style="stroke: #A80036; stroke-width: 1.5;" x1="390" x2="390" y1="149.2" y2="167.2"/><line style="stroke: #A80036; stroke-width: 1.5;" x1="390" x2="277.25" y1="167.2" y2="167.2"/><polygon fill="#A80036" points="287.25,163.2,277.25,167.2,287.25,171.2,283.25,167.2" style="stroke: #A80036; stroke-width: 1.0;"/><line style="stroke: #A80036; stroke-width: 1.5;" x1="265.25" x2="265.25" y1="60.7999" y2="80.7999"/><polygon fill="#A80036" points="261.25,70.7999,265.25,80.7999,269.25,70.7999,265.25,74.7999" style="stroke: #A80036; stroke-width: 1.0;"/><line style="stroke: #A80036; stroke-width: 1.5;" x1="265.25" x2="265.25" y1="179.2" y2="199.2"/><polygon fill="#A80036" points="261.25,189.2,265.25,199.2,269.25,189.2,265.25,193.2" style="stroke: #A80036; stroke-width: 1.0;"/><line style="stroke: #A80036; stroke-width: 1.5;" x1="265.25" x2="265.25" y1="233.6001" y2="253.6001"/><polygon fill="#A80036" points="261.25,243.6001,265.25,253.6001,269.25,243.6001,265.25,247.6001" style="stroke: #A80036; stroke-width: 1.0;"/><!--MD5=[2514d92f28015a5889ece8ab8b6e71c0]
@startuml vkservice_toggle_key

partition "VKService::toggle_key()"{
  start
    if (key is already pressed?) then (yes)
      :Use VKService::send_key() to release it;
    else (no)
      :Use VKService::send_key() to press it;
    endif
    :result]
  stop
@enduml

PlantUML version 1.2020.15(Sun Jun 28 13:39:45 CEST 2020)
(MIT source distribution)
Java Runtime: OpenJDK Runtime Environment
JVM: OpenJDK 64-Bit Server VM
Default Encoding: UTF-8
Language: en
Country: US
--></g></svg>