<?xml version="1.0" encoding="UTF-8" standalone="no"?><svg xmlns="http://www.w3.org/2000/svg" xmlns:xlink="http://www.w3.org/1999/xlink" contentScriptType="application/ecmascript" contentStyleType="text/css" height="691px" preserveAspectRatio="none" style="width:277px;height:691px;" version="1.1" viewBox="0 0 277 691" width="277px" zoomAndPan="magnify"><defs><filter height="300%" id="f1u766izt2qtcm" width="300%" x="-1" y="-1"><feGaussianBlur result="blurOut" stdDeviation="2.0"/><feColorMatrix in="blurOut" result="blurOut2" type="matrix" values="0 0 0 0 0 0 0 0 0 0 0 0 0 0 0 0 0 0 .4 0"/><feOffset dx="4.0" dy="4.0" in="blurOut2" result="blurOut3"/><feBlend in="SourceGraphic" in2="blurOut3" mode="normal"/></filter></defs><g><rect fill="#FFFFFF" filter="url(#f1u766izt2qtcm)" height="663.1203" style="stroke: #000000; stroke-width: 2.0;" width="249" x="11" y="11"/><path d="M230,12 L230,20.7999 L220,30.7999 L11,30.7999 " fill="none" style="stroke: #000000; stroke-width: 2.0;"/><text fill="#000000" font-family="sans-serif" font-size="14" lengthAdjust="spacingAndGlyphs" textLength="209" x="14" y="25.0059">Win::make_suggestion_buttons()</text><ellipse cx="135.5" cy="50.7999" fill="#000000" filter="url(#f1u766izt2qtcm)" rx="10" ry="10" style="stroke: none; stroke-width: 1.0;"/><rect fill="#FEFECE" filter="url(#f1u766izt2qtcm)" height="34.4001" rx="12.5" ry="12.5" style="stroke: #A80036; stroke-width: 1.5;" width="154" x="58.5" y="80.7999"/><text fill="#000000" font-family="sans-serif" font-size="12" lengthAdjust="spacingAndGlyphs" textLength="134" x="68.5" y="101.948">Make storage for buttons</text><rect fill="#FEFECE" filter="url(#f1u766izt2qtcm)" height="48.8002" style="stroke: #A80036; stroke-width: 1.5;" width="120" x="75.5" y="135.2"/><text fill="#000000" font-family="sans-serif" font-size="12" lengthAdjust="spacingAndGlyphs" textLength="100" x="85.5" y="156.3481">&lt;&lt;CentralBuffer&gt;&gt;</text><text fill="#000000" font-family="sans-serif" font-size="12" lengthAdjust="spacingAndGlyphs" textLength="78" x="97.5" y="170.7482">ButtonStorage</text><rect fill="#FEFECE" filter="url(#f1u766izt2qtcm)" height="48.8002" rx="12.5" ry="12.5" style="stroke: #A80036; stroke-width: 1.5;" width="160" x="55.5" y="204.0002"/><text fill="#000000" font-family="sans-serif" font-size="12" lengthAdjust="spacingAndGlyphs" textLength="125" x="65.5" y="225.1483">Make a vector of labels</text><text fill="#000000" font-family="sans-serif" font-size="12" lengthAdjust="spacingAndGlyphs" textLength="140" x="65.5" y="239.5484">for the suggestion buttons</text><rect fill="#FEFECE" filter="url(#f1u766izt2qtcm)" height="63.2003" rx="12.5" ry="12.5" style="stroke: #A80036; stroke-width: 1.5;" width="112" x="79.5" y="328.5194"/><text fill="#000000" font-family="sans-serif" font-size="12" lengthAdjust="spacingAndGlyphs" textLength="78" x="89.5" y="349.6674">Make a Button</text><text fill="#000000" font-family="sans-serif" font-size="12" lengthAdjust="spacingAndGlyphs" textLength="92" x="89.5" y="364.0675">Set its style class</text><text fill="#000000" font-family="sans-serif" font-size="12" lengthAdjust="spacingAndGlyphs" textLength="63" x="89.5" y="378.4676">Set its label</text><rect fill="#FEFECE" filter="url(#f1u766izt2qtcm)" height="63.2003" rx="12.5" ry="12.5" style="stroke: #A80036; stroke-width: 1.5;" width="174" x="48.5" y="411.7197"/><text fill="#000000" font-family="sans-serif" font-size="12" lengthAdjust="spacingAndGlyphs" textLength="154" x="58.5" y="432.8677">Connect the buttons 'clicked'</text><text fill="#000000" font-family="sans-serif" font-size="12" lengthAdjust="spacingAndGlyphs" textLength="100" x="58.5" y="447.2678">event to sending a</text><text fill="#000000" font-family="sans-serif" font-size="12" lengthAdjust="spacingAndGlyphs" textLength="114" x="58.5" y="461.6679">SubmitText message</text><rect fill="#FEFECE" filter="url(#f1u766izt2qtcm)" height="34.4001" rx="12.5" ry="12.5" style="stroke: #A80036; stroke-width: 1.5;" width="193" x="39" y="494.92"/><text fill="#000000" font-family="sans-serif" font-size="12" lengthAdjust="spacingAndGlyphs" textLength="173" x="49" y="516.068">Add the button to ButtonStorage</text><polygon fill="#FEFECE" filter="url(#f1u766izt2qtcm)" points="100,272.8004,171,272.8004,183,284.8004,171,296.8004,100,296.8004,88,284.8004,100,272.8004" style="stroke: #A80036; stroke-width: 1.5;"/><text fill="#000000" font-family="sans-serif" font-size="11" lengthAdjust="spacingAndGlyphs" textLength="21" x="139.5" y="307.0194">next</text><text fill="#000000" font-family="sans-serif" font-size="11" lengthAdjust="spacingAndGlyphs" textLength="71" x="100" y="288.4194">for button label</text><text fill="#000000" font-family="sans-serif" font-size="11" lengthAdjust="spacingAndGlyphs" textLength="18" x="70" y="281.8195">end</text><rect fill="#FEFECE" filter="url(#f1u766izt2qtcm)" height="48.8002" style="stroke: #A80036; stroke-width: 1.5;" width="120" x="75.5" y="571.3201"/><text fill="#000000" font-family="sans-serif" font-size="12" lengthAdjust="spacingAndGlyphs" textLength="100" x="85.5" y="592.4681">&lt;&lt;CentralBuffer&gt;&gt;</text><text fill="#000000" font-family="sans-serif" font-size="12" lengthAdjust="spacingAndGlyphs" textLength="78" x="97.5" y="606.8682">ButtonStorage</text><ellipse cx="135.5" cy="651.1203" fill="#FFFFFF" filter="url(#f1u766izt2qtcm)" rx="11" ry="11" style="stroke: #000000; stroke-width: 1.0;"/><ellipse cx="135.5" cy="651.1203" fill="#000000" rx="6" ry="6" style="stroke: #7F7F7F; stroke-width: 1.0;"/><line style="stroke: #A80036; stroke-width: 1.5;" x1="135.5" x2="135.5" y1="60.7999" y2="80.7999"/><polygon fill="#A80036" points="131.5,70.7999,135.5,80.7999,139.5,70.7999,135.5,74.7999" style="stroke: #A80036; stroke-width: 1.0;"/><line style="stroke: #A80036; stroke-width: 1.5;" x1="135.5" x2="135.5" y1="115.2" y2="135.2"/><polygon fill="#A80036" points="131.5,125.2,135.5,135.2,139.5,125.2,135.5,129.2" style="stroke: #A80036; stroke-width: 1.0;"/><line style="stroke: #A80036; stroke-width: 1.5;" x1="135.5" x2="135.5" y1="184.0002" y2="204.0002"/><polygon fill="#A80036" points="131.5,194.0002,135.5,204.0002,139.5,194.0002,135.5,198.0002" style="stroke: #A80036; stroke-width: 1.0;"/><line style="stroke: #A80036; stroke-width: 1.5;" x1="135.5" x2="135.5" y1="391.7197" y2="411.7197"/><polygon fill="#A80036" points="131.5,401.7197,135.5,411.7197,139.5,401.7197,135.5,405.7197" style="stroke: #A80036; stroke-width: 1.0;"/><line style="stroke: #A80036; stroke-width: 1.5;" x1="135.5" x2="135.5" y1="474.92" y2="494.92"/><polygon fill="#A80036" points="131.5,484.92,135.5,494.92,139.5,484.92,135.5,488.92" style="stroke: #A80036; stroke-width: 1.0;"/><line style="stroke: #A80036; stroke-width: 1.5;" x1="135.5" x2="135.5" y1="296.8004" y2="328.5194"/><polygon fill="#A80036" points="131.5,318.5194,135.5,328.5194,139.5,318.5194,135.5,322.5194" style="stroke: #A80036; stroke-width: 1.0;"/><line style="stroke: #A80036; stroke-width: 1.5;" x1="135.5" x2="135.5" y1="529.3201" y2="539.3201"/><line style="stroke: #A80036; stroke-width: 1.5;" x1="135.5" x2="244" y1="539.3201" y2="539.3201"/><polygon fill="#A80036" points="240,420.3198,244,410.3198,248,420.3198,244,416.3198" style="stroke: #A80036; stroke-width: 1.5;"/><line style="stroke: #A80036; stroke-width: 1.5;" x1="244" x2="244" y1="284.8004" y2="539.3201"/><line style="stroke: #A80036; stroke-width: 1.5;" x1="244" x2="183" y1="284.8004" y2="284.8004"/><polygon fill="#A80036" points="193,280.8004,183,284.8004,193,288.8004,189,284.8004" style="stroke: #A80036; stroke-width: 1.0;"/><line style="stroke: #A80036; stroke-width: 1.5;" x1="88" x2="27" y1="284.8004" y2="284.8004"/><polygon fill="#A80036" points="23,406.3198,27,416.3198,31,406.3198,27,410.3198" style="stroke: #A80036; stroke-width: 1.5;"/><line style="stroke: #A80036; stroke-width: 1.5;" x1="27" x2="27" y1="284.8004" y2="551.3201"/><line style="stroke: #A80036; stroke-width: 1.5;" x1="27" x2="135.5" y1="551.3201" y2="551.3201"/><line style="stroke: #A80036; stroke-width: 1.5;" x1="135.5" x2="135.5" y1="551.3201" y2="571.3201"/><polygon fill="#A80036" points="131.5,561.3201,135.5,571.3201,139.5,561.3201,135.5,565.3201" style="stroke: #A80036; stroke-width: 1.0;"/><line style="stroke: #A80036; stroke-width: 1.5;" x1="135.5" x2="135.5" y1="252.8004" y2="272.8004"/><polygon fill="#A80036" points="131.5,262.8004,135.5,272.8004,139.5,262.8004,135.5,266.8004" style="stroke: #A80036; stroke-width: 1.0;"/><line style="stroke: #A80036; stroke-width: 1.5;" x1="135.5" x2="135.5" y1="620.1203" y2="640.1203"/><polygon fill="#A80036" points="131.5,630.1203,135.5,640.1203,139.5,630.1203,135.5,634.1203" style="stroke: #A80036; stroke-width: 1.0;"/><!--MD5=[1c8e1202bc0d325baec9a87313603575]
@startuml win_make_suggestion_buttons

partition "Win::make_suggestion_buttons()"{  
  start
  :Make storage for buttons;
  :<<CentralBuffer>>
      ButtonStorage]
  :Make a vector of labels
  for the suggestion buttons;
  
  while (for button label) is (next)
    :Make a Button
    Set its style class
    Set its label;

    :Connect the buttons 'clicked' 
    event to sending a
    SubmitText message;

    :Add the button to ButtonStorage;
  endwhile (end)

  :<<CentralBuffer>>
      ButtonStorage]
  stop
}
@enduml

PlantUML version 1.2020.15(Sun Jun 28 13:39:45 CEST 2020)
(MIT source distribution)
Java Runtime: OpenJDK Runtime Environment
JVM: OpenJDK 64-Bit Server VM
Default Encoding: UTF-8
Language: en
Country: US
--></g></svg>