<?xml version="1.0" encoding="UTF-8" standalone="no"?><svg xmlns="http://www.w3.org/2000/svg" xmlns:xlink="http://www.w3.org/1999/xlink" contentScriptType="application/ecmascript" contentStyleType="text/css" height="451px" preserveAspectRatio="none" style="width:335px;height:451px;" version="1.1" viewBox="0 0 335 451" width="335px" zoomAndPan="magnify"><defs><filter height="300%" id="f1xrma4k3pktqj" width="300%" x="-1" y="-1"><feGaussianBlur result="blurOut" stdDeviation="2.0"/><feColorMatrix in="blurOut" result="blurOut2" type="matrix" values="0 0 0 0 0 0 0 0 0 0 0 0 0 0 0 0 0 0 .4 0"/><feOffset dx="4.0" dy="4.0" in="blurOut2" result="blurOut3"/><feBlend in="SourceGraphic" in2="blurOut3" mode="normal"/></filter></defs><g><rect fill="#FFFFFF" filter="url(#f1xrma4k3pktqj)" height="423.6002" style="stroke: #000000; stroke-width: 2.0;" width="307" x="11" y="11"/><path d="M119,12 L119,20.7999 L109,30.7999 L11,30.7999 " fill="none" style="stroke: #000000; stroke-width: 2.0;"/><text fill="#000000" font-family="sans-serif" font-size="14" lengthAdjust="spacingAndGlyphs" textLength="98" x="14" y="25.0059">Win::load_css()</text><ellipse cx="171.25" cy="50.7999" fill="#000000" filter="url(#f1xrma4k3pktqj)" rx="10" ry="10" style="stroke: none; stroke-width: 1.0;"/><rect fill="#FEFECE" filter="url(#f1xrma4k3pktqj)" height="34.4001" rx="12.5" ry="12.5" style="stroke: #A80036; stroke-width: 1.5;" width="127" x="107.75" y="80.7999"/><text fill="#000000" font-family="sans-serif" font-size="12" lengthAdjust="spacingAndGlyphs" textLength="107" x="117.75" y="101.948">Create CssProvider</text><rect fill="#FEFECE" filter="url(#f1xrma4k3pktqj)" height="34.4001" style="stroke: #A80036; stroke-width: 1.5;" width="87" x="127.75" y="135.2"/><text fill="#000000" font-family="sans-serif" font-size="12" lengthAdjust="spacingAndGlyphs" textLength="67" x="137.75" y="156.3481">CssProvider</text><polygon fill="#FEFECE" filter="url(#f1xrma4k3pktqj)" points="128.25,238.2001,214.25,238.2001,226.25,250.2001,214.25,262.2001,128.25,262.2001,116.25,250.2001,128.25,238.2001" style="stroke: #A80036; stroke-width: 1.5;"/><text fill="#000000" font-family="sans-serif" font-size="11" lengthAdjust="spacingAndGlyphs" textLength="86" x="128.25" y="253.8191">Load style sheet?</text><text fill="#000000" font-family="sans-serif" font-size="11" lengthAdjust="spacingAndGlyphs" textLength="42" x="74.25" y="247.2191">success</text><text fill="#000000" font-family="sans-serif" font-size="11" lengthAdjust="spacingAndGlyphs" textLength="29" x="226.25" y="247.2191">failure</text><rect fill="#FEFECE" filter="url(#f1xrma4k3pktqj)" height="34.4001" rx="12.5" ry="12.5" style="stroke: #A80036; stroke-width: 1.5;" width="154" x="23" y="272.2001"/><text fill="#000000" font-family="sans-serif" font-size="12" lengthAdjust="spacingAndGlyphs" textLength="134" x="33" y="293.3482">Apply style from provider</text><rect fill="#FEFECE" filter="url(#f1xrma4k3pktqj)" height="34.4001" rx="12.5" ry="12.5" style="stroke: #A80036; stroke-width: 1.5;" width="91" x="197" y="272.2001"/><text fill="#000000" font-family="sans-serif" font-size="12" lengthAdjust="spacingAndGlyphs" textLength="71" x="207" y="293.3482">Emit warning</text><polygon fill="#FEFECE" filter="url(#f1xrma4k3pktqj)" points="171.25,312.6002,183.25,324.6002,171.25,336.6002,159.25,324.6002,171.25,312.6002" style="stroke: #A80036; stroke-width: 1.5;"/><polygon fill="#FEFECE" filter="url(#f1xrma4k3pktqj)" points="116.25,189.6001,226.25,189.6001,238.25,201.6001,226.25,213.6001,116.25,213.6001,104.25,201.6001,116.25,189.6001" style="stroke: #A80036; stroke-width: 1.5;"/><text fill="#000000" font-family="sans-serif" font-size="11" lengthAdjust="spacingAndGlyphs" textLength="42" x="175.25" y="223.8191">success</text><text fill="#000000" font-family="sans-serif" font-size="11" lengthAdjust="spacingAndGlyphs" textLength="110" x="116.25" y="205.2191">Get path to style sheet</text><text fill="#000000" font-family="sans-serif" font-size="11" lengthAdjust="spacingAndGlyphs" textLength="29" x="238.25" y="198.6192">failure</text><polygon fill="#FEFECE" filter="url(#f1xrma4k3pktqj)" points="171.25,356.6002,183.25,368.6002,171.25,380.6002,159.25,368.6002,171.25,356.6002" style="stroke: #A80036; stroke-width: 1.5;"/><ellipse cx="171.25" cy="411.6002" fill="#FFFFFF" filter="url(#f1xrma4k3pktqj)" rx="11" ry="11" style="stroke: #000000; stroke-width: 1.0;"/><ellipse cx="171.25" cy="411.6002" fill="#000000" rx="6" ry="6" style="stroke: #7F7F7F; stroke-width: 1.0;"/><line style="stroke: #A80036; stroke-width: 1.5;" x1="171.25" x2="171.25" y1="60.7999" y2="80.7999"/><polygon fill="#A80036" points="167.25,70.7999,171.25,80.7999,175.25,70.7999,171.25,74.7999" style="stroke: #A80036; stroke-width: 1.0;"/><line style="stroke: #A80036; stroke-width: 1.5;" x1="171.25" x2="171.25" y1="115.2" y2="135.2"/><polygon fill="#A80036" points="167.25,125.2,171.25,135.2,175.25,125.2,171.25,129.2" style="stroke: #A80036; stroke-width: 1.0;"/><line style="stroke: #A80036; stroke-width: 1.5;" x1="116.25" x2="100" y1="250.2001" y2="250.2001"/><line style="stroke: #A80036; stroke-width: 1.5;" x1="100" x2="100" y1="250.2001" y2="272.2001"/><polygon fill="#A80036" points="96,262.2001,100,272.2001,104,262.2001,100,266.2001" style="stroke: #A80036; stroke-width: 1.0;"/><line style="stroke: #A80036; stroke-width: 1.5;" x1="226.25" x2="242.5" y1="250.2001" y2="250.2001"/><line style="stroke: #A80036; stroke-width: 1.5;" x1="242.5" x2="242.5" y1="250.2001" y2="272.2001"/><polygon fill="#A80036" points="238.5,262.2001,242.5,272.2001,246.5,262.2001,242.5,266.2001" style="stroke: #A80036; stroke-width: 1.0;"/><line style="stroke: #A80036; stroke-width: 1.5;" x1="100" x2="100" y1="306.6002" y2="324.6002"/><line style="stroke: #A80036; stroke-width: 1.5;" x1="100" x2="159.25" y1="324.6002" y2="324.6002"/><polygon fill="#A80036" points="149.25,320.6002,159.25,324.6002,149.25,328.6002,153.25,324.6002" style="stroke: #A80036; stroke-width: 1.0;"/><line style="stroke: #A80036; stroke-width: 1.5;" x1="242.5" x2="242.5" y1="306.6002" y2="324.6002"/><line style="stroke: #A80036; stroke-width: 1.5;" x1="242.5" x2="183.25" y1="324.6002" y2="324.6002"/><polygon fill="#A80036" points="193.25,320.6002,183.25,324.6002,193.25,328.6002,189.25,324.6002" style="stroke: #A80036; stroke-width: 1.0;"/><line style="stroke: #A80036; stroke-width: 1.5;" x1="171.25" x2="171.25" y1="213.6001" y2="238.2001"/><polygon fill="#A80036" points="167.25,228.2001,171.25,238.2001,175.25,228.2001,171.25,232.2001" style="stroke: #A80036; stroke-width: 1.0;"/><line style="stroke: #A80036; stroke-width: 1.5;" x1="238.25" x2="302" y1="201.6001" y2="201.6001"/><polygon fill="#A80036" points="298,277.4001,302,287.4001,306,277.4001,302,281.4001" style="stroke: #A80036; stroke-width: 1.5;"/><line style="stroke: #A80036; stroke-width: 1.5;" x1="302" x2="302" y1="201.6001" y2="368.6002"/><line style="stroke: #A80036; stroke-width: 1.5;" x1="302" x2="183.25" y1="368.6002" y2="368.6002"/><polygon fill="#A80036" points="193.25,364.6002,183.25,368.6002,193.25,372.6002,189.25,368.6002" style="stroke: #A80036; stroke-width: 1.0;"/><line style="stroke: #A80036; stroke-width: 1.5;" x1="171.25" x2="171.25" y1="336.6002" y2="356.6002"/><polygon fill="#A80036" points="167.25,346.6002,171.25,356.6002,175.25,346.6002,171.25,350.6002" style="stroke: #A80036; stroke-width: 1.0;"/><line style="stroke: #A80036; stroke-width: 1.5;" x1="171.25" x2="171.25" y1="169.6001" y2="189.6001"/><polygon fill="#A80036" points="167.25,179.6001,171.25,189.6001,175.25,179.6001,171.25,183.6001" style="stroke: #A80036; stroke-width: 1.0;"/><line style="stroke: #A80036; stroke-width: 1.5;" x1="171.25" x2="171.25" y1="380.6002" y2="400.6002"/><polygon fill="#A80036" points="167.25,390.6002,171.25,400.6002,175.25,390.6002,171.25,394.6002" style="stroke: #A80036; stroke-width: 1.0;"/><!--MD5=[035a7e9dacfd0dcfb7dee6ed058e3949]
@startuml win_load_css

partition "Win::load_css()"{  
  start
  :Create CssProvider;
  :CssProvider]
  if (Get path to style sheet) then (success)
    if (Load style sheet?) then (success)
      :Apply style from provider;
    else (failure)
      :Emit warning;
    endif
  else (failure)
  endif
  stop
}
@enduml

PlantUML version 1.2020.15(Sun Jun 28 13:39:45 CEST 2020)
(MIT source distribution)
Java Runtime: OpenJDK Runtime Environment
JVM: OpenJDK 64-Bit Server VM
Default Encoding: UTF-8
Language: en
Country: US
--></g></svg>