<?xml version="1.0" encoding="UTF-8" standalone="no"?><svg xmlns="http://www.w3.org/2000/svg" xmlns:xlink="http://www.w3.org/1999/xlink" contentScriptType="application/ecmascript" contentStyleType="text/css" height="541px" preserveAspectRatio="none" style="width:324px;height:541px;" version="1.1" viewBox="0 0 324 541" width="324px" zoomAndPan="magnify"><defs><filter height="300%" id="f1wmyjg4iudd11" width="300%" x="-1" y="-1"><feGaussianBlur result="blurOut" stdDeviation="2.0"/><feColorMatrix in="blurOut" result="blurOut2" type="matrix" values="0 0 0 0 0 0 0 0 0 0 0 0 0 0 0 0 0 0 .4 0"/><feOffset dx="4.0" dy="4.0" in="blurOut2" result="blurOut3"/><feBlend in="SourceGraphic" in2="blurOut3" mode="normal"/></filter></defs><g><rect fill="#FFFFFF" filter="url(#f1wmyjg4iudd11)" height="513.4008" style="stroke: #000000; stroke-width: 2.0;" width="296" x="11" y="11.294"/><path d="M302,12.294 L302,21.0939 L292,31.0939 L11,31.0939 " fill="none" style="stroke: #000000; stroke-width: 2.0;"/><text fill="#000000" font-family="sans-serif" font-size="14" lengthAdjust="spacingAndGlyphs" textLength="281" x="14" y="25.2999">Win::make_suggestions_and_pref_buttons()</text><ellipse cx="161.5" cy="51.0939" fill="#000000" filter="url(#f1wmyjg4iudd11)" rx="10" ry="10" style="stroke: none; stroke-width: 1.0;"/><rect fill="#FEFECE" filter="url(#f1wmyjg4iudd11)" height="34.4001" rx="12.5" ry="12.5" style="stroke: #A80036; stroke-width: 1.5;" width="199" x="62" y="81.0939"/><text fill="#000000" font-family="sans-serif" font-size="12" lengthAdjust="spacingAndGlyphs" textLength="179" x="72" y="102.242">Win::make_suggestion_buttons()</text><rect fill="#FEFECE" filter="url(#f1wmyjg4iudd11)" height="48.8002" style="stroke: #A80036; stroke-width: 1.5;" width="120" x="101.5" y="135.494"/><text fill="#000000" font-family="sans-serif" font-size="12" lengthAdjust="spacingAndGlyphs" textLength="100" x="111.5" y="156.6421">&lt;&lt;CentralBuffer&gt;&gt;</text><text fill="#000000" font-family="sans-serif" font-size="12" lengthAdjust="spacingAndGlyphs" textLength="78" x="123.5" y="171.0422">ButtonStorage</text><rect fill="#FEFECE" filter="url(#f1wmyjg4iudd11)" height="34.4001" rx="12.5" ry="12.5" style="stroke: #A80036; stroke-width: 1.5;" width="212" x="55.5" y="204.2942"/><text fill="#000000" font-family="sans-serif" font-size="12" lengthAdjust="spacingAndGlyphs" textLength="192" x="65.5" y="225.4423">Get all layout names from keyboard</text><rect fill="#FEFECE" filter="url(#f1wmyjg4iudd11)" height="34.4001" rx="12.5" ry="12.5" style="stroke: #A80036; stroke-width: 1.5;" width="154" x="84.5" y="258.6943"/><text fill="#000000" font-family="sans-serif" font-size="12" lengthAdjust="spacingAndGlyphs" textLength="134" x="94.5" y="279.8424">Win::make_pref_button()</text><rect fill="#FEFECE" filter="url(#f1wmyjg4iudd11)" height="34.4001" style="stroke: #A80036; stroke-width: 1.5;" width="124" x="99.5" y="313.0944"/><text fill="#000000" font-family="sans-serif" font-size="12" lengthAdjust="spacingAndGlyphs" textLength="104" x="109.5" y="334.2425">Preferences Button</text><rect fill="#FEFECE" filter="url(#f1wmyjg4iudd11)" height="34.4001" rx="12.5" ry="12.5" style="stroke: #A80036; stroke-width: 1.5;" width="198" x="62.5" y="367.4945"/><text fill="#000000" font-family="sans-serif" font-size="12" lengthAdjust="spacingAndGlyphs" textLength="178" x="72.5" y="388.6426">Add preference button to storage</text><rect fill="#FEFECE" filter="url(#f1wmyjg4iudd11)" height="48.8002" style="stroke: #A80036; stroke-width: 1.5;" width="120" x="101.5" y="421.8946"/><text fill="#000000" font-family="sans-serif" font-size="12" lengthAdjust="spacingAndGlyphs" textLength="100" x="111.5" y="443.0427">&lt;&lt;CentralBuffer&gt;&gt;</text><text fill="#000000" font-family="sans-serif" font-size="12" lengthAdjust="spacingAndGlyphs" textLength="78" x="123.5" y="457.4428">ButtonStorage</text><ellipse cx="161.5" cy="501.6948" fill="#FFFFFF" filter="url(#f1wmyjg4iudd11)" rx="11" ry="11" style="stroke: #000000; stroke-width: 1.0;"/><ellipse cx="161.5" cy="501.6948" fill="#000000" rx="6" ry="6" style="stroke: #7F7F7F; stroke-width: 1.0;"/><line style="stroke: #A80036; stroke-width: 1.5;" x1="161.5" x2="161.5" y1="61.0939" y2="81.0939"/><polygon fill="#A80036" points="157.5,71.0939,161.5,81.0939,165.5,71.0939,161.5,75.0939" style="stroke: #A80036; stroke-width: 1.0;"/><line style="stroke: #A80036; stroke-width: 1.5;" x1="161.5" x2="161.5" y1="115.494" y2="135.494"/><polygon fill="#A80036" points="157.5,125.494,161.5,135.494,165.5,125.494,161.5,129.494" style="stroke: #A80036; stroke-width: 1.0;"/><line style="stroke: #A80036; stroke-width: 1.5;" x1="161.5" x2="161.5" y1="184.2942" y2="204.2942"/><polygon fill="#A80036" points="157.5,194.2942,161.5,204.2942,165.5,194.2942,161.5,198.2942" style="stroke: #A80036; stroke-width: 1.0;"/><line style="stroke: #A80036; stroke-width: 1.5;" x1="161.5" x2="161.5" y1="238.6943" y2="258.6943"/><polygon fill="#A80036" points="157.5,248.6943,161.5,258.6943,165.5,248.6943,161.5,252.6943" style="stroke: #A80036; stroke-width: 1.0;"/><line style="stroke: #A80036; stroke-width: 1.5;" x1="161.5" x2="161.5" y1="293.0944" y2="313.0944"/><polygon fill="#A80036" points="157.5,303.0944,161.5,313.0944,165.5,303.0944,161.5,307.0944" style="stroke: #A80036; stroke-width: 1.0;"/><line style="stroke: #A80036; stroke-width: 1.5;" x1="161.5" x2="161.5" y1="347.4945" y2="367.4945"/><polygon fill="#A80036" points="157.5,357.4945,161.5,367.4945,165.5,357.4945,161.5,361.4945" style="stroke: #A80036; stroke-width: 1.0;"/><line style="stroke: #A80036; stroke-width: 1.5;" x1="161.5" x2="161.5" y1="401.8946" y2="421.8946"/><polygon fill="#A80036" points="157.5,411.8946,161.5,421.8946,165.5,411.8946,161.5,415.8946" style="stroke: #A80036; stroke-width: 1.0;"/><line style="stroke: #A80036; stroke-width: 1.5;" x1="161.5" x2="161.5" y1="470.6948" y2="490.6948"/><polygon fill="#A80036" points="157.5,480.6948,161.5,490.6948,165.5,480.6948,161.5,484.6948" style="stroke: #A80036; stroke-width: 1.0;"/><!--MD5=[f32e22cec748c6974d3b0bf2e72793a4]
@startuml win_make_suggestions_and_pref_buttons

partition "Win::make_suggestions_and_pref_buttons()"{  
  start
  :Win::make_suggestion_buttons();
  :<<CentralBuffer>>
      ButtonStorage]
  :Get all layout names from keyboard;
  :Win::make_pref_button();
  :Preferences Button]
  :Add preference button to storage;
  :<<CentralBuffer>>
      ButtonStorage]
  stop
}
@enduml

PlantUML version 1.2020.15(Sun Jun 28 13:39:45 CEST 2020)
(MIT source distribution)
Java Runtime: OpenJDK Runtime Environment
JVM: OpenJDK 64-Bit Server VM
Default Encoding: UTF-8
Language: en
Country: US
--></g></svg>