<?xml version="1.0" encoding="UTF-8" standalone="no"?><svg xmlns="http://www.w3.org/2000/svg" xmlns:xlink="http://www.w3.org/1999/xlink" contentScriptType="application/ecmascript" contentStyleType="text/css" height="1822px" preserveAspectRatio="none" style="width:512px;height:1822px;" version="1.1" viewBox="0 0 512 1822" width="512px" zoomAndPan="magnify"><defs><filter height="300%" id="fgiglq1axr6ws" width="300%" x="-1" y="-1"><feGaussianBlur result="blurOut" stdDeviation="2.0"/><feColorMatrix in="blurOut" result="blurOut2" type="matrix" values="0 0 0 0 0 0 0 0 0 0 0 0 0 0 0 0 0 0 .4 0"/><feOffset dx="4.0" dy="4.0" in="blurOut2" result="blurOut3"/><feBlend in="SourceGraphic" in2="blurOut3" mode="normal"/></filter></defs><g><rect fill="#FFFFFF" filter="url(#fgiglq1axr6ws)" height="1794.202" style="stroke: #000000; stroke-width: 2.0;" width="484.5" x="11" y="11"/><path d="M107,12 L107,20.7999 L97,30.7999 L11,30.7999 " fill="none" style="stroke: #000000; stroke-width: 2.0;"/><text fill="#000000" font-family="sans-serif" font-size="14" lengthAdjust="spacingAndGlyphs" textLength="86" x="14" y="25.0059">Win::update()</text><ellipse cx="253.25" cy="50.7999" fill="#000000" filter="url(#fgiglq1axr6ws)" rx="10" ry="10" style="stroke: none; stroke-width: 1.0;"/><rect fill="#FEFECE" filter="url(#fgiglq1axr6ws)" height="34.4001" rx="12.5" ry="12.5" style="stroke: #A80036; stroke-width: 1.5;" width="310" x="164.25" y="104.7999"/><text fill="#000000" font-family="sans-serif" font-size="12" lengthAdjust="spacingAndGlyphs" textLength="290" x="174.25" y="125.948">GestureModel::convert_to_interaction(GestureSignal)</text><rect fill="#FEFECE" filter="url(#fgiglq1axr6ws)" height="34.4001" style="stroke: #A80036; stroke-width: 1.5;" width="77" x="280.75" y="159.2"/><text fill="#000000" font-family="sans-serif" font-size="12" lengthAdjust="spacingAndGlyphs" textLength="57" x="290.75" y="180.3481">Interaction</text><rect fill="#FEFECE" filter="url(#fgiglq1axr6ws)" height="34.4001" rx="12.5" ry="12.5" style="stroke: #A80036; stroke-width: 1.5;" width="299" x="169.75" y="213.6001"/><text fill="#000000" font-family="sans-serif" font-size="12" lengthAdjust="spacingAndGlyphs" textLength="279" x="179.75" y="234.7482">Convert absolute coordinates to relative coodinates</text><rect fill="#FEFECE" filter="url(#fgiglq1axr6ws)" height="34.4001" rx="12.5" ry="12.5" style="stroke: #A80036; stroke-width: 1.5;" width="171" x="233.75" y="268.0002"/><text fill="#000000" font-family="sans-serif" font-size="12" lengthAdjust="spacingAndGlyphs" textLength="151" x="243.75" y="289.1483">Keyboard::input(Interaction)</text><rect fill="#FEFECE" filter="url(#fgiglq1axr6ws)" height="34.4001" style="stroke: #A80036; stroke-width: 1.5;" width="65" x="318" y="346.4003"/><text fill="#000000" font-family="sans-serif" font-size="12" lengthAdjust="spacingAndGlyphs" textLength="45" x="328" y="367.5484">ButtonId</text><polygon fill="#FEFECE" filter="url(#fgiglq1axr6ws)" points="319,400.8004,382,400.8004,394,412.8004,382,424.8004,319,424.8004,307,412.8004,319,400.8004" style="stroke: #A80036; stroke-width: 1.5;"/><text fill="#000000" font-family="sans-serif" font-size="11" lengthAdjust="spacingAndGlyphs" textLength="63" x="319" y="416.4194">Button exist?</text><text fill="#000000" font-family="sans-serif" font-size="11" lengthAdjust="spacingAndGlyphs" textLength="18" x="289" y="409.8195">yes</text><text fill="#000000" font-family="sans-serif" font-size="11" lengthAdjust="spacingAndGlyphs" textLength="12" x="394" y="409.8195">no</text><rect fill="#FEFECE" filter="url(#fgiglq1axr6ws)" height="34.4001" rx="12.5" ry="12.5" style="stroke: #A80036; stroke-width: 1.5;" width="198" x="173.75" y="434.8004"/><text fill="#000000" font-family="sans-serif" font-size="12" lengthAdjust="spacingAndGlyphs" textLength="178" x="183.75" y="455.9485">Activate/deactivate ToggleButton</text><rect fill="#FEFECE" filter="url(#fgiglq1axr6ws)" height="34.4001" rx="12.5" ry="12.5" style="stroke: #A80036; stroke-width: 1.5;" width="73" x="391.75" y="434.8004"/><text fill="#000000" font-family="sans-serif" font-size="12" lengthAdjust="spacingAndGlyphs" textLength="53" x="401.75" y="455.9485">Emit error</text><polygon fill="#FEFECE" filter="url(#fgiglq1axr6ws)" points="350.5,475.2005,362.5,487.2005,350.5,499.2005,338.5,487.2005,350.5,475.2005" style="stroke: #A80036; stroke-width: 1.5;"/><rect fill="#FEFECE" filter="url(#fgiglq1axr6ws)" height="34.4001" rx="12.5" ry="12.5" style="stroke: #A80036; stroke-width: 1.5;" width="134" x="283.5" y="519.2005"/><text fill="#000000" font-family="sans-serif" font-size="12" lengthAdjust="spacingAndGlyphs" textLength="114" x="293.5" y="540.3486">Give haptic feedback</text><rect fill="#FEFECE" filter="url(#fgiglq1axr6ws)" height="34.4001" style="stroke: #A80036; stroke-width: 1.5;" width="65" x="326.75" y="597.6006"/><text fill="#000000" font-family="sans-serif" font-size="12" lengthAdjust="spacingAndGlyphs" textLength="45" x="336.75" y="618.7487">ButtonId</text><polygon fill="#FEFECE" filter="url(#fgiglq1axr6ws)" points="327.75,652.0007,390.75,652.0007,402.75,664.0007,390.75,676.0007,327.75,676.0007,315.75,664.0007,327.75,652.0007" style="stroke: #A80036; stroke-width: 1.5;"/><text fill="#000000" font-family="sans-serif" font-size="11" lengthAdjust="spacingAndGlyphs" textLength="63" x="327.75" y="667.6197">Button exist?</text><text fill="#000000" font-family="sans-serif" font-size="11" lengthAdjust="spacingAndGlyphs" textLength="18" x="297.75" y="661.0198">yes</text><text fill="#000000" font-family="sans-serif" font-size="11" lengthAdjust="spacingAndGlyphs" textLength="12" x="402.75" y="661.0198">no</text><rect fill="#FEFECE" filter="url(#fgiglq1axr6ws)" height="34.4001" rx="12.5" ry="12.5" style="stroke: #A80036; stroke-width: 1.5;" width="154" x="202.5" y="686.0007"/><text fill="#000000" font-family="sans-serif" font-size="12" lengthAdjust="spacingAndGlyphs" textLength="134" x="212.5" y="707.1488">Deactivate ToggleButton</text><polygon fill="#FEFECE" filter="url(#fgiglq1axr6ws)" points="245,740.4008,314,740.4008,326,752.4008,314,764.4008,245,764.4008,233,752.4008,245,740.4008" style="stroke: #A80036; stroke-width: 1.5;"/><text fill="#000000" font-family="sans-serif" font-size="11" lengthAdjust="spacingAndGlyphs" textLength="69" x="245" y="756.0198">Has popover?</text><text fill="#000000" font-family="sans-serif" font-size="11" lengthAdjust="spacingAndGlyphs" textLength="18" x="215" y="749.4199">yes</text><text fill="#000000" font-family="sans-serif" font-size="11" lengthAdjust="spacingAndGlyphs" textLength="12" x="326" y="749.4199">no</text><rect fill="#FEFECE" filter="url(#fgiglq1axr6ws)" height="34.4001" rx="12.5" ry="12.5" style="stroke: #A80036; stroke-width: 1.5;" width="100" x="173" y="774.4008"/><text fill="#000000" font-family="sans-serif" font-size="12" lengthAdjust="spacingAndGlyphs" textLength="80" x="183" y="795.5489">Show Popover</text><rect fill="#FEFECE" filter="url(#fgiglq1axr6ws)" height="34.4001" rx="12.5" ry="12.5" style="stroke: #A80036; stroke-width: 1.5;" width="73" x="299.5" y="774.4008"/><text fill="#000000" font-family="sans-serif" font-size="12" lengthAdjust="spacingAndGlyphs" textLength="53" x="309.5" y="795.5489">Emit error</text><polygon fill="#FEFECE" filter="url(#fgiglq1axr6ws)" points="279.5,814.8009,291.5,826.8009,279.5,838.8009,267.5,826.8009,279.5,814.8009" style="stroke: #A80036; stroke-width: 1.5;"/><rect fill="#FEFECE" filter="url(#fgiglq1axr6ws)" height="34.4001" rx="12.5" ry="12.5" style="stroke: #A80036; stroke-width: 1.5;" width="73" x="402.5" y="686.0007"/><text fill="#000000" font-family="sans-serif" font-size="12" lengthAdjust="spacingAndGlyphs" textLength="53" x="412.5" y="707.1488">Emit error</text><polygon fill="#FEFECE" filter="url(#fgiglq1axr6ws)" points="359.25,844.8009,371.25,856.8009,359.25,868.8009,347.25,856.8009,359.25,844.8009" style="stroke: #A80036; stroke-width: 1.5;"/><rect fill="#FEFECE" filter="url(#fgiglq1axr6ws)" height="34.4001" rx="12.5" ry="12.5" style="stroke: #A80036; stroke-width: 1.5;" width="141" x="248.75" y="912.8009"/><text fill="#000000" font-family="sans-serif" font-size="12" lengthAdjust="spacingAndGlyphs" textLength="121" x="258.75" y="933.949">Keyboard::submit_text</text><rect fill="#FEFECE" filter="url(#fgiglq1axr6ws)" height="34.4001" rx="12.5" ry="12.5" style="stroke: #A80036; stroke-width: 1.5;" width="331" x="153.75" y="991.201"/><text fill="#000000" font-family="sans-serif" font-size="12" lengthAdjust="spacingAndGlyphs" textLength="311" x="163.75" y="1012.3491">Set the labels of the suggestion buttons to the new values</text><rect fill="#FEFECE" filter="url(#fgiglq1axr6ws)" height="48.8002" rx="12.5" ry="12.5" style="stroke: #A80036; stroke-width: 1.5;" width="230" x="204.25" y="1069.6011"/><text fill="#000000" font-family="sans-serif" font-size="12" lengthAdjust="spacingAndGlyphs" textLength="188" x="214.25" y="1090.7492">Change the visibility of the window</text><text fill="#000000" font-family="sans-serif" font-size="12" lengthAdjust="spacingAndGlyphs" textLength="210" x="214.25" y="1105.1493">Update 'visibility' value of DBusService</text><rect fill="#FEFECE" filter="url(#fgiglq1axr6ws)" height="34.4001" rx="12.5" ry="12.5" style="stroke: #A80036; stroke-width: 1.5;" width="113" x="262.75" y="1162.4013"/><text fill="#000000" font-family="sans-serif" font-size="12" lengthAdjust="spacingAndGlyphs" textLength="93" x="272.75" y="1183.5494">Not implemented</text><rect fill="#FEFECE" filter="url(#fgiglq1axr6ws)" height="34.4001" rx="12.5" ry="12.5" style="stroke: #A80036; stroke-width: 1.5;" width="205" x="216.75" y="1240.8014"/><text fill="#000000" font-family="sans-serif" font-size="12" lengthAdjust="spacingAndGlyphs" textLength="185" x="226.75" y="1261.9495">UIManager.change_layout_view()</text><rect fill="#FEFECE" filter="url(#fgiglq1axr6ws)" height="34.4001" rx="12.5" ry="12.5" style="stroke: #A80036; stroke-width: 1.5;" width="246" x="196.25" y="1319.2015"/><text fill="#000000" font-family="sans-serif" font-size="12" lengthAdjust="spacingAndGlyphs" textLength="226" x="206.25" y="1340.3496">Set active_view of Keyboard to new value</text><rect fill="#FEFECE" filter="url(#fgiglq1axr6ws)" height="34.4001" rx="12.5" ry="12.5" style="stroke: #A80036; stroke-width: 1.5;" width="198" x="220.25" y="1397.6016"/><text fill="#000000" font-family="sans-serif" font-size="12" lengthAdjust="spacingAndGlyphs" textLength="178" x="230.25" y="1418.7497">UIManager.change_orientation()</text><rect fill="#FEFECE" filter="url(#fgiglq1axr6ws)" height="34.4001" rx="12.5" ry="12.5" style="stroke: #A80036; stroke-width: 1.5;" width="268" x="185.25" y="1476.0017"/><text fill="#000000" font-family="sans-serif" font-size="12" lengthAdjust="spacingAndGlyphs" textLength="248" x="195.25" y="1497.1498">Fetch the new events from the wayland server</text><rect fill="#FEFECE" filter="url(#fgiglq1axr6ws)" height="34.4001" rx="12.5" ry="12.5" style="stroke: #A80036; stroke-width: 1.5;" width="113" x="262.75" y="1554.4018"/><text fill="#000000" font-family="sans-serif" font-size="12" lengthAdjust="spacingAndGlyphs" textLength="93" x="272.75" y="1575.5499">Win::draw_path()</text><rect fill="#FEFECE" filter="url(#fgiglq1axr6ws)" height="34.4001" rx="12.5" ry="12.5" style="stroke: #A80036; stroke-width: 1.5;" width="104" x="267.25" y="1632.8019"/><text fill="#000000" font-family="sans-serif" font-size="12" lengthAdjust="spacingAndGlyphs" textLength="84" x="277.25" y="1653.95">gtk::main_quit()</text><ellipse cx="319.25" cy="1697.202" fill="#FFFFFF" filter="url(#fgiglq1axr6ws)" rx="10" ry="10" style="stroke: #000000; stroke-width: 1.5;"/><line style="stroke: #000000; stroke-width: 2.5;" x1="313.0628" x2="325.4372" y1="1691.0149" y2="1703.3892"/><line style="stroke: #000000; stroke-width: 2.5;" x1="325.4372" x2="313.0628" y1="1691.0149" y2="1703.3892"/><polygon fill="#FEFECE" filter="url(#fgiglq1axr6ws)" points="52.5,80.7999,121.5,80.7999,133.5,92.7999,121.5,104.7999,52.5,104.7999,40.5,92.7999,52.5,80.7999" style="stroke: #A80036; stroke-width: 1.5;"/><text fill="#000000" font-family="sans-serif" font-size="11" lengthAdjust="spacingAndGlyphs" textLength="69" x="52.5" y="96.4189">GestureSignal</text><text fill="#000000" font-family="sans-serif" font-size="11" lengthAdjust="spacingAndGlyphs" textLength="18" x="133.5" y="89.8189">yes</text><polygon fill="#FEFECE" filter="url(#fgiglq1axr6ws)" points="46,322.4003,128,322.4003,140,334.4003,128,346.4003,46,346.4003,34,334.4003,46,322.4003" style="stroke: #A80036; stroke-width: 1.5;"/><text fill="#000000" font-family="sans-serif" font-size="11" lengthAdjust="spacingAndGlyphs" textLength="82" x="46" y="338.0193">ButtonInteraction</text><text fill="#000000" font-family="sans-serif" font-size="11" lengthAdjust="spacingAndGlyphs" textLength="18" x="140" y="331.4194">yes</text><polygon fill="#FEFECE" filter="url(#fgiglq1axr6ws)" points="58,573.6006,116,573.6006,128,585.6006,116,597.6006,58,597.6006,46,585.6006,58,573.6006" style="stroke: #A80036; stroke-width: 1.5;"/><text fill="#000000" font-family="sans-serif" font-size="11" lengthAdjust="spacingAndGlyphs" textLength="58" x="58" y="589.2196">OpenPopup</text><text fill="#000000" font-family="sans-serif" font-size="11" lengthAdjust="spacingAndGlyphs" textLength="18" x="128" y="582.6197">yes</text><polygon fill="#FEFECE" filter="url(#fgiglq1axr6ws)" points="59.5,888.8009,114.5,888.8009,126.5,900.8009,114.5,912.8009,59.5,912.8009,47.5,900.8009,59.5,888.8009" style="stroke: #A80036; stroke-width: 1.5;"/><text fill="#000000" font-family="sans-serif" font-size="11" lengthAdjust="spacingAndGlyphs" textLength="55" x="59.5" y="904.4199">SubmitText</text><text fill="#000000" font-family="sans-serif" font-size="11" lengthAdjust="spacingAndGlyphs" textLength="18" x="126.5" y="897.82">yes</text><polygon fill="#FEFECE" filter="url(#fgiglq1axr6ws)" points="57,967.201,117,967.201,129,979.201,117,991.201,57,991.201,45,979.201,57,967.201" style="stroke: #A80036; stroke-width: 1.5;"/><text fill="#000000" font-family="sans-serif" font-size="11" lengthAdjust="spacingAndGlyphs" textLength="60" x="57" y="982.82">Suggestions</text><text fill="#000000" font-family="sans-serif" font-size="11" lengthAdjust="spacingAndGlyphs" textLength="18" x="129" y="976.2201">yes</text><polygon fill="#FEFECE" filter="url(#fgiglq1axr6ws)" points="60,1045.6011,114,1045.6011,126,1057.6011,114,1069.6011,60,1069.6011,48,1057.6011,60,1045.6011" style="stroke: #A80036; stroke-width: 1.5;"/><text fill="#000000" font-family="sans-serif" font-size="11" lengthAdjust="spacingAndGlyphs" textLength="54" x="60" y="1061.2201">SetVisibility</text><text fill="#000000" font-family="sans-serif" font-size="11" lengthAdjust="spacingAndGlyphs" textLength="18" x="126" y="1054.6202">yes</text><polygon fill="#FEFECE" filter="url(#fgiglq1axr6ws)" points="57,1138.4013,117,1138.4013,129,1150.4013,117,1162.4013,57,1162.4013,45,1150.4013,57,1138.4013" style="stroke: #A80036; stroke-width: 1.5;"/><text fill="#000000" font-family="sans-serif" font-size="11" lengthAdjust="spacingAndGlyphs" textLength="60" x="57" y="1154.0203">HintPurpose</text><text fill="#000000" font-family="sans-serif" font-size="11" lengthAdjust="spacingAndGlyphs" textLength="18" x="129" y="1147.4204">yes</text><polygon fill="#FEFECE" filter="url(#fgiglq1axr6ws)" points="34.5,1216.8014,139.5,1216.8014,151.5,1228.8014,139.5,1240.8014,34.5,1240.8014,22.5,1228.8014,34.5,1216.8014" style="stroke: #A80036; stroke-width: 1.5;"/><text fill="#000000" font-family="sans-serif" font-size="11" lengthAdjust="spacingAndGlyphs" textLength="105" x="34.5" y="1232.4204">ChangeUILayoutView</text><text fill="#000000" font-family="sans-serif" font-size="11" lengthAdjust="spacingAndGlyphs" textLength="18" x="151.5" y="1225.8205">yes</text><polygon fill="#FEFECE" filter="url(#fgiglq1axr6ws)" points="33,1295.2015,141,1295.2015,153,1307.2015,141,1319.2015,33,1319.2015,21,1307.2015,33,1295.2015" style="stroke: #A80036; stroke-width: 1.5;"/><text fill="#000000" font-family="sans-serif" font-size="11" lengthAdjust="spacingAndGlyphs" textLength="108" x="33" y="1310.8205">ChangeKBLayoutView</text><text fill="#000000" font-family="sans-serif" font-size="11" lengthAdjust="spacingAndGlyphs" textLength="18" x="153" y="1304.2206">yes</text><polygon fill="#FEFECE" filter="url(#fgiglq1axr6ws)" points="36,1373.6016,138,1373.6016,150,1385.6016,138,1397.6016,36,1397.6016,24,1385.6016,36,1373.6016" style="stroke: #A80036; stroke-width: 1.5;"/><text fill="#000000" font-family="sans-serif" font-size="11" lengthAdjust="spacingAndGlyphs" textLength="102" x="36" y="1389.2206">ChangeUIOrientation</text><text fill="#000000" font-family="sans-serif" font-size="11" lengthAdjust="spacingAndGlyphs" textLength="18" x="150" y="1382.6207">yes</text><polygon fill="#FEFECE" filter="url(#fgiglq1axr6ws)" points="61.5,1452.0017,112.5,1452.0017,124.5,1464.0017,112.5,1476.0017,61.5,1476.0017,49.5,1464.0017,61.5,1452.0017" style="stroke: #A80036; stroke-width: 1.5;"/><text fill="#000000" font-family="sans-serif" font-size="11" lengthAdjust="spacingAndGlyphs" textLength="51" x="61.5" y="1467.6207">PollEvents</text><text fill="#000000" font-family="sans-serif" font-size="11" lengthAdjust="spacingAndGlyphs" textLength="18" x="124.5" y="1461.0208">yes</text><polygon fill="#FEFECE" filter="url(#fgiglq1axr6ws)" points="42,1530.4018,132,1530.4018,144,1542.4018,132,1554.4018,42,1554.4018,30,1542.4018,42,1530.4018" style="stroke: #A80036; stroke-width: 1.5;"/><text fill="#000000" font-family="sans-serif" font-size="11" lengthAdjust="spacingAndGlyphs" textLength="90" x="42" y="1546.0208">UpdateDrawBuffer</text><text fill="#000000" font-family="sans-serif" font-size="11" lengthAdjust="spacingAndGlyphs" textLength="18" x="144" y="1539.4209">yes</text><polygon fill="#FEFECE" filter="url(#fgiglq1axr6ws)" points="75,1608.8019,99,1608.8019,111,1620.8019,99,1632.8019,75,1632.8019,63,1620.8019,75,1608.8019" style="stroke: #A80036; stroke-width: 1.5;"/><text fill="#000000" font-family="sans-serif" font-size="11" lengthAdjust="spacingAndGlyphs" textLength="20" x="77" y="1624.4209">Quit</text><text fill="#000000" font-family="sans-serif" font-size="11" lengthAdjust="spacingAndGlyphs" textLength="18" x="111" y="1617.821">yes</text><polygon fill="#FEFECE" filter="url(#fgiglq1axr6ws)" points="253.25,1727.202,265.25,1739.202,253.25,1751.202,241.25,1739.202,253.25,1727.202" style="stroke: #A80036; stroke-width: 1.5;"/><ellipse cx="253.25" cy="1782.202" fill="#FFFFFF" filter="url(#fgiglq1axr6ws)" rx="11" ry="11" style="stroke: #000000; stroke-width: 1.0;"/><ellipse cx="253.25" cy="1782.202" fill="#000000" rx="6" ry="6" style="stroke: #7F7F7F; stroke-width: 1.0;"/><line style="stroke: #A80036; stroke-width: 1.5;" x1="319.25" x2="319.25" y1="139.2" y2="159.2"/><polygon fill="#A80036" points="315.25,149.2,319.25,159.2,323.25,149.2,319.25,153.2" style="stroke: #A80036; stroke-width: 1.0;"/><line style="stroke: #A80036; stroke-width: 1.5;" x1="319.25" x2="319.25" y1="193.6001" y2="213.6001"/><polygon fill="#A80036" points="315.25,203.6001,319.25,213.6001,323.25,203.6001,319.25,207.6001" style="stroke: #A80036; stroke-width: 1.0;"/><line style="stroke: #A80036; stroke-width: 1.5;" x1="319.25" x2="319.25" y1="248.0002" y2="268.0002"/><polygon fill="#A80036" points="315.25,258.0002,319.25,268.0002,323.25,258.0002,319.25,262.0002" style="stroke: #A80036; stroke-width: 1.0;"/><line style="stroke: #A80036; stroke-width: 1.5;" x1="307" x2="272.75" y1="412.8004" y2="412.8004"/><line style="stroke: #A80036; stroke-width: 1.5;" x1="272.75" x2="272.75" y1="412.8004" y2="434.8004"/><polygon fill="#A80036" points="268.75,424.8004,272.75,434.8004,276.75,424.8004,272.75,428.8004" style="stroke: #A80036; stroke-width: 1.0;"/><line style="stroke: #A80036; stroke-width: 1.5;" x1="394" x2="428.25" y1="412.8004" y2="412.8004"/><line style="stroke: #A80036; stroke-width: 1.5;" x1="428.25" x2="428.25" y1="412.8004" y2="434.8004"/><polygon fill="#A80036" points="424.25,424.8004,428.25,434.8004,432.25,424.8004,428.25,428.8004" style="stroke: #A80036; stroke-width: 1.0;"/><line style="stroke: #A80036; stroke-width: 1.5;" x1="272.75" x2="272.75" y1="469.2005" y2="487.2005"/><line style="stroke: #A80036; stroke-width: 1.5;" x1="272.75" x2="338.5" y1="487.2005" y2="487.2005"/><polygon fill="#A80036" points="328.5,483.2005,338.5,487.2005,328.5,491.2005,332.5,487.2005" style="stroke: #A80036; stroke-width: 1.0;"/><line style="stroke: #A80036; stroke-width: 1.5;" x1="428.25" x2="428.25" y1="469.2005" y2="487.2005"/><line style="stroke: #A80036; stroke-width: 1.5;" x1="428.25" x2="362.5" y1="487.2005" y2="487.2005"/><polygon fill="#A80036" points="372.5,483.2005,362.5,487.2005,372.5,491.2005,368.5,487.2005" style="stroke: #A80036; stroke-width: 1.0;"/><line style="stroke: #A80036; stroke-width: 1.5;" x1="350.5" x2="350.5" y1="380.8004" y2="400.8004"/><polygon fill="#A80036" points="346.5,390.8004,350.5,400.8004,354.5,390.8004,350.5,394.8004" style="stroke: #A80036; stroke-width: 1.0;"/><line style="stroke: #A80036; stroke-width: 1.5;" x1="350.5" x2="350.5" y1="499.2005" y2="519.2005"/><polygon fill="#A80036" points="346.5,509.2005,350.5,519.2005,354.5,509.2005,350.5,513.2005" style="stroke: #A80036; stroke-width: 1.0;"/><line style="stroke: #A80036; stroke-width: 1.5;" x1="233" x2="223" y1="752.4008" y2="752.4008"/><line style="stroke: #A80036; stroke-width: 1.5;" x1="223" x2="223" y1="752.4008" y2="774.4008"/><polygon fill="#A80036" points="219,764.4008,223,774.4008,227,764.4008,223,768.4008" style="stroke: #A80036; stroke-width: 1.0;"/><line style="stroke: #A80036; stroke-width: 1.5;" x1="326" x2="336" y1="752.4008" y2="752.4008"/><line style="stroke: #A80036; stroke-width: 1.5;" x1="336" x2="336" y1="752.4008" y2="774.4008"/><polygon fill="#A80036" points="332,764.4008,336,774.4008,340,764.4008,336,768.4008" style="stroke: #A80036; stroke-width: 1.0;"/><line style="stroke: #A80036; stroke-width: 1.5;" x1="223" x2="223" y1="808.8009" y2="826.8009"/><line style="stroke: #A80036; stroke-width: 1.5;" x1="223" x2="267.5" y1="826.8009" y2="826.8009"/><polygon fill="#A80036" points="257.5,822.8009,267.5,826.8009,257.5,830.8009,261.5,826.8009" style="stroke: #A80036; stroke-width: 1.0;"/><line style="stroke: #A80036; stroke-width: 1.5;" x1="336" x2="336" y1="808.8009" y2="826.8009"/><line style="stroke: #A80036; stroke-width: 1.5;" x1="336" x2="291.5" y1="826.8009" y2="826.8009"/><polygon fill="#A80036" points="301.5,822.8009,291.5,826.8009,301.5,830.8009,297.5,826.8009" style="stroke: #A80036; stroke-width: 1.0;"/><line style="stroke: #A80036; stroke-width: 1.5;" x1="279.5" x2="279.5" y1="720.4008" y2="740.4008"/><polygon fill="#A80036" points="275.5,730.4008,279.5,740.4008,283.5,730.4008,279.5,734.4008" style="stroke: #A80036; stroke-width: 1.0;"/><line style="stroke: #A80036; stroke-width: 1.5;" x1="315.75" x2="279.5" y1="664.0007" y2="664.0007"/><line style="stroke: #A80036; stroke-width: 1.5;" x1="279.5" x2="279.5" y1="664.0007" y2="686.0007"/><polygon fill="#A80036" points="275.5,676.0007,279.5,686.0007,283.5,676.0007,279.5,680.0007" style="stroke: #A80036; stroke-width: 1.0;"/><line style="stroke: #A80036; stroke-width: 1.5;" x1="402.75" x2="439" y1="664.0007" y2="664.0007"/><line style="stroke: #A80036; stroke-width: 1.5;" x1="439" x2="439" y1="664.0007" y2="686.0007"/><polygon fill="#A80036" points="435,676.0007,439,686.0007,443,676.0007,439,680.0007" style="stroke: #A80036; stroke-width: 1.0;"/><line style="stroke: #A80036; stroke-width: 1.5;" x1="279.5" x2="279.5" y1="838.8009" y2="856.8009"/><line style="stroke: #A80036; stroke-width: 1.5;" x1="279.5" x2="347.25" y1="856.8009" y2="856.8009"/><polygon fill="#A80036" points="337.25,852.8009,347.25,856.8009,337.25,860.8009,341.25,856.8009" style="stroke: #A80036; stroke-width: 1.0;"/><line style="stroke: #A80036; stroke-width: 1.5;" x1="439" x2="439" y1="720.4008" y2="856.8009"/><line style="stroke: #A80036; stroke-width: 1.5;" x1="439" x2="371.25" y1="856.8009" y2="856.8009"/><polygon fill="#A80036" points="381.25,852.8009,371.25,856.8009,381.25,860.8009,377.25,856.8009" style="stroke: #A80036; stroke-width: 1.0;"/><line style="stroke: #A80036; stroke-width: 1.5;" x1="359.25" x2="359.25" y1="632.0007" y2="652.0007"/><polygon fill="#A80036" points="355.25,642.0007,359.25,652.0007,363.25,642.0007,359.25,646.0007" style="stroke: #A80036; stroke-width: 1.0;"/><line style="stroke: #A80036; stroke-width: 1.5;" x1="319.25" x2="319.25" y1="1667.202" y2="1687.202"/><polygon fill="#A80036" points="315.25,1677.202,319.25,1687.202,323.25,1677.202,319.25,1681.202" style="stroke: #A80036; stroke-width: 1.0;"/><line style="stroke: #A80036; stroke-width: 1.5;" x1="133.5" x2="319.25" y1="92.7999" y2="92.7999"/><line style="stroke: #A80036; stroke-width: 1.5;" x1="319.25" x2="319.25" y1="92.7999" y2="104.7999"/><polygon fill="#A80036" points="315.25,94.7999,319.25,104.7999,323.25,94.7999,319.25,98.7999" style="stroke: #A80036; stroke-width: 1.0;"/><line style="stroke: #A80036; stroke-width: 1.5;" x1="140" x2="350.5" y1="334.4003" y2="334.4003"/><line style="stroke: #A80036; stroke-width: 1.5;" x1="350.5" x2="350.5" y1="334.4003" y2="346.4003"/><polygon fill="#A80036" points="346.5,336.4003,350.5,346.4003,354.5,336.4003,350.5,340.4003" style="stroke: #A80036; stroke-width: 1.0;"/><line style="stroke: #A80036; stroke-width: 1.5;" x1="128" x2="359.25" y1="585.6006" y2="585.6006"/><line style="stroke: #A80036; stroke-width: 1.5;" x1="359.25" x2="359.25" y1="585.6006" y2="597.6006"/><polygon fill="#A80036" points="355.25,587.6006,359.25,597.6006,363.25,587.6006,359.25,591.6006" style="stroke: #A80036; stroke-width: 1.0;"/><line style="stroke: #A80036; stroke-width: 1.5;" x1="126.5" x2="319.25" y1="900.8009" y2="900.8009"/><line style="stroke: #A80036; stroke-width: 1.5;" x1="319.25" x2="319.25" y1="900.8009" y2="912.8009"/><polygon fill="#A80036" points="315.25,902.8009,319.25,912.8009,323.25,902.8009,319.25,906.8009" style="stroke: #A80036; stroke-width: 1.0;"/><line style="stroke: #A80036; stroke-width: 1.5;" x1="129" x2="319.25" y1="979.201" y2="979.201"/><line style="stroke: #A80036; stroke-width: 1.5;" x1="319.25" x2="319.25" y1="979.201" y2="991.201"/><polygon fill="#A80036" points="315.25,981.201,319.25,991.201,323.25,981.201,319.25,985.201" style="stroke: #A80036; stroke-width: 1.0;"/><line style="stroke: #A80036; stroke-width: 1.5;" x1="126" x2="319.25" y1="1057.6011" y2="1057.6011"/><line style="stroke: #A80036; stroke-width: 1.5;" x1="319.25" x2="319.25" y1="1057.6011" y2="1069.6011"/><polygon fill="#A80036" points="315.25,1059.6011,319.25,1069.6011,323.25,1059.6011,319.25,1063.6011" style="stroke: #A80036; stroke-width: 1.0;"/><line style="stroke: #A80036; stroke-width: 1.5;" x1="129" x2="319.25" y1="1150.4013" y2="1150.4013"/><line style="stroke: #A80036; stroke-width: 1.5;" x1="319.25" x2="319.25" y1="1150.4013" y2="1162.4013"/><polygon fill="#A80036" points="315.25,1152.4013,319.25,1162.4013,323.25,1152.4013,319.25,1156.4013" style="stroke: #A80036; stroke-width: 1.0;"/><line style="stroke: #A80036; stroke-width: 1.5;" x1="151.5" x2="319.25" y1="1228.8014" y2="1228.8014"/><line style="stroke: #A80036; stroke-width: 1.5;" x1="319.25" x2="319.25" y1="1228.8014" y2="1240.8014"/><polygon fill="#A80036" points="315.25,1230.8014,319.25,1240.8014,323.25,1230.8014,319.25,1234.8014" style="stroke: #A80036; stroke-width: 1.0;"/><line style="stroke: #A80036; stroke-width: 1.5;" x1="153" x2="319.25" y1="1307.2015" y2="1307.2015"/><line style="stroke: #A80036; stroke-width: 1.5;" x1="319.25" x2="319.25" y1="1307.2015" y2="1319.2015"/><polygon fill="#A80036" points="315.25,1309.2015,319.25,1319.2015,323.25,1309.2015,319.25,1313.2015" style="stroke: #A80036; stroke-width: 1.0;"/><line style="stroke: #A80036; stroke-width: 1.5;" x1="150" x2="319.25" y1="1385.6016" y2="1385.6016"/><line style="stroke: #A80036; stroke-width: 1.5;" x1="319.25" x2="319.25" y1="1385.6016" y2="1397.6016"/><polygon fill="#A80036" points="315.25,1387.6016,319.25,1397.6016,323.25,1387.6016,319.25,1391.6016" style="stroke: #A80036; stroke-width: 1.0;"/><line style="stroke: #A80036; stroke-width: 1.5;" x1="124.5" x2="319.25" y1="1464.0017" y2="1464.0017"/><line style="stroke: #A80036; stroke-width: 1.5;" x1="319.25" x2="319.25" y1="1464.0017" y2="1476.0017"/><polygon fill="#A80036" points="315.25,1466.0017,319.25,1476.0017,323.25,1466.0017,319.25,1470.0017" style="stroke: #A80036; stroke-width: 1.0;"/><line style="stroke: #A80036; stroke-width: 1.5;" x1="144" x2="319.25" y1="1542.4018" y2="1542.4018"/><line style="stroke: #A80036; stroke-width: 1.5;" x1="319.25" x2="319.25" y1="1542.4018" y2="1554.4018"/><polygon fill="#A80036" points="315.25,1544.4018,319.25,1554.4018,323.25,1544.4018,319.25,1548.4018" style="stroke: #A80036; stroke-width: 1.0;"/><line style="stroke: #A80036; stroke-width: 1.5;" x1="111" x2="319.25" y1="1620.8019" y2="1620.8019"/><line style="stroke: #A80036; stroke-width: 1.5;" x1="319.25" x2="319.25" y1="1620.8019" y2="1632.8019"/><polygon fill="#A80036" points="315.25,1622.8019,319.25,1632.8019,323.25,1622.8019,319.25,1626.8019" style="stroke: #A80036; stroke-width: 1.0;"/><line style="stroke: #A80036; stroke-width: 1.5;" x1="87" x2="87" y1="104.7999" y2="322.4003"/><polygon fill="#A80036" points="83,312.4003,87,322.4003,91,312.4003,87,316.4003" style="stroke: #A80036; stroke-width: 1.0;"/><line style="stroke: #A80036; stroke-width: 1.5;" x1="87" x2="87" y1="346.4003" y2="573.6006"/><polygon fill="#A80036" points="83,563.6006,87,573.6006,91,563.6006,87,567.6006" style="stroke: #A80036; stroke-width: 1.0;"/><line style="stroke: #A80036; stroke-width: 1.5;" x1="87" x2="87" y1="597.6006" y2="888.8009"/><polygon fill="#A80036" points="83,878.8009,87,888.8009,91,878.8009,87,882.8009" style="stroke: #A80036; stroke-width: 1.0;"/><line style="stroke: #A80036; stroke-width: 1.5;" x1="87" x2="87" y1="912.8009" y2="967.201"/><polygon fill="#A80036" points="83,957.201,87,967.201,91,957.201,87,961.201" style="stroke: #A80036; stroke-width: 1.0;"/><line style="stroke: #A80036; stroke-width: 1.5;" x1="87" x2="87" y1="991.201" y2="1045.6011"/><polygon fill="#A80036" points="83,1035.6011,87,1045.6011,91,1035.6011,87,1039.6011" style="stroke: #A80036; stroke-width: 1.0;"/><line style="stroke: #A80036; stroke-width: 1.5;" x1="87" x2="87" y1="1069.6011" y2="1138.4013"/><polygon fill="#A80036" points="83,1128.4013,87,1138.4013,91,1128.4013,87,1132.4013" style="stroke: #A80036; stroke-width: 1.0;"/><line style="stroke: #A80036; stroke-width: 1.5;" x1="87" x2="87" y1="1162.4013" y2="1216.8014"/><polygon fill="#A80036" points="83,1206.8014,87,1216.8014,91,1206.8014,87,1210.8014" style="stroke: #A80036; stroke-width: 1.0;"/><line style="stroke: #A80036; stroke-width: 1.5;" x1="87" x2="87" y1="1240.8014" y2="1295.2015"/><polygon fill="#A80036" points="83,1285.2015,87,1295.2015,91,1285.2015,87,1289.2015" style="stroke: #A80036; stroke-width: 1.0;"/><line style="stroke: #A80036; stroke-width: 1.5;" x1="87" x2="87" y1="1319.2015" y2="1373.6016"/><polygon fill="#A80036" points="83,1363.6016,87,1373.6016,91,1363.6016,87,1367.6016" style="stroke: #A80036; stroke-width: 1.0;"/><line style="stroke: #A80036; stroke-width: 1.5;" x1="87" x2="87" y1="1397.6016" y2="1452.0017"/><polygon fill="#A80036" points="83,1442.0017,87,1452.0017,91,1442.0017,87,1446.0017" style="stroke: #A80036; stroke-width: 1.0;"/><line style="stroke: #A80036; stroke-width: 1.5;" x1="87" x2="87" y1="1476.0017" y2="1530.4018"/><polygon fill="#A80036" points="83,1520.4018,87,1530.4018,91,1520.4018,87,1524.4018" style="stroke: #A80036; stroke-width: 1.0;"/><line style="stroke: #A80036; stroke-width: 1.5;" x1="87" x2="87" y1="1554.4018" y2="1608.8019"/><polygon fill="#A80036" points="83,1598.8019,87,1608.8019,91,1598.8019,87,1602.8019" style="stroke: #A80036; stroke-width: 1.0;"/><line style="stroke: #A80036; stroke-width: 1.5;" x1="319.25" x2="319.25" y1="302.4003" y2="317.4003"/><line style="stroke: #A80036; stroke-width: 1.5;" x1="319.25" x2="485.5" y1="317.4003" y2="317.4003"/><line style="stroke: #A80036; stroke-width: 1.5;" x1="485.5" x2="485.5" y1="317.4003" y2="1739.202"/><line style="stroke: #A80036; stroke-width: 1.5;" x1="485.5" x2="265.25" y1="1739.202" y2="1739.202"/><polygon fill="#A80036" points="275.25,1735.202,265.25,1739.202,275.25,1743.202,271.25,1739.202" style="stroke: #A80036; stroke-width: 1.0;"/><line style="stroke: #A80036; stroke-width: 1.5;" x1="350.5" x2="350.5" y1="553.6006" y2="568.6006"/><line style="stroke: #A80036; stroke-width: 1.5;" x1="350.5" x2="485.5" y1="568.6006" y2="568.6006"/><polygon fill="#A80036" points="475.5,564.6006,485.5,568.6006,475.5,572.6006,479.5,568.6006" style="stroke: #A80036; stroke-width: 1.0;"/><line style="stroke: #A80036; stroke-width: 1.5;" x1="359.25" x2="359.25" y1="868.8009" y2="883.8009"/><line style="stroke: #A80036; stroke-width: 1.5;" x1="359.25" x2="485.5" y1="883.8009" y2="883.8009"/><polygon fill="#A80036" points="475.5,879.8009,485.5,883.8009,475.5,887.8009,479.5,883.8009" style="stroke: #A80036; stroke-width: 1.0;"/><line style="stroke: #A80036; stroke-width: 1.5;" x1="319.25" x2="319.25" y1="947.201" y2="962.201"/><line style="stroke: #A80036; stroke-width: 1.5;" x1="319.25" x2="485.5" y1="962.201" y2="962.201"/><polygon fill="#A80036" points="475.5,958.201,485.5,962.201,475.5,966.201,479.5,962.201" style="stroke: #A80036; stroke-width: 1.0;"/><line style="stroke: #A80036; stroke-width: 1.5;" x1="319.25" x2="319.25" y1="1025.6011" y2="1040.6011"/><line style="stroke: #A80036; stroke-width: 1.5;" x1="319.25" x2="485.5" y1="1040.6011" y2="1040.6011"/><polygon fill="#A80036" points="475.5,1036.6011,485.5,1040.6011,475.5,1044.6011,479.5,1040.6011" style="stroke: #A80036; stroke-width: 1.0;"/><line style="stroke: #A80036; stroke-width: 1.5;" x1="319.25" x2="319.25" y1="1118.4013" y2="1133.4013"/><line style="stroke: #A80036; stroke-width: 1.5;" x1="319.25" x2="485.5" y1="1133.4013" y2="1133.4013"/><polygon fill="#A80036" points="475.5,1129.4013,485.5,1133.4013,475.5,1137.4013,479.5,1133.4013" style="stroke: #A80036; stroke-width: 1.0;"/><line style="stroke: #A80036; stroke-width: 1.5;" x1="319.25" x2="319.25" y1="1196.8014" y2="1211.8014"/><line style="stroke: #A80036; stroke-width: 1.5;" x1="319.25" x2="485.5" y1="1211.8014" y2="1211.8014"/><polygon fill="#A80036" points="475.5,1207.8014,485.5,1211.8014,475.5,1215.8014,479.5,1211.8014" style="stroke: #A80036; stroke-width: 1.0;"/><line style="stroke: #A80036; stroke-width: 1.5;" x1="319.25" x2="319.25" y1="1275.2015" y2="1290.2015"/><line style="stroke: #A80036; stroke-width: 1.5;" x1="319.25" x2="485.5" y1="1290.2015" y2="1290.2015"/><polygon fill="#A80036" points="475.5,1286.2015,485.5,1290.2015,475.5,1294.2015,479.5,1290.2015" style="stroke: #A80036; stroke-width: 1.0;"/><line style="stroke: #A80036; stroke-width: 1.5;" x1="319.25" x2="319.25" y1="1353.6016" y2="1368.6016"/><line style="stroke: #A80036; stroke-width: 1.5;" x1="319.25" x2="485.5" y1="1368.6016" y2="1368.6016"/><polygon fill="#A80036" points="475.5,1364.6016,485.5,1368.6016,475.5,1372.6016,479.5,1368.6016" style="stroke: #A80036; stroke-width: 1.0;"/><line style="stroke: #A80036; stroke-width: 1.5;" x1="319.25" x2="319.25" y1="1432.0017" y2="1447.0017"/><line style="stroke: #A80036; stroke-width: 1.5;" x1="319.25" x2="485.5" y1="1447.0017" y2="1447.0017"/><polygon fill="#A80036" points="475.5,1443.0017,485.5,1447.0017,475.5,1451.0017,479.5,1447.0017" style="stroke: #A80036; stroke-width: 1.0;"/><line style="stroke: #A80036; stroke-width: 1.5;" x1="319.25" x2="319.25" y1="1510.4018" y2="1525.4018"/><line style="stroke: #A80036; stroke-width: 1.5;" x1="319.25" x2="485.5" y1="1525.4018" y2="1525.4018"/><polygon fill="#A80036" points="475.5,1521.4018,485.5,1525.4018,475.5,1529.4018,479.5,1525.4018" style="stroke: #A80036; stroke-width: 1.0;"/><line style="stroke: #A80036; stroke-width: 1.5;" x1="319.25" x2="319.25" y1="1588.8019" y2="1603.8019"/><line style="stroke: #A80036; stroke-width: 1.5;" x1="319.25" x2="485.5" y1="1603.8019" y2="1603.8019"/><polygon fill="#A80036" points="475.5,1599.8019,485.5,1603.8019,475.5,1607.8019,479.5,1603.8019" style="stroke: #A80036; stroke-width: 1.0;"/><line style="stroke: #A80036; stroke-width: 1.5;" x1="253.25" x2="253.25" y1="60.7999" y2="65.7999"/><line style="stroke: #A80036; stroke-width: 1.5;" x1="253.25" x2="87" y1="65.7999" y2="65.7999"/><line style="stroke: #A80036; stroke-width: 1.5;" x1="87" x2="87" y1="65.7999" y2="80.7999"/><polygon fill="#A80036" points="83,70.7999,87,80.7999,91,70.7999,87,74.7999" style="stroke: #A80036; stroke-width: 1.0;"/><line style="stroke: #A80036; stroke-width: 1.5;" x1="87" x2="87" y1="1632.8019" y2="1712.202"/><line style="stroke: #A80036; stroke-width: 1.5;" x1="87" x2="253.25" y1="1712.202" y2="1712.202"/><line style="stroke: #A80036; stroke-width: 1.5;" x1="253.25" x2="253.25" y1="1712.202" y2="1727.202"/><polygon fill="#A80036" points="249.25,1717.202,253.25,1727.202,257.25,1717.202,253.25,1721.202" style="stroke: #A80036; stroke-width: 1.0;"/><line style="stroke: #A80036; stroke-width: 1.5;" x1="253.25" x2="253.25" y1="1751.202" y2="1771.202"/><polygon fill="#A80036" points="249.25,1761.202,253.25,1771.202,257.25,1761.202,253.25,1765.202" style="stroke: #A80036; stroke-width: 1.0;"/><!--MD5=[8491895a855d417e3d6e4e4b6628331d]
@startuml win_update
!pragma useVerticalIf on
partition "Win::update()"{ 

    start
    if (GestureSignal) then (yes)
        :GestureModel::convert_to_interaction(GestureSignal);
        :Interaction]
        :Convert absolute coordinates to relative coodinates;
        :Keyboard::input(Interaction);
    elseif (ButtonInteraction) then (yes)
        :ButtonId]
        if (Button exist?) then (yes)
            :Activate/deactivate ToggleButton;
        else (no)
            :Emit error;
        endif
        :Give haptic feedback;
    elseif (OpenPopup) then (yes)
        :ButtonId]
        if (Button exist?) then (yes)
            :Deactivate ToggleButton;
            if (Has popover?) then (yes)
                :Show Popover;
            else (no)
                :Emit error;
            endif
        else (no)
        :Emit error;
    endif
    elseif (SubmitText) then (yes)
        :Keyboard::submit_text;
    elseif (Suggestions) then (yes)
        :Set the labels of the suggestion buttons to the new values;
    elseif (SetVisibility) then (yes)
        :Change the visibility of the window
        Update 'visibility' value of DBusService;
    elseif (HintPurpose) then (yes)
        :Not implemented;
    elseif (ChangeUILayoutView) then (yes)
        :UIManager.change_layout_view();
    elseif (ChangeKBLayoutView) then (yes)
        :Set active_view of Keyboard to new value;
    elseif (ChangeUIOrientation) then (yes)
        :UIManager.change_orientation();
    elseif (PollEvents) then (yes)
        :Fetch the new events from the wayland server;
    elseif (UpdateDrawBuffer) then (yes)
        :Win::draw_path();
    elseif (Quit) then (yes)
        :gtk::main_quit();
        end
    endif
    stop
}
@enduml

PlantUML version 1.2020.15(Sun Jun 28 13:39:45 CEST 2020)
(MIT source distribution)
Java Runtime: OpenJDK Runtime Environment
JVM: OpenJDK 64-Bit Server VM
Default Encoding: UTF-8
Language: en
Country: US
--></g></svg>