<?xml version="1.0" encoding="UTF-8" standalone="no"?><svg xmlns="http://www.w3.org/2000/svg" xmlns:xlink="http://www.w3.org/1999/xlink" contentScriptType="application/ecmascript" contentStyleType="text/css" height="848px" preserveAspectRatio="none" style="width:582px;height:848px;" version="1.1" viewBox="0 0 582 848" width="582px" zoomAndPan="magnify"><defs><filter height="300%" id="f1xwvb4ho73mm5" width="300%" x="-1" y="-1"><feGaussianBlur result="blurOut" stdDeviation="2.0"/><feColorMatrix in="blurOut" result="blurOut2" type="matrix" values="0 0 0 0 0 0 0 0 0 0 0 0 0 0 0 0 0 0 .4 0"/><feOffset dx="4.0" dy="4.0" in="blurOut2" result="blurOut3"/><feBlend in="SourceGraphic" in2="blurOut3" mode="normal"/></filter></defs><g><rect fill="#FFFFFF" filter="url(#f1xwvb4ho73mm5)" height="820.8018" style="stroke: #000000; stroke-width: 2.0;" width="554.5" x="11" y="11"/><path d="M91,12 L91,20.7999 L81,30.7999 L11,30.7999 " fill="none" style="stroke: #000000; stroke-width: 2.0;"/><text fill="#000000" font-family="sans-serif" font-size="14" lengthAdjust="spacingAndGlyphs" textLength="70" x="14" y="25.0059">Win::view()</text><ellipse cx="188.5" cy="50.7999" fill="#000000" filter="url(#f1xwvb4ho73mm5)" rx="10" ry="10" style="stroke: none; stroke-width: 1.0;"/><rect fill="#FEFECE" filter="url(#f1xwvb4ho73mm5)" height="34.4001" rx="12.5" ry="12.5" style="stroke: #A80036; stroke-width: 1.5;" width="77" x="150" y="80.7999"/><text fill="#000000" font-family="sans-serif" font-size="12" lengthAdjust="spacingAndGlyphs" textLength="57" x="160" y="101.948">load_css()</text><rect fill="#FEFECE" filter="url(#f1xwvb4ho73mm5)" height="34.4001" rx="12.5" ry="12.5" style="stroke: #A80036; stroke-width: 1.5;" width="122" x="127.5" y="135.2"/><text fill="#000000" font-family="sans-serif" font-size="12" lengthAdjust="spacingAndGlyphs" textLength="102" x="137.5" y="156.3481">Make UIConnector</text><rect fill="#FEFECE" filter="url(#f1xwvb4ho73mm5)" height="34.4001" style="stroke: #A80036; stroke-width: 1.5;" width="89" x="144" y="189.6001"/><text fill="#000000" font-family="sans-serif" font-size="12" lengthAdjust="spacingAndGlyphs" textLength="69" x="154" y="210.7482">UIConnector</text><rect fill="#FEFECE" filter="url(#f1xwvb4ho73mm5)" height="34.4001" rx="12.5" ry="12.5" style="stroke: #A80036; stroke-width: 1.5;" width="158" x="109.5" y="244.0002"/><text fill="#000000" font-family="sans-serif" font-size="12" lengthAdjust="spacingAndGlyphs" textLength="138" x="119.5" y="265.1483">LayoutMeta::deserialize()</text><rect fill="#FEFECE" filter="url(#f1xwvb4ho73mm5)" height="48.8002" style="stroke: #A80036; stroke-width: 1.5;" width="169" x="104" y="298.4003"/><text fill="#000000" font-family="sans-serif" font-size="12" lengthAdjust="spacingAndGlyphs" textLength="100" x="138" y="319.5484">&lt;&lt;CentralBuffer&gt;&gt;</text><text fill="#000000" font-family="sans-serif" font-size="12" lengthAdjust="spacingAndGlyphs" textLength="149" x="114" y="333.9485">LayoutDeserializedStorage</text><rect fill="#FEFECE" filter="url(#f1xwvb4ho73mm5)" height="34.4001" rx="12.5" ry="12.5" style="stroke: #A80036; stroke-width: 1.5;" width="335" x="21" y="367.2005"/><text fill="#000000" font-family="sans-serif" font-size="12" lengthAdjust="spacingAndGlyphs" textLength="315" x="31" y="388.3486">Keyboard::from(UIConnector, LayoutDeserializedStorage)</text><rect fill="#FEFECE" filter="url(#f1xwvb4ho73mm5)" height="34.4001" style="stroke: #A80036; stroke-width: 1.5;" width="73" x="152" y="421.6006"/><text fill="#000000" font-family="sans-serif" font-size="12" lengthAdjust="spacingAndGlyphs" textLength="53" x="162" y="442.7487">Keyboard</text><path d="M363.5,472.6008 L363.5,489.2008 L343.5,493.2008 L363.5,497.2008 L363.5,513.8008 A0,0 0 0 0 363.5,513.8008 L555.5,513.8008 A0,0 0 0 0 555.5,513.8008 L555.5,482.6008 L545.5,472.6008 L363.5,472.6008 A0,0 0 0 0 363.5,472.6008 " fill="#FBFB77" filter="url(#f1xwvb4ho73mm5)" style="stroke: #A80036; stroke-width: 1.0;"/><path d="M545.5,472.6008 L545.5,482.6008 L555.5,482.6008 L545.5,472.6008 " fill="#FBFB77" style="stroke: #A80036; stroke-width: 1.0;"/><text fill="#000000" font-family="sans-serif" font-size="13" lengthAdjust="spacingAndGlyphs" textLength="167" x="369.5" y="489.6778">The Stack contains a Grid of</text><text fill="#000000" font-family="sans-serif" font-size="13" lengthAdjust="spacingAndGlyphs" textLength="165" x="369.5" y="505.2778">ToggleButtons for each view</text><rect fill="#FEFECE" filter="url(#f1xwvb4ho73mm5)" height="34.4001" rx="12.5" ry="12.5" style="stroke: #A80036; stroke-width: 1.5;" width="310" x="33.5" y="476.0007"/><text fill="#000000" font-family="sans-serif" font-size="12" lengthAdjust="spacingAndGlyphs" textLength="290" x="43.5" y="497.1488">GridBuilder::make_stack(LayoutDeserializedStorage)</text><rect fill="#FEFECE" filter="url(#f1xwvb4ho73mm5)" height="48.8002" style="stroke: #A80036; stroke-width: 1.5;" width="146" x="115.5" y="533.8008"/><text fill="#000000" font-family="sans-serif" font-size="12" lengthAdjust="spacingAndGlyphs" textLength="100" x="149.5" y="554.9489">&lt;&lt;CentralBuffer&gt;&gt;</text><text fill="#000000" font-family="sans-serif" font-size="12" lengthAdjust="spacingAndGlyphs" textLength="126" x="125.5" y="569.349">Stack of Grids for views</text><rect fill="#FEFECE" filter="url(#f1xwvb4ho73mm5)" height="120.8007" rx="12.5" ry="12.5" style="stroke: #A80036; stroke-width: 1.5;" width="230" x="73.5" y="602.601"/><text fill="#000000" font-family="sans-serif" font-size="12" lengthAdjust="spacingAndGlyphs" textLength="112" x="83.5" y="623.7491">Create DrawingArea</text><text fill="#000000" font-family="sans-serif" font-size="12" lengthAdjust="spacingAndGlyphs" textLength="177" x="83.5" y="638.1492">Overlay DrawingArea over Stack</text><text fill="#000000" font-family="sans-serif" font-size="12" lengthAdjust="spacingAndGlyphs" textLength="136" x="83.5" y="652.5493">Make Box of suggestions</text><text fill="#000000" font-family="sans-serif" font-size="12" lengthAdjust="spacingAndGlyphs" textLength="82" x="83.5" y="666.9494">Set up Window</text><text fill="#000000" font-family="sans-serif" font-size="12" lengthAdjust="spacingAndGlyphs" textLength="210" x="83.5" y="681.3495">Attach gtk::GestureHandlers to Overlay</text><text fill="#000000" font-family="sans-serif" font-size="12" lengthAdjust="spacingAndGlyphs" textLength="101" x="83.5" y="695.7496">Create UIManager</text><text fill="#000000" font-family="sans-serif" font-size="12" lengthAdjust="spacingAndGlyphs" textLength="61" x="83.5" y="710.1497">Create Win</text><rect fill="#FEFECE" filter="url(#f1xwvb4ho73mm5)" height="34.4001" style="stroke: #A80036; stroke-width: 1.5;" width="41" x="168" y="743.4017"/><text fill="#000000" font-family="sans-serif" font-size="12" lengthAdjust="spacingAndGlyphs" textLength="21" x="178" y="764.5498">Win</text><ellipse cx="188.5" cy="808.8018" fill="#FFFFFF" filter="url(#f1xwvb4ho73mm5)" rx="11" ry="11" style="stroke: #000000; stroke-width: 1.0;"/><ellipse cx="188.5" cy="808.8018" fill="#000000" rx="6" ry="6" style="stroke: #7F7F7F; stroke-width: 1.0;"/><line style="stroke: #A80036; stroke-width: 1.5;" x1="188.5" x2="188.5" y1="60.7999" y2="80.7999"/><polygon fill="#A80036" points="184.5,70.7999,188.5,80.7999,192.5,70.7999,188.5,74.7999" style="stroke: #A80036; stroke-width: 1.0;"/><line style="stroke: #A80036; stroke-width: 1.5;" x1="188.5" x2="188.5" y1="115.2" y2="135.2"/><polygon fill="#A80036" points="184.5,125.2,188.5,135.2,192.5,125.2,188.5,129.2" style="stroke: #A80036; stroke-width: 1.0;"/><line style="stroke: #A80036; stroke-width: 1.5;" x1="188.5" x2="188.5" y1="169.6001" y2="189.6001"/><polygon fill="#A80036" points="184.5,179.6001,188.5,189.6001,192.5,179.6001,188.5,183.6001" style="stroke: #A80036; stroke-width: 1.0;"/><line style="stroke: #A80036; stroke-width: 1.5;" x1="188.5" x2="188.5" y1="224.0002" y2="244.0002"/><polygon fill="#A80036" points="184.5,234.0002,188.5,244.0002,192.5,234.0002,188.5,238.0002" style="stroke: #A80036; stroke-width: 1.0;"/><line style="stroke: #A80036; stroke-width: 1.5;" x1="188.5" x2="188.5" y1="278.4003" y2="298.4003"/><polygon fill="#A80036" points="184.5,288.4003,188.5,298.4003,192.5,288.4003,188.5,292.4003" style="stroke: #A80036; stroke-width: 1.0;"/><line style="stroke: #A80036; stroke-width: 1.5;" x1="188.5" x2="188.5" y1="347.2005" y2="367.2005"/><polygon fill="#A80036" points="184.5,357.2005,188.5,367.2005,192.5,357.2005,188.5,361.2005" style="stroke: #A80036; stroke-width: 1.0;"/><line style="stroke: #A80036; stroke-width: 1.5;" x1="188.5" x2="188.5" y1="401.6006" y2="421.6006"/><polygon fill="#A80036" points="184.5,411.6006,188.5,421.6006,192.5,411.6006,188.5,415.6006" style="stroke: #A80036; stroke-width: 1.0;"/><line style="stroke: #A80036; stroke-width: 1.5;" x1="188.5" x2="188.5" y1="456.0007" y2="476.0007"/><polygon fill="#A80036" points="184.5,466.0007,188.5,476.0007,192.5,466.0007,188.5,470.0007" style="stroke: #A80036; stroke-width: 1.0;"/><line style="stroke: #A80036; stroke-width: 1.5;" x1="188.5" x2="188.5" y1="510.4008" y2="533.8008"/><polygon fill="#A80036" points="184.5,523.8008,188.5,533.8008,192.5,523.8008,188.5,527.8008" style="stroke: #A80036; stroke-width: 1.0;"/><line style="stroke: #A80036; stroke-width: 1.5;" x1="188.5" x2="188.5" y1="582.601" y2="602.601"/><polygon fill="#A80036" points="184.5,592.601,188.5,602.601,192.5,592.601,188.5,596.601" style="stroke: #A80036; stroke-width: 1.0;"/><line style="stroke: #A80036; stroke-width: 1.5;" x1="188.5" x2="188.5" y1="723.4017" y2="743.4017"/><polygon fill="#A80036" points="184.5,733.4017,188.5,743.4017,192.5,733.4017,188.5,737.4017" style="stroke: #A80036; stroke-width: 1.0;"/><line style="stroke: #A80036; stroke-width: 1.5;" x1="188.5" x2="188.5" y1="777.8018" y2="797.8018"/><polygon fill="#A80036" points="184.5,787.8018,188.5,797.8018,192.5,787.8018,188.5,791.8018" style="stroke: #A80036; stroke-width: 1.0;"/><!--MD5=[ec10fa391dc90a6b41aa0076fd0c9922]
@startuml win_view
partition "Win::view()"{
  start
  :load_css();
  :Make UIConnector;
  :UIConnector]
  :LayoutMeta::deserialize();

  :        <<CentralBuffer>>
  LayoutDeserializedStorage]

  :Keyboard::from(UIConnector, LayoutDeserializedStorage);
  :Keyboard]
  :GridBuilder::make_stack(LayoutDeserializedStorage);
  note right
    The Stack contains a Grid of 
    ToggleButtons for each view
  end note

  :        <<CentralBuffer>>
  Stack of Grids for views]

  :Create DrawingArea
  Overlay DrawingArea over Stack
  Make Box of suggestions
  Set up Window
  Attach gtk::GestureHandlers to Overlay
  Create UIManager
  Create Win;
  :Win]
  stop
}

@enduml

PlantUML version 1.2020.15(Sun Jun 28 13:39:45 CEST 2020)
(MIT source distribution)
Java Runtime: OpenJDK Runtime Environment
JVM: OpenJDK 64-Bit Server VM
Default Encoding: UTF-8
Language: en
Country: US
--></g></svg>