<?xml version="1.0" encoding="UTF-8" standalone="no"?><svg xmlns="http://www.w3.org/2000/svg" xmlns:xlink="http://www.w3.org/1999/xlink" contentScriptType="application/ecmascript" contentStyleType="text/css" height="599px" preserveAspectRatio="none" style="width:850px;height:599px;" version="1.1" viewBox="0 0 850 599" width="850px" zoomAndPan="magnify"><defs><filter height="300%" id="fx97xplorbca9" width="300%" x="-1" y="-1"><feGaussianBlur result="blurOut" stdDeviation="2.0"/><feColorMatrix in="blurOut" result="blurOut2" type="matrix" values="0 0 0 0 0 0 0 0 0 0 0 0 0 0 0 0 0 0 .4 0"/><feOffset dx="4.0" dy="4.0" in="blurOut2" result="blurOut3"/><feBlend in="SourceGraphic" in2="blurOut3" mode="normal"/></filter></defs><g><rect fill="#FFFFFF" filter="url(#fx97xplorbca9)" height="571.7992" style="stroke: #000000; stroke-width: 2.0;" width="822" x="11" y="11"/><path d="M119,11 L119,20.7999 L109,30.7999 L11,30.7999 " fill="none" style="stroke: #000000; stroke-width: 2.0;"/><text fill="#000000" font-family="sans-serif" font-size="14" lengthAdjust="spacingAndGlyphs" textLength="98" x="14" y="25.0059">keyboard_input</text><ellipse cx="424.5" cy="50.7999" fill="#000000" filter="url(#fx97xplorbca9)" rx="10" ry="10" style="stroke: none; stroke-width: 1.0;"/><polygon fill="#CCCCCC" filter="url(#fx97xplorbca9)" points="383,80.7999,466,80.7999,478,92.7999,466,104.7999,383,104.7999,371,92.7999,383,80.7999" style="stroke: #1A66C2; stroke-width: 1.5;"/><text fill="#000000" font-family="sans-serif" font-size="11" lengthAdjust="spacingAndGlyphs" textLength="83" x="383" y="96.4189">check interaction</text><text fill="#333333" font-family="Verdana" font-size="11" lengthAdjust="spacingAndGlyphs" textLength="15" x="356" y="89.8189">tap</text><text fill="#333333" font-family="Verdana" font-size="11" lengthAdjust="spacingAndGlyphs" textLength="28" x="478" y="89.8189">swipe</text><polygon fill="#CCCCCC" filter="url(#fx97xplorbca9)" points="194,114.7999,256,114.7999,268,126.7999,256,138.7999,194,138.7999,182,126.7999,194,114.7999" style="stroke: #1A66C2; stroke-width: 1.5;"/><text fill="#000000" font-family="sans-serif" font-size="11" lengthAdjust="spacingAndGlyphs" textLength="62" x="194" y="130.4189">short press?</text><text fill="#333333" font-family="Verdana" font-size="11" lengthAdjust="spacingAndGlyphs" textLength="18" x="164" y="123.8189">yes</text><text fill="#333333" font-family="Verdana" font-size="11" lengthAdjust="spacingAndGlyphs" textLength="12" x="268" y="123.8189">no</text><rect fill="#CCCCCC" filter="url(#fx97xplorbca9)" height="33.1999" rx="12.5" ry="12.5" style="stroke: #1A66C2; stroke-width: 1.5;" width="162" x="50" y="148.7999"/><text fill="#000000" font-family="Verdana" font-size="11" lengthAdjust="spacingAndGlyphs" textLength="142" x="60" y="169.0189">Get closest key to interaction</text><rect fill="#CCCCCC" filter="url(#fx97xplorbca9)" height="33.1999" style="stroke: #1A66C2; stroke-width: 1.5;" width="109" x="76.5" y="216.9998"/><text fill="#000000" font-family="Verdana" font-size="11" lengthAdjust="spacingAndGlyphs" textLength="89" x="86.5" y="237.2188">key = closest_key</text><rect fill="#CCCCCC" filter="url(#fx97xplorbca9)" height="46.3998" rx="12.5" ry="12.5" style="stroke: #1A66C2; stroke-width: 1.5;" width="216" x="23" y="276.5995"/><text fill="#000000" font-family="Verdana" font-size="11" lengthAdjust="spacingAndGlyphs" textLength="196" x="33" y="296.8185">Remember layout/view of last active key</text><text fill="#000000" font-family="Verdana" font-size="11" lengthAdjust="spacingAndGlyphs" textLength="127" x="33" y="310.0184">Remember last active key</text><rect fill="#CCCCCC" filter="url(#fx97xplorbca9)" height="33.1999" style="stroke: #1A66C2; stroke-width: 1.5;" width="120" x="259" y="148.7999"/><text fill="#000000" font-family="Verdana" font-size="11" lengthAdjust="spacingAndGlyphs" textLength="100" x="269" y="169.0189">key = last active key</text><polygon fill="#CCCCCC" filter="url(#fx97xplorbca9)" points="225,328.9993,237,340.9993,225,352.9993,213,340.9993,225,328.9993" style="stroke: #1A66C2; stroke-width: 1.5;"/><rect fill="#CCCCCC" filter="url(#fx97xplorbca9)" height="33.1999" rx="12.5" ry="12.5" style="stroke: #1A66C2; stroke-width: 1.5;" width="256" x="97" y="421.5993"/><text fill="#000000" font-family="Verdana" font-size="11" lengthAdjust="spacingAndGlyphs" textLength="236" x="107" y="441.8182">Execute the keys actions for the input interaction</text><polygon fill="#CCCCCC" filter="url(#fx97xplorbca9)" points="198.5,372.9993,251.5,372.9993,263.5,384.9993,251.5,396.9993,198.5,396.9993,186.5,384.9993,198.5,372.9993" style="stroke: #1A66C2; stroke-width: 1.5;"/><text fill="#333333" font-family="Verdana" font-size="11" lengthAdjust="spacingAndGlyphs" textLength="38" x="229" y="407.2183">is some</text><text fill="#000000" font-family="sans-serif" font-size="11" lengthAdjust="spacingAndGlyphs" textLength="53" x="198.5" y="388.6183">Check key</text><text fill="#333333" font-family="Verdana" font-size="11" lengthAdjust="spacingAndGlyphs" textLength="35" x="263.5" y="382.0184">is none</text><polygon fill="#CCCCCC" filter="url(#fx97xplorbca9)" points="225,474.7992,237,486.7992,225,498.7992,213,486.7992,225,474.7992" style="stroke: #1A66C2; stroke-width: 1.5;"/><polygon fill="#CCCCCC" filter="url(#fx97xplorbca9)" points="460.5,139.7999,493.5,139.7999,505.5,151.7999,493.5,163.7999,460.5,163.7999,448.5,151.7999,460.5,139.7999" style="stroke: #1A66C2; stroke-width: 1.5;"/><text fill="#333333" font-family="Verdana" font-size="11" lengthAdjust="spacingAndGlyphs" textLength="18" x="481" y="174.0189">yes</text><text fill="#000000" font-family="sans-serif" font-size="11" lengthAdjust="spacingAndGlyphs" textLength="33" x="460.5" y="155.4189">Begin?</text><rect fill="#CCCCCC" filter="url(#fx97xplorbca9)" height="59.5997" rx="12.5" ry="12.5" style="stroke: #1A66C2; stroke-width: 1.5;" width="115" x="419.5" y="196.9998"/><text fill="#000000" font-family="Verdana" font-size="11" lengthAdjust="spacingAndGlyphs" textLength="95" x="429.5" y="217.2188">Tell UI to release all</text><text fill="#000000" font-family="Verdana" font-size="11" lengthAdjust="spacingAndGlyphs" textLength="83" x="429.5" y="230.4187">latched keys and</text><text fill="#000000" font-family="Verdana" font-size="11" lengthAdjust="spacingAndGlyphs" textLength="88" x="429.5" y="243.6186">the last active key</text><rect fill="#CCCCCC" filter="url(#fx97xplorbca9)" height="46.3998" rx="12.5" ry="12.5" style="stroke: #1A66C2; stroke-width: 1.5;" width="136" x="409" y="282.9993"/><text fill="#000000" font-family="Verdana" font-size="11" lengthAdjust="spacingAndGlyphs" textLength="116" x="419" y="303.2183">Tell submitter to release</text><text fill="#000000" font-family="Verdana" font-size="11" lengthAdjust="spacingAndGlyphs" textLength="105" x="419" y="316.4182">all keys and modifiers</text><polygon fill="#CCCCCC" filter="url(#fx97xplorbca9)" points="594,139.7999,635,139.7999,647,151.7999,635,163.7999,594,163.7999,582,151.7999,594,139.7999" style="stroke: #1A66C2; stroke-width: 1.5;"/><text fill="#333333" font-family="Verdana" font-size="11" lengthAdjust="spacingAndGlyphs" textLength="18" x="618.5" y="174.0189">yes</text><text fill="#000000" font-family="sans-serif" font-size="11" lengthAdjust="spacingAndGlyphs" textLength="41" x="594" y="155.4189">Update?</text><text fill="#333333" font-family="Verdana" font-size="11" lengthAdjust="spacingAndGlyphs" textLength="29" x="647" y="148.8189">Finish</text><rect fill="#CCCCCC" filter="url(#fx97xplorbca9)" height="59.5997" rx="12.5" ry="12.5" style="stroke: #1A66C2; stroke-width: 1.5;" width="119" x="555" y="196.9998"/><text fill="#000000" font-family="Verdana" font-size="11" lengthAdjust="spacingAndGlyphs" textLength="99" x="565" y="217.2188">Notify the interpreter</text><text fill="#000000" font-family="Verdana" font-size="11" lengthAdjust="spacingAndGlyphs" textLength="94" x="565" y="230.4187">about the new point</text><text fill="#000000" font-family="Verdana" font-size="11" lengthAdjust="spacingAndGlyphs" textLength="67" x="565" y="243.6186">of the gesture</text><rect fill="#CCCCCC" filter="url(#fx97xplorbca9)" height="46.3998" rx="12.5" ry="12.5" style="stroke: #1A66C2; stroke-width: 1.5;" width="135" x="686" y="206.5998"/><text fill="#000000" font-family="Verdana" font-size="11" lengthAdjust="spacingAndGlyphs" textLength="115" x="696" y="226.8187">Get most likely word for</text><text fill="#000000" font-family="Verdana" font-size="11" lengthAdjust="spacingAndGlyphs" textLength="115" x="696" y="240.0186">gesture from interpreter</text><rect fill="#CCCCCC" filter="url(#fx97xplorbca9)" height="33.1999" rx="12.5" ry="12.5" style="stroke: #1A66C2; stroke-width: 1.5;" width="98" x="704.5" y="279.3994"/><text fill="#000000" font-family="Verdana" font-size="11" lengthAdjust="spacingAndGlyphs" textLength="78" x="714.5" y="299.6183">Submit the word</text><polygon fill="#CCCCCC" filter="url(#fx97xplorbca9)" points="424.5,504.7992,436.5,516.7992,424.5,528.7992,412.5,516.7992,424.5,504.7992" style="stroke: #1A66C2; stroke-width: 1.5;"/><ellipse cx="424.5" cy="559.7992" fill="#FFFFFF" filter="url(#fx97xplorbca9)" rx="11" ry="11" style="stroke: #000000; stroke-width: 1.0;"/><ellipse cx="424.5" cy="559.7992" fill="#000000" rx="6" ry="6" style="stroke: #7F7F7F; stroke-width: 1.0;"/><line style="stroke: #000000; stroke-width: 1.5;" x1="131" x2="131" y1="181.9998" y2="216.9998"/><polygon fill="#000000" points="127,206.9998,131,216.9998,135,206.9998,131,210.9998" style="stroke: #000000; stroke-width: 1.0;"/><line style="stroke: #000000; stroke-width: 1.5;" x1="131" x2="131" y1="250.1997" y2="276.5995"/><polygon fill="#000000" points="127,266.5995,131,276.5995,135,266.5995,131,270.5995" style="stroke: #000000; stroke-width: 1.0;"/><line style="stroke: #000000; stroke-width: 1.5;" x1="182" x2="131" y1="126.7999" y2="126.7999"/><line style="stroke: #000000; stroke-width: 1.5;" x1="131" x2="131" y1="126.7999" y2="148.7999"/><polygon fill="#000000" points="127,138.7999,131,148.7999,135,138.7999,131,142.7999" style="stroke: #000000; stroke-width: 1.0;"/><line style="stroke: #000000; stroke-width: 1.5;" x1="268" x2="319" y1="126.7999" y2="126.7999"/><line style="stroke: #000000; stroke-width: 1.5;" x1="319" x2="319" y1="126.7999" y2="148.7999"/><polygon fill="#000000" points="315,138.7999,319,148.7999,323,138.7999,319,142.7999" style="stroke: #000000; stroke-width: 1.0;"/><line style="stroke: #000000; stroke-width: 1.5;" x1="131" x2="131" y1="322.9993" y2="340.9993"/><line style="stroke: #000000; stroke-width: 1.5;" x1="131" x2="213" y1="340.9993" y2="340.9993"/><polygon fill="#000000" points="203,336.9993,213,340.9993,203,344.9993,207,340.9993" style="stroke: #000000; stroke-width: 1.0;"/><line style="stroke: #000000; stroke-width: 1.5;" x1="319" x2="319" y1="181.9998" y2="340.9993"/><line style="stroke: #000000; stroke-width: 1.5;" x1="319" x2="237" y1="340.9993" y2="340.9993"/><polygon fill="#000000" points="247,336.9993,237,340.9993,247,344.9993,243,340.9993" style="stroke: #000000; stroke-width: 1.0;"/><line style="stroke: #000000; stroke-width: 1.5;" x1="225" x2="225" y1="396.9993" y2="421.5993"/><polygon fill="#000000" points="221,411.5993,225,421.5993,229,411.5993,225,415.5993" style="stroke: #000000; stroke-width: 1.0;"/><line style="stroke: #000000; stroke-width: 1.5;" x1="263.5" x2="363" y1="384.9993" y2="384.9993"/><polygon fill="#000000" points="359,428.1992,363,438.1992,367,428.1992,363,432.1992" style="stroke: #000000; stroke-width: 1.5;"/><line style="stroke: #000000; stroke-width: 1.5;" x1="363" x2="363" y1="384.9993" y2="486.7992"/><line style="stroke: #000000; stroke-width: 1.5;" x1="363" x2="237" y1="486.7992" y2="486.7992"/><polygon fill="#000000" points="247,482.7992,237,486.7992,247,490.7992,243,486.7992" style="stroke: #000000; stroke-width: 1.0;"/><line style="stroke: #000000; stroke-width: 1.5;" x1="225" x2="225" y1="454.7992" y2="474.7992"/><polygon fill="#000000" points="221,464.7992,225,474.7992,229,464.7992,225,468.7992" style="stroke: #000000; stroke-width: 1.0;"/><line style="stroke: #000000; stroke-width: 1.5;" x1="225" x2="225" y1="352.9993" y2="372.9993"/><polygon fill="#000000" points="221,362.9993,225,372.9993,229,362.9993,225,366.9993" style="stroke: #000000; stroke-width: 1.0;"/><line style="stroke: #000000; stroke-width: 1.5;" x1="477" x2="477" y1="256.5995" y2="282.9993"/><polygon fill="#000000" points="473,272.9993,477,282.9993,481,272.9993,477,276.9993" style="stroke: #000000; stroke-width: 1.0;"/><line style="stroke: #000000; stroke-width: 1.5;" x1="753.5" x2="753.5" y1="252.9996" y2="279.3994"/><polygon fill="#000000" points="749.5,269.3994,753.5,279.3994,757.5,269.3994,753.5,273.3994" style="stroke: #000000; stroke-width: 1.0;"/><line style="stroke: #000000; stroke-width: 1.5;" x1="477" x2="477" y1="163.7999" y2="196.9998"/><polygon fill="#000000" points="473,186.9998,477,196.9998,481,186.9998,477,190.9998" style="stroke: #000000; stroke-width: 1.0;"/><line style="stroke: #000000; stroke-width: 1.5;" x1="477" x2="477" y1="329.3991" y2="389.3991"/><polygon fill="#000000" points="473,379.3991,477,389.3991,481,379.3991,477,383.3991" style="stroke: #000000; stroke-width: 1.0;"/><line style="stroke: #000000; stroke-width: 1.5;" x1="614.5" x2="614.5" y1="163.7999" y2="196.9998"/><polygon fill="#000000" points="610.5,186.9998,614.5,196.9998,618.5,186.9998,614.5,190.9998" style="stroke: #000000; stroke-width: 1.0;"/><line style="stroke: #000000; stroke-width: 1.5;" x1="614.5" x2="614.5" y1="256.5995" y2="389.3991"/><polygon fill="#000000" points="610.5,379.3991,614.5,389.3991,618.5,379.3991,614.5,383.3991" style="stroke: #000000; stroke-width: 1.0;"/><line style="stroke: #000000; stroke-width: 1.5;" x1="505.5" x2="582" y1="151.7999" y2="151.7999"/><polygon fill="#000000" points="572,147.7999,582,151.7999,572,155.7999,576,151.7999" style="stroke: #000000; stroke-width: 1.0;"/><line style="stroke: #000000; stroke-width: 1.5;" x1="478" x2="614" y1="92.7999" y2="92.7999"/><line style="stroke: #000000; stroke-width: 1.5;" x1="614" x2="614" y1="92.7999" y2="114.7999"/><line style="stroke: #000000; stroke-width: 1.5;" x1="614" x2="477" y1="114.7999" y2="114.7999"/><line style="stroke: #000000; stroke-width: 1.5;" x1="477" x2="477" y1="114.7999" y2="139.7999"/><polygon fill="#000000" points="473,129.7999,477,139.7999,481,129.7999,477,133.7999" style="stroke: #000000; stroke-width: 1.0;"/><line style="stroke: #000000; stroke-width: 1.5;" x1="647" x2="753.5" y1="151.7999" y2="151.7999"/><line style="stroke: #000000; stroke-width: 1.5;" x1="753.5" x2="753.5" y1="151.7999" y2="206.5998"/><polygon fill="#000000" points="749.5,196.5998,753.5,206.5998,757.5,196.5998,753.5,200.5998" style="stroke: #000000; stroke-width: 1.0;"/><line style="stroke: #000000; stroke-width: 1.5;" x1="753.5" x2="753.5" y1="312.5993" y2="389.3991"/><polygon fill="#000000" points="749.5,379.3991,753.5,389.3991,757.5,379.3991,753.5,383.3991" style="stroke: #000000; stroke-width: 1.0;"/><line style="stroke: #000000; stroke-width: 1.5;" x1="477" x2="753.5" y1="389.3991" y2="389.3991"/><line style="stroke: #000000; stroke-width: 1.5;" x1="371" x2="225" y1="92.7999" y2="92.7999"/><line style="stroke: #000000; stroke-width: 1.5;" x1="225" x2="225" y1="92.7999" y2="114.7999"/><polygon fill="#000000" points="221,104.7999,225,114.7999,229,104.7999,225,108.7999" style="stroke: #000000; stroke-width: 1.0;"/><line style="stroke: #000000; stroke-width: 1.5;" x1="225" x2="225" y1="498.7992" y2="516.7992"/><line style="stroke: #000000; stroke-width: 1.5;" x1="225" x2="412.5" y1="516.7992" y2="516.7992"/><polygon fill="#000000" points="402.5,512.7992,412.5,516.7992,402.5,520.7992,406.5,516.7992" style="stroke: #000000; stroke-width: 1.0;"/><line style="stroke: #000000; stroke-width: 1.5;" x1="614" x2="614" y1="389.3991" y2="516.7992"/><line style="stroke: #000000; stroke-width: 1.5;" x1="614" x2="436.5" y1="516.7992" y2="516.7992"/><polygon fill="#000000" points="446.5,512.7992,436.5,516.7992,446.5,520.7992,442.5,516.7992" style="stroke: #000000; stroke-width: 1.0;"/><line style="stroke: #000000; stroke-width: 1.5;" x1="424.5" x2="424.5" y1="60.7999" y2="80.7999"/><polygon fill="#000000" points="420.5,70.7999,424.5,80.7999,428.5,70.7999,424.5,74.7999" style="stroke: #000000; stroke-width: 1.0;"/><line style="stroke: #000000; stroke-width: 1.5;" x1="424.5" x2="424.5" y1="528.7992" y2="548.7992"/><polygon fill="#000000" points="420.5,538.7992,424.5,548.7992,428.5,538.7992,424.5,542.7992" style="stroke: #000000; stroke-width: 1.0;"/><!--MD5=[0af509a5eee3c85d1c9944017ebfc131]
@startuml keyboard_input
!define LIGHTBLUE
!includeurl https://raw.githubusercontent.com/grelltrier/RedDress-PlantUML/master/style.puml

partition "keyboard_input"{

  start
  if (check interaction) then (tap)
    if(short press?) then (yes)
      :Get closest key to interaction;
      :key = closest_key]
      :Remember layout/view of last active key
      Remember last active key;
    else (no)
      :key = last active key]
    endif
    if (Check key) then (is some)
      :Execute the keys actions for the input interaction;
    else (is none)
    endif
  else (swipe)
    if (Begin?) then (yes)
      :Tell UI to release all
      latched keys and
      the last active key;
      :Tell submitter to release
      all keys and modifiers;
    elseif (Update?) then (yes)
      :Notify the interpreter
      about the new point
      of the gesture;
    else (Finish)
      :Get most likely word for
      gesture from interpreter;
      :Submit the word;
    endif
  endif
  stop
}
@enduml

@startuml keyboard_input




skinparam stereotypeCBackgroundColor 1a66c2







skinparam backgroundColor fff








skinparam circledCharacter {
  radius 8
  fontSize 11
  fontName Verdana
}

skinparam class {
    backgroundColor ccc
  borderColor 1a66c2
    fontColor 000
  fontName Verdana
  fontSize 11
  stereotypeFontColor 333
  stereotypeFontSize 11
    arrowColor 000
  arrowFontName Verdana
  arrowFontColor 333
  arrowFontSize 11

  attributeFontColor 333
  attributeFontSize 11
  attributeIconSize 11
}


skinparam ActivityBarColor 1a66c2
skinparam activityDiamondBackgroundColor ccc
skinparam activityDiamondBorderColor 1a66c2


skinparam actor {
    backgroundColor 2a86e2
  borderColor 1a66c2
    fontColor 000
  fontName Verdana
  fontSize 11
  stereotypeFontColor 333
  stereotypeFontSize 11
}

skinparam participant {
    backgroundColor ccc
  borderColor 1a66c2
    fontColor 000
  fontName Verdana
  fontSize 11
  stereotypeFontColor 333
  stereotypeFontSize 11
}

skinparam collections {
    backgroundColor ccc
  borderColor 1a66c2
    fontColor 000
  fontName Verdana
  fontSize 11
  stereotypeFontColor 333
  stereotypeFontSize 11
}

skinparam SequenceBox{
    backgroundColor e0e0e0
  borderColor 1a66c2
    fontColor 000
  fontName Verdana
  fontSize 11
  stereotypeFontColor 333
  stereotypeFontSize 11
}


skinparam interface {
    backgroundColor 2a86e2
  borderColor 1a66c2
    fontColor 000
  fontName Verdana
  fontSize 11
  stereotypeFontColor 333
  stereotypeFontSize 11
}

skinparam component {
    backgroundColor ccc
  borderColor 1a66c2
    fontColor 000
  fontName Verdana
  fontSize 11
  stereotypeFontColor 333
  stereotypeFontSize 11
}

skinparam node {
    backgroundColor ccc
  borderColor 1a66c2
    fontColor 000
  fontName Verdana
  fontSize 11
  stereotypeFontColor 333
  stereotypeFontSize 11
}

skinparam database {
    backgroundColor ccc
  borderColor 1a66c2
    fontColor 000
  fontName Verdana
  fontSize 11
  stereotypeFontColor 333
  stereotypeFontSize 11
}

skinparam queue {
    backgroundColor ccc
  borderColor 1a66c2
    fontColor 000
  fontName Verdana
  fontSize 11
  stereotypeFontColor 333
  stereotypeFontSize 11
}


skinparam usecase {
    backgroundColor ccc
  borderColor 1a66c2
    fontColor 000
  fontName Verdana
  fontSize 11
  stereotypeFontColor 333
  stereotypeFontSize 11
    arrowColor 000
  arrowFontName Verdana
  arrowFontColor 333
  arrowFontSize 11
}

skinparam activity {
    backgroundColor ccc
  borderColor 1a66c2
    fontColor 000
  fontName Verdana
  fontSize 11
  stereotypeFontColor 333
  stereotypeFontSize 11
    arrowColor 000
  arrowFontName Verdana
  arrowFontColor 333
  arrowFontSize 11
}

skinparam sequence {
    fontColor 000
  fontName Verdana
  fontSize 11
  stereotypeFontColor 333
  stereotypeFontSize 11
    arrowColor 000
  arrowFontName Verdana
  arrowFontColor 333
  arrowFontSize 11

  lifeLineBorderColor 2a86e2
  lifeLineBackgroundColor e0e0e0
}

skinparam boundary {
    backgroundColor 2a86e2
  borderColor 1a66c2
    fontColor 000
  fontName Verdana
  fontSize 11
  stereotypeFontColor 333
  stereotypeFontSize 11
}

skinparam control {
    backgroundColor 2a86e2
  borderColor 1a66c2
    fontColor 000
  fontName Verdana
  fontSize 11
  stereotypeFontColor 333
  stereotypeFontSize 11
}

skinparam entity {
    backgroundColor 2a86e2
  borderColor 1a66c2
    fontColor 000
  fontName Verdana
  fontSize 11
  stereotypeFontColor 333
  stereotypeFontSize 11
}


skinparam state {
    backgroundColor ccc
  borderColor 1a66c2
    fontColor 000
  fontName Verdana
  fontSize 11
  stereotypeFontColor 333
  stereotypeFontSize 11
    arrowColor 000
  arrowFontName Verdana
  arrowFontColor 333
  arrowFontSize 11
  startColor 2a86e2
  endColor 1a66c2
}


skinparam object {
    backgroundColor ccc
  borderColor 1a66c2
    fontColor 000
  fontName Verdana
  fontSize 11
  stereotypeFontColor 333
  stereotypeFontSize 11
    arrowColor 000
  arrowFontName Verdana
  arrowFontColor 333
  arrowFontSize 11
}


skinparam note {
    backgroundColor 2a86e2
  borderColor 1a66c2
    fontColor 000
  fontName Verdana
  fontSize 11
  stereotypeFontColor 333
  stereotypeFontSize 11
}

skinparam cloud {
    backgroundColor ccc
  borderColor 1a66c2
    fontColor 000
  fontName Verdana
  fontSize 11
  stereotypeFontColor 333
  stereotypeFontSize 11
    arrowColor 000
  arrowFontName Verdana
  arrowFontColor 333
  arrowFontSize 11
}

skinparam rectangle {
    backgroundColor ccc
  borderColor 1a66c2
    fontColor 000
  fontName Verdana
  fontSize 11
  stereotypeFontColor 333
  stereotypeFontSize 11
}

skinparam storage {
    backgroundColor ccc
  borderColor 1a66c2
    fontColor 000
  fontName Verdana
  fontSize 11
  stereotypeFontColor 333
  stereotypeFontSize 11
}


partition "keyboard_input"{

  start
  if (check interaction) then (tap)
    if(short press?) then (yes)
      :Get closest key to interaction;
      :key = closest_key]
      :Remember layout/view of last active key
      Remember last active key;
    else (no)
      :key = last active key]
    endif
    if (Check key) then (is some)
      :Execute the keys actions for the input interaction;
    else (is none)
    endif
  else (swipe)
    if (Begin?) then (yes)
      :Tell UI to release all
      latched keys and
      the last active key;
      :Tell submitter to release
      all keys and modifiers;
    elseif (Update?) then (yes)
      :Notify the interpreter
      about the new point
      of the gesture;
    else (Finish)
      :Get most likely word for
      gesture from interpreter;
      :Submit the word;
    endif
  endif
  stop
}
@enduml

PlantUML version 1.2020.19(Mon Oct 12 17:10:01 CEST 2020)
(GPL source distribution)
Java Runtime: OpenJDK Runtime Environment
JVM: OpenJDK 64-Bit Server VM
Default Encoding: UTF-8
Language: en
Country: US
--></g></svg>