<?xml version="1.0" encoding="UTF-8" standalone="no"?><svg xmlns="http://www.w3.org/2000/svg" xmlns:xlink="http://www.w3.org/1999/xlink" contentScriptType="application/ecmascript" contentStyleType="text/css" height="689px" preserveAspectRatio="none" style="width:639px;height:689px;" version="1.1" viewBox="0 0 639 689" width="639px" zoomAndPan="magnify"><defs><filter height="300%" id="fj4shn0ls5cy5" width="300%" x="-1" y="-1"><feGaussianBlur result="blurOut" stdDeviation="2.0"/><feColorMatrix in="blurOut" result="blurOut2" type="matrix" values="0 0 0 0 0 0 0 0 0 0 0 0 0 0 0 0 0 0 .4 0"/><feOffset dx="4.0" dy="4.0" in="blurOut2" result="blurOut3"/><feBlend in="SourceGraphic" in2="blurOut3" mode="normal"/></filter></defs><g><rect fill="#FFFFFF" filter="url(#fj4shn0ls5cy5)" height="661.7985" style="stroke: #000000; stroke-width: 2.0;" width="611" x="11" y="11"/><path d="M119,11 L119,20.7999 L109,30.7999 L11,30.7999 " fill="none" style="stroke: #000000; stroke-width: 2.0;"/><text fill="#000000" font-family="sans-serif" font-size="14" lengthAdjust="spacingAndGlyphs" textLength="98" x="14" y="25.0059">keyboard_input</text><ellipse cx="367.25" cy="50.7999" fill="#000000" filter="url(#fj4shn0ls5cy5)" rx="10" ry="10" style="stroke: none; stroke-width: 1.0;"/><polygon fill="#CCCCCC" filter="url(#fj4shn0ls5cy5)" points="325.75,80.7999,408.75,80.7999,420.75,92.7999,408.75,104.7999,325.75,104.7999,313.75,92.7999,325.75,80.7999" style="stroke: #1A66C2; stroke-width: 1.5;"/><text fill="#000000" font-family="sans-serif" font-size="11" lengthAdjust="spacingAndGlyphs" textLength="83" x="325.75" y="96.4189">check interaction</text><text fill="#333333" font-family="Verdana" font-size="11" lengthAdjust="spacingAndGlyphs" textLength="15" x="298.75" y="89.8189">tap</text><text fill="#333333" font-family="Verdana" font-size="11" lengthAdjust="spacingAndGlyphs" textLength="28" x="420.75" y="89.8189">swipe</text><polygon fill="#CCCCCC" filter="url(#fj4shn0ls5cy5)" points="194,114.7999,256,114.7999,268,126.7999,256,138.7999,194,138.7999,182,126.7999,194,114.7999" style="stroke: #1A66C2; stroke-width: 1.5;"/><text fill="#000000" font-family="sans-serif" font-size="11" lengthAdjust="spacingAndGlyphs" textLength="62" x="194" y="130.4189">short press?</text><text fill="#333333" font-family="Verdana" font-size="11" lengthAdjust="spacingAndGlyphs" textLength="18" x="164" y="123.8189">yes</text><text fill="#333333" font-family="Verdana" font-size="11" lengthAdjust="spacingAndGlyphs" textLength="12" x="268" y="123.8189">no</text><rect fill="#CCCCCC" filter="url(#fj4shn0ls5cy5)" height="33.1999" rx="12.5" ry="12.5" style="stroke: #1A66C2; stroke-width: 1.5;" width="162" x="50" y="148.7999"/><text fill="#000000" font-family="Verdana" font-size="11" lengthAdjust="spacingAndGlyphs" textLength="142" x="60" y="169.0189">Get closest key to interaction</text><rect fill="#CCCCCC" filter="url(#fj4shn0ls5cy5)" height="33.1999" style="stroke: #1A66C2; stroke-width: 1.5;" width="109" x="76.5" y="216.9998"/><text fill="#000000" font-family="Verdana" font-size="11" lengthAdjust="spacingAndGlyphs" textLength="89" x="86.5" y="237.2188">key = closest_key</text><rect fill="#CCCCCC" filter="url(#fj4shn0ls5cy5)" height="46.3998" rx="12.5" ry="12.5" style="stroke: #1A66C2; stroke-width: 1.5;" width="216" x="23" y="285.1997"/><text fill="#000000" font-family="Verdana" font-size="11" lengthAdjust="spacingAndGlyphs" textLength="196" x="33" y="305.4187">Remember layout/view of last active key</text><text fill="#000000" font-family="Verdana" font-size="11" lengthAdjust="spacingAndGlyphs" textLength="127" x="33" y="318.6186">Remember last active key</text><rect fill="#CCCCCC" filter="url(#fj4shn0ls5cy5)" height="33.1999" style="stroke: #1A66C2; stroke-width: 1.5;" width="120" x="259" y="148.7999"/><text fill="#000000" font-family="Verdana" font-size="11" lengthAdjust="spacingAndGlyphs" textLength="100" x="269" y="169.0189">key = last active key</text><polygon fill="#CCCCCC" filter="url(#fj4shn0ls5cy5)" points="225,337.5995,237,349.5995,225,361.5995,213,349.5995,225,337.5995" style="stroke: #1A66C2; stroke-width: 1.5;"/><rect fill="#CCCCCC" filter="url(#fj4shn0ls5cy5)" height="33.1999" rx="12.5" ry="12.5" style="stroke: #1A66C2; stroke-width: 1.5;" width="149" x="150.5" y="445.1995"/><text fill="#000000" font-family="Verdana" font-size="11" lengthAdjust="spacingAndGlyphs" textLength="129" x="160.5" y="465.4184">self.execute_tap_actions()</text><polygon fill="#CCCCCC" filter="url(#fj4shn0ls5cy5)" points="198.5,396.5995,251.5,396.5995,263.5,408.5995,251.5,420.5995,198.5,420.5995,186.5,408.5995,198.5,396.5995" style="stroke: #1A66C2; stroke-width: 1.5;"/><text fill="#333333" font-family="Verdana" font-size="11" lengthAdjust="spacingAndGlyphs" textLength="38" x="229" y="430.8185">is some</text><text fill="#000000" font-family="sans-serif" font-size="11" lengthAdjust="spacingAndGlyphs" textLength="53" x="198.5" y="412.2185">Check key</text><text fill="#333333" font-family="Verdana" font-size="11" lengthAdjust="spacingAndGlyphs" textLength="35" x="263.5" y="405.6186">is none</text><polygon fill="#CCCCCC" filter="url(#fj4shn0ls5cy5)" points="225,499.7989,237,511.7989,225,523.7989,213,511.7989,225,499.7989" style="stroke: #1A66C2; stroke-width: 1.5;"/><rect fill="#CCCCCC" filter="url(#fj4shn0ls5cy5)" height="59.5997" rx="12.5" ry="12.5" style="stroke: #1A66C2; stroke-width: 1.5;" width="115" x="484.5" y="168.7999"/><text fill="#000000" font-family="Verdana" font-size="11" lengthAdjust="spacingAndGlyphs" textLength="95" x="494.5" y="189.0189">Tell UI to release all</text><text fill="#000000" font-family="Verdana" font-size="11" lengthAdjust="spacingAndGlyphs" textLength="83" x="494.5" y="202.2188">latched keys and</text><text fill="#000000" font-family="Verdana" font-size="11" lengthAdjust="spacingAndGlyphs" textLength="88" x="494.5" y="215.4187">the last active key</text><rect fill="#CCCCCC" filter="url(#fj4shn0ls5cy5)" height="46.3998" rx="12.5" ry="12.5" style="stroke: #1A66C2; stroke-width: 1.5;" width="136" x="474" y="263.3996"/><text fill="#000000" font-family="Verdana" font-size="11" lengthAdjust="spacingAndGlyphs" textLength="116" x="484" y="283.6186">Tell submitter to release</text><text fill="#000000" font-family="Verdana" font-size="11" lengthAdjust="spacingAndGlyphs" textLength="105" x="484" y="296.8185">all keys and modifiers</text><rect fill="#CCCCCC" filter="url(#fj4shn0ls5cy5)" height="59.5997" rx="12.5" ry="12.5" style="stroke: #1A66C2; stroke-width: 1.5;" width="114" x="485" y="353.7994"/><text fill="#000000" font-family="Verdana" font-size="11" lengthAdjust="spacingAndGlyphs" textLength="89" x="495" y="374.0184">Notify the decoder</text><text fill="#000000" font-family="Verdana" font-size="11" lengthAdjust="spacingAndGlyphs" textLength="94" x="495" y="387.2183">about the new point</text><text fill="#000000" font-family="Verdana" font-size="11" lengthAdjust="spacingAndGlyphs" textLength="67" x="495" y="400.4182">of the gesture</text><polygon fill="#CCCCCC" filter="url(#fj4shn0ls5cy5)" points="425,144.7999,458,144.7999,470,156.7999,458,168.7999,425,168.7999,413,156.7999,425,144.7999" style="stroke: #1A66C2; stroke-width: 1.5;"/><text fill="#333333" font-family="Verdana" font-size="11" lengthAdjust="spacingAndGlyphs" textLength="33" x="425" y="160.4189">Begin?</text><text fill="#333333" font-family="Verdana" font-size="11" lengthAdjust="spacingAndGlyphs" textLength="18" x="470" y="153.8189">yes</text><polygon fill="#CCCCCC" filter="url(#fj4shn0ls5cy5)" points="421,329.7994,462,329.7994,474,341.7994,462,353.7994,421,353.7994,409,341.7994,421,329.7994" style="stroke: #1A66C2; stroke-width: 1.5;"/><text fill="#333333" font-family="Verdana" font-size="11" lengthAdjust="spacingAndGlyphs" textLength="29" x="445.5" y="364.0184">Finish</text><text fill="#333333" font-family="Verdana" font-size="11" lengthAdjust="spacingAndGlyphs" textLength="41" x="421" y="345.4184">Update?</text><text fill="#333333" font-family="Verdana" font-size="11" lengthAdjust="spacingAndGlyphs" textLength="18" x="474" y="338.8185">yes</text><rect fill="#CCCCCC" filter="url(#fj4shn0ls5cy5)" height="46.3998" rx="12.5" ry="12.5" style="stroke: #1A66C2; stroke-width: 1.5;" width="135" x="442" y="433.3991"/><text fill="#000000" font-family="Verdana" font-size="11" lengthAdjust="spacingAndGlyphs" textLength="115" x="452" y="453.6181">Get most likely word for</text><text fill="#000000" font-family="Verdana" font-size="11" lengthAdjust="spacingAndGlyphs" textLength="105" x="452" y="466.818">gesture from decoder</text><rect fill="#CCCCCC" filter="url(#fj4shn0ls5cy5)" height="33.1999" rx="12.5" ry="12.5" style="stroke: #1A66C2; stroke-width: 1.5;" width="98" x="460.5" y="511.5985"/><text fill="#000000" font-family="Verdana" font-size="11" lengthAdjust="spacingAndGlyphs" textLength="78" x="470.5" y="531.8175">Submit the word</text><polygon fill="#CCCCCC" filter="url(#fj4shn0ls5cy5)" points="509.5,564.7985,521.5,576.7985,509.5,588.7985,497.5,576.7985,509.5,564.7985" style="stroke: #1A66C2; stroke-width: 1.5;"/><polygon fill="#CCCCCC" filter="url(#fj4shn0ls5cy5)" points="367.25,594.7985,379.25,606.7985,367.25,618.7985,355.25,606.7985,367.25,594.7985" style="stroke: #1A66C2; stroke-width: 1.5;"/><ellipse cx="367.25" cy="649.7985" fill="#FFFFFF" filter="url(#fj4shn0ls5cy5)" rx="11" ry="11" style="stroke: #000000; stroke-width: 1.0;"/><ellipse cx="367.25" cy="649.7985" fill="#000000" rx="6" ry="6" style="stroke: #7F7F7F; stroke-width: 1.0;"/><line style="stroke: #000000; stroke-width: 1.5;" x1="131" x2="131" y1="181.9998" y2="216.9998"/><polygon fill="#000000" points="127,206.9998,131,216.9998,135,206.9998,131,210.9998" style="stroke: #000000; stroke-width: 1.0;"/><line style="stroke: #000000; stroke-width: 1.5;" x1="131" x2="131" y1="250.1997" y2="285.1997"/><polygon fill="#000000" points="127,275.1997,131,285.1997,135,275.1997,131,279.1997" style="stroke: #000000; stroke-width: 1.0;"/><line style="stroke: #000000; stroke-width: 1.5;" x1="182" x2="131" y1="126.7999" y2="126.7999"/><line style="stroke: #000000; stroke-width: 1.5;" x1="131" x2="131" y1="126.7999" y2="148.7999"/><polygon fill="#000000" points="127,138.7999,131,148.7999,135,138.7999,131,142.7999" style="stroke: #000000; stroke-width: 1.0;"/><line style="stroke: #000000; stroke-width: 1.5;" x1="268" x2="319" y1="126.7999" y2="126.7999"/><line style="stroke: #000000; stroke-width: 1.5;" x1="319" x2="319" y1="126.7999" y2="148.7999"/><polygon fill="#000000" points="315,138.7999,319,148.7999,323,138.7999,319,142.7999" style="stroke: #000000; stroke-width: 1.0;"/><line style="stroke: #000000; stroke-width: 1.5;" x1="131" x2="131" y1="331.5995" y2="349.5995"/><line style="stroke: #000000; stroke-width: 1.5;" x1="131" x2="213" y1="349.5995" y2="349.5995"/><polygon fill="#000000" points="203,345.5995,213,349.5995,203,353.5995,207,349.5995" style="stroke: #000000; stroke-width: 1.0;"/><line style="stroke: #000000; stroke-width: 1.5;" x1="319" x2="319" y1="181.9998" y2="349.5995"/><line style="stroke: #000000; stroke-width: 1.5;" x1="319" x2="237" y1="349.5995" y2="349.5995"/><polygon fill="#000000" points="247,345.5995,237,349.5995,247,353.5995,243,349.5995" style="stroke: #000000; stroke-width: 1.0;"/><line style="stroke: #000000; stroke-width: 1.5;" x1="225" x2="225" y1="420.5995" y2="445.1995"/><polygon fill="#000000" points="221,435.1995,225,445.1995,229,435.1995,225,439.1995" style="stroke: #000000; stroke-width: 1.0;"/><line style="stroke: #000000; stroke-width: 1.5;" x1="263.5" x2="309.5" y1="408.5995" y2="408.5995"/><polygon fill="#000000" points="305.5,451.7994,309.5,461.7994,313.5,451.7994,309.5,455.7994" style="stroke: #000000; stroke-width: 1.5;"/><line style="stroke: #000000; stroke-width: 1.5;" x1="309.5" x2="309.5" y1="408.5995" y2="511.7989"/><line style="stroke: #000000; stroke-width: 1.5;" x1="309.5" x2="237" y1="511.7989" y2="511.7989"/><polygon fill="#000000" points="247,507.7989,237,511.7989,247,515.7989,243,511.7989" style="stroke: #000000; stroke-width: 1.0;"/><line style="stroke: #000000; stroke-width: 1.5;" x1="225" x2="225" y1="478.3994" y2="499.7989"/><polygon fill="#000000" points="221,489.7989,225,499.7989,229,489.7989,225,493.7989" style="stroke: #000000; stroke-width: 1.0;"/><line style="stroke: #000000; stroke-width: 1.5;" x1="225" x2="225" y1="361.5995" y2="396.5995"/><polygon fill="#000000" points="221,386.5995,225,396.5995,229,386.5995,225,390.5995" style="stroke: #000000; stroke-width: 1.0;"/><line style="stroke: #000000; stroke-width: 1.5;" x1="542" x2="542" y1="228.3996" y2="263.3996"/><polygon fill="#000000" points="538,253.3996,542,263.3996,546,253.3996,542,257.3996" style="stroke: #000000; stroke-width: 1.0;"/><line style="stroke: #000000; stroke-width: 1.5;" x1="509.5" x2="509.5" y1="479.7989" y2="511.5985"/><polygon fill="#000000" points="505.5,501.5985,509.5,511.5985,513.5,501.5985,509.5,505.5985" style="stroke: #000000; stroke-width: 1.0;"/><line style="stroke: #000000; stroke-width: 1.5;" x1="470" x2="542" y1="156.7999" y2="156.7999"/><line style="stroke: #000000; stroke-width: 1.5;" x1="542" x2="542" y1="156.7999" y2="168.7999"/><polygon fill="#000000" points="538,158.7999,542,168.7999,546,158.7999,542,162.7999" style="stroke: #000000; stroke-width: 1.0;"/><line style="stroke: #000000; stroke-width: 1.5;" x1="474" x2="542" y1="341.7994" y2="341.7994"/><line style="stroke: #000000; stroke-width: 1.5;" x1="542" x2="542" y1="341.7994" y2="353.7994"/><polygon fill="#000000" points="538,343.7994,542,353.7994,546,343.7994,542,347.7994" style="stroke: #000000; stroke-width: 1.0;"/><line style="stroke: #000000; stroke-width: 1.5;" x1="441.5" x2="441.5" y1="168.7999" y2="329.7994"/><polygon fill="#000000" points="437.5,319.7994,441.5,329.7994,445.5,319.7994,441.5,323.7994" style="stroke: #000000; stroke-width: 1.0;"/><line style="stroke: #000000; stroke-width: 1.5;" x1="542" x2="542" y1="309.7994" y2="324.7994"/><line style="stroke: #000000; stroke-width: 1.5;" x1="542" x2="610" y1="324.7994" y2="324.7994"/><line style="stroke: #000000; stroke-width: 1.5;" x1="610" x2="610" y1="324.7994" y2="576.7985"/><line style="stroke: #000000; stroke-width: 1.5;" x1="610" x2="521.5" y1="576.7985" y2="576.7985"/><polygon fill="#000000" points="531.5,572.7985,521.5,576.7985,531.5,580.7985,527.5,576.7985" style="stroke: #000000; stroke-width: 1.0;"/><line style="stroke: #000000; stroke-width: 1.5;" x1="542" x2="542" y1="413.3991" y2="428.3991"/><line style="stroke: #000000; stroke-width: 1.5;" x1="542" x2="610" y1="428.3991" y2="428.3991"/><polygon fill="#000000" points="600,424.3991,610,428.3991,600,432.3991,604,428.3991" style="stroke: #000000; stroke-width: 1.0;"/><line style="stroke: #000000; stroke-width: 1.5;" x1="420.75" x2="441.5" y1="92.7999" y2="92.7999"/><line style="stroke: #000000; stroke-width: 1.5;" x1="441.5" x2="441.5" y1="92.7999" y2="144.7999"/><polygon fill="#000000" points="437.5,134.7999,441.5,144.7999,445.5,134.7999,441.5,138.7999" style="stroke: #000000; stroke-width: 1.0;"/><line style="stroke: #000000; stroke-width: 1.5;" x1="441.5" x2="441.5" y1="353.7994" y2="418.3991"/><line style="stroke: #000000; stroke-width: 1.5;" x1="441.5" x2="509.5" y1="418.3991" y2="418.3991"/><line style="stroke: #000000; stroke-width: 1.5;" x1="509.5" x2="509.5" y1="418.3991" y2="433.3991"/><polygon fill="#000000" points="505.5,423.3991,509.5,433.3991,513.5,423.3991,509.5,427.3991" style="stroke: #000000; stroke-width: 1.0;"/><line style="stroke: #000000; stroke-width: 1.5;" x1="509.5" x2="509.5" y1="544.7985" y2="549.7985"/><line style="stroke: #000000; stroke-width: 1.5;" x1="509.5" x2="509.5" y1="549.7985" y2="564.7985"/><polygon fill="#000000" points="505.5,554.7985,509.5,564.7985,513.5,554.7985,509.5,558.7985" style="stroke: #000000; stroke-width: 1.0;"/><line style="stroke: #000000; stroke-width: 1.5;" x1="313.75" x2="225" y1="92.7999" y2="92.7999"/><line style="stroke: #000000; stroke-width: 1.5;" x1="225" x2="225" y1="92.7999" y2="114.7999"/><polygon fill="#000000" points="221,104.7999,225,114.7999,229,104.7999,225,108.7999" style="stroke: #000000; stroke-width: 1.0;"/><line style="stroke: #000000; stroke-width: 1.5;" x1="225" x2="225" y1="523.7989" y2="606.7985"/><line style="stroke: #000000; stroke-width: 1.5;" x1="225" x2="355.25" y1="606.7985" y2="606.7985"/><polygon fill="#000000" points="345.25,602.7985,355.25,606.7985,345.25,610.7985,349.25,606.7985" style="stroke: #000000; stroke-width: 1.0;"/><line style="stroke: #000000; stroke-width: 1.5;" x1="509.5" x2="509.5" y1="588.7985" y2="606.7985"/><line style="stroke: #000000; stroke-width: 1.5;" x1="509.5" x2="379.25" y1="606.7985" y2="606.7985"/><polygon fill="#000000" points="389.25,602.7985,379.25,606.7985,389.25,610.7985,385.25,606.7985" style="stroke: #000000; stroke-width: 1.0;"/><line style="stroke: #000000; stroke-width: 1.5;" x1="367.25" x2="367.25" y1="60.7999" y2="80.7999"/><polygon fill="#000000" points="363.25,70.7999,367.25,80.7999,371.25,70.7999,367.25,74.7999" style="stroke: #000000; stroke-width: 1.0;"/><line style="stroke: #000000; stroke-width: 1.5;" x1="367.25" x2="367.25" y1="618.7985" y2="638.7985"/><polygon fill="#000000" points="363.25,628.7985,367.25,638.7985,371.25,628.7985,367.25,632.7985" style="stroke: #000000; stroke-width: 1.0;"/><!--MD5=[3784f9cead4ecdd574a47b249c4b8221]
@startuml keyboard_input
!pragma useVerticalIf on
!define LIGHTBLUE
!includeurl https://raw.githubusercontent.com/grelltrier/RedDress-PlantUML/master/style.puml

partition "keyboard_input"{

  start
  if (check interaction) then (tap)
    if(short press?) then (yes)
      :Get closest key to interaction;
      :key = closest_key]
      :Remember layout/view of last active key
      Remember last active key;
    else (no)
      :key = last active key]
    endif
    if (Check key) then (is some)
      :self.execute_tap_actions();
    else (is none)
    endif
  else (swipe)
    if (Begin?) then (yes)
      :Tell UI to release all
      latched keys and
      the last active key;
      :Tell submitter to release
      all keys and modifiers;
    elseif (Update?) then (yes)
      :Notify the decoder
      about the new point
      of the gesture;
    else (Finish)
      :Get most likely word for
      gesture from decoder;
      :Submit the word;
    endif
  endif
  stop
}
@enduml

@startuml keyboard_input
!pragma useVerticalIf on




skinparam stereotypeCBackgroundColor 1a66c2







skinparam backgroundColor fff








skinparam circledCharacter {
  radius 8
  fontSize 11
  fontName Verdana
}

skinparam class {
    backgroundColor ccc
  borderColor 1a66c2
    fontColor 000
  fontName Verdana
  fontSize 11
  stereotypeFontColor 333
  stereotypeFontSize 11
    arrowColor 000
  arrowFontName Verdana
  arrowFontColor 333
  arrowFontSize 11

  attributeFontColor 333
  attributeFontSize 11
  attributeIconSize 11
}


skinparam ActivityBarColor 1a66c2
skinparam activityDiamondBackgroundColor ccc
skinparam activityDiamondBorderColor 1a66c2


skinparam actor {
    backgroundColor 2a86e2
  borderColor 1a66c2
    fontColor 000
  fontName Verdana
  fontSize 11
  stereotypeFontColor 333
  stereotypeFontSize 11
}

skinparam participant {
    backgroundColor ccc
  borderColor 1a66c2
    fontColor 000
  fontName Verdana
  fontSize 11
  stereotypeFontColor 333
  stereotypeFontSize 11
}

skinparam collections {
    backgroundColor ccc
  borderColor 1a66c2
    fontColor 000
  fontName Verdana
  fontSize 11
  stereotypeFontColor 333
  stereotypeFontSize 11
}

skinparam SequenceBox{
    backgroundColor e0e0e0
  borderColor 1a66c2
    fontColor 000
  fontName Verdana
  fontSize 11
  stereotypeFontColor 333
  stereotypeFontSize 11
}


skinparam interface {
    backgroundColor 2a86e2
  borderColor 1a66c2
    fontColor 000
  fontName Verdana
  fontSize 11
  stereotypeFontColor 333
  stereotypeFontSize 11
}

skinparam component {
    backgroundColor ccc
  borderColor 1a66c2
    fontColor 000
  fontName Verdana
  fontSize 11
  stereotypeFontColor 333
  stereotypeFontSize 11
}

skinparam node {
    backgroundColor ccc
  borderColor 1a66c2
    fontColor 000
  fontName Verdana
  fontSize 11
  stereotypeFontColor 333
  stereotypeFontSize 11
}

skinparam database {
    backgroundColor ccc
  borderColor 1a66c2
    fontColor 000
  fontName Verdana
  fontSize 11
  stereotypeFontColor 333
  stereotypeFontSize 11
}

skinparam queue {
    backgroundColor ccc
  borderColor 1a66c2
    fontColor 000
  fontName Verdana
  fontSize 11
  stereotypeFontColor 333
  stereotypeFontSize 11
}


skinparam usecase {
    backgroundColor ccc
  borderColor 1a66c2
    fontColor 000
  fontName Verdana
  fontSize 11
  stereotypeFontColor 333
  stereotypeFontSize 11
    arrowColor 000
  arrowFontName Verdana
  arrowFontColor 333
  arrowFontSize 11
}

skinparam activity {
    backgroundColor ccc
  borderColor 1a66c2
    fontColor 000
  fontName Verdana
  fontSize 11
  stereotypeFontColor 333
  stereotypeFontSize 11
    arrowColor 000
  arrowFontName Verdana
  arrowFontColor 333
  arrowFontSize 11
}

skinparam sequence {
    fontColor 000
  fontName Verdana
  fontSize 11
  stereotypeFontColor 333
  stereotypeFontSize 11
    arrowColor 000
  arrowFontName Verdana
  arrowFontColor 333
  arrowFontSize 11

  lifeLineBorderColor 2a86e2
  lifeLineBackgroundColor e0e0e0
}

skinparam boundary {
    backgroundColor 2a86e2
  borderColor 1a66c2
    fontColor 000
  fontName Verdana
  fontSize 11
  stereotypeFontColor 333
  stereotypeFontSize 11
}

skinparam control {
    backgroundColor 2a86e2
  borderColor 1a66c2
    fontColor 000
  fontName Verdana
  fontSize 11
  stereotypeFontColor 333
  stereotypeFontSize 11
}

skinparam entity {
    backgroundColor 2a86e2
  borderColor 1a66c2
    fontColor 000
  fontName Verdana
  fontSize 11
  stereotypeFontColor 333
  stereotypeFontSize 11
}


skinparam state {
    backgroundColor ccc
  borderColor 1a66c2
    fontColor 000
  fontName Verdana
  fontSize 11
  stereotypeFontColor 333
  stereotypeFontSize 11
    arrowColor 000
  arrowFontName Verdana
  arrowFontColor 333
  arrowFontSize 11
  startColor 2a86e2
  endColor 1a66c2
}


skinparam object {
    backgroundColor ccc
  borderColor 1a66c2
    fontColor 000
  fontName Verdana
  fontSize 11
  stereotypeFontColor 333
  stereotypeFontSize 11
    arrowColor 000
  arrowFontName Verdana
  arrowFontColor 333
  arrowFontSize 11
}


skinparam note {
    backgroundColor 2a86e2
  borderColor 1a66c2
    fontColor 000
  fontName Verdana
  fontSize 11
  stereotypeFontColor 333
  stereotypeFontSize 11
}

skinparam cloud {
    backgroundColor ccc
  borderColor 1a66c2
    fontColor 000
  fontName Verdana
  fontSize 11
  stereotypeFontColor 333
  stereotypeFontSize 11
    arrowColor 000
  arrowFontName Verdana
  arrowFontColor 333
  arrowFontSize 11
}

skinparam rectangle {
    backgroundColor ccc
  borderColor 1a66c2
    fontColor 000
  fontName Verdana
  fontSize 11
  stereotypeFontColor 333
  stereotypeFontSize 11
}

skinparam storage {
    backgroundColor ccc
  borderColor 1a66c2
    fontColor 000
  fontName Verdana
  fontSize 11
  stereotypeFontColor 333
  stereotypeFontSize 11
}


partition "keyboard_input"{

  start
  if (check interaction) then (tap)
    if(short press?) then (yes)
      :Get closest key to interaction;
      :key = closest_key]
      :Remember layout/view of last active key
      Remember last active key;
    else (no)
      :key = last active key]
    endif
    if (Check key) then (is some)
      :self.execute_tap_actions();
    else (is none)
    endif
  else (swipe)
    if (Begin?) then (yes)
      :Tell UI to release all
      latched keys and
      the last active key;
      :Tell submitter to release
      all keys and modifiers;
    elseif (Update?) then (yes)
      :Notify the decoder
      about the new point
      of the gesture;
    else (Finish)
      :Get most likely word for
      gesture from decoder;
      :Submit the word;
    endif
  endif
  stop
}
@enduml

PlantUML version 1.2020.19(Mon Oct 12 17:10:01 CEST 2020)
(GPL source distribution)
Java Runtime: OpenJDK Runtime Environment
JVM: OpenJDK 64-Bit Server VM
Default Encoding: UTF-8
Language: en
Country: US
--></g></svg>