<?xml version="1.0" encoding="UTF-8" standalone="no"?><svg xmlns="http://www.w3.org/2000/svg" xmlns:xlink="http://www.w3.org/1999/xlink" contentScriptType="application/ecmascript" contentStyleType="text/css" height="522px" preserveAspectRatio="none" style="width:294px;height:522px;" version="1.1" viewBox="0 0 294 522" width="294px" zoomAndPan="magnify"><defs><filter height="300%" id="fe01u0e70ejqf" width="300%" x="-1" y="-1"><feGaussianBlur result="blurOut" stdDeviation="2.0"/><feColorMatrix in="blurOut" result="blurOut2" type="matrix" values="0 0 0 0 0 0 0 0 0 0 0 0 0 0 0 0 0 0 .4 0"/><feOffset dx="4.0" dy="4.0" in="blurOut2" result="blurOut3"/><feBlend in="SourceGraphic" in2="blurOut3" mode="normal"/></filter></defs><g><!--MD5=[77f1f5e3ad56f923d1fc18272c4f6b93]
entity Messages--><ellipse cx="107.85" cy="30.5" fill="#FEFECE" filter="url(#fe01u0e70ejqf)" rx="8" ry="8" style="stroke: #A80036; stroke-width: 2.0;"/><text fill="#000000" font-family="sans-serif" font-size="14" lengthAdjust="spacingAndGlyphs" textLength="65" x="75.35" y="60.5059">Messages</text><!--MD5=[c42ed81cef7fdd2e33758127945b9a5b]
entity UI--><rect fill="#FEFECE" filter="url(#fe01u0e70ejqf)" height="46.7999" style="stroke: #A80036; stroke-width: 1.5;" width="54" x="173.85" y="7"/><rect fill="#FEFECE" height="10" style="stroke: #A80036; stroke-width: 1.5;" width="15" x="207.85" y="12"/><rect fill="#FEFECE" height="2" style="stroke: #A80036; stroke-width: 1.5;" width="4" x="205.85" y="14"/><rect fill="#FEFECE" height="2" style="stroke: #A80036; stroke-width: 1.5;" width="4" x="205.85" y="18"/><text fill="#000000" font-family="sans-serif" font-size="14" lengthAdjust="spacingAndGlyphs" textLength="14" x="188.85" y="40.0059">UI</text><!--MD5=[1e9204083aa66e691856924869ece9f5]
entity Input--><ellipse cx="223.85" cy="143" fill="#FEFECE" filter="url(#fe01u0e70ejqf)" rx="8" ry="8" style="stroke: #A80036; stroke-width: 2.0;"/><text fill="#000000" font-family="sans-serif" font-size="14" lengthAdjust="spacingAndGlyphs" textLength="32" x="207.85" y="173.0059">Input</text><!--MD5=[fb474a65459f7c6e90680d615206be56]
entity Keyboard--><rect fill="#FEFECE" filter="url(#fe01u0e70ejqf)" height="46.7999" style="stroke: #A80036; stroke-width: 1.5;" width="101" x="149.35" y="232"/><rect fill="#FEFECE" height="10" style="stroke: #A80036; stroke-width: 1.5;" width="15" x="230.35" y="237"/><rect fill="#FEFECE" height="2" style="stroke: #A80036; stroke-width: 1.5;" width="4" x="228.35" y="239"/><rect fill="#FEFECE" height="2" style="stroke: #A80036; stroke-width: 1.5;" width="4" x="228.35" y="243"/><text fill="#000000" font-family="sans-serif" font-size="14" lengthAdjust="spacingAndGlyphs" textLength="61" x="164.35" y="265.0059">Keyboard</text><!--MD5=[92c7b17a015847b9ef3f57e5296a880e]
entity Decode--><ellipse cx="157.85" cy="368" fill="#FEFECE" filter="url(#fe01u0e70ejqf)" rx="8" ry="8" style="stroke: #A80036; stroke-width: 2.0;"/><text fill="#000000" font-family="sans-serif" font-size="14" lengthAdjust="spacingAndGlyphs" textLength="49" x="133.35" y="398.0059">Decode</text><!--MD5=[5b7db7b76c91b79ede5808f63e19d150]
entity Decoder--><rect fill="#FEFECE" filter="url(#fe01u0e70ejqf)" height="46.7999" style="stroke: #A80036; stroke-width: 1.5;" width="94" x="14.85" y="457"/><rect fill="#FEFECE" height="10" style="stroke: #A80036; stroke-width: 1.5;" width="15" x="88.85" y="462"/><rect fill="#FEFECE" height="2" style="stroke: #A80036; stroke-width: 1.5;" width="4" x="86.85" y="464"/><rect fill="#FEFECE" height="2" style="stroke: #A80036; stroke-width: 1.5;" width="4" x="86.85" y="468"/><text fill="#000000" font-family="sans-serif" font-size="14" lengthAdjust="spacingAndGlyphs" textLength="54" x="29.85" y="490.0059">Decoder</text><!--MD5=[fc241586e3e4cf255457dad9b5d09a8f]
entity Submit--><ellipse cx="254.85" cy="368" fill="#FEFECE" filter="url(#fe01u0e70ejqf)" rx="8" ry="8" style="stroke: #A80036; stroke-width: 2.0;"/><text fill="#000000" font-family="sans-serif" font-size="14" lengthAdjust="spacingAndGlyphs" textLength="44" x="232.85" y="398.0059">Submit</text><!--MD5=[601b3688e0b3072c6e779eb008a5cc5b]
entity Submitter--><rect fill="#FEFECE" filter="url(#fe01u0e70ejqf)" height="46.7999" style="stroke: #A80036; stroke-width: 1.5;" width="101" x="174.35" y="457"/><rect fill="#FEFECE" height="10" style="stroke: #A80036; stroke-width: 1.5;" width="15" x="255.35" y="462"/><rect fill="#FEFECE" height="2" style="stroke: #A80036; stroke-width: 1.5;" width="4" x="253.35" y="464"/><rect fill="#FEFECE" height="2" style="stroke: #A80036; stroke-width: 1.5;" width="4" x="253.35" y="468"/><text fill="#000000" font-family="sans-serif" font-size="14" lengthAdjust="spacingAndGlyphs" textLength="61" x="189.35" y="490.0059">Submitter</text><!--MD5=[36e23723805b6fb0ac71180713704cc9]
link Messages to UI--><path d="M116.93,30.5 C135.84,30.5 154.74,30.5 173.64,30.5 " fill="none" id="Messages-UI" style="stroke: #A80036; stroke-width: 1.0;"/><!--MD5=[dc8ca5d2e642fca6af6d93e33f09ec79]
link UI to Input--><path d="M205.56,54.13 C210.23,76.56 217.22,110.17 221.07,128.64 " fill="none" id="UI-&gt;Input" style="stroke: #A80036; stroke-width: 1.0;"/><polygon fill="#A80036" points="222.16,133.86,224.2527,124.236,221.1465,128.9638,216.4187,125.8576,222.16,133.86" style="stroke: #A80036; stroke-width: 1.0;"/><!--MD5=[8988854f9a17f94e25123fc5b1802ba7]
link Input to Keyboard--><path d="M222.05,152.31 C218.43,168.97 210.17,206.99 204.81,231.67 " fill="none" id="Input-Keyboard" style="stroke: #A80036; stroke-width: 1.0;"/><!--MD5=[6c1bc99ca27d48cd88163cb6be26f84b]
link Decode to Decoder--><path d="M150.63,377.31 C136.16,393.97 103.12,431.99 81.69,456.67 " fill="none" id="Decode-Decoder" style="stroke: #A80036; stroke-width: 1.0;"/><!--MD5=[ce39ff41fbc3a0cf6a3b8d3096a4a6a6]
link Submit to Submitter--><path d="M252.6,377.31 C248.07,393.97 237.75,431.99 231.05,456.67 " fill="none" id="Submit-Submitter" style="stroke: #A80036; stroke-width: 1.0;"/><!--MD5=[a803784da1c4535b7fa9814105cf3dd4]
link Keyboard to Decode--><path d="M191.25,279.13 C182.65,301.75 169.73,335.75 162.75,354.12 " fill="none" id="Keyboard-&gt;Decode" style="stroke: #A80036; stroke-width: 1.0;"/><polygon fill="#A80036" points="160.94,358.86,167.8642,351.856,162.7081,354.1831,160.381,349.027,160.94,358.86" style="stroke: #A80036; stroke-width: 1.0;"/><!--MD5=[41fd3ffdf2eab2bcc74e6a1d1c48b310]
link Keyboard to Submit--><path d="M211.11,279.13 C222.37,301.75 239.29,335.75 248.44,354.12 " fill="none" id="Keyboard-&gt;Submit" style="stroke: #A80036; stroke-width: 1.0;"/><polygon fill="#A80036" points="250.8,358.86,250.3779,349.0202,248.5753,354.3822,243.2134,352.5796,250.8,358.86" style="stroke: #A80036; stroke-width: 1.0;"/><!--MD5=[5489389be5d7c536ad4a5a5199decd60]
link Decoder to Messages--><path d="M55.56,456.91 C40.4,398.42 6,237.95 46.85,114 C56.33,85.24 80.12,58.29 95.04,43.43 " fill="none" id="Decoder-&gt;Messages" style="stroke: #A80036; stroke-width: 1.0;"/><polygon fill="#A80036" points="98.99,39.57,89.7554,42.9936,95.4118,43.0623,95.3431,48.7188,98.99,39.57" style="stroke: #A80036; stroke-width: 1.0;"/><!--MD5=[8a8593487a73e2095a2c9d6f621c59a7]
link Keyboard to Messages--><path d="M190.55,231.95 C171.47,185.7 128.43,81.38 113.26,44.62 " fill="none" id="Keyboard-&gt;Messages" style="stroke: #A80036; stroke-width: 1.0;"/><polygon fill="#A80036" points="111.23,39.7,110.9473,49.5448,113.1287,44.3255,118.3481,46.5068,111.23,39.7" style="stroke: #A80036; stroke-width: 1.0;"/><!--MD5=[d9204338305b0645ee469c47744732f2]
link Submitter to Messages--><path d="M174.32,457.81 C149.48,444.25 121.92,424.14 107.85,397 C43.88,273.62 89.37,93.82 103.85,44.45 " fill="none" id="Submitter-&gt;Messages" style="stroke: #A80036; stroke-width: 1.0;"/><polygon fill="#A80036" points="105.3,39.59,98.8989,47.0751,103.8737,44.3823,106.5665,49.3571,105.3,39.59" style="stroke: #A80036; stroke-width: 1.0;"/><!--MD5=[fffd136fb743db301303f1e498bc24d2]
@startuml

Messages - [UI]
[UI] - -> Input
Input - - [Keyboard]
Decode - - [Decoder]
Submit - - [Submitter]
[Keyboard] - -> Decode
[Keyboard] - -> Submit
Decoder - -> Messages
Keyboard - -> Messages
Submitter - -> Messages

@enduml

PlantUML version 1.2020.15(Sun Jun 28 13:39:45 CEST 2020)
(MIT source distribution)
Java Runtime: OpenJDK Runtime Environment
JVM: OpenJDK 64-Bit Server VM
Default Encoding: UTF-8
Language: en
Country: US
--></g></svg>