<?xml version="1.0" encoding="UTF-8" standalone="no"?><svg xmlns="http://www.w3.org/2000/svg" xmlns:xlink="http://www.w3.org/1999/xlink" contentScriptType="application/ecmascript" contentStyleType="text/css" height="456px" preserveAspectRatio="none" style="width:1543px;height:456px;" version="1.1" viewBox="0 0 1543 456" width="1543px" zoomAndPan="magnify"><defs><filter height="300%" id="fqj2rttel9y9m" width="300%" x="-1" y="-1"><feGaussianBlur result="blurOut" stdDeviation="2.0"/><feColorMatrix in="blurOut" result="blurOut2" type="matrix" values="0 0 0 0 0 0 0 0 0 0 0 0 0 0 0 0 0 0 .4 0"/><feOffset dx="4.0" dy="4.0" in="blurOut2" result="blurOut3"/><feBlend in="SourceGraphic" in2="blurOut3" mode="normal"/></filter></defs><g><rect fill="#FFFFFF" filter="url(#fqj2rttel9y9m)" height="428.5999" style="stroke: #000000; stroke-width: 2.0;" width="1515" x="11" y="11"/><path d="M270,12 L270,20.7999 L260,30.7999 L11,30.7999 " fill="none" style="stroke: #000000; stroke-width: 2.0;"/><text fill="#000000" font-family="sans-serif" font-size="14" lengthAdjust="spacingAndGlyphs" textLength="249" x="14" y="25.0059">GestureModel::convert_to_interaction()</text><ellipse cx="770.5" cy="50.7999" fill="#000000" filter="url(#fqj2rttel9y9m)" rx="10" ry="10" style="stroke: none; stroke-width: 1.0;"/><polygon fill="#FEFECE" filter="url(#fqj2rttel9y9m)" points="42,80.7999,164,80.7999,176,92.7999,164,104.7999,42,104.7999,30,92.7999,42,80.7999" style="stroke: #A80036; stroke-width: 1.5;"/><text fill="#000000" font-family="sans-serif" font-size="11" lengthAdjust="spacingAndGlyphs" textLength="18" x="107" y="115.0189">yes</text><text fill="#000000" font-family="sans-serif" font-size="11" lengthAdjust="spacingAndGlyphs" textLength="122" x="42" y="96.4189">Interaction is DragBegin?</text><rect fill="#FEFECE" filter="url(#fqj2rttel9y9m)" height="34.4001" style="stroke: #A80036; stroke-width: 1.5;" width="164" x="21" y="137.9998"/><text fill="#000000" font-family="sans-serif" font-size="12" lengthAdjust="spacingAndGlyphs" textLength="144" x="31" y="159.1479">Interaction::TapShortPress</text><polygon fill="#FEFECE" filter="url(#fqj2rttel9y9m)" points="250,80.7999,303,80.7999,315,92.7999,303,104.7999,250,104.7999,238,92.7999,250,80.7999" style="stroke: #A80036; stroke-width: 1.5;"/><text fill="#000000" font-family="sans-serif" font-size="11" lengthAdjust="spacingAndGlyphs" textLength="18" x="280.5" y="115.0189">yes</text><text fill="#000000" font-family="sans-serif" font-size="11" lengthAdjust="spacingAndGlyphs" textLength="53" x="250" y="96.4189">LongPress</text><rect fill="#FEFECE" filter="url(#fqj2rttel9y9m)" height="34.4001" style="stroke: #A80036; stroke-width: 1.5;" width="163" x="195" y="137.9998"/><text fill="#000000" font-family="sans-serif" font-size="12" lengthAdjust="spacingAndGlyphs" textLength="143" x="205" y="159.1479">Interaction::TapLongPress</text><polygon fill="#FEFECE" filter="url(#fqj2rttel9y9m)" points="621,80.7999,680,80.7999,692,92.7999,680,104.7999,621,104.7999,609,92.7999,621,80.7999" style="stroke: #A80036; stroke-width: 1.5;"/><text fill="#000000" font-family="sans-serif" font-size="11" lengthAdjust="spacingAndGlyphs" textLength="18" x="654.5" y="115.0189">yes</text><text fill="#000000" font-family="sans-serif" font-size="11" lengthAdjust="spacingAndGlyphs" textLength="59" x="621" y="96.4189">DragUpdate</text><text fill="#000000" font-family="sans-serif" font-size="11" lengthAdjust="spacingAndGlyphs" textLength="66" x="692" y="89.8189">no (DragEnd)</text><rect fill="#FEFECE" filter="url(#fqj2rttel9y9m)" height="34.4001" rx="12.5" ry="12.5" style="stroke: #A80036; stroke-width: 1.5;" width="147" x="577" y="137.9998"/><text fill="#000000" font-family="sans-serif" font-size="12" lengthAdjust="spacingAndGlyphs" textLength="127" x="587" y="159.1479">Add point to swipe path</text><polygon fill="#FEFECE" filter="url(#fqj2rttel9y9m)" points="380,195.9999,575,195.9999,587,207.9999,575,219.9999,380,219.9999,368,207.9999,380,195.9999" style="stroke: #A80036; stroke-width: 1.5;"/><text fill="#000000" font-family="sans-serif" font-size="11" lengthAdjust="spacingAndGlyphs" textLength="18" x="481.5" y="230.2188">yes</text><text fill="#000000" font-family="sans-serif" font-size="11" lengthAdjust="spacingAndGlyphs" textLength="195" x="380" y="211.6189">Previous interpretation was NoGesture?</text><rect fill="#FEFECE" filter="url(#fqj2rttel9y9m)" height="34.4001" style="stroke: #A80036; stroke-width: 1.5;" width="149" x="403" y="253.1998"/><text fill="#000000" font-family="sans-serif" font-size="12" lengthAdjust="spacingAndGlyphs" textLength="129" x="413" y="274.3479">Interaction::SwipeBegin</text><polygon fill="#FEFECE" filter="url(#fqj2rttel9y9m)" points="652,195.9999,711,195.9999,723,207.9999,711,219.9999,652,219.9999,640,207.9999,652,195.9999" style="stroke: #A80036; stroke-width: 1.5;"/><text fill="#000000" font-family="sans-serif" font-size="11" lengthAdjust="spacingAndGlyphs" textLength="18" x="685.5" y="230.2188">yes</text><text fill="#000000" font-family="sans-serif" font-size="11" lengthAdjust="spacingAndGlyphs" textLength="59" x="652" y="211.6189">LongPress?</text><text fill="#000000" font-family="sans-serif" font-size="11" lengthAdjust="spacingAndGlyphs" textLength="56" x="723" y="205.0189">no (Swipe))</text><rect fill="#FEFECE" filter="url(#fqj2rttel9y9m)" height="34.4001" style="stroke: #A80036; stroke-width: 1.5;" width="149" x="607" y="253.1998"/><text fill="#000000" font-family="sans-serif" font-size="12" lengthAdjust="spacingAndGlyphs" textLength="129" x="617" y="274.3479">Interaction::SwipeBegin</text><rect fill="#FEFECE" filter="url(#fqj2rttel9y9m)" height="34.4001" style="stroke: #A80036; stroke-width: 1.5;" width="157" x="776" y="249.5998"/><text fill="#000000" font-family="sans-serif" font-size="12" lengthAdjust="spacingAndGlyphs" textLength="137" x="786" y="270.7479">Interaction::SwipeUpdate</text><rect fill="#FEFECE" filter="url(#fqj2rttel9y9m)" height="34.4001" rx="12.5" ry="12.5" style="stroke: #A80036; stroke-width: 1.5;" width="112" x="1172" y="134.3999"/><text fill="#000000" font-family="sans-serif" font-size="12" lengthAdjust="spacingAndGlyphs" textLength="92" x="1182" y="155.548">Clear swipe path</text><polygon fill="#FEFECE" filter="url(#fqj2rttel9y9m)" points="955,192.3999,1150,192.3999,1162,204.3999,1150,216.3999,955,216.3999,943,204.3999,955,192.3999" style="stroke: #A80036; stroke-width: 1.5;"/><text fill="#000000" font-family="sans-serif" font-size="11" lengthAdjust="spacingAndGlyphs" textLength="18" x="1056.5" y="226.6189">yes</text><text fill="#000000" font-family="sans-serif" font-size="11" lengthAdjust="spacingAndGlyphs" textLength="195" x="955" y="208.0189">Previous interpretation was NoGesture?</text><rect fill="#FEFECE" filter="url(#fqj2rttel9y9m)" height="34.4001" style="stroke: #A80036; stroke-width: 1.5;" width="179" x="963" y="249.5998"/><text fill="#000000" font-family="sans-serif" font-size="12" lengthAdjust="spacingAndGlyphs" textLength="159" x="973" y="270.7479">Interaction::TapShortRelease</text><polygon fill="#FEFECE" filter="url(#fqj2rttel9y9m)" points="1233,192.3999,1292,192.3999,1304,204.3999,1292,216.3999,1233,216.3999,1221,204.3999,1233,192.3999" style="stroke: #A80036; stroke-width: 1.5;"/><text fill="#000000" font-family="sans-serif" font-size="11" lengthAdjust="spacingAndGlyphs" textLength="18" x="1266.5" y="226.6189">yes</text><text fill="#000000" font-family="sans-serif" font-size="11" lengthAdjust="spacingAndGlyphs" textLength="59" x="1233" y="208.0189">LongPress?</text><text fill="#000000" font-family="sans-serif" font-size="11" lengthAdjust="spacingAndGlyphs" textLength="52" x="1304" y="201.419">no (Swipe)</text><rect fill="#FEFECE" filter="url(#fqj2rttel9y9m)" height="34.4001" style="stroke: #A80036; stroke-width: 1.5;" width="178" x="1173.5" y="249.5998"/><text fill="#000000" font-family="sans-serif" font-size="12" lengthAdjust="spacingAndGlyphs" textLength="158" x="1183.5" y="270.7479">Interaction::TapLongRelease</text><rect fill="#FEFECE" filter="url(#fqj2rttel9y9m)" height="34.4001" style="stroke: #A80036; stroke-width: 1.5;" width="150" x="1366" y="245.9999"/><text fill="#000000" font-family="sans-serif" font-size="12" lengthAdjust="spacingAndGlyphs" textLength="130" x="1376" y="267.148">Interaction::SwipeFinish</text><rect fill="#FEFECE" filter="url(#fqj2rttel9y9m)" height="34.4001" style="stroke: #A80036; stroke-width: 1.5;" width="77" x="732" y="351.1998"/><text fill="#000000" font-family="sans-serif" font-size="12" lengthAdjust="spacingAndGlyphs" textLength="57" x="742" y="372.3479">Interaction</text><ellipse cx="770.5" cy="416.5999" fill="#FFFFFF" filter="url(#fqj2rttel9y9m)" rx="11" ry="11" style="stroke: #000000; stroke-width: 1.0;"/><ellipse cx="770.5" cy="416.5999" fill="#000000" rx="6" ry="6" style="stroke: #7F7F7F; stroke-width: 1.0;"/><line style="stroke: #A80036; stroke-width: 1.5;" x1="477.5" x2="477.5" y1="219.9999" y2="253.1998"/><polygon fill="#A80036" points="473.5,243.1998,477.5,253.1998,481.5,243.1998,477.5,247.1998" style="stroke: #A80036; stroke-width: 1.0;"/><line style="stroke: #A80036; stroke-width: 1.5;" x1="477.5" x2="477.5" y1="287.5999" y2="311.1998"/><polygon fill="#A80036" points="473.5,301.1998,477.5,311.1998,481.5,301.1998,477.5,305.1998" style="stroke: #A80036; stroke-width: 1.0;"/><line style="stroke: #A80036; stroke-width: 1.5;" x1="681.5" x2="681.5" y1="219.9999" y2="253.1998"/><polygon fill="#A80036" points="677.5,243.1998,681.5,253.1998,685.5,243.1998,681.5,247.1998" style="stroke: #A80036; stroke-width: 1.0;"/><line style="stroke: #A80036; stroke-width: 1.5;" x1="681.5" x2="681.5" y1="287.5999" y2="311.1998"/><polygon fill="#A80036" points="677.5,301.1998,681.5,311.1998,685.5,301.1998,681.5,305.1998" style="stroke: #A80036; stroke-width: 1.0;"/><line style="stroke: #A80036; stroke-width: 1.5;" x1="587" x2="640" y1="207.9999" y2="207.9999"/><polygon fill="#A80036" points="630,203.9999,640,207.9999,630,211.9999,634,207.9999" style="stroke: #A80036; stroke-width: 1.0;"/><line style="stroke: #A80036; stroke-width: 1.5;" x1="650.5" x2="650.5" y1="172.3999" y2="177.3999"/><line style="stroke: #A80036; stroke-width: 1.5;" x1="650.5" x2="477.5" y1="177.3999" y2="177.3999"/><line style="stroke: #A80036; stroke-width: 1.5;" x1="477.5" x2="477.5" y1="177.3999" y2="195.9999"/><polygon fill="#A80036" points="473.5,185.9999,477.5,195.9999,481.5,185.9999,477.5,189.9999" style="stroke: #A80036; stroke-width: 1.0;"/><line style="stroke: #A80036; stroke-width: 1.5;" x1="723" x2="854.5" y1="207.9999" y2="207.9999"/><line style="stroke: #A80036; stroke-width: 1.5;" x1="854.5" x2="854.5" y1="207.9999" y2="249.5998"/><polygon fill="#A80036" points="850.5,239.5998,854.5,249.5998,858.5,239.5998,854.5,243.5998" style="stroke: #A80036; stroke-width: 1.0;"/><line style="stroke: #A80036; stroke-width: 1.5;" x1="854.5" x2="854.5" y1="283.9999" y2="311.1998"/><polygon fill="#A80036" points="850.5,301.1998,854.5,311.1998,858.5,301.1998,854.5,305.1998" style="stroke: #A80036; stroke-width: 1.0;"/><line style="stroke: #A80036; stroke-width: 1.5;" x1="477.5" x2="854.5" y1="311.1998" y2="311.1998"/><line style="stroke: #A80036; stroke-width: 1.5;" x1="1052.5" x2="1052.5" y1="216.3999" y2="249.5998"/><polygon fill="#A80036" points="1048.5,239.5998,1052.5,249.5998,1056.5,239.5998,1052.5,243.5998" style="stroke: #A80036; stroke-width: 1.0;"/><line style="stroke: #A80036; stroke-width: 1.5;" x1="1052.5" x2="1052.5" y1="283.9999" y2="307.5999"/><polygon fill="#A80036" points="1048.5,297.5999,1052.5,307.5999,1056.5,297.5999,1052.5,301.5999" style="stroke: #A80036; stroke-width: 1.0;"/><line style="stroke: #A80036; stroke-width: 1.5;" x1="1262.5" x2="1262.5" y1="216.3999" y2="249.5998"/><polygon fill="#A80036" points="1258.5,239.5998,1262.5,249.5998,1266.5,239.5998,1262.5,243.5998" style="stroke: #A80036; stroke-width: 1.0;"/><line style="stroke: #A80036; stroke-width: 1.5;" x1="1262.5" x2="1262.5" y1="283.9999" y2="307.5999"/><polygon fill="#A80036" points="1258.5,297.5999,1262.5,307.5999,1266.5,297.5999,1262.5,301.5999" style="stroke: #A80036; stroke-width: 1.0;"/><line style="stroke: #A80036; stroke-width: 1.5;" x1="1162" x2="1221" y1="204.3999" y2="204.3999"/><polygon fill="#A80036" points="1211,200.3999,1221,204.3999,1211,208.3999,1215,204.3999" style="stroke: #A80036; stroke-width: 1.0;"/><line style="stroke: #A80036; stroke-width: 1.5;" x1="1228" x2="1228" y1="168.8" y2="177.3999"/><line style="stroke: #A80036; stroke-width: 1.5;" x1="1228" x2="1052.5" y1="177.3999" y2="177.3999"/><line style="stroke: #A80036; stroke-width: 1.5;" x1="1052.5" x2="1052.5" y1="177.3999" y2="192.3999"/><polygon fill="#A80036" points="1048.5,182.3999,1052.5,192.3999,1056.5,182.3999,1052.5,186.3999" style="stroke: #A80036; stroke-width: 1.0;"/><line style="stroke: #A80036; stroke-width: 1.5;" x1="1304" x2="1441" y1="204.3999" y2="204.3999"/><line style="stroke: #A80036; stroke-width: 1.5;" x1="1441" x2="1441" y1="204.3999" y2="245.9999"/><polygon fill="#A80036" points="1437,235.9999,1441,245.9999,1445,235.9999,1441,239.9999" style="stroke: #A80036; stroke-width: 1.0;"/><line style="stroke: #A80036; stroke-width: 1.5;" x1="1441" x2="1441" y1="280.4" y2="307.5999"/><polygon fill="#A80036" points="1437,297.5999,1441,307.5999,1445,297.5999,1441,301.5999" style="stroke: #A80036; stroke-width: 1.0;"/><line style="stroke: #A80036; stroke-width: 1.5;" x1="1052.5" x2="1441" y1="307.5999" y2="307.5999"/><line style="stroke: #A80036; stroke-width: 1.5;" x1="103" x2="103" y1="104.7999" y2="137.9998"/><polygon fill="#A80036" points="99,127.9998,103,137.9998,107,127.9998,103,131.9998" style="stroke: #A80036; stroke-width: 1.0;"/><line style="stroke: #A80036; stroke-width: 1.5;" x1="103" x2="103" y1="172.3999" y2="331.1998"/><polygon fill="#A80036" points="99,321.1998,103,331.1998,107,321.1998,103,325.1998" style="stroke: #A80036; stroke-width: 1.0;"/><line style="stroke: #A80036; stroke-width: 1.5;" x1="276.5" x2="276.5" y1="104.7999" y2="137.9998"/><polygon fill="#A80036" points="272.5,127.9998,276.5,137.9998,280.5,127.9998,276.5,131.9998" style="stroke: #A80036; stroke-width: 1.0;"/><line style="stroke: #A80036; stroke-width: 1.5;" x1="276.5" x2="276.5" y1="172.3999" y2="331.1998"/><polygon fill="#A80036" points="272.5,321.1998,276.5,331.1998,280.5,321.1998,276.5,325.1998" style="stroke: #A80036; stroke-width: 1.0;"/><line style="stroke: #A80036; stroke-width: 1.5;" x1="650.5" x2="650.5" y1="104.7999" y2="137.9998"/><polygon fill="#A80036" points="646.5,127.9998,650.5,137.9998,654.5,127.9998,650.5,131.9998" style="stroke: #A80036; stroke-width: 1.0;"/><line style="stroke: #A80036; stroke-width: 1.5;" x1="650.5" x2="650.5" y1="311.1998" y2="331.1998"/><polygon fill="#A80036" points="646.5,321.1998,650.5,331.1998,654.5,321.1998,650.5,325.1998" style="stroke: #A80036; stroke-width: 1.0;"/><line style="stroke: #A80036; stroke-width: 1.5;" x1="176" x2="238" y1="92.7999" y2="92.7999"/><polygon fill="#A80036" points="228,88.7999,238,92.7999,228,96.7999,232,92.7999" style="stroke: #A80036; stroke-width: 1.0;"/><line style="stroke: #A80036; stroke-width: 1.5;" x1="315" x2="609" y1="92.7999" y2="92.7999"/><polygon fill="#A80036" points="599,88.7999,609,92.7999,599,96.7999,603,92.7999" style="stroke: #A80036; stroke-width: 1.0;"/><line style="stroke: #A80036; stroke-width: 1.5;" x1="770.5" x2="770.5" y1="60.7999" y2="65.7999"/><line style="stroke: #A80036; stroke-width: 1.5;" x1="770.5" x2="103" y1="65.7999" y2="65.7999"/><line style="stroke: #A80036; stroke-width: 1.5;" x1="103" x2="103" y1="65.7999" y2="80.7999"/><polygon fill="#A80036" points="99,70.7999,103,80.7999,107,70.7999,103,74.7999" style="stroke: #A80036; stroke-width: 1.0;"/><line style="stroke: #A80036; stroke-width: 1.5;" x1="692" x2="1228" y1="92.7999" y2="92.7999"/><line style="stroke: #A80036; stroke-width: 1.5;" x1="1228" x2="1228" y1="92.7999" y2="134.3999"/><polygon fill="#A80036" points="1224,124.3999,1228,134.3999,1232,124.3999,1228,128.3999" style="stroke: #A80036; stroke-width: 1.0;"/><line style="stroke: #A80036; stroke-width: 1.5;" x1="1228" x2="1228" y1="307.5999" y2="331.1998"/><polygon fill="#A80036" points="1224,321.1998,1228,331.1998,1232,321.1998,1228,325.1998" style="stroke: #A80036; stroke-width: 1.0;"/><line style="stroke: #A80036; stroke-width: 1.5;" x1="103" x2="1228" y1="331.1998" y2="331.1998"/><line style="stroke: #A80036; stroke-width: 1.5;" x1="770.5" x2="770.5" y1="331.1998" y2="351.1998"/><polygon fill="#A80036" points="766.5,341.1998,770.5,351.1998,774.5,341.1998,770.5,345.1998" style="stroke: #A80036; stroke-width: 1.0;"/><line style="stroke: #A80036; stroke-width: 1.5;" x1="770.5" x2="770.5" y1="385.5999" y2="405.5999"/><polygon fill="#A80036" points="766.5,395.5999,770.5,405.5999,774.5,395.5999,770.5,399.5999" style="stroke: #A80036; stroke-width: 1.0;"/><!--MD5=[d5772bcc33cd9264f37f32f01566e48a]
@startuml gesture_model_convert_to_interaction

partition "GestureModel::convert_to_interaction()"{  
  start
  
  if (Interaction is DragBegin?) then (yes)
    :Interaction::TapShortPress]
  elseif (LongPress) then (yes)
    :Interaction::TapLongPress]
  elseif (DragUpdate) then (yes)
    :Add point to swipe path;
    if (Previous interpretation was NoGesture?) then (yes)
        :Interaction::SwipeBegin]
    elseif (LongPress?) then (yes)
        :Interaction::SwipeBegin]
    else (no (Swipe)))
        :Interaction::SwipeUpdate]
    endif
  else (no (DragEnd))
    :Clear swipe path;
    if (Previous interpretation was NoGesture?) then (yes)
        :Interaction::TapShortRelease]
    elseif (LongPress?) then (yes)
        :Interaction::TapLongRelease]
    else (no (Swipe))
        :Interaction::SwipeFinish]
    endif
  endif
  :Interaction]
  stop
}
@enduml

PlantUML version 1.2020.15(Sun Jun 28 13:39:45 CEST 2020)
(MIT source distribution)
Java Runtime: OpenJDK Runtime Environment
JVM: OpenJDK 64-Bit Server VM
Default Encoding: UTF-8
Language: en
Country: US
--></g></svg>