<?xml version="1.0" encoding="UTF-8" standalone="no"?>
<svg
   xmlns:dc="http://purl.org/dc/elements/1.1/"
   xmlns:cc="http://creativecommons.org/ns#"
   xmlns:rdf="http://www.w3.org/1999/02/22-rdf-syntax-ns#"
   xmlns:svg="http://www.w3.org/2000/svg"
   xmlns="http://www.w3.org/2000/svg"
   id="svg4043"
   version="1.1"
   viewBox="0 0 4.2333331 4.2333093"
   height="4.2333093mm"
   width="4.2333331mm">
  <defs
     id="defs4037" />
  <metadata
     id="metadata4040">
    <rdf:RDF>
      <cc:Work
         rdf:about="">
        <dc:format>image/svg+xml</dc:format>
        <dc:type
           rdf:resource="http://purl.org/dc/dcmitype/StillImage" />
        <dc:title></dc:title>
      </cc:Work>
    </rdf:RDF>
  </metadata>
  <g
     transform="translate(-86.329776,-68.097636)"
     id="layer1">
    <g
       style="stroke-width:1.00004983;fill:#2e3436;fill-opacity:1"
       transform="matrix(0.99990029,0,0,1,-7.1823833,-1.8799927)"
       id="g842">
      <g
         style="stroke-width:1.00004983;fill:#2e3436;fill-opacity:1"
         id="g836">
        <path
           id="path5166"
           d="m 95.636719,69.978516 c -1.165869,0 -2.115235,0.949365 -2.115235,2.115234 0,1.165869 0.949366,2.117188 2.115235,2.117188 1.165869,0 2.117187,-0.951319 2.117187,-2.117188 0,-1.165869 -0.951318,-2.115234 -2.117187,-2.115234 z m 0,0.529296 c 0.879886,0 1.58789,0.706052 1.58789,1.585938 0,0.879886 -0.708004,1.587891 -1.58789,1.587891 -0.879886,0 -1.585938,-0.708005 -1.585938,-1.587891 0,-0.879886 0.706052,-1.585937 1.585938,-1.585938 z"
           style="color:#000000;font-style:normal;font-variant:normal;font-weight:normal;font-stretch:normal;font-size:medium;line-height:normal;font-family:sans-serif;font-variant-ligatures:normal;font-variant-position:normal;font-variant-caps:normal;font-variant-numeric:normal;font-variant-alternates:normal;font-feature-settings:normal;text-indent:0;text-align:start;text-decoration:none;text-decoration-line:none;text-decoration-style:solid;text-decoration-color:#000000;letter-spacing:normal;word-spacing:normal;text-transform:none;writing-mode:lr-tb;direction:ltr;text-orientation:mixed;dominant-baseline:auto;baseline-shift:baseline;text-anchor:start;white-space:normal;shape-padding:0;clip-rule:nonzero;display:inline;overflow:visible;visibility:visible;opacity:1;isolation:auto;mix-blend-mode:normal;color-interpolation:sRGB;color-interpolation-filters:linearRGB;solid-color:#000000;solid-opacity:1;vector-effect:none;fill:#2e3436;fill-opacity:1;fill-rule:nonzero;stroke:none;stroke-width:0.52919304;stroke-linecap:round;stroke-linejoin:round;stroke-miterlimit:4;stroke-dasharray:none;stroke-dashoffset:0;stroke-opacity:1;color-rendering:auto;image-rendering:auto;shape-rendering:auto;text-rendering:auto;enable-background:accumulate" />
      </g>
      <path
         style="color:#000000;font-style:normal;font-variant:normal;font-weight:normal;font-stretch:normal;font-size:medium;line-height:normal;font-family:sans-serif;font-variant-ligatures:normal;font-variant-position:normal;font-variant-caps:normal;font-variant-numeric:normal;font-variant-alternates:normal;font-feature-settings:normal;text-indent:0;text-align:start;text-decoration:none;text-decoration-line:none;text-decoration-style:solid;text-decoration-color:#000000;letter-spacing:normal;word-spacing:normal;text-transform:none;writing-mode:lr-tb;direction:ltr;text-orientation:mixed;dominant-baseline:auto;baseline-shift:baseline;text-anchor:start;white-space:normal;shape-padding:0;clip-rule:nonzero;display:inline;overflow:visible;visibility:visible;opacity:1;isolation:auto;mix-blend-mode:normal;color-interpolation:sRGB;color-interpolation-filters:linearRGB;solid-color:#000000;solid-opacity:1;vector-effect:none;fill:#2e3436;fill-opacity:1;fill-rule:nonzero;stroke:none;stroke-width:0.26459652;stroke-linecap:round;stroke-linejoin:round;stroke-miterlimit:4;stroke-dasharray:none;stroke-dashoffset:0;stroke-opacity:1;color-rendering:auto;image-rendering:auto;shape-rendering:auto;text-rendering:auto;enable-background:accumulate"
         d="m 95.636719,70.109375 c -0.144398,0 -0.27248,0.07793 -0.373047,0.189453 -0.100567,0.111521 -0.18209,0.261405 -0.25,0.439453 -0.135821,0.356096 -0.214844,0.830395 -0.214844,1.355469 0,0.525074 0.07902,1.001326 0.214844,1.357422 0.06791,0.178048 0.149433,0.327932 0.25,0.439453 0.100567,0.111521 0.228649,0.1875 0.373047,0.1875 0.144397,0 0.27248,-0.07598 0.373047,-0.1875 0.100566,-0.111521 0.182089,-0.261405 0.25,-0.439453 0.135821,-0.356096 0.216797,-0.832348 0.216796,-1.357422 0,-0.525074 -0.08097,-0.999373 -0.216796,-1.355469 -0.06791,-0.178048 -0.149434,-0.327932 -0.25,-0.439453 -0.100567,-0.111521 -0.22865,-0.189453 -0.373047,-0.189453 z m 0,0.265625 c 0.05067,0 0.109272,0.02564 0.177734,0.101562 0.06846,0.07592 0.139293,0.198356 0.199219,0.355469 0.119851,0.314227 0.197266,0.763915 0.197266,1.261719 0,0.497804 -0.07742,0.949446 -0.197266,1.263672 -0.05993,0.157113 -0.130756,0.279549 -0.199219,0.355469 -0.06846,0.07592 -0.12706,0.101562 -0.177734,0.101562 -0.05067,0 -0.107319,-0.02564 -0.175781,-0.101562 -0.06846,-0.07592 -0.139294,-0.198356 -0.199219,-0.355469 C 95.141867,73.043196 95.0625,72.591554 95.0625,72.09375 c 0,-0.497804 0.07937,-0.947492 0.199219,-1.261719 0.05993,-0.157113 0.130756,-0.279549 0.199219,-0.355469 C 95.5294,70.400643 95.586045,70.375 95.636719,70.375 Z"
         id="circle5168" />
      <path
         style="color:#000000;font-style:normal;font-variant:normal;font-weight:normal;font-stretch:normal;font-size:medium;line-height:normal;font-family:sans-serif;font-variant-ligatures:normal;font-variant-position:normal;font-variant-caps:normal;font-variant-numeric:normal;font-variant-alternates:normal;font-feature-settings:normal;text-indent:0;text-align:start;text-decoration:none;text-decoration-line:none;text-decoration-style:solid;text-decoration-color:#000000;letter-spacing:normal;word-spacing:normal;text-transform:none;writing-mode:lr-tb;direction:ltr;text-orientation:mixed;dominant-baseline:auto;baseline-shift:baseline;text-anchor:start;white-space:normal;shape-padding:0;clip-rule:nonzero;display:inline;overflow:visible;visibility:visible;opacity:1;isolation:auto;mix-blend-mode:normal;color-interpolation:sRGB;color-interpolation-filters:linearRGB;solid-color:#000000;solid-opacity:1;vector-effect:none;fill:#2e3436;fill-opacity:1;fill-rule:nonzero;stroke:none;stroke-width:0.26459652;stroke-linecap:butt;stroke-linejoin:miter;stroke-miterlimit:4;stroke-dasharray:none;stroke-dashoffset:0;stroke-opacity:1;color-rendering:auto;image-rendering:auto;shape-rendering:auto;text-rendering:auto;enable-background:accumulate"
         d="m 93.697266,71.962891 v 0.263671 h 3.96875 v -0.263671 z"
         id="path5170" />
    </g>
  </g>
</svg>
