<?xml version="1.0" encoding="UTF-8" standalone="no"?><svg xmlns="http://www.w3.org/2000/svg" xmlns:xlink="http://www.w3.org/1999/xlink" contentScriptType="application/ecmascript" contentStyleType="text/css" height="607px" preserveAspectRatio="none" style="width:914px;height:607px;" version="1.1" viewBox="0 0 914 607" width="914px" zoomAndPan="magnify"><defs><filter height="300%" id="f176jb0qjgz75y" width="300%" x="-1" y="-1"><feGaussianBlur result="blurOut" stdDeviation="2.0"/><feColorMatrix in="blurOut" result="blurOut2" type="matrix" values="0 0 0 0 0 0 0 0 0 0 0 0 0 0 0 0 0 0 .4 0"/><feOffset dx="4.0" dy="4.0" in="blurOut2" result="blurOut3"/><feBlend in="SourceGraphic" in2="blurOut3" mode="normal"/></filter></defs><g><rect fill="#FFFFFF" filter="url(#f176jb0qjgz75y)" height="579.0004" style="stroke: #000000; stroke-width: 2.0;" width="886" x="11" y="11"/><path d="M119,12 L119,20.7999 L109,30.7999 L11,30.7999 " fill="none" style="stroke: #000000; stroke-width: 2.0;"/><text fill="#000000" font-family="sans-serif" font-size="14" lengthAdjust="spacingAndGlyphs" textLength="98" x="14" y="25.0059">keyboard_input</text><ellipse cx="457.125" cy="50.7999" fill="#000000" filter="url(#f176jb0qjgz75y)" rx="10" ry="10" style="stroke: none; stroke-width: 1.0;"/><polygon fill="#FEFECE" filter="url(#f176jb0qjgz75y)" points="415.625,80.7999,498.625,80.7999,510.625,92.7999,498.625,104.7999,415.625,104.7999,403.625,92.7999,415.625,80.7999" style="stroke: #A80036; stroke-width: 1.5;"/><text fill="#000000" font-family="sans-serif" font-size="11" lengthAdjust="spacingAndGlyphs" textLength="83" x="415.625" y="96.4189">check interaction</text><text fill="#000000" font-family="sans-serif" font-size="11" lengthAdjust="spacingAndGlyphs" textLength="15" x="388.625" y="89.8189">tap</text><text fill="#000000" font-family="sans-serif" font-size="11" lengthAdjust="spacingAndGlyphs" textLength="28" x="510.625" y="89.8189">swipe</text><polygon fill="#FEFECE" filter="url(#f176jb0qjgz75y)" points="211.75,114.7999,273.75,114.7999,285.75,126.7999,273.75,138.7999,211.75,138.7999,199.75,126.7999,211.75,114.7999" style="stroke: #A80036; stroke-width: 1.5;"/><text fill="#000000" font-family="sans-serif" font-size="11" lengthAdjust="spacingAndGlyphs" textLength="62" x="211.75" y="130.4189">short press?</text><text fill="#000000" font-family="sans-serif" font-size="11" lengthAdjust="spacingAndGlyphs" textLength="18" x="181.75" y="123.8189">yes</text><text fill="#000000" font-family="sans-serif" font-size="11" lengthAdjust="spacingAndGlyphs" textLength="12" x="285.75" y="123.8189">no</text><rect fill="#FEFECE" filter="url(#f176jb0qjgz75y)" height="34.4001" rx="12.5" ry="12.5" style="stroke: #A80036; stroke-width: 1.5;" width="175" x="54" y="148.7999"/><text fill="#000000" font-family="sans-serif" font-size="12" lengthAdjust="spacingAndGlyphs" textLength="155" x="64" y="169.948">Get closest key to interaction</text><rect fill="#FEFECE" filter="url(#f176jb0qjgz75y)" height="34.4001" style="stroke: #A80036; stroke-width: 1.5;" width="116" x="83.5" y="218.2"/><text fill="#000000" font-family="sans-serif" font-size="12" lengthAdjust="spacingAndGlyphs" textLength="96" x="93.5" y="239.3481">key = closest_key</text><rect fill="#FEFECE" filter="url(#f176jb0qjgz75y)" height="48.8002" rx="12.5" ry="12.5" style="stroke: #A80036; stroke-width: 1.5;" width="237" x="23" y="280.2001"/><text fill="#000000" font-family="sans-serif" font-size="12" lengthAdjust="spacingAndGlyphs" textLength="217" x="33" y="301.3482">Remember layout/view of last active key</text><text fill="#000000" font-family="sans-serif" font-size="12" lengthAdjust="spacingAndGlyphs" textLength="140" x="33" y="315.7483">Remember last active key</text><rect fill="#FEFECE" filter="url(#f176jb0qjgz75y)" height="34.4001" style="stroke: #A80036; stroke-width: 1.5;" width="128" x="280" y="148.7999"/><text fill="#000000" font-family="sans-serif" font-size="12" lengthAdjust="spacingAndGlyphs" textLength="108" x="290" y="169.948">key = last active key</text><polygon fill="#FEFECE" filter="url(#f176jb0qjgz75y)" points="242.75,335.0003,254.75,347.0003,242.75,359.0003,230.75,347.0003,242.75,335.0003" style="stroke: #A80036; stroke-width: 1.5;"/><rect fill="#FEFECE" filter="url(#f176jb0qjgz75y)" height="34.4001" rx="12.5" ry="12.5" style="stroke: #A80036; stroke-width: 1.5;" width="281" x="102.25" y="427.6003"/><text fill="#000000" font-family="sans-serif" font-size="12" lengthAdjust="spacingAndGlyphs" textLength="261" x="112.25" y="448.7484">Execute the keys actions for the input interaction</text><polygon fill="#FEFECE" filter="url(#f176jb0qjgz75y)" points="216.25,379.0003,269.25,379.0003,281.25,391.0003,269.25,403.0003,216.25,403.0003,204.25,391.0003,216.25,379.0003" style="stroke: #A80036; stroke-width: 1.5;"/><text fill="#000000" font-family="sans-serif" font-size="11" lengthAdjust="spacingAndGlyphs" textLength="38" x="246.75" y="413.2193">is some</text><text fill="#000000" font-family="sans-serif" font-size="11" lengthAdjust="spacingAndGlyphs" textLength="53" x="216.25" y="394.6193">Check key</text><text fill="#000000" font-family="sans-serif" font-size="11" lengthAdjust="spacingAndGlyphs" textLength="35" x="281.25" y="388.0194">is none</text><polygon fill="#FEFECE" filter="url(#f176jb0qjgz75y)" points="242.75,482.0004,254.75,494.0004,242.75,506.0004,230.75,494.0004,242.75,482.0004" style="stroke: #A80036; stroke-width: 1.5;"/><polygon fill="#FEFECE" filter="url(#f176jb0qjgz75y)" points="496.5,139.7999,529.5,139.7999,541.5,151.7999,529.5,163.7999,496.5,163.7999,484.5,151.7999,496.5,139.7999" style="stroke: #A80036; stroke-width: 1.5;"/><text fill="#000000" font-family="sans-serif" font-size="11" lengthAdjust="spacingAndGlyphs" textLength="18" x="517" y="174.0189">yes</text><text fill="#000000" font-family="sans-serif" font-size="11" lengthAdjust="spacingAndGlyphs" textLength="33" x="496.5" y="155.4189">Begin?</text><rect fill="#FEFECE" filter="url(#f176jb0qjgz75y)" height="63.2003" rx="12.5" ry="12.5" style="stroke: #A80036; stroke-width: 1.5;" width="128" x="449" y="196.9998"/><text fill="#000000" font-family="sans-serif" font-size="12" lengthAdjust="spacingAndGlyphs" textLength="108" x="459" y="218.1479">Tell UI to release all</text><text fill="#000000" font-family="sans-serif" font-size="12" lengthAdjust="spacingAndGlyphs" textLength="92" x="459" y="232.548">latched keys and</text><text fill="#000000" font-family="sans-serif" font-size="12" lengthAdjust="spacingAndGlyphs" textLength="96" x="459" y="246.9481">the last active key</text><rect fill="#FEFECE" filter="url(#f176jb0qjgz75y)" height="48.8002" rx="12.5" ry="12.5" style="stroke: #A80036; stroke-width: 1.5;" width="150" x="438" y="287.8001"/><text fill="#000000" font-family="sans-serif" font-size="12" lengthAdjust="spacingAndGlyphs" textLength="130" x="448" y="308.9482">Tell submitter to release</text><text fill="#000000" font-family="sans-serif" font-size="12" lengthAdjust="spacingAndGlyphs" textLength="118" x="448" y="323.3483">all keys and modifiers</text><polygon fill="#FEFECE" filter="url(#f176jb0qjgz75y)" points="642.5,139.7999,683.5,139.7999,695.5,151.7999,683.5,163.7999,642.5,163.7999,630.5,151.7999,642.5,139.7999" style="stroke: #A80036; stroke-width: 1.5;"/><text fill="#000000" font-family="sans-serif" font-size="11" lengthAdjust="spacingAndGlyphs" textLength="18" x="667" y="174.0189">yes</text><text fill="#000000" font-family="sans-serif" font-size="11" lengthAdjust="spacingAndGlyphs" textLength="41" x="642.5" y="155.4189">Update?</text><text fill="#000000" font-family="sans-serif" font-size="11" lengthAdjust="spacingAndGlyphs" textLength="29" x="695.5" y="148.8189">Finish</text><rect fill="#FEFECE" filter="url(#f176jb0qjgz75y)" height="63.2003" rx="12.5" ry="12.5" style="stroke: #A80036; stroke-width: 1.5;" width="130" x="598" y="196.9998"/><text fill="#000000" font-family="sans-serif" font-size="12" lengthAdjust="spacingAndGlyphs" textLength="110" x="608" y="218.1479">Notify the interpreter</text><text fill="#000000" font-family="sans-serif" font-size="12" lengthAdjust="spacingAndGlyphs" textLength="107" x="608" y="232.548">about the new point</text><text fill="#000000" font-family="sans-serif" font-size="12" lengthAdjust="spacingAndGlyphs" textLength="74" x="608" y="246.9481">of the gesture</text><rect fill="#FEFECE" filter="url(#f176jb0qjgz75y)" height="48.8002" rx="12.5" ry="12.5" style="stroke: #A80036; stroke-width: 1.5;" width="147" x="738" y="207.8"/><text fill="#000000" font-family="sans-serif" font-size="12" lengthAdjust="spacingAndGlyphs" textLength="126" x="748" y="228.9481">Get most likely word for</text><text fill="#000000" font-family="sans-serif" font-size="12" lengthAdjust="spacingAndGlyphs" textLength="127" x="748" y="243.3482">gesture from interpreter</text><rect fill="#FEFECE" filter="url(#f176jb0qjgz75y)" height="34.4001" rx="12.5" ry="12.5" style="stroke: #A80036; stroke-width: 1.5;" width="108" x="757.5" y="284.2002"/><text fill="#000000" font-family="sans-serif" font-size="12" lengthAdjust="spacingAndGlyphs" textLength="88" x="767.5" y="305.3483">Submit the word</text><polygon fill="#FEFECE" filter="url(#f176jb0qjgz75y)" points="457.125,512.0004,469.125,524.0004,457.125,536.0004,445.125,524.0004,457.125,512.0004" style="stroke: #A80036; stroke-width: 1.5;"/><ellipse cx="457.125" cy="567.0004" fill="#FFFFFF" filter="url(#f176jb0qjgz75y)" rx="11" ry="11" style="stroke: #000000; stroke-width: 1.0;"/><ellipse cx="457.125" cy="567.0004" fill="#000000" rx="6" ry="6" style="stroke: #7F7F7F; stroke-width: 1.0;"/><line style="stroke: #A80036; stroke-width: 1.5;" x1="141.5" x2="141.5" y1="183.2" y2="218.2"/><polygon fill="#A80036" points="137.5,208.2,141.5,218.2,145.5,208.2,141.5,212.2" style="stroke: #A80036; stroke-width: 1.0;"/><line style="stroke: #A80036; stroke-width: 1.5;" x1="141.5" x2="141.5" y1="252.6001" y2="280.2001"/><polygon fill="#A80036" points="137.5,270.2001,141.5,280.2001,145.5,270.2001,141.5,274.2001" style="stroke: #A80036; stroke-width: 1.0;"/><line style="stroke: #A80036; stroke-width: 1.5;" x1="199.75" x2="141.5" y1="126.7999" y2="126.7999"/><line style="stroke: #A80036; stroke-width: 1.5;" x1="141.5" x2="141.5" y1="126.7999" y2="148.7999"/><polygon fill="#A80036" points="137.5,138.7999,141.5,148.7999,145.5,138.7999,141.5,142.7999" style="stroke: #A80036; stroke-width: 1.0;"/><line style="stroke: #A80036; stroke-width: 1.5;" x1="285.75" x2="344" y1="126.7999" y2="126.7999"/><line style="stroke: #A80036; stroke-width: 1.5;" x1="344" x2="344" y1="126.7999" y2="148.7999"/><polygon fill="#A80036" points="340,138.7999,344,148.7999,348,138.7999,344,142.7999" style="stroke: #A80036; stroke-width: 1.0;"/><line style="stroke: #A80036; stroke-width: 1.5;" x1="141.5" x2="141.5" y1="329.0003" y2="347.0003"/><line style="stroke: #A80036; stroke-width: 1.5;" x1="141.5" x2="230.75" y1="347.0003" y2="347.0003"/><polygon fill="#A80036" points="220.75,343.0003,230.75,347.0003,220.75,351.0003,224.75,347.0003" style="stroke: #A80036; stroke-width: 1.0;"/><line style="stroke: #A80036; stroke-width: 1.5;" x1="344" x2="344" y1="183.2" y2="347.0003"/><line style="stroke: #A80036; stroke-width: 1.5;" x1="344" x2="254.75" y1="347.0003" y2="347.0003"/><polygon fill="#A80036" points="264.75,343.0003,254.75,347.0003,264.75,351.0003,260.75,347.0003" style="stroke: #A80036; stroke-width: 1.0;"/><line style="stroke: #A80036; stroke-width: 1.5;" x1="242.75" x2="242.75" y1="403.0003" y2="427.6003"/><polygon fill="#A80036" points="238.75,417.6003,242.75,427.6003,246.75,417.6003,242.75,421.6003" style="stroke: #A80036; stroke-width: 1.0;"/><line style="stroke: #A80036; stroke-width: 1.5;" x1="281.25" x2="393.25" y1="391.0003" y2="391.0003"/><polygon fill="#A80036" points="389.25,434.8003,393.25,444.8003,397.25,434.8003,393.25,438.8003" style="stroke: #A80036; stroke-width: 1.5;"/><line style="stroke: #A80036; stroke-width: 1.5;" x1="393.25" x2="393.25" y1="391.0003" y2="494.0004"/><line style="stroke: #A80036; stroke-width: 1.5;" x1="393.25" x2="254.75" y1="494.0004" y2="494.0004"/><polygon fill="#A80036" points="264.75,490.0004,254.75,494.0004,264.75,498.0004,260.75,494.0004" style="stroke: #A80036; stroke-width: 1.0;"/><line style="stroke: #A80036; stroke-width: 1.5;" x1="242.75" x2="242.75" y1="462.0004" y2="482.0004"/><polygon fill="#A80036" points="238.75,472.0004,242.75,482.0004,246.75,472.0004,242.75,476.0004" style="stroke: #A80036; stroke-width: 1.0;"/><line style="stroke: #A80036; stroke-width: 1.5;" x1="242.75" x2="242.75" y1="359.0003" y2="379.0003"/><polygon fill="#A80036" points="238.75,369.0003,242.75,379.0003,246.75,369.0003,242.75,373.0003" style="stroke: #A80036; stroke-width: 1.0;"/><line style="stroke: #A80036; stroke-width: 1.5;" x1="513" x2="513" y1="260.2001" y2="287.8001"/><polygon fill="#A80036" points="509,277.8001,513,287.8001,517,277.8001,513,281.8001" style="stroke: #A80036; stroke-width: 1.0;"/><line style="stroke: #A80036; stroke-width: 1.5;" x1="811.5" x2="811.5" y1="256.6002" y2="284.2002"/><polygon fill="#A80036" points="807.5,274.2002,811.5,284.2002,815.5,274.2002,811.5,278.2002" style="stroke: #A80036; stroke-width: 1.0;"/><line style="stroke: #A80036; stroke-width: 1.5;" x1="513" x2="513" y1="163.7999" y2="196.9998"/><polygon fill="#A80036" points="509,186.9998,513,196.9998,517,186.9998,513,190.9998" style="stroke: #A80036; stroke-width: 1.0;"/><line style="stroke: #A80036; stroke-width: 1.5;" x1="513" x2="513" y1="336.6003" y2="396.6003"/><polygon fill="#A80036" points="509,386.6003,513,396.6003,517,386.6003,513,390.6003" style="stroke: #A80036; stroke-width: 1.0;"/><line style="stroke: #A80036; stroke-width: 1.5;" x1="663" x2="663" y1="163.7999" y2="196.9998"/><polygon fill="#A80036" points="659,186.9998,663,196.9998,667,186.9998,663,190.9998" style="stroke: #A80036; stroke-width: 1.0;"/><line style="stroke: #A80036; stroke-width: 1.5;" x1="663" x2="663" y1="260.2001" y2="396.6003"/><polygon fill="#A80036" points="659,386.6003,663,396.6003,667,386.6003,663,390.6003" style="stroke: #A80036; stroke-width: 1.0;"/><line style="stroke: #A80036; stroke-width: 1.5;" x1="541.5" x2="630.5" y1="151.7999" y2="151.7999"/><polygon fill="#A80036" points="620.5,147.7999,630.5,151.7999,620.5,155.7999,624.5,151.7999" style="stroke: #A80036; stroke-width: 1.0;"/><line style="stroke: #A80036; stroke-width: 1.5;" x1="510.625" x2="513" y1="92.7999" y2="92.7999"/><line style="stroke: #A80036; stroke-width: 1.5;" x1="513" x2="513" y1="92.7999" y2="139.7999"/><polygon fill="#A80036" points="509,129.7999,513,139.7999,517,129.7999,513,133.7999" style="stroke: #A80036; stroke-width: 1.0;"/><line style="stroke: #A80036; stroke-width: 1.5;" x1="695.5" x2="811.5" y1="151.7999" y2="151.7999"/><line style="stroke: #A80036; stroke-width: 1.5;" x1="811.5" x2="811.5" y1="151.7999" y2="207.8"/><polygon fill="#A80036" points="807.5,197.8,811.5,207.8,815.5,197.8,811.5,201.8" style="stroke: #A80036; stroke-width: 1.0;"/><line style="stroke: #A80036; stroke-width: 1.5;" x1="811.5" x2="811.5" y1="318.6003" y2="396.6003"/><polygon fill="#A80036" points="807.5,386.6003,811.5,396.6003,815.5,386.6003,811.5,390.6003" style="stroke: #A80036; stroke-width: 1.0;"/><line style="stroke: #A80036; stroke-width: 1.5;" x1="513" x2="811.5" y1="396.6003" y2="396.6003"/><line style="stroke: #A80036; stroke-width: 1.5;" x1="403.625" x2="242.75" y1="92.7999" y2="92.7999"/><line style="stroke: #A80036; stroke-width: 1.5;" x1="242.75" x2="242.75" y1="92.7999" y2="114.7999"/><polygon fill="#A80036" points="238.75,104.7999,242.75,114.7999,246.75,104.7999,242.75,108.7999" style="stroke: #A80036; stroke-width: 1.0;"/><line style="stroke: #A80036; stroke-width: 1.5;" x1="242.75" x2="242.75" y1="506.0004" y2="524.0004"/><line style="stroke: #A80036; stroke-width: 1.5;" x1="242.75" x2="445.125" y1="524.0004" y2="524.0004"/><polygon fill="#A80036" points="435.125,520.0004,445.125,524.0004,435.125,528.0004,439.125,524.0004" style="stroke: #A80036; stroke-width: 1.0;"/><line style="stroke: #A80036; stroke-width: 1.5;" x1="661.5" x2="661.5" y1="396.6003" y2="524.0004"/><line style="stroke: #A80036; stroke-width: 1.5;" x1="661.5" x2="469.125" y1="524.0004" y2="524.0004"/><polygon fill="#A80036" points="479.125,520.0004,469.125,524.0004,479.125,528.0004,475.125,524.0004" style="stroke: #A80036; stroke-width: 1.0;"/><line style="stroke: #A80036; stroke-width: 1.5;" x1="457.125" x2="457.125" y1="60.7999" y2="80.7999"/><polygon fill="#A80036" points="453.125,70.7999,457.125,80.7999,461.125,70.7999,457.125,74.7999" style="stroke: #A80036; stroke-width: 1.0;"/><line style="stroke: #A80036; stroke-width: 1.5;" x1="457.125" x2="457.125" y1="536.0004" y2="556.0004"/><polygon fill="#A80036" points="453.125,546.0004,457.125,556.0004,461.125,546.0004,457.125,550.0004" style="stroke: #A80036; stroke-width: 1.0;"/><!--MD5=[46060d5e4ba9cd1870a77ecbe64d2e4a]
@startuml keyboard_input

partition "keyboard_input"{

  start
  if (check interaction) then (tap)
    if(short press?) then (yes)
      :Get closest key to interaction;
      :key = closest_key]
      :Remember layout/view of last active key
      Remember last active key;
    else (no)
      :key = last active key]
    endif
    if (Check key) then (is some)
      :Execute the keys actions for the input interaction;
    else (is none)
    endif
  else (swipe)
    if (Begin?) then (yes)
      :Tell UI to release all
      latched keys and
      the last active key;
      :Tell submitter to release
      all keys and modifiers;
    elseif (Update?) then (yes)
      :Notify the interpreter
      about the new point
      of the gesture;
    else (Finish)
      :Get most likely word for
      gesture from interpreter;
      :Submit the word;
    endif
  endif
  stop
}
@enduml

PlantUML version 1.2020.15(Sun Jun 28 13:39:45 CEST 2020)
(MIT source distribution)
Java Runtime: OpenJDK Runtime Environment
JVM: OpenJDK 64-Bit Server VM
Default Encoding: UTF-8
Language: en
Country: US
--></g></svg>