<?xml version="1.0" encoding="UTF-8" standalone="no"?><svg xmlns="http://www.w3.org/2000/svg" xmlns:xlink="http://www.w3.org/1999/xlink" contentScriptType="application/ecmascript" contentStyleType="text/css" height="1579px" preserveAspectRatio="none" style="width:660px;height:1579px;" version="1.1" viewBox="0 0 660 1579" width="660px" zoomAndPan="magnify"><defs><filter height="300%" id="f1f7j4whe0mkbe" width="300%" x="-1" y="-1"><feGaussianBlur result="blurOut" stdDeviation="2.0"/><feColorMatrix in="blurOut" result="blurOut2" type="matrix" values="0 0 0 0 0 0 0 0 0 0 0 0 0 0 0 0 0 0 .4 0"/><feOffset dx="4.0" dy="4.0" in="blurOut2" result="blurOut3"/><feBlend in="SourceGraphic" in2="blurOut3" mode="normal"/></filter></defs><g><rect fill="#FFFFFF" filter="url(#f1f7j4whe0mkbe)" height="1551.5204" style="stroke: #000000; stroke-width: 2.0;" width="632" x="11" y="11"/><path d="M219,12 L219,20.7999 L209,30.7999 L11,30.7999 " fill="none" style="stroke: #000000; stroke-width: 2.0;"/><text fill="#000000" font-family="sans-serif" font-size="14" lengthAdjust="spacingAndGlyphs" textLength="198" x="14" y="25.0059">keyboard_execute_tap_actions</text><ellipse cx="322" cy="50.7999" fill="#000000" filter="url(#f1f7j4whe0mkbe)" rx="10" ry="10" style="stroke: none; stroke-width: 1.0;"/><rect fill="#FEFECE" filter="url(#f1f7j4whe0mkbe)" height="48.8002" rx="12.5" ry="12.5" style="stroke: #A80036; stroke-width: 1.5;" width="191" x="226.5" y="80.7999"/><text fill="#000000" font-family="sans-serif" font-size="12" lengthAdjust="spacingAndGlyphs" textLength="171" x="236.5" y="101.948">If the last switch was temporary,</text><text fill="#000000" font-family="sans-serif" font-size="12" lengthAdjust="spacingAndGlyphs" textLength="162" x="236.5" y="116.3481">switch back to previous layout</text><rect fill="#FEFECE" filter="url(#f1f7j4whe0mkbe)" height="34.4001" rx="12.5" ry="12.5" style="stroke: #A80036; stroke-width: 1.5;" width="233" x="343" y="321.919"/><text fill="#000000" font-family="sans-serif" font-size="12" lengthAdjust="spacingAndGlyphs" textLength="213" x="353" y="343.0671">Tell UI to display the press of the button</text><polygon fill="#FEFECE" filter="url(#f1f7j4whe0mkbe)" points="262.5,297.919,296.5,297.919,308.5,309.919,296.5,321.919,262.5,321.919,250.5,309.919,262.5,297.919" style="stroke: #A80036; stroke-width: 1.5;"/><text fill="#000000" font-family="sans-serif" font-size="11" lengthAdjust="spacingAndGlyphs" textLength="34" x="262.5" y="313.538">press?</text><text fill="#000000" font-family="sans-serif" font-size="11" lengthAdjust="spacingAndGlyphs" textLength="18" x="308.5" y="306.938">yes</text><polygon fill="#FEFECE" filter="url(#f1f7j4whe0mkbe)" points="228,376.3191,331,376.3191,343,388.3191,331,400.3191,228,400.3191,216,388.3191,228,376.3191" style="stroke: #A80036; stroke-width: 1.5;"/><text fill="#000000" font-family="sans-serif" font-size="11" lengthAdjust="spacingAndGlyphs" textLength="12" x="283.5" y="410.538">no</text><text fill="#000000" font-family="sans-serif" font-size="11" lengthAdjust="spacingAndGlyphs" textLength="103" x="228" y="391.9381">key in latched_keys?</text><text fill="#000000" font-family="sans-serif" font-size="11" lengthAdjust="spacingAndGlyphs" textLength="18" x="343" y="385.3381">yes</text><rect fill="#FEFECE" filter="url(#f1f7j4whe0mkbe)" height="34.4001" rx="12.5" ry="12.5" style="stroke: #A80036; stroke-width: 1.5;" width="244" x="274" y="420.3191"/><text fill="#000000" font-family="sans-serif" font-size="12" lengthAdjust="spacingAndGlyphs" textLength="224" x="284" y="441.4672">Tell UI to display the release of the button</text><polygon fill="#FEFECE" filter="url(#f1f7j4whe0mkbe)" points="396,474.7192,408,486.7192,396,498.7192,384,486.7192,396,474.7192" style="stroke: #A80036; stroke-width: 1.5;"/><rect fill="#FEFECE" filter="url(#f1f7j4whe0mkbe)" height="34.4001" rx="12.5" ry="12.5" style="stroke: #A80036; stroke-width: 1.5;" width="107" x="342.5" y="542.7192"/><text fill="#000000" font-family="sans-serif" font-size="12" lengthAdjust="spacingAndGlyphs" textLength="87" x="352.5" y="563.8673">Submit keycode</text><rect fill="#FEFECE" filter="url(#f1f7j4whe0mkbe)" height="34.4001" rx="12.5" ry="12.5" style="stroke: #A80036; stroke-width: 1.5;" width="107" x="342.5" y="621.1193"/><text fill="#000000" font-family="sans-serif" font-size="12" lengthAdjust="spacingAndGlyphs" textLength="87" x="352.5" y="642.2674">Submit keycode</text><rect fill="#FEFECE" filter="url(#f1f7j4whe0mkbe)" height="34.4001" rx="12.5" ry="12.5" style="stroke: #A80036; stroke-width: 1.5;" width="107" x="342.5" y="699.5194"/><text fill="#000000" font-family="sans-serif" font-size="12" lengthAdjust="spacingAndGlyphs" textLength="87" x="352.5" y="720.6675">Toggle keycode</text><rect fill="#FEFECE" filter="url(#f1f7j4whe0mkbe)" height="34.4001" rx="12.5" ry="12.5" style="stroke: #A80036; stroke-width: 1.5;" width="233" x="279.5" y="777.9195"/><text fill="#000000" font-family="sans-serif" font-size="12" lengthAdjust="spacingAndGlyphs" textLength="213" x="289.5" y="799.0676">Send text of the button to the interpreter</text><rect fill="#FEFECE" filter="url(#f1f7j4whe0mkbe)" height="34.4001" style="stroke: #A80036; stroke-width: 1.5;" width="139" x="326.5" y="847.3196"/><text fill="#000000" font-family="sans-serif" font-size="12" lengthAdjust="spacingAndGlyphs" textLength="119" x="336.5" y="868.4677">Vector of submissions</text><rect fill="#FEFECE" filter="url(#f1f7j4whe0mkbe)" height="34.4001" rx="12.5" ry="12.5" style="stroke: #A80036; stroke-width: 1.5;" width="227" x="282.5" y="901.7197"/><text fill="#000000" font-family="sans-serif" font-size="12" lengthAdjust="spacingAndGlyphs" textLength="207" x="292.5" y="922.8678">Submit all of the returned submissions</text><polygon fill="#FEFECE" filter="url(#f1f7j4whe0mkbe)" points="364.5,980.1198,446.5,980.1198,458.5,992.1198,446.5,1004.1198,364.5,1004.1198,352.5,992.1198,364.5,980.1198" style="stroke: #A80036; stroke-width: 1.5;"/><text fill="#000000" font-family="sans-serif" font-size="11" lengthAdjust="spacingAndGlyphs" textLength="82" x="364.5" y="995.7388">modifier latched?</text><text fill="#000000" font-family="sans-serif" font-size="11" lengthAdjust="spacingAndGlyphs" textLength="18" x="334.5" y="989.1388">yes</text><text fill="#000000" font-family="sans-serif" font-size="11" lengthAdjust="spacingAndGlyphs" textLength="12" x="458.5" y="989.1388">no</text><rect fill="#FEFECE" filter="url(#f1f7j4whe0mkbe)" height="34.4001" rx="12.5" ry="12.5" style="stroke: #A80036; stroke-width: 1.5;" width="208" x="197" y="1014.1198"/><text fill="#000000" font-family="sans-serif" font-size="12" lengthAdjust="spacingAndGlyphs" textLength="188" x="207" y="1035.2679">Remove this key from latched keys</text><rect fill="#FEFECE" filter="url(#f1f7j4whe0mkbe)" height="34.4001" rx="12.5" ry="12.5" style="stroke: #A80036; stroke-width: 1.5;" width="170" x="425" y="1014.1198"/><text fill="#000000" font-family="sans-serif" font-size="12" lengthAdjust="spacingAndGlyphs" textLength="150" x="435" y="1035.2679">Add this key to latched keys</text><polygon fill="#FEFECE" filter="url(#f1f7j4whe0mkbe)" points="405.5,1054.5199,417.5,1066.5199,405.5,1078.5199,393.5,1066.5199,405.5,1054.5199" style="stroke: #A80036; stroke-width: 1.5;"/><rect fill="#FEFECE" filter="url(#f1f7j4whe0mkbe)" height="34.4001" rx="12.5" ry="12.5" style="stroke: #A80036; stroke-width: 1.5;" width="105" x="353" y="1098.5199"/><text fill="#000000" font-family="sans-serif" font-size="12" lengthAdjust="spacingAndGlyphs" textLength="85" x="363" y="1119.668">Submit modifier</text><rect fill="#FEFECE" filter="url(#f1f7j4whe0mkbe)" height="34.4001" rx="12.5" ry="12.5" style="stroke: #A80036; stroke-width: 1.5;" width="92" x="350" y="1176.92"/><text fill="#000000" font-family="sans-serif" font-size="12" lengthAdjust="spacingAndGlyphs" textLength="72" x="360" y="1198.0681">Submit erase</text><rect fill="#FEFECE" filter="url(#f1f7j4whe0mkbe)" height="34.4001" rx="12.5" ry="12.5" style="stroke: #A80036; stroke-width: 1.5;" width="157" x="317.5" y="1255.3201"/><text fill="#000000" font-family="sans-serif" font-size="12" lengthAdjust="spacingAndGlyphs" textLength="137" x="327.5" y="1276.4682">Tell UI to open the popup</text><polygon fill="#FEFECE" filter="url(#f1f7j4whe0mkbe)" points="51,253.919,175,253.919,187,265.919,175,277.919,51,277.919,39,265.919,51,253.919" style="stroke: #A80036; stroke-width: 1.5;"/><text fill="#000000" font-family="sans-serif" font-size="11" lengthAdjust="spacingAndGlyphs" textLength="124" x="51" y="269.538">FeedbackPressRelease?</text><text fill="#000000" font-family="sans-serif" font-size="11" lengthAdjust="spacingAndGlyphs" textLength="18" x="187" y="262.938">yes</text><polygon fill="#FEFECE" filter="url(#f1f7j4whe0mkbe)" points="75.5,518.7192,150.5,518.7192,162.5,530.7192,150.5,542.7192,75.5,542.7192,63.5,530.7192,75.5,518.7192" style="stroke: #A80036; stroke-width: 1.5;"/><text fill="#000000" font-family="sans-serif" font-size="11" lengthAdjust="spacingAndGlyphs" textLength="75" x="75.5" y="534.3382">EnterKeycode?</text><text fill="#000000" font-family="sans-serif" font-size="11" lengthAdjust="spacingAndGlyphs" textLength="18" x="162.5" y="527.7382">yes</text><polygon fill="#FEFECE" filter="url(#f1f7j4whe0mkbe)" points="75.5,597.1193,150.5,597.1193,162.5,609.1193,150.5,621.1193,75.5,621.1193,63.5,609.1193,75.5,597.1193" style="stroke: #A80036; stroke-width: 1.5;"/><text fill="#000000" font-family="sans-serif" font-size="11" lengthAdjust="spacingAndGlyphs" textLength="75" x="75.5" y="612.7383">EnterKeycode?</text><text fill="#000000" font-family="sans-serif" font-size="11" lengthAdjust="spacingAndGlyphs" textLength="18" x="162.5" y="606.1383">yes</text><polygon fill="#FEFECE" filter="url(#f1f7j4whe0mkbe)" points="72,675.5194,154,675.5194,166,687.5194,154,699.5194,72,699.5194,60,687.5194,72,675.5194" style="stroke: #A80036; stroke-width: 1.5;"/><text fill="#000000" font-family="sans-serif" font-size="11" lengthAdjust="spacingAndGlyphs" textLength="82" x="72" y="691.1384">ToggleKeycode?</text><text fill="#000000" font-family="sans-serif" font-size="11" lengthAdjust="spacingAndGlyphs" textLength="18" x="166" y="684.5384">yes</text><polygon fill="#FEFECE" filter="url(#f1f7j4whe0mkbe)" points="83,753.9195,143,753.9195,155,765.9195,143,777.9195,83,777.9195,71,765.9195,83,753.9195" style="stroke: #A80036; stroke-width: 1.5;"/><text fill="#000000" font-family="sans-serif" font-size="11" lengthAdjust="spacingAndGlyphs" textLength="60" x="83" y="769.5385">EnterString?</text><text fill="#000000" font-family="sans-serif" font-size="11" lengthAdjust="spacingAndGlyphs" textLength="18" x="155" y="762.9385">yes</text><polygon fill="#FEFECE" filter="url(#f1f7j4whe0mkbe)" points="91,956.1198,135,956.1198,147,968.1198,135,980.1198,91,980.1198,79,968.1198,91,956.1198" style="stroke: #A80036; stroke-width: 1.5;"/><text fill="#000000" font-family="sans-serif" font-size="11" lengthAdjust="spacingAndGlyphs" textLength="44" x="91" y="971.7388">Modifier?</text><text fill="#000000" font-family="sans-serif" font-size="11" lengthAdjust="spacingAndGlyphs" textLength="18" x="147" y="965.1388">yes</text><polygon fill="#FEFECE" filter="url(#f1f7j4whe0mkbe)" points="95.5,1152.92,130.5,1152.92,142.5,1164.92,130.5,1176.92,95.5,1176.92,83.5,1164.92,95.5,1152.92" style="stroke: #A80036; stroke-width: 1.5;"/><text fill="#000000" font-family="sans-serif" font-size="11" lengthAdjust="spacingAndGlyphs" textLength="35" x="95.5" y="1168.539">Erase?</text><text fill="#000000" font-family="sans-serif" font-size="11" lengthAdjust="spacingAndGlyphs" textLength="18" x="142.5" y="1161.939">yes</text><polygon fill="#FEFECE" filter="url(#f1f7j4whe0mkbe)" points="81,1231.3201,145,1231.3201,157,1243.3201,145,1255.3201,81,1255.3201,69,1243.3201,81,1231.3201" style="stroke: #A80036; stroke-width: 1.5;"/><text fill="#000000" font-family="sans-serif" font-size="11" lengthAdjust="spacingAndGlyphs" textLength="88" x="117" y="1265.539">switch layout/view</text><text fill="#000000" font-family="sans-serif" font-size="11" lengthAdjust="spacingAndGlyphs" textLength="64" x="81" y="1246.9391">OpenPopup?</text><text fill="#000000" font-family="sans-serif" font-size="11" lengthAdjust="spacingAndGlyphs" textLength="18" x="157" y="1240.3391">yes</text><rect fill="#FEFECE" filter="url(#f1f7j4whe0mkbe)" height="34.4001" rx="12.5" ry="12.5" style="stroke: #A80036; stroke-width: 1.5;" width="390" x="127" y="1309.7202"/><text fill="#000000" font-family="sans-serif" font-size="12" lengthAdjust="spacingAndGlyphs" textLength="370" x="137" y="1330.8683">If the switch is temporary, remember the active view to switch back to</text><rect fill="#FEFECE" filter="url(#f1f7j4whe0mkbe)" height="34.4001" rx="12.5" ry="12.5" style="stroke: #A80036; stroke-width: 1.5;" width="141" x="251.5" y="1364.1203"/><text fill="#000000" font-family="sans-serif" font-size="12" lengthAdjust="spacingAndGlyphs" textLength="121" x="261.5" y="1385.2684">Tell UI to switch layout</text><polygon fill="#FEFECE" filter="url(#f1f7j4whe0mkbe)" points="322,1418.5204,334,1430.5204,322,1442.5204,310,1430.5204,322,1418.5204" style="stroke: #A80036; stroke-width: 1.5;"/><polygon fill="#FEFECE" filter="url(#f1f7j4whe0mkbe)" points="272.5,198.2001,371.5,198.2001,383.5,210.2001,371.5,222.2001,272.5,222.2001,260.5,210.2001,272.5,198.2001" style="stroke: #A80036; stroke-width: 1.5;"/><text fill="#000000" font-family="sans-serif" font-size="11" lengthAdjust="spacingAndGlyphs" textLength="21" x="326" y="232.419">next</text><text fill="#000000" font-family="sans-serif" font-size="11" lengthAdjust="spacingAndGlyphs" textLength="99" x="272.5" y="213.8191">for action to execute</text><text fill="#000000" font-family="sans-serif" font-size="11" lengthAdjust="spacingAndGlyphs" textLength="18" x="242.5" y="207.2191">end</text><polygon fill="#FEFECE" filter="url(#f1f7j4whe0mkbe)" points="322,149.6001,322,149.6001,334,161.6001,322,173.6001,322,173.6001,310,161.6001,322,149.6001" style="stroke: #A80036; stroke-width: 1.5;"/><text fill="#000000" font-family="sans-serif" font-size="11" lengthAdjust="spacingAndGlyphs" textLength="35" x="326" y="183.8191">actions</text><text fill="#000000" font-family="sans-serif" font-size="11" lengthAdjust="spacingAndGlyphs" textLength="50" x="334" y="158.6192">no actions</text><polygon fill="#FEFECE" filter="url(#f1f7j4whe0mkbe)" points="322,1484.5204,334,1496.5204,322,1508.5204,310,1496.5204,322,1484.5204" style="stroke: #A80036; stroke-width: 1.5;"/><ellipse cx="322" cy="1539.5204" fill="#FFFFFF" filter="url(#f1f7j4whe0mkbe)" rx="11" ry="11" style="stroke: #000000; stroke-width: 1.0;"/><ellipse cx="322" cy="1539.5204" fill="#000000" rx="6" ry="6" style="stroke: #7F7F7F; stroke-width: 1.0;"/><line style="stroke: #A80036; stroke-width: 1.5;" x1="322" x2="322" y1="60.7999" y2="80.7999"/><polygon fill="#A80036" points="318,70.7999,322,80.7999,326,70.7999,322,74.7999" style="stroke: #A80036; stroke-width: 1.0;"/><line style="stroke: #A80036; stroke-width: 1.5;" x1="308.5" x2="459.5" y1="309.919" y2="309.919"/><line style="stroke: #A80036; stroke-width: 1.5;" x1="459.5" x2="459.5" y1="309.919" y2="321.919"/><polygon fill="#A80036" points="455.5,311.919,459.5,321.919,463.5,311.919,459.5,315.919" style="stroke: #A80036; stroke-width: 1.0;"/><line style="stroke: #A80036; stroke-width: 1.5;" x1="343" x2="459.5" y1="388.3191" y2="388.3191"/><line style="stroke: #A80036; stroke-width: 1.5;" x1="459.5" x2="459.5" y1="388.3191" y2="415.3191"/><line style="stroke: #A80036; stroke-width: 1.5;" x1="459.5" x2="576" y1="415.3191" y2="415.3191"/><polygon fill="#A80036" points="566,411.3191,576,415.3191,566,419.3191,570,415.3191" style="stroke: #A80036; stroke-width: 1.0;"/><line style="stroke: #A80036; stroke-width: 1.5;" x1="279.5" x2="279.5" y1="321.919" y2="376.3191"/><polygon fill="#A80036" points="275.5,366.3191,279.5,376.3191,283.5,366.3191,279.5,370.3191" style="stroke: #A80036; stroke-width: 1.0;"/><line style="stroke: #A80036; stroke-width: 1.5;" x1="459.5" x2="459.5" y1="356.3191" y2="371.3191"/><line style="stroke: #A80036; stroke-width: 1.5;" x1="459.5" x2="576" y1="371.3191" y2="371.3191"/><line style="stroke: #A80036; stroke-width: 1.5;" x1="576" x2="576" y1="371.3191" y2="486.7192"/><line style="stroke: #A80036; stroke-width: 1.5;" x1="576" x2="408" y1="486.7192" y2="486.7192"/><polygon fill="#A80036" points="418,482.7192,408,486.7192,418,490.7192,414,486.7192" style="stroke: #A80036; stroke-width: 1.0;"/><line style="stroke: #A80036; stroke-width: 1.5;" x1="187" x2="279.5" y1="265.919" y2="265.919"/><line style="stroke: #A80036; stroke-width: 1.5;" x1="279.5" x2="279.5" y1="265.919" y2="297.919"/><polygon fill="#A80036" points="275.5,287.919,279.5,297.919,283.5,287.919,279.5,291.919" style="stroke: #A80036; stroke-width: 1.0;"/><line style="stroke: #A80036; stroke-width: 1.5;" x1="279.5" x2="279.5" y1="400.3191" y2="405.3191"/><line style="stroke: #A80036; stroke-width: 1.5;" x1="279.5" x2="396" y1="405.3191" y2="405.3191"/><line style="stroke: #A80036; stroke-width: 1.5;" x1="396" x2="396" y1="405.3191" y2="420.3191"/><polygon fill="#A80036" points="392,410.3191,396,420.3191,400,410.3191,396,414.3191" style="stroke: #A80036; stroke-width: 1.0;"/><line style="stroke: #A80036; stroke-width: 1.5;" x1="396" x2="396" y1="454.7192" y2="459.7192"/><line style="stroke: #A80036; stroke-width: 1.5;" x1="396" x2="396" y1="459.7192" y2="474.7192"/><polygon fill="#A80036" points="392,464.7192,396,474.7192,400,464.7192,396,468.7192" style="stroke: #A80036; stroke-width: 1.0;"/><line style="stroke: #A80036; stroke-width: 1.5;" x1="396" x2="396" y1="812.3196" y2="847.3196"/><polygon fill="#A80036" points="392,837.3196,396,847.3196,400,837.3196,396,841.3196" style="stroke: #A80036; stroke-width: 1.0;"/><line style="stroke: #A80036; stroke-width: 1.5;" x1="396" x2="396" y1="881.7197" y2="901.7197"/><polygon fill="#A80036" points="392,891.7197,396,901.7197,400,891.7197,396,895.7197" style="stroke: #A80036; stroke-width: 1.0;"/><line style="stroke: #A80036; stroke-width: 1.5;" x1="352.5" x2="301" y1="992.1198" y2="992.1198"/><line style="stroke: #A80036; stroke-width: 1.5;" x1="301" x2="301" y1="992.1198" y2="1014.1198"/><polygon fill="#A80036" points="297,1004.1198,301,1014.1198,305,1004.1198,301,1008.1198" style="stroke: #A80036; stroke-width: 1.0;"/><line style="stroke: #A80036; stroke-width: 1.5;" x1="458.5" x2="510" y1="992.1198" y2="992.1198"/><line style="stroke: #A80036; stroke-width: 1.5;" x1="510" x2="510" y1="992.1198" y2="1014.1198"/><polygon fill="#A80036" points="506,1004.1198,510,1014.1198,514,1004.1198,510,1008.1198" style="stroke: #A80036; stroke-width: 1.0;"/><line style="stroke: #A80036; stroke-width: 1.5;" x1="301" x2="301" y1="1048.5199" y2="1066.5199"/><line style="stroke: #A80036; stroke-width: 1.5;" x1="301" x2="393.5" y1="1066.5199" y2="1066.5199"/><polygon fill="#A80036" points="383.5,1062.5199,393.5,1066.5199,383.5,1070.5199,387.5,1066.5199" style="stroke: #A80036; stroke-width: 1.0;"/><line style="stroke: #A80036; stroke-width: 1.5;" x1="510" x2="510" y1="1048.5199" y2="1066.5199"/><line style="stroke: #A80036; stroke-width: 1.5;" x1="510" x2="417.5" y1="1066.5199" y2="1066.5199"/><polygon fill="#A80036" points="427.5,1062.5199,417.5,1066.5199,427.5,1070.5199,423.5,1066.5199" style="stroke: #A80036; stroke-width: 1.0;"/><line style="stroke: #A80036; stroke-width: 1.5;" x1="405.5" x2="405.5" y1="1078.5199" y2="1098.5199"/><polygon fill="#A80036" points="401.5,1088.5199,405.5,1098.5199,409.5,1088.5199,405.5,1092.5199" style="stroke: #A80036; stroke-width: 1.0;"/><line style="stroke: #A80036; stroke-width: 1.5;" x1="322" x2="322" y1="1344.1203" y2="1364.1203"/><polygon fill="#A80036" points="318,1354.1203,322,1364.1203,326,1354.1203,322,1358.1203" style="stroke: #A80036; stroke-width: 1.0;"/><line style="stroke: #A80036; stroke-width: 1.5;" x1="162.5" x2="396" y1="530.7192" y2="530.7192"/><line style="stroke: #A80036; stroke-width: 1.5;" x1="396" x2="396" y1="530.7192" y2="542.7192"/><polygon fill="#A80036" points="392,532.7192,396,542.7192,400,532.7192,396,536.7192" style="stroke: #A80036; stroke-width: 1.0;"/><line style="stroke: #A80036; stroke-width: 1.5;" x1="162.5" x2="396" y1="609.1193" y2="609.1193"/><line style="stroke: #A80036; stroke-width: 1.5;" x1="396" x2="396" y1="609.1193" y2="621.1193"/><polygon fill="#A80036" points="392,611.1193,396,621.1193,400,611.1193,396,615.1193" style="stroke: #A80036; stroke-width: 1.0;"/><line style="stroke: #A80036; stroke-width: 1.5;" x1="166" x2="396" y1="687.5194" y2="687.5194"/><line style="stroke: #A80036; stroke-width: 1.5;" x1="396" x2="396" y1="687.5194" y2="699.5194"/><polygon fill="#A80036" points="392,689.5194,396,699.5194,400,689.5194,396,693.5194" style="stroke: #A80036; stroke-width: 1.0;"/><line style="stroke: #A80036; stroke-width: 1.5;" x1="155" x2="396" y1="765.9195" y2="765.9195"/><line style="stroke: #A80036; stroke-width: 1.5;" x1="396" x2="396" y1="765.9195" y2="777.9195"/><polygon fill="#A80036" points="392,767.9195,396,777.9195,400,767.9195,396,771.9195" style="stroke: #A80036; stroke-width: 1.0;"/><line style="stroke: #A80036; stroke-width: 1.5;" x1="147" x2="405.5" y1="968.1198" y2="968.1198"/><line style="stroke: #A80036; stroke-width: 1.5;" x1="405.5" x2="405.5" y1="968.1198" y2="980.1198"/><polygon fill="#A80036" points="401.5,970.1198,405.5,980.1198,409.5,970.1198,405.5,974.1198" style="stroke: #A80036; stroke-width: 1.0;"/><line style="stroke: #A80036; stroke-width: 1.5;" x1="142.5" x2="396" y1="1164.92" y2="1164.92"/><line style="stroke: #A80036; stroke-width: 1.5;" x1="396" x2="396" y1="1164.92" y2="1176.92"/><polygon fill="#A80036" points="392,1166.92,396,1176.92,400,1166.92,396,1170.92" style="stroke: #A80036; stroke-width: 1.0;"/><line style="stroke: #A80036; stroke-width: 1.5;" x1="157" x2="396" y1="1243.3201" y2="1243.3201"/><line style="stroke: #A80036; stroke-width: 1.5;" x1="396" x2="396" y1="1243.3201" y2="1255.3201"/><polygon fill="#A80036" points="392,1245.3201,396,1255.3201,400,1245.3201,396,1249.3201" style="stroke: #A80036; stroke-width: 1.0;"/><line style="stroke: #A80036; stroke-width: 1.5;" x1="113" x2="113" y1="277.919" y2="518.7192"/><polygon fill="#A80036" points="109,508.7192,113,518.7192,117,508.7192,113,512.7192" style="stroke: #A80036; stroke-width: 1.0;"/><line style="stroke: #A80036; stroke-width: 1.5;" x1="113" x2="113" y1="542.7192" y2="597.1193"/><polygon fill="#A80036" points="109,587.1193,113,597.1193,117,587.1193,113,591.1193" style="stroke: #A80036; stroke-width: 1.0;"/><line style="stroke: #A80036; stroke-width: 1.5;" x1="113" x2="113" y1="621.1193" y2="675.5194"/><polygon fill="#A80036" points="109,665.5194,113,675.5194,117,665.5194,113,669.5194" style="stroke: #A80036; stroke-width: 1.0;"/><line style="stroke: #A80036; stroke-width: 1.5;" x1="113" x2="113" y1="699.5194" y2="753.9195"/><polygon fill="#A80036" points="109,743.9195,113,753.9195,117,743.9195,113,747.9195" style="stroke: #A80036; stroke-width: 1.0;"/><line style="stroke: #A80036; stroke-width: 1.5;" x1="113" x2="113" y1="777.9195" y2="956.1198"/><polygon fill="#A80036" points="109,946.1198,113,956.1198,117,946.1198,113,950.1198" style="stroke: #A80036; stroke-width: 1.0;"/><line style="stroke: #A80036; stroke-width: 1.5;" x1="113" x2="113" y1="980.1198" y2="1152.92"/><polygon fill="#A80036" points="109,1142.92,113,1152.92,117,1142.92,113,1146.92" style="stroke: #A80036; stroke-width: 1.0;"/><line style="stroke: #A80036; stroke-width: 1.5;" x1="113" x2="113" y1="1176.92" y2="1231.3201"/><polygon fill="#A80036" points="109,1221.3201,113,1231.3201,117,1221.3201,113,1225.3201" style="stroke: #A80036; stroke-width: 1.0;"/><line style="stroke: #A80036; stroke-width: 1.5;" x1="396" x2="396" y1="498.7192" y2="513.7192"/><line style="stroke: #A80036; stroke-width: 1.5;" x1="396" x2="605" y1="513.7192" y2="513.7192"/><line style="stroke: #A80036; stroke-width: 1.5;" x1="605" x2="605" y1="513.7192" y2="1430.5204"/><line style="stroke: #A80036; stroke-width: 1.5;" x1="605" x2="334" y1="1430.5204" y2="1430.5204"/><polygon fill="#A80036" points="344,1426.5204,334,1430.5204,344,1434.5204,340,1430.5204" style="stroke: #A80036; stroke-width: 1.0;"/><line style="stroke: #A80036; stroke-width: 1.5;" x1="396" x2="396" y1="577.1193" y2="592.1193"/><line style="stroke: #A80036; stroke-width: 1.5;" x1="396" x2="605" y1="592.1193" y2="592.1193"/><polygon fill="#A80036" points="595,588.1193,605,592.1193,595,596.1193,599,592.1193" style="stroke: #A80036; stroke-width: 1.0;"/><line style="stroke: #A80036; stroke-width: 1.5;" x1="396" x2="396" y1="655.5194" y2="670.5194"/><line style="stroke: #A80036; stroke-width: 1.5;" x1="396" x2="605" y1="670.5194" y2="670.5194"/><polygon fill="#A80036" points="595,666.5194,605,670.5194,595,674.5194,599,670.5194" style="stroke: #A80036; stroke-width: 1.0;"/><line style="stroke: #A80036; stroke-width: 1.5;" x1="396" x2="396" y1="733.9195" y2="748.9195"/><line style="stroke: #A80036; stroke-width: 1.5;" x1="396" x2="605" y1="748.9195" y2="748.9195"/><polygon fill="#A80036" points="595,744.9195,605,748.9195,595,752.9195,599,748.9195" style="stroke: #A80036; stroke-width: 1.0;"/><line style="stroke: #A80036; stroke-width: 1.5;" x1="396" x2="396" y1="936.1198" y2="951.1198"/><line style="stroke: #A80036; stroke-width: 1.5;" x1="396" x2="605" y1="951.1198" y2="951.1198"/><polygon fill="#A80036" points="595,947.1198,605,951.1198,595,955.1198,599,951.1198" style="stroke: #A80036; stroke-width: 1.0;"/><line style="stroke: #A80036; stroke-width: 1.5;" x1="405.5" x2="405.5" y1="1132.92" y2="1147.92"/><line style="stroke: #A80036; stroke-width: 1.5;" x1="405.5" x2="605" y1="1147.92" y2="1147.92"/><polygon fill="#A80036" points="595,1143.92,605,1147.92,595,1151.92,599,1147.92" style="stroke: #A80036; stroke-width: 1.0;"/><line style="stroke: #A80036; stroke-width: 1.5;" x1="396" x2="396" y1="1211.3201" y2="1226.3201"/><line style="stroke: #A80036; stroke-width: 1.5;" x1="396" x2="605" y1="1226.3201" y2="1226.3201"/><polygon fill="#A80036" points="595,1222.3201,605,1226.3201,595,1230.3201,599,1226.3201" style="stroke: #A80036; stroke-width: 1.0;"/><line style="stroke: #A80036; stroke-width: 1.5;" x1="396" x2="396" y1="1289.7202" y2="1304.7202"/><line style="stroke: #A80036; stroke-width: 1.5;" x1="396" x2="605" y1="1304.7202" y2="1304.7202"/><polygon fill="#A80036" points="595,1300.7202,605,1304.7202,595,1308.7202,599,1304.7202" style="stroke: #A80036; stroke-width: 1.0;"/><line style="stroke: #A80036; stroke-width: 1.5;" x1="322" x2="322" y1="222.2001" y2="238.919"/><line style="stroke: #A80036; stroke-width: 1.5;" x1="322" x2="113" y1="238.919" y2="238.919"/><line style="stroke: #A80036; stroke-width: 1.5;" x1="113" x2="113" y1="238.919" y2="253.919"/><polygon fill="#A80036" points="109,243.919,113,253.919,117,243.919,113,247.919" style="stroke: #A80036; stroke-width: 1.0;"/><line style="stroke: #A80036; stroke-width: 1.5;" x1="113" x2="113" y1="1255.3201" y2="1294.7202"/><line style="stroke: #A80036; stroke-width: 1.5;" x1="113" x2="322" y1="1294.7202" y2="1294.7202"/><line style="stroke: #A80036; stroke-width: 1.5;" x1="322" x2="322" y1="1294.7202" y2="1309.7202"/><polygon fill="#A80036" points="318,1299.7202,322,1309.7202,326,1299.7202,322,1303.7202" style="stroke: #A80036; stroke-width: 1.0;"/><line style="stroke: #A80036; stroke-width: 1.5;" x1="322" x2="322" y1="1398.5204" y2="1403.5204"/><line style="stroke: #A80036; stroke-width: 1.5;" x1="322" x2="322" y1="1403.5204" y2="1418.5204"/><polygon fill="#A80036" points="318,1408.5204,322,1418.5204,326,1408.5204,322,1412.5204" style="stroke: #A80036; stroke-width: 1.0;"/><line style="stroke: #A80036; stroke-width: 1.5;" x1="322" x2="322" y1="1442.5204" y2="1452.5204"/><line style="stroke: #A80036; stroke-width: 1.5;" x1="322" x2="617" y1="1452.5204" y2="1452.5204"/><polygon fill="#A80036" points="613,842.1198,617,832.1198,621,842.1198,617,838.1198" style="stroke: #A80036; stroke-width: 1.5;"/><line style="stroke: #A80036; stroke-width: 1.5;" x1="617" x2="617" y1="210.2001" y2="1452.5204"/><line style="stroke: #A80036; stroke-width: 1.5;" x1="617" x2="383.5" y1="210.2001" y2="210.2001"/><polygon fill="#A80036" points="393.5,206.2001,383.5,210.2001,393.5,214.2001,389.5,210.2001" style="stroke: #A80036; stroke-width: 1.0;"/><line style="stroke: #A80036; stroke-width: 1.5;" x1="260.5" x2="27" y1="210.2001" y2="210.2001"/><polygon fill="#A80036" points="23,828.1198,27,838.1198,31,828.1198,27,832.1198" style="stroke: #A80036; stroke-width: 1.5;"/><line style="stroke: #A80036; stroke-width: 1.5;" x1="27" x2="27" y1="210.2001" y2="1464.5204"/><line style="stroke: #A80036; stroke-width: 1.5;" x1="27" x2="322" y1="1464.5204" y2="1464.5204"/><line style="stroke: #A80036; stroke-width: 1.5;" x1="322" x2="322" y1="1464.5204" y2="1484.5204"/><polygon fill="#A80036" points="318,1474.5204,322,1484.5204,326,1474.5204,322,1478.5204" style="stroke: #A80036; stroke-width: 1.0;"/><line style="stroke: #A80036; stroke-width: 1.5;" x1="322" x2="322" y1="173.6001" y2="198.2001"/><polygon fill="#A80036" points="318,188.2001,322,198.2001,326,188.2001,322,192.2001" style="stroke: #A80036; stroke-width: 1.0;"/><line style="stroke: #A80036; stroke-width: 1.5;" x1="334" x2="627" y1="161.6001" y2="161.6001"/><polygon fill="#A80036" points="623,822.1198,627,832.1198,631,822.1198,627,826.1198" style="stroke: #A80036; stroke-width: 1.5;"/><line style="stroke: #A80036; stroke-width: 1.5;" x1="627" x2="627" y1="161.6001" y2="1496.5204"/><line style="stroke: #A80036; stroke-width: 1.5;" x1="627" x2="334" y1="1496.5204" y2="1496.5204"/><polygon fill="#A80036" points="344,1492.5204,334,1496.5204,344,1500.5204,340,1496.5204" style="stroke: #A80036; stroke-width: 1.0;"/><line style="stroke: #A80036; stroke-width: 1.5;" x1="322" x2="322" y1="129.6001" y2="149.6001"/><polygon fill="#A80036" points="318,139.6001,322,149.6001,326,139.6001,322,143.6001" style="stroke: #A80036; stroke-width: 1.0;"/><line style="stroke: #A80036; stroke-width: 1.5;" x1="322" x2="322" y1="1508.5204" y2="1528.5204"/><polygon fill="#A80036" points="318,1518.5204,322,1528.5204,326,1518.5204,322,1522.5204" style="stroke: #A80036; stroke-width: 1.0;"/><!--MD5=[42d221067f8d7a8c86141effaeb30ae6]
@startuml keyboard_execute_tap_actions
!pragma useVerticalIf on

partition "keyboard_execute_tap_actions"{

  start
  :If the last switch was temporary,
  switch back to previous layout;
  
  if () then (actions)
    while (for action to execute) is (next)
      if (FeedbackPressRelease?) then (yes)
        if (press?) then (yes)
          :Tell UI to display the press of the button;
        elseif (key in latched_keys?) then (yes)
        else (no)
          :Tell UI to display the release of the button;
        endif
      elseif (EnterKeycode?) then (yes)
        :Submit keycode;
      elseif (EnterKeycode?) then (yes)
        :Submit keycode;
      elseif (ToggleKeycode?) then (yes)
        :Toggle keycode;
      elseif (EnterString?) then (yes)
        :Send text of the button to the interpreter;
        :Vector of submissions]
        :Submit all of the returned submissions;
      elseif (Modifier?) then (yes)
        if (modifier latched?) then (yes)
          :Remove this key from latched keys;
        else (no)
          :Add this key to latched keys;
        endif
        :Submit modifier;
      elseif (Erase?) then (yes)
        :Submit erase;
      elseif (OpenPopup?) then (yes)
        :Tell UI to open the popup;
      else (switch layout/view)
        :If the switch is temporary, remember the active view to switch back to;
        :Tell UI to switch layout;
      endif
    endwhile (end)
  else (no actions)
  endif
  stop
}
@enduml

PlantUML version 1.2020.15(Sun Jun 28 13:39:45 CEST 2020)
(MIT source distribution)
Java Runtime: OpenJDK Runtime Environment
JVM: OpenJDK 64-Bit Server VM
Default Encoding: UTF-8
Language: en
Country: US
--></g></svg>