<?xml version="1.0" encoding="UTF-8" standalone="no"?><svg xmlns="http://www.w3.org/2000/svg" xmlns:xlink="http://www.w3.org/1999/xlink" contentScriptType="application/ecmascript" contentStyleType="text/css" height="1169px" preserveAspectRatio="none" style="width:432px;height:1169px;" version="1.1" viewBox="0 0 432 1169" width="432px" zoomAndPan="magnify"><defs><filter height="300%" id="fcheezymr3shf" width="300%" x="-1" y="-1"><feGaussianBlur result="blurOut" stdDeviation="2.0"/><feColorMatrix in="blurOut" result="blurOut2" type="matrix" values="0 0 0 0 0 0 0 0 0 0 0 0 0 0 0 0 0 0 .4 0"/><feOffset dx="4.0" dy="4.0" in="blurOut2" result="blurOut3"/><feBlend in="SourceGraphic" in2="blurOut3" mode="normal"/></filter></defs><g><rect fill="#FFFFFF" filter="url(#fcheezymr3shf)" height="1141.2202" style="stroke: #000000; stroke-width: 2.0;" width="404" x="11" y="11"/><path d="M229,12 L229,20.7999 L219,30.7999 L11,30.7999 " fill="none" style="stroke: #000000; stroke-width: 2.0;"/><text fill="#000000" font-family="sans-serif" font-size="14" lengthAdjust="spacingAndGlyphs" textLength="208" x="14" y="25.0059">LayoutYamlParser::get_layouts()</text><ellipse cx="254" cy="50.7999" fill="#000000" filter="url(#fcheezymr3shf)" rx="10" ry="10" style="stroke: none; stroke-width: 1.0;"/><rect fill="#FEFECE" filter="url(#fcheezymr3shf)" height="48.8002" style="stroke: #A80036; stroke-width: 1.5;" width="170" x="169" y="80.7999"/><text fill="#000000" font-family="sans-serif" font-size="12" lengthAdjust="spacingAndGlyphs" textLength="100" x="203" y="101.948">&lt;&lt;CentralBuffer&gt;&gt;</text><text fill="#000000" font-family="sans-serif" font-size="12" lengthAdjust="spacingAndGlyphs" textLength="150" x="179" y="116.3481">LayoutDeserialized storage</text><polygon fill="#FEFECE" filter="url(#fcheezymr3shf)" points="218,198.2001,290,198.2001,302,210.2001,290,222.2001,218,222.2001,206,210.2001,218,198.2001" style="stroke: #A80036; stroke-width: 1.5;"/><text fill="#000000" font-family="sans-serif" font-size="11" lengthAdjust="spacingAndGlyphs" textLength="72" x="218" y="213.8191">Read directory</text><text fill="#000000" font-family="sans-serif" font-size="11" lengthAdjust="spacingAndGlyphs" textLength="42" x="164" y="207.2191">success</text><text fill="#000000" font-family="sans-serif" font-size="11" lengthAdjust="spacingAndGlyphs" textLength="29" x="302" y="207.2191">failure</text><rect fill="#FEFECE" filter="url(#fcheezymr3shf)" height="34.4001" style="stroke: #A80036; stroke-width: 1.5;" width="96" x="111.5" y="287.919"/><text fill="#000000" font-family="sans-serif" font-size="12" lengthAdjust="spacingAndGlyphs" textLength="76" x="121.5" y="309.0671">LayoutSource</text><rect fill="#FEFECE" filter="url(#fcheezymr3shf)" height="34.4001" rx="12.5" ry="12.5" style="stroke: #A80036; stroke-width: 1.5;" width="241" x="39" y="342.3191"/><text fill="#000000" font-family="sans-serif" font-size="12" lengthAdjust="spacingAndGlyphs" textLength="221" x="49" y="363.4672">LayoutDeserialized::from(layout_source)</text><rect fill="#FEFECE" filter="url(#fcheezymr3shf)" height="34.4001" style="stroke: #A80036; stroke-width: 1.5;" width="126" x="96.5" y="410.6193"/><text fill="#000000" font-family="sans-serif" font-size="12" lengthAdjust="spacingAndGlyphs" textLength="106" x="106.5" y="431.7673">LayoutDeserialized</text><rect fill="#FEFECE" filter="url(#fcheezymr3shf)" height="34.4001" rx="12.5" ry="12.5" style="stroke: #A80036; stroke-width: 1.5;" width="195" x="62" y="465.0194"/><text fill="#000000" font-family="sans-serif" font-size="12" lengthAdjust="spacingAndGlyphs" textLength="175" x="72" y="486.1674">Add deserialized layout to buffer</text><polygon fill="#FEFECE" filter="url(#fcheezymr3shf)" points="111.5,232.2001,207.5,232.2001,219.5,244.2001,207.5,256.2001,111.5,256.2001,99.5,244.2001,111.5,232.2001" style="stroke: #A80036; stroke-width: 1.5;"/><text fill="#000000" font-family="sans-serif" font-size="11" lengthAdjust="spacingAndGlyphs" textLength="18" x="163.5" y="266.419">yes</text><text fill="#000000" font-family="sans-serif" font-size="11" lengthAdjust="spacingAndGlyphs" textLength="96" x="111.5" y="247.8191">YAML file available?</text><text fill="#000000" font-family="sans-serif" font-size="11" lengthAdjust="spacingAndGlyphs" textLength="12" x="87.5" y="241.2191">no</text><rect fill="#FEFECE" filter="url(#fcheezymr3shf)" height="34.4001" rx="12.5" ry="12.5" style="stroke: #A80036; stroke-width: 1.5;" width="73" x="312" y="232.2001"/><text fill="#000000" font-family="sans-serif" font-size="12" lengthAdjust="spacingAndGlyphs" textLength="53" x="322" y="253.3482">Emit error</text><polygon fill="#FEFECE" filter="url(#fcheezymr3shf)" points="254,527.4195,266,539.4195,254,551.4195,242,539.4195,254,527.4195" style="stroke: #A80036; stroke-width: 1.5;"/><polygon fill="#FEFECE" filter="url(#fcheezymr3shf)" points="185.5,149.6001,322.5,149.6001,334.5,161.6001,322.5,173.6001,185.5,173.6001,173.5,161.6001,185.5,149.6001" style="stroke: #A80036; stroke-width: 1.5;"/><text fill="#000000" font-family="sans-serif" font-size="11" lengthAdjust="spacingAndGlyphs" textLength="42" x="258" y="183.8191">success</text><text fill="#000000" font-family="sans-serif" font-size="11" lengthAdjust="spacingAndGlyphs" textLength="137" x="185.5" y="165.2191">Get path to layout definitions</text><text fill="#000000" font-family="sans-serif" font-size="11" lengthAdjust="spacingAndGlyphs" textLength="29" x="334.5" y="158.6192">failure</text><polygon fill="#FEFECE" filter="url(#fcheezymr3shf)" points="254,571.4195,266,583.4195,254,595.4195,242,583.4195,254,571.4195" style="stroke: #A80036; stroke-width: 1.5;"/><rect fill="#FEFECE" filter="url(#fcheezymr3shf)" height="34.4001" rx="12.5" ry="12.5" style="stroke: #A80036; stroke-width: 1.5;" width="144" x="182" y="615.4195"/><text fill="#000000" font-family="sans-serif" font-size="12" lengthAdjust="spacingAndGlyphs" textLength="124" x="192" y="636.5675">get_locale_language()</text><rect fill="#FEFECE" filter="url(#fcheezymr3shf)" height="34.4001" style="stroke: #A80036; stroke-width: 1.5;" width="116" x="196" y="669.8196"/><text fill="#000000" font-family="sans-serif" font-size="12" lengthAdjust="spacingAndGlyphs" textLength="96" x="206" y="690.9676">Language of user</text><rect fill="#FEFECE" filter="url(#fcheezymr3shf)" height="34.4001" rx="12.5" ry="12.5" style="stroke: #A80036; stroke-width: 1.5;" width="91" x="208.5" y="772.8196"/><text fill="#000000" font-family="sans-serif" font-size="12" lengthAdjust="spacingAndGlyphs" textLength="71" x="218.5" y="793.9677">Emit warning</text><rect fill="#FEFECE" filter="url(#fcheezymr3shf)" height="34.4001" rx="12.5" ry="12.5" style="stroke: #A80036; stroke-width: 1.5;" width="223" x="142.5" y="827.2197"/><text fill="#000000" font-family="sans-serif" font-size="12" lengthAdjust="spacingAndGlyphs" textLength="203" x="152.5" y="848.3678">Deserialize layout from fallback string</text><rect fill="#FEFECE" filter="url(#fcheezymr3shf)" height="34.4001" style="stroke: #A80036; stroke-width: 1.5;" width="126" x="191" y="896.6198"/><text fill="#000000" font-family="sans-serif" font-size="12" lengthAdjust="spacingAndGlyphs" textLength="106" x="201" y="917.7679">LayoutDeserialized</text><rect fill="#FEFECE" filter="url(#fcheezymr3shf)" height="34.4001" rx="12.5" ry="12.5" style="stroke: #A80036; stroke-width: 1.5;" width="195" x="156.5" y="951.0199"/><text fill="#000000" font-family="sans-serif" font-size="12" lengthAdjust="spacingAndGlyphs" textLength="175" x="166.5" y="972.168">Add deserialized layout to buffer</text><polygon fill="#FEFECE" filter="url(#fcheezymr3shf)" points="159,724.2197,349,724.2197,361,736.2197,349,748.2197,159,748.2197,147,736.2197,159,724.2197" style="stroke: #A80036; stroke-width: 1.5;"/><text fill="#000000" font-family="sans-serif" font-size="11" lengthAdjust="spacingAndGlyphs" textLength="12" x="258" y="758.4386">no</text><text fill="#000000" font-family="sans-serif" font-size="11" lengthAdjust="spacingAndGlyphs" textLength="190" x="159" y="739.8386">Layout with language of user available?</text><text fill="#000000" font-family="sans-serif" font-size="11" lengthAdjust="spacingAndGlyphs" textLength="18" x="361" y="733.2387">yes</text><polygon fill="#FEFECE" filter="url(#fcheezymr3shf)" points="254,1005.42,266,1017.42,254,1029.42,242,1017.42,254,1005.42" style="stroke: #A80036; stroke-width: 1.5;"/><rect fill="#FEFECE" filter="url(#fcheezymr3shf)" height="48.8002" style="stroke: #A80036; stroke-width: 1.5;" width="170" x="169" y="1049.42"/><text fill="#000000" font-family="sans-serif" font-size="12" lengthAdjust="spacingAndGlyphs" textLength="100" x="203" y="1070.5681">&lt;&lt;CentralBuffer&gt;&gt;</text><text fill="#000000" font-family="sans-serif" font-size="12" lengthAdjust="spacingAndGlyphs" textLength="150" x="179" y="1084.9682">LayoutDeserialized storage</text><ellipse cx="254" cy="1129.2202" fill="#FFFFFF" filter="url(#fcheezymr3shf)" rx="11" ry="11" style="stroke: #000000; stroke-width: 1.0;"/><ellipse cx="254" cy="1129.2202" fill="#000000" rx="6" ry="6" style="stroke: #7F7F7F; stroke-width: 1.0;"/><line style="stroke: #A80036; stroke-width: 1.5;" x1="254" x2="254" y1="60.7999" y2="80.7999"/><polygon fill="#A80036" points="250,70.7999,254,80.7999,258,70.7999,254,74.7999" style="stroke: #A80036; stroke-width: 1.0;"/><line style="stroke: #A80036; stroke-width: 1.5;" x1="159.5" x2="159.5" y1="322.3191" y2="342.3191"/><polygon fill="#A80036" points="155.5,332.3191,159.5,342.3191,163.5,332.3191,159.5,336.3191" style="stroke: #A80036; stroke-width: 1.0;"/><line style="stroke: #A80036; stroke-width: 1.5;" x1="159.5" x2="159.5" y1="376.7192" y2="410.6193"/><polygon fill="#A80036" points="155.5,400.6193,159.5,410.6193,163.5,400.6193,159.5,404.6193" style="stroke: #A80036; stroke-width: 1.0;"/><line style="stroke: #A80036; stroke-width: 1.5;" x1="159.5" x2="159.5" y1="445.0194" y2="465.0194"/><polygon fill="#A80036" points="155.5,455.0194,159.5,465.0194,163.5,455.0194,159.5,459.0194" style="stroke: #A80036; stroke-width: 1.0;"/><line style="stroke: #A80036; stroke-width: 1.5;" x1="159.5" x2="159.5" y1="256.2001" y2="287.919"/><polygon fill="#A80036" points="155.5,277.919,159.5,287.919,163.5,277.919,159.5,281.919" style="stroke: #A80036; stroke-width: 1.0;"/><line style="stroke: #A80036; stroke-width: 1.5;" x1="159.5" x2="159.5" y1="499.4195" y2="509.4195"/><line style="stroke: #A80036; stroke-width: 1.5;" x1="159.5" x2="292" y1="509.4195" y2="509.4195"/><polygon fill="#A80036" points="288,385.6193,292,375.6193,296,385.6193,292,381.6193" style="stroke: #A80036; stroke-width: 1.5;"/><line style="stroke: #A80036; stroke-width: 1.5;" x1="292" x2="292" y1="244.2001" y2="509.4195"/><line style="stroke: #A80036; stroke-width: 1.5;" x1="292" x2="219.5" y1="244.2001" y2="244.2001"/><polygon fill="#A80036" points="229.5,240.2001,219.5,244.2001,229.5,248.2001,225.5,244.2001" style="stroke: #A80036; stroke-width: 1.0;"/><line style="stroke: #A80036; stroke-width: 1.5;" x1="99.5" x2="27" y1="244.2001" y2="244.2001"/><polygon fill="#A80036" points="23,380.6193,27,390.6193,31,380.6193,27,384.6193" style="stroke: #A80036; stroke-width: 1.5;"/><line style="stroke: #A80036; stroke-width: 1.5;" x1="27" x2="27" y1="244.2001" y2="539.4195"/><line style="stroke: #A80036; stroke-width: 1.5;" x1="27" x2="242" y1="539.4195" y2="539.4195"/><polygon fill="#A80036" points="232,535.4195,242,539.4195,232,543.4195,236,539.4195" style="stroke: #A80036; stroke-width: 1.0;"/><line style="stroke: #A80036; stroke-width: 1.5;" x1="206" x2="159.5" y1="210.2001" y2="210.2001"/><line style="stroke: #A80036; stroke-width: 1.5;" x1="159.5" x2="159.5" y1="210.2001" y2="232.2001"/><polygon fill="#A80036" points="155.5,222.2001,159.5,232.2001,163.5,222.2001,159.5,226.2001" style="stroke: #A80036; stroke-width: 1.0;"/><line style="stroke: #A80036; stroke-width: 1.5;" x1="302" x2="348.5" y1="210.2001" y2="210.2001"/><line style="stroke: #A80036; stroke-width: 1.5;" x1="348.5" x2="348.5" y1="210.2001" y2="232.2001"/><polygon fill="#A80036" points="344.5,222.2001,348.5,232.2001,352.5,222.2001,348.5,226.2001" style="stroke: #A80036; stroke-width: 1.0;"/><line style="stroke: #A80036; stroke-width: 1.5;" x1="348.5" x2="348.5" y1="266.6002" y2="539.4195"/><line style="stroke: #A80036; stroke-width: 1.5;" x1="348.5" x2="266" y1="539.4195" y2="539.4195"/><polygon fill="#A80036" points="276,535.4195,266,539.4195,276,543.4195,272,539.4195" style="stroke: #A80036; stroke-width: 1.0;"/><line style="stroke: #A80036; stroke-width: 1.5;" x1="254" x2="254" y1="173.6001" y2="198.2001"/><polygon fill="#A80036" points="250,188.2001,254,198.2001,258,188.2001,254,192.2001" style="stroke: #A80036; stroke-width: 1.0;"/><line style="stroke: #A80036; stroke-width: 1.5;" x1="334.5" x2="399" y1="161.6001" y2="161.6001"/><polygon fill="#A80036" points="395,363.6193,399,373.6193,403,363.6193,399,367.6193" style="stroke: #A80036; stroke-width: 1.5;"/><line style="stroke: #A80036; stroke-width: 1.5;" x1="399" x2="399" y1="161.6001" y2="583.4195"/><line style="stroke: #A80036; stroke-width: 1.5;" x1="399" x2="266" y1="583.4195" y2="583.4195"/><polygon fill="#A80036" points="276,579.4195,266,583.4195,276,587.4195,272,583.4195" style="stroke: #A80036; stroke-width: 1.0;"/><line style="stroke: #A80036; stroke-width: 1.5;" x1="254" x2="254" y1="551.4195" y2="571.4195"/><polygon fill="#A80036" points="250,561.4195,254,571.4195,258,561.4195,254,565.4195" style="stroke: #A80036; stroke-width: 1.0;"/><line style="stroke: #A80036; stroke-width: 1.5;" x1="254" x2="254" y1="129.6001" y2="149.6001"/><polygon fill="#A80036" points="250,139.6001,254,149.6001,258,139.6001,254,143.6001" style="stroke: #A80036; stroke-width: 1.0;"/><line style="stroke: #A80036; stroke-width: 1.5;" x1="254" x2="254" y1="595.4195" y2="615.4195"/><polygon fill="#A80036" points="250,605.4195,254,615.4195,258,605.4195,254,609.4195" style="stroke: #A80036; stroke-width: 1.0;"/><line style="stroke: #A80036; stroke-width: 1.5;" x1="254" x2="254" y1="649.8196" y2="669.8196"/><polygon fill="#A80036" points="250,659.8196,254,669.8196,258,659.8196,254,663.8196" style="stroke: #A80036; stroke-width: 1.0;"/><line style="stroke: #A80036; stroke-width: 1.5;" x1="254" x2="254" y1="807.2197" y2="827.2197"/><polygon fill="#A80036" points="250,817.2197,254,827.2197,258,817.2197,254,821.2197" style="stroke: #A80036; stroke-width: 1.0;"/><line style="stroke: #A80036; stroke-width: 1.5;" x1="254" x2="254" y1="861.6198" y2="896.6198"/><polygon fill="#A80036" points="250,886.6198,254,896.6198,258,886.6198,254,890.6198" style="stroke: #A80036; stroke-width: 1.0;"/><line style="stroke: #A80036; stroke-width: 1.5;" x1="254" x2="254" y1="931.0199" y2="951.0199"/><polygon fill="#A80036" points="250,941.0199,254,951.0199,258,941.0199,254,945.0199" style="stroke: #A80036; stroke-width: 1.0;"/><line style="stroke: #A80036; stroke-width: 1.5;" x1="254" x2="254" y1="748.2197" y2="772.8196"/><polygon fill="#A80036" points="250,762.8196,254,772.8196,258,762.8196,254,766.8196" style="stroke: #A80036; stroke-width: 1.0;"/><line style="stroke: #A80036; stroke-width: 1.5;" x1="361" x2="375.5" y1="736.2197" y2="736.2197"/><polygon fill="#A80036" points="371.5,869.1198,375.5,879.1198,379.5,869.1198,375.5,873.1198" style="stroke: #A80036; stroke-width: 1.5;"/><line style="stroke: #A80036; stroke-width: 1.5;" x1="375.5" x2="375.5" y1="736.2197" y2="1017.42"/><line style="stroke: #A80036; stroke-width: 1.5;" x1="375.5" x2="266" y1="1017.42" y2="1017.42"/><polygon fill="#A80036" points="276,1013.42,266,1017.42,276,1021.42,272,1017.42" style="stroke: #A80036; stroke-width: 1.0;"/><line style="stroke: #A80036; stroke-width: 1.5;" x1="254" x2="254" y1="985.42" y2="1005.42"/><polygon fill="#A80036" points="250,995.42,254,1005.42,258,995.42,254,999.42" style="stroke: #A80036; stroke-width: 1.0;"/><line style="stroke: #A80036; stroke-width: 1.5;" x1="254" x2="254" y1="704.2197" y2="724.2197"/><polygon fill="#A80036" points="250,714.2197,254,724.2197,258,714.2197,254,718.2197" style="stroke: #A80036; stroke-width: 1.0;"/><line style="stroke: #A80036; stroke-width: 1.5;" x1="254" x2="254" y1="1029.42" y2="1049.42"/><polygon fill="#A80036" points="250,1039.42,254,1049.42,258,1039.42,254,1043.42" style="stroke: #A80036; stroke-width: 1.0;"/><line style="stroke: #A80036; stroke-width: 1.5;" x1="254" x2="254" y1="1098.2202" y2="1118.2202"/><polygon fill="#A80036" points="250,1108.2202,254,1118.2202,258,1108.2202,254,1112.2202" style="stroke: #A80036; stroke-width: 1.0;"/><!--MD5=[d36809074fee37f48a5929db27cb7761]
@startuml layout_yaml_parser_get_layouts
partition "LayoutYamlParser::get_layouts()"{
    
    start

    :        <<CentralBuffer>>
    LayoutDeserialized storage]

    if (Get path to layout definitions) then (success)
        if (Read directory) then (success)
            while (YAML file available?) is (yes)
                :LayoutSource]
                :LayoutDeserialized::from(layout_source);
                :LayoutDeserialized]
                :Add deserialized layout to buffer;
            endwhile (no)
        else (failure)
            :Emit error;
        endif
    else (failure)
    endif

    :get_locale_language();
    :Language of user]
    if (Layout with language of user available?) then (yes)
    else (no)
        :Emit warning;
        :Deserialize layout from fallback string;
        :LayoutDeserialized]
        :Add deserialized layout to buffer;
    endif

    :        <<CentralBuffer>>
    LayoutDeserialized storage]

    stop
}
@enduml

PlantUML version 1.2020.15(Sun Jun 28 13:39:45 CEST 2020)
(MIT source distribution)
Java Runtime: OpenJDK Runtime Environment
JVM: OpenJDK 64-Bit Server VM
Default Encoding: UTF-8
Language: en
Country: US
--></g></svg>