<?xml version="1.0" encoding="UTF-8" standalone="no"?><svg xmlns="http://www.w3.org/2000/svg" xmlns:xlink="http://www.w3.org/1999/xlink" contentScriptType="application/ecmascript" contentStyleType="text/css" height="806px" preserveAspectRatio="none" style="width:313px;height:806px;" version="1.1" viewBox="0 0 313 806" width="313px" zoomAndPan="magnify"><defs><filter height="300%" id="fpmjsf6et86yg" width="300%" x="-1" y="-1"><feGaussianBlur result="blurOut" stdDeviation="2.0"/><feColorMatrix in="blurOut" result="blurOut2" type="matrix" values="0 0 0 0 0 0 0 0 0 0 0 0 0 0 0 0 0 0 .4 0"/><feOffset dx="4.0" dy="4.0" in="blurOut2" result="blurOut3"/><feBlend in="SourceGraphic" in2="blurOut3" mode="normal"/></filter></defs><g><rect fill="#FFFFFF" filter="url(#fpmjsf6et86yg)" height="778.3201" style="stroke: #000000; stroke-width: 2.0;" width="285" x="11" y="11"/><path d="M143,12 L143,20.7999 L133,30.7999 L11,30.7999 " fill="none" style="stroke: #000000; stroke-width: 2.0;"/><text fill="#000000" font-family="sans-serif" font-size="14" lengthAdjust="spacingAndGlyphs" textLength="122" x="14" y="25.0059">LayoutMeta::from()</text><ellipse cx="153.5" cy="50.7999" fill="#000000" filter="url(#fpmjsf6et86yg)" rx="10" ry="10" style="stroke: none; stroke-width: 1.0;"/><rect fill="#FEFECE" filter="url(#fpmjsf6et86yg)" height="34.4001" rx="12.5" ry="12.5" style="stroke: #A80036; stroke-width: 1.5;" width="198" x="54.5" y="80.7999"/><text fill="#000000" font-family="sans-serif" font-size="12" lengthAdjust="spacingAndGlyphs" textLength="178" x="64.5" y="101.948">LayoutYamlParser::get_layouts()</text><rect fill="#FEFECE" filter="url(#fpmjsf6et86yg)" height="48.8002" style="stroke: #A80036; stroke-width: 1.5;" width="170" x="68.5" y="135.2"/><text fill="#000000" font-family="sans-serif" font-size="12" lengthAdjust="spacingAndGlyphs" textLength="100" x="105.5" y="156.3481">&lt;&lt;CentralBuffer&gt;&gt;</text><text fill="#000000" font-family="sans-serif" font-size="12" lengthAdjust="spacingAndGlyphs" textLength="150" x="78.5" y="170.7482">LayoutDeserialized storage</text><rect fill="#FEFECE" filter="url(#fpmjsf6et86yg)" height="34.4001" rx="12.5" ry="12.5" style="stroke: #A80036; stroke-width: 1.5;" width="168" x="69.5" y="204.0002"/><text fill="#000000" font-family="sans-serif" font-size="12" lengthAdjust="spacingAndGlyphs" textLength="148" x="79.5" y="225.1483">Create LayoutMeta storage</text><rect fill="#FEFECE" filter="url(#fpmjsf6et86yg)" height="48.8002" style="stroke: #A80036; stroke-width: 1.5;" width="128" x="89.5" y="258.4003"/><text fill="#000000" font-family="sans-serif" font-size="12" lengthAdjust="spacingAndGlyphs" textLength="100" x="102.5" y="279.5484">&lt;&lt;CentralBuffer&gt;&gt;</text><text fill="#000000" font-family="sans-serif" font-size="12" lengthAdjust="spacingAndGlyphs" textLength="108" x="99.5" y="293.9485">LayoutMeta storage</text><rect fill="#FEFECE" filter="url(#fpmjsf6et86yg)" height="34.4001" rx="12.5" ry="12.5" style="stroke: #A80036; stroke-width: 1.5;" width="229" x="39" y="382.9195"/><text fill="#000000" font-family="sans-serif" font-size="12" lengthAdjust="spacingAndGlyphs" textLength="209" x="49" y="404.0675">LayoutMeta::from(layout_deserialized)</text><rect fill="#FEFECE" filter="url(#fpmjsf6et86yg)" height="34.4001" style="stroke: #A80036; stroke-width: 1.5;" width="50" x="128.5" y="437.3196"/><text fill="#000000" font-family="sans-serif" font-size="12" lengthAdjust="spacingAndGlyphs" textLength="30" x="138.5" y="458.4676">result</text><polygon fill="#FEFECE" filter="url(#fpmjsf6et86yg)" points="140,491.7197,167,491.7197,179,503.7197,167,515.7197,140,515.7197,128,503.7197,140,491.7197" style="stroke: #A80036; stroke-width: 1.5;"/><text fill="#000000" font-family="sans-serif" font-size="11" lengthAdjust="spacingAndGlyphs" textLength="27" x="140" y="507.3386">result</text><text fill="#000000" font-family="sans-serif" font-size="11" lengthAdjust="spacingAndGlyphs" textLength="15" x="113" y="500.7387">Ok</text><text fill="#000000" font-family="sans-serif" font-size="11" lengthAdjust="spacingAndGlyphs" textLength="12" x="179" y="500.7387">no</text><rect fill="#FEFECE" filter="url(#fpmjsf6et86yg)" height="34.4001" style="stroke: #A80036; stroke-width: 1.5;" width="84" x="58.5" y="525.7197"/><text fill="#000000" font-family="sans-serif" font-size="12" lengthAdjust="spacingAndGlyphs" textLength="64" x="68.5" y="546.8677">LayoutMeta</text><rect fill="#FEFECE" filter="url(#fpmjsf6et86yg)" height="34.4001" rx="12.5" ry="12.5" style="stroke: #A80036; stroke-width: 1.5;" width="99" x="51" y="580.1198"/><text fill="#000000" font-family="sans-serif" font-size="12" lengthAdjust="spacingAndGlyphs" textLength="79" x="61" y="601.2678">Add to storage</text><rect fill="#FEFECE" filter="url(#fpmjsf6et86yg)" height="34.4001" rx="12.5" ry="12.5" style="stroke: #A80036; stroke-width: 1.5;" width="73" x="170" y="525.7197"/><text fill="#000000" font-family="sans-serif" font-size="12" lengthAdjust="spacingAndGlyphs" textLength="53" x="180" y="546.8677">Emit error</text><polygon fill="#FEFECE" filter="url(#fpmjsf6et86yg)" points="153.5,620.5199,165.5,632.5199,153.5,644.5199,141.5,632.5199,153.5,620.5199" style="stroke: #A80036; stroke-width: 1.5;"/><polygon fill="#FEFECE" filter="url(#fpmjsf6et86yg)" points="90,327.2005,217,327.2005,229,339.2005,217,351.2005,90,351.2005,78,339.2005,90,327.2005" style="stroke: #A80036; stroke-width: 1.5;"/><text fill="#000000" font-family="sans-serif" font-size="11" lengthAdjust="spacingAndGlyphs" textLength="18" x="157.5" y="361.4195">yes</text><text fill="#000000" font-family="sans-serif" font-size="11" lengthAdjust="spacingAndGlyphs" textLength="127" x="90" y="342.8195">more LayoutDeserialized?</text><text fill="#000000" font-family="sans-serif" font-size="11" lengthAdjust="spacingAndGlyphs" textLength="12" x="66" y="336.2196">no</text><rect fill="#FEFECE" filter="url(#fpmjsf6et86yg)" height="48.8002" style="stroke: #A80036; stroke-width: 1.5;" width="170" x="68.5" y="686.5199"/><text fill="#000000" font-family="sans-serif" font-size="12" lengthAdjust="spacingAndGlyphs" textLength="100" x="105.5" y="707.6679">&lt;&lt;CentralBuffer&gt;&gt;</text><text fill="#000000" font-family="sans-serif" font-size="12" lengthAdjust="spacingAndGlyphs" textLength="150" x="78.5" y="722.068">LayoutDeserialized storage</text><ellipse cx="153.5" cy="766.3201" fill="#FFFFFF" filter="url(#fpmjsf6et86yg)" rx="11" ry="11" style="stroke: #000000; stroke-width: 1.0;"/><ellipse cx="153.5" cy="766.3201" fill="#000000" rx="6" ry="6" style="stroke: #7F7F7F; stroke-width: 1.0;"/><line style="stroke: #A80036; stroke-width: 1.5;" x1="153.5" x2="153.5" y1="60.7999" y2="80.7999"/><polygon fill="#A80036" points="149.5,70.7999,153.5,80.7999,157.5,70.7999,153.5,74.7999" style="stroke: #A80036; stroke-width: 1.0;"/><line style="stroke: #A80036; stroke-width: 1.5;" x1="153.5" x2="153.5" y1="115.2" y2="135.2"/><polygon fill="#A80036" points="149.5,125.2,153.5,135.2,157.5,125.2,153.5,129.2" style="stroke: #A80036; stroke-width: 1.0;"/><line style="stroke: #A80036; stroke-width: 1.5;" x1="153.5" x2="153.5" y1="184.0002" y2="204.0002"/><polygon fill="#A80036" points="149.5,194.0002,153.5,204.0002,157.5,194.0002,153.5,198.0002" style="stroke: #A80036; stroke-width: 1.0;"/><line style="stroke: #A80036; stroke-width: 1.5;" x1="153.5" x2="153.5" y1="238.4003" y2="258.4003"/><polygon fill="#A80036" points="149.5,248.4003,153.5,258.4003,157.5,248.4003,153.5,252.4003" style="stroke: #A80036; stroke-width: 1.0;"/><line style="stroke: #A80036; stroke-width: 1.5;" x1="153.5" x2="153.5" y1="417.3196" y2="437.3196"/><polygon fill="#A80036" points="149.5,427.3196,153.5,437.3196,157.5,427.3196,153.5,431.3196" style="stroke: #A80036; stroke-width: 1.0;"/><line style="stroke: #A80036; stroke-width: 1.5;" x1="100.5" x2="100.5" y1="560.1198" y2="580.1198"/><polygon fill="#A80036" points="96.5,570.1198,100.5,580.1198,104.5,570.1198,100.5,574.1198" style="stroke: #A80036; stroke-width: 1.0;"/><line style="stroke: #A80036; stroke-width: 1.5;" x1="128" x2="100.5" y1="503.7197" y2="503.7197"/><line style="stroke: #A80036; stroke-width: 1.5;" x1="100.5" x2="100.5" y1="503.7197" y2="525.7197"/><polygon fill="#A80036" points="96.5,515.7197,100.5,525.7197,104.5,515.7197,100.5,519.7197" style="stroke: #A80036; stroke-width: 1.0;"/><line style="stroke: #A80036; stroke-width: 1.5;" x1="179" x2="206.5" y1="503.7197" y2="503.7197"/><line style="stroke: #A80036; stroke-width: 1.5;" x1="206.5" x2="206.5" y1="503.7197" y2="525.7197"/><polygon fill="#A80036" points="202.5,515.7197,206.5,525.7197,210.5,515.7197,206.5,519.7197" style="stroke: #A80036; stroke-width: 1.0;"/><line style="stroke: #A80036; stroke-width: 1.5;" x1="100.5" x2="100.5" y1="614.5199" y2="632.5199"/><line style="stroke: #A80036; stroke-width: 1.5;" x1="100.5" x2="141.5" y1="632.5199" y2="632.5199"/><polygon fill="#A80036" points="131.5,628.5199,141.5,632.5199,131.5,636.5199,135.5,632.5199" style="stroke: #A80036; stroke-width: 1.0;"/><line style="stroke: #A80036; stroke-width: 1.5;" x1="206.5" x2="206.5" y1="560.1198" y2="632.5199"/><line style="stroke: #A80036; stroke-width: 1.5;" x1="206.5" x2="165.5" y1="632.5199" y2="632.5199"/><polygon fill="#A80036" points="175.5,628.5199,165.5,632.5199,175.5,636.5199,171.5,632.5199" style="stroke: #A80036; stroke-width: 1.0;"/><line style="stroke: #A80036; stroke-width: 1.5;" x1="153.5" x2="153.5" y1="471.7197" y2="491.7197"/><polygon fill="#A80036" points="149.5,481.7197,153.5,491.7197,157.5,481.7197,153.5,485.7197" style="stroke: #A80036; stroke-width: 1.0;"/><line style="stroke: #A80036; stroke-width: 1.5;" x1="153.5" x2="153.5" y1="351.2005" y2="382.9195"/><polygon fill="#A80036" points="149.5,372.9195,153.5,382.9195,157.5,372.9195,153.5,376.9195" style="stroke: #A80036; stroke-width: 1.0;"/><line style="stroke: #A80036; stroke-width: 1.5;" x1="153.5" x2="153.5" y1="644.5199" y2="654.5199"/><line style="stroke: #A80036; stroke-width: 1.5;" x1="153.5" x2="280" y1="654.5199" y2="654.5199"/><polygon fill="#A80036" points="276,497.6197,280,487.6197,284,497.6197,280,493.6197" style="stroke: #A80036; stroke-width: 1.5;"/><line style="stroke: #A80036; stroke-width: 1.5;" x1="280" x2="280" y1="339.2005" y2="654.5199"/><line style="stroke: #A80036; stroke-width: 1.5;" x1="280" x2="229" y1="339.2005" y2="339.2005"/><polygon fill="#A80036" points="239,335.2005,229,339.2005,239,343.2005,235,339.2005" style="stroke: #A80036; stroke-width: 1.0;"/><line style="stroke: #A80036; stroke-width: 1.5;" x1="78" x2="27" y1="339.2005" y2="339.2005"/><polygon fill="#A80036" points="23,483.6197,27,493.6197,31,483.6197,27,487.6197" style="stroke: #A80036; stroke-width: 1.5;"/><line style="stroke: #A80036; stroke-width: 1.5;" x1="27" x2="27" y1="339.2005" y2="666.5199"/><line style="stroke: #A80036; stroke-width: 1.5;" x1="27" x2="153.5" y1="666.5199" y2="666.5199"/><line style="stroke: #A80036; stroke-width: 1.5;" x1="153.5" x2="153.5" y1="666.5199" y2="686.5199"/><polygon fill="#A80036" points="149.5,676.5199,153.5,686.5199,157.5,676.5199,153.5,680.5199" style="stroke: #A80036; stroke-width: 1.0;"/><line style="stroke: #A80036; stroke-width: 1.5;" x1="153.5" x2="153.5" y1="307.2005" y2="327.2005"/><polygon fill="#A80036" points="149.5,317.2005,153.5,327.2005,157.5,317.2005,153.5,321.2005" style="stroke: #A80036; stroke-width: 1.0;"/><line style="stroke: #A80036; stroke-width: 1.5;" x1="153.5" x2="153.5" y1="735.3201" y2="755.3201"/><polygon fill="#A80036" points="149.5,745.3201,153.5,755.3201,157.5,745.3201,153.5,749.3201" style="stroke: #A80036; stroke-width: 1.0;"/><!--MD5=[49ca7296fba42cef71c04834a2781824]
@startuml layout_meta_from
partition "LayoutMeta::from()"{
  
  start
  :LayoutYamlParser::get_layouts();
  :         <<CentralBuffer>>
  LayoutDeserialized storage]

  :Create LayoutMeta storage;
  : <<CentralBuffer>>
  LayoutMeta storage]
  while (more LayoutDeserialized?) is (yes)
    :LayoutMeta::from(layout_deserialized);
    :result]
    if (result) then (Ok)
    :LayoutMeta]
    :Add to storage;
    else (no)
        :Emit error;
    endif
  endwhile (no)

  :         <<CentralBuffer>>
  LayoutDeserialized storage]

  stop
}
@enduml

PlantUML version 1.2020.15(Sun Jun 28 13:39:45 CEST 2020)
(MIT source distribution)
Java Runtime: OpenJDK Runtime Environment
JVM: OpenJDK 64-Bit Server VM
Default Encoding: UTF-8
Language: en
Country: US
--></g></svg>