<?xml version="1.0" encoding="UTF-8" standalone="no"?><svg xmlns="http://www.w3.org/2000/svg" xmlns:xlink="http://www.w3.org/1999/xlink" contentScriptType="application/ecmascript" contentStyleType="text/css" height="956px" preserveAspectRatio="none" style="width:613px;height:956px;" version="1.1" viewBox="0 0 613 956" width="613px" zoomAndPan="magnify"><defs><filter height="300%" id="f1e6qnpjxrnj6u" width="300%" x="-1" y="-1"><feGaussianBlur result="blurOut" stdDeviation="2.0"/><feColorMatrix in="blurOut" result="blurOut2" type="matrix" values="0 0 0 0 0 0 0 0 0 0 0 0 0 0 0 0 0 0 .4 0"/><feOffset dx="4.0" dy="4.0" in="blurOut2" result="blurOut3"/><feBlend in="SourceGraphic" in2="blurOut3" mode="normal"/></filter></defs><g><rect fill="#FFFFFF" filter="url(#f1e6qnpjxrnj6u)" height="928.3008" style="stroke: #000000; stroke-width: 2.0;" width="585.5" x="11" y="11"/><path d="M189,12 L189,20.7999 L179,30.7999 L11,30.7999 " fill="none" style="stroke: #000000; stroke-width: 2.0;"/><text fill="#000000" font-family="sans-serif" font-size="14" lengthAdjust="spacingAndGlyphs" textLength="168" x="14" y="25.0059">LayoutDeserialized::from()</text><ellipse cx="355.25" cy="50.7999" fill="#000000" filter="url(#f1e6qnpjxrnj6u)" rx="10" ry="10" style="stroke: none; stroke-width: 1.0;"/><polygon fill="#FEFECE" filter="url(#f1e6qnpjxrnj6u)" points="315.75,80.7999,394.75,80.7999,406.75,92.7999,394.75,104.7999,315.75,104.7999,303.75,92.7999,315.75,80.7999" style="stroke: #A80036; stroke-width: 1.5;"/><text fill="#000000" font-family="sans-serif" font-size="11" lengthAdjust="spacingAndGlyphs" textLength="79" x="315.75" y="96.4189">Deserialize from</text><text fill="#000000" font-family="sans-serif" font-size="11" lengthAdjust="spacingAndGlyphs" textLength="13" x="290.75" y="89.8189">file</text><text fill="#000000" font-family="sans-serif" font-size="11" lengthAdjust="spacingAndGlyphs" textLength="70" x="406.75" y="89.8189">fallback_string</text><rect fill="#FEFECE" filter="url(#f1e6qnpjxrnj6u)" height="34.4001" rx="12.5" ry="12.5" style="stroke: #A80036; stroke-width: 1.5;" width="92" x="190.5" y="114.7999"/><text fill="#000000" font-family="sans-serif" font-size="12" lengthAdjust="spacingAndGlyphs" textLength="72" x="200.5" y="135.948">Get file name</text><rect fill="#FEFECE" filter="url(#f1e6qnpjxrnj6u)" height="34.4001" style="stroke: #A80036; stroke-width: 1.5;" width="44" x="214.5" y="217.8"/><text fill="#000000" font-family="sans-serif" font-size="12" lengthAdjust="spacingAndGlyphs" textLength="24" x="224.5" y="238.9481">Err()</text><ellipse cx="236.5" cy="291.5" fill="#FFFFFF" filter="url(#f1e6qnpjxrnj6u)" rx="11" ry="11" style="stroke: #000000; stroke-width: 1.0;"/><ellipse cx="236.5" cy="291.5" fill="#000000" rx="6" ry="6" style="stroke: #7F7F7F; stroke-width: 1.0;"/><polygon fill="#FEFECE" filter="url(#f1e6qnpjxrnj6u)" points="186,169.2,287,169.2,299,181.2,287,193.2,186,193.2,174,181.2,186,169.2" style="stroke: #A80036; stroke-width: 1.5;"/><text fill="#000000" font-family="sans-serif" font-size="11" lengthAdjust="spacingAndGlyphs" textLength="18" x="240.5" y="203.419">yes</text><text fill="#000000" font-family="sans-serif" font-size="11" lengthAdjust="spacingAndGlyphs" textLength="101" x="186" y="184.819">file name = 'previous'</text><text fill="#000000" font-family="sans-serif" font-size="11" lengthAdjust="spacingAndGlyphs" textLength="12" x="299" y="178.219">no</text><rect fill="#FEFECE" filter="url(#f1e6qnpjxrnj6u)" height="34.4001" style="stroke: #A80036; stroke-width: 1.5;" width="74" x="199.5" y="344.5"/><text fill="#000000" font-family="sans-serif" font-size="12" lengthAdjust="spacingAndGlyphs" textLength="54" x="209.5" y="365.6481">file_name</text><rect fill="#FEFECE" filter="url(#f1e6qnpjxrnj6u)" height="34.4001" rx="12.5" ry="12.5" style="stroke: #A80036; stroke-width: 1.5;" width="69" x="202" y="398.9001"/><text fill="#000000" font-family="sans-serif" font-size="12" lengthAdjust="spacingAndGlyphs" textLength="49" x="212" y="420.0482">Open file</text><rect fill="#FEFECE" filter="url(#f1e6qnpjxrnj6u)" height="34.4001" style="stroke: #A80036; stroke-width: 1.5;" width="69" x="202" y="453.3002"/><text fill="#000000" font-family="sans-serif" font-size="12" lengthAdjust="spacingAndGlyphs" textLength="49" x="212" y="474.4483">yaml_file</text><rect fill="#FEFECE" filter="url(#f1e6qnpjxrnj6u)" height="34.4001" rx="12.5" ry="12.5" style="stroke: #A80036; stroke-width: 1.5;" width="214" x="129.5" y="507.7003"/><text fill="#000000" font-family="sans-serif" font-size="12" lengthAdjust="spacingAndGlyphs" textLength="194" x="139.5" y="528.8484">serde_yaml::from_reader(yaml_file)</text><rect fill="#FEFECE" filter="url(#f1e6qnpjxrnj6u)" height="34.4001" style="stroke: #A80036; stroke-width: 1.5;" width="50" x="211.5" y="562.1004"/><text fill="#000000" font-family="sans-serif" font-size="12" lengthAdjust="spacingAndGlyphs" textLength="30" x="221.5" y="583.2485">result</text><rect fill="#FEFECE" filter="url(#f1e6qnpjxrnj6u)" height="34.4001" rx="12.5" ry="12.5" style="stroke: #A80036; stroke-width: 1.5;" width="221" x="363.5" y="114.7999"/><text fill="#000000" font-family="sans-serif" font-size="12" lengthAdjust="spacingAndGlyphs" textLength="201" x="373.5" y="135.948">serde_yaml::from_str(fallback_string)</text><rect fill="#FEFECE" filter="url(#f1e6qnpjxrnj6u)" height="34.4001" style="stroke: #A80036; stroke-width: 1.5;" width="50" x="449" y="169.2"/><text fill="#000000" font-family="sans-serif" font-size="12" lengthAdjust="spacingAndGlyphs" textLength="30" x="459" y="190.3481">result</text><polygon fill="#FEFECE" filter="url(#f1e6qnpjxrnj6u)" points="355.25,602.5005,367.25,614.5005,355.25,626.5005,343.25,614.5005,355.25,602.5005" style="stroke: #A80036; stroke-width: 1.5;"/><polygon fill="#FEFECE" filter="url(#f1e6qnpjxrnj6u)" points="341.75,646.5005,368.75,646.5005,380.75,658.5005,368.75,670.5005,341.75,670.5005,329.75,658.5005,341.75,646.5005" style="stroke: #A80036; stroke-width: 1.5;"/><text fill="#000000" font-family="sans-serif" font-size="11" lengthAdjust="spacingAndGlyphs" textLength="27" x="341.75" y="662.1195">result</text><text fill="#000000" font-family="sans-serif" font-size="11" lengthAdjust="spacingAndGlyphs" textLength="42" x="287.75" y="655.5196">success</text><text fill="#000000" font-family="sans-serif" font-size="11" lengthAdjust="spacingAndGlyphs" textLength="24" x="380.75" y="655.5196">error</text><rect fill="#FEFECE" filter="url(#f1e6qnpjxrnj6u)" height="34.4001" style="stroke: #A80036; stroke-width: 1.5;" width="127" x="212.5" y="680.5005"/><text fill="#000000" font-family="sans-serif" font-size="12" lengthAdjust="spacingAndGlyphs" textLength="107" x="222.5" y="701.6486">deserialized_layout</text><path d="M23,734.9006 L23,885.3008 A0,0 0 0 0 23,885.3008 L151,885.3008 A0,0 0 0 0 151,885.3008 L151,814.1007 L171,810.1007 L151,806.1007 L151,744.9006 L141,734.9006 L23,734.9006 A0,0 0 0 0 23,734.9006 " fill="#FBFB77" filter="url(#f1e6qnpjxrnj6u)" style="stroke: #A80036; stroke-width: 1.0;"/><path d="M141,734.9006 L141,744.9006 L151,744.9006 L141,734.9006 " fill="#FBFB77" style="stroke: #A80036; stroke-width: 1.0;"/><text fill="#000000" font-family="sans-serif" font-size="13" lengthAdjust="spacingAndGlyphs" textLength="100" x="29" y="751.9776">The layout needs</text><text fill="#000000" font-family="sans-serif" font-size="13" lengthAdjust="spacingAndGlyphs" textLength="107" x="29" y="767.5777">default information</text><text fill="#000000" font-family="sans-serif" font-size="13" lengthAdjust="spacingAndGlyphs" textLength="86" x="29" y="783.1777">added before it</text><text fill="#000000" font-family="sans-serif" font-size="13" lengthAdjust="spacingAndGlyphs" textLength="86" x="29" y="798.7777">can be used to</text><text fill="#000000" font-family="sans-serif" font-size="13" lengthAdjust="spacingAndGlyphs" textLength="65" x="29" y="814.3777">construct a</text><text fill="#000000" font-family="sans-serif" font-size="13" lengthAdjust="spacingAndGlyphs" textLength="100" x="29" y="829.9777">Keyboard from it.</text><text fill="#000000" font-family="sans-serif" font-size="13" lengthAdjust="spacingAndGlyphs" textLength="106" x="29" y="845.5777">This is why it later</text><text fill="#000000" font-family="sans-serif" font-size="13" lengthAdjust="spacingAndGlyphs" textLength="86" x="29" y="861.1777">gets converted</text><text fill="#000000" font-family="sans-serif" font-size="13" lengthAdjust="spacingAndGlyphs" textLength="94" x="29" y="876.7778">to a LayoutMeta</text><rect fill="#FEFECE" filter="url(#f1e6qnpjxrnj6u)" height="34.4001" style="stroke: #A80036; stroke-width: 1.5;" width="210" x="171" y="792.9006"/><text fill="#000000" font-family="sans-serif" font-size="12" lengthAdjust="spacingAndGlyphs" textLength="190" x="181" y="814.0487">Ok(file_name, deserialized_layout)</text><ellipse cx="276" cy="916.3008" fill="#FFFFFF" filter="url(#f1e6qnpjxrnj6u)" rx="11" ry="11" style="stroke: #000000; stroke-width: 1.0;"/><ellipse cx="276" cy="916.3008" fill="#000000" rx="6" ry="6" style="stroke: #7F7F7F; stroke-width: 1.0;"/><rect fill="#FEFECE" filter="url(#f1e6qnpjxrnj6u)" height="34.4001" rx="12.5" ry="12.5" style="stroke: #A80036; stroke-width: 1.5;" width="67" x="401" y="680.5005"/><text fill="#000000" font-family="sans-serif" font-size="12" lengthAdjust="spacingAndGlyphs" textLength="47" x="411" y="701.6486">Emit info</text><rect fill="#FEFECE" filter="url(#f1e6qnpjxrnj6u)" height="34.4001" style="stroke: #A80036; stroke-width: 1.5;" width="44" x="412.5" y="734.9006"/><text fill="#000000" font-family="sans-serif" font-size="12" lengthAdjust="spacingAndGlyphs" textLength="24" x="422.5" y="756.0487">Err()</text><ellipse cx="434.5" cy="815.3007" fill="#FFFFFF" filter="url(#f1e6qnpjxrnj6u)" rx="11" ry="11" style="stroke: #000000; stroke-width: 1.0;"/><ellipse cx="434.5" cy="815.3007" fill="#000000" rx="6" ry="6" style="stroke: #7F7F7F; stroke-width: 1.0;"/><line style="stroke: #A80036; stroke-width: 1.5;" x1="236.5" x2="236.5" y1="252.2001" y2="280.5"/><polygon fill="#A80036" points="232.5,270.5,236.5,280.5,240.5,270.5,236.5,274.5" style="stroke: #A80036; stroke-width: 1.0;"/><line style="stroke: #A80036; stroke-width: 1.5;" x1="236.5" x2="236.5" y1="193.2" y2="217.8"/><polygon fill="#A80036" points="232.5,207.8,236.5,217.8,240.5,207.8,236.5,211.8" style="stroke: #A80036; stroke-width: 1.0;"/><line style="stroke: #A80036; stroke-width: 1.5;" x1="299" x2="311" y1="181.2" y2="181.2"/><polygon fill="#A80036" points="307,250.5,311,260.5,315,250.5,311,254.5" style="stroke: #A80036; stroke-width: 1.5;"/><line style="stroke: #A80036; stroke-width: 1.5;" x1="311" x2="311" y1="181.2" y2="324.5"/><line style="stroke: #A80036; stroke-width: 1.5;" x1="311" x2="236.5" y1="324.5" y2="324.5"/><line style="stroke: #A80036; stroke-width: 1.5;" x1="236.5" x2="236.5" y1="324.5" y2="344.5"/><polygon fill="#A80036" points="232.5,334.5,236.5,344.5,240.5,334.5,236.5,338.5" style="stroke: #A80036; stroke-width: 1.0;"/><line style="stroke: #A80036; stroke-width: 1.5;" x1="236.5" x2="236.5" y1="149.2" y2="169.2"/><polygon fill="#A80036" points="232.5,159.2,236.5,169.2,240.5,159.2,236.5,163.2" style="stroke: #A80036; stroke-width: 1.0;"/><line style="stroke: #A80036; stroke-width: 1.5;" x1="236.5" x2="236.5" y1="378.9001" y2="398.9001"/><polygon fill="#A80036" points="232.5,388.9001,236.5,398.9001,240.5,388.9001,236.5,392.9001" style="stroke: #A80036; stroke-width: 1.0;"/><line style="stroke: #A80036; stroke-width: 1.5;" x1="236.5" x2="236.5" y1="433.3002" y2="453.3002"/><polygon fill="#A80036" points="232.5,443.3002,236.5,453.3002,240.5,443.3002,236.5,447.3002" style="stroke: #A80036; stroke-width: 1.0;"/><line style="stroke: #A80036; stroke-width: 1.5;" x1="236.5" x2="236.5" y1="487.7003" y2="507.7003"/><polygon fill="#A80036" points="232.5,497.7003,236.5,507.7003,240.5,497.7003,236.5,501.7003" style="stroke: #A80036; stroke-width: 1.0;"/><line style="stroke: #A80036; stroke-width: 1.5;" x1="236.5" x2="236.5" y1="542.1004" y2="562.1004"/><polygon fill="#A80036" points="232.5,552.1004,236.5,562.1004,240.5,552.1004,236.5,556.1004" style="stroke: #A80036; stroke-width: 1.0;"/><line style="stroke: #A80036; stroke-width: 1.5;" x1="474" x2="474" y1="149.2" y2="169.2"/><polygon fill="#A80036" points="470,159.2,474,169.2,478,159.2,474,163.2" style="stroke: #A80036; stroke-width: 1.0;"/><line style="stroke: #A80036; stroke-width: 1.5;" x1="303.75" x2="236.5" y1="92.7999" y2="92.7999"/><line style="stroke: #A80036; stroke-width: 1.5;" x1="236.5" x2="236.5" y1="92.7999" y2="114.7999"/><polygon fill="#A80036" points="232.5,104.7999,236.5,114.7999,240.5,104.7999,236.5,108.7999" style="stroke: #A80036; stroke-width: 1.0;"/><line style="stroke: #A80036; stroke-width: 1.5;" x1="406.75" x2="474" y1="92.7999" y2="92.7999"/><line style="stroke: #A80036; stroke-width: 1.5;" x1="474" x2="474" y1="92.7999" y2="114.7999"/><polygon fill="#A80036" points="470,104.7999,474,114.7999,478,104.7999,474,108.7999" style="stroke: #A80036; stroke-width: 1.0;"/><line style="stroke: #A80036; stroke-width: 1.5;" x1="236.5" x2="236.5" y1="596.5005" y2="614.5005"/><line style="stroke: #A80036; stroke-width: 1.5;" x1="236.5" x2="343.25" y1="614.5005" y2="614.5005"/><polygon fill="#A80036" points="333.25,610.5005,343.25,614.5005,333.25,618.5005,337.25,614.5005" style="stroke: #A80036; stroke-width: 1.0;"/><line style="stroke: #A80036; stroke-width: 1.5;" x1="474" x2="474" y1="203.6001" y2="614.5005"/><line style="stroke: #A80036; stroke-width: 1.5;" x1="474" x2="367.25" y1="614.5005" y2="614.5005"/><polygon fill="#A80036" points="377.25,610.5005,367.25,614.5005,377.25,618.5005,373.25,614.5005" style="stroke: #A80036; stroke-width: 1.0;"/><line style="stroke: #A80036; stroke-width: 1.5;" x1="355.25" x2="355.25" y1="60.7999" y2="80.7999"/><polygon fill="#A80036" points="351.25,70.7999,355.25,80.7999,359.25,70.7999,355.25,74.7999" style="stroke: #A80036; stroke-width: 1.0;"/><line style="stroke: #A80036; stroke-width: 1.5;" x1="276" x2="276" y1="714.9006" y2="792.9006"/><polygon fill="#A80036" points="272,782.9006,276,792.9006,280,782.9006,276,786.9006" style="stroke: #A80036; stroke-width: 1.0;"/><line style="stroke: #A80036; stroke-width: 1.5;" x1="276" x2="276" y1="827.3007" y2="905.3008"/><polygon fill="#A80036" points="272,895.3008,276,905.3008,280,895.3008,276,899.3008" style="stroke: #A80036; stroke-width: 1.0;"/><line style="stroke: #A80036; stroke-width: 1.5;" x1="434.5" x2="434.5" y1="714.9006" y2="734.9006"/><polygon fill="#A80036" points="430.5,724.9006,434.5,734.9006,438.5,724.9006,434.5,728.9006" style="stroke: #A80036; stroke-width: 1.0;"/><line style="stroke: #A80036; stroke-width: 1.5;" x1="434.5" x2="434.5" y1="769.3007" y2="804.3007"/><polygon fill="#A80036" points="430.5,794.3007,434.5,804.3007,438.5,794.3007,434.5,798.3007" style="stroke: #A80036; stroke-width: 1.0;"/><line style="stroke: #A80036; stroke-width: 1.5;" x1="329.75" x2="276" y1="658.5005" y2="658.5005"/><line style="stroke: #A80036; stroke-width: 1.5;" x1="276" x2="276" y1="658.5005" y2="680.5005"/><polygon fill="#A80036" points="272,670.5005,276,680.5005,280,670.5005,276,674.5005" style="stroke: #A80036; stroke-width: 1.0;"/><line style="stroke: #A80036; stroke-width: 1.5;" x1="380.75" x2="434.5" y1="658.5005" y2="658.5005"/><line style="stroke: #A80036; stroke-width: 1.5;" x1="434.5" x2="434.5" y1="658.5005" y2="680.5005"/><polygon fill="#A80036" points="430.5,670.5005,434.5,680.5005,438.5,670.5005,434.5,674.5005" style="stroke: #A80036; stroke-width: 1.0;"/><line style="stroke: #A80036; stroke-width: 1.5;" x1="355.25" x2="355.25" y1="626.5005" y2="646.5005"/><polygon fill="#A80036" points="351.25,636.5005,355.25,646.5005,359.25,636.5005,355.25,640.5005" style="stroke: #A80036; stroke-width: 1.0;"/><!--MD5=[cfaa7494591cb30e16e57526c167cb12]
@startuml layout_deserialized_from
partition "LayoutDeserialized::from()"{
    start

    if (Deserialize from) then (file)
        :Get file name;
        if (file name = 'previous') then (no)
        else (yes)
            :Err()]
            stop
        endif
        :file_name]
        :Open file;
        :yaml_file]
        :serde_yaml::from_reader(yaml_file);
        :result]
    else (fallback_string)
        :serde_yaml::from_str(fallback_string);
        :result]
    endif

    if (result) then (success)
        :deserialized_layout]
        :Ok(file_name, deserialized_layout)]
        note left
           The layout needs
           default information
           added before it 
           can be used to 
           construct a
           Keyboard from it.
           This is why it later
           gets converted 
           to a LayoutMeta 
        end note
        stop
    else (error)
        :Emit info;
        :Err()]
        stop
    endif
}

@enduml

PlantUML version 1.2020.15(Sun Jun 28 13:39:45 CEST 2020)
(MIT source distribution)
Java Runtime: OpenJDK Runtime Environment
JVM: OpenJDK 64-Bit Server VM
Default Encoding: UTF-8
Language: en
Country: US
--></g></svg>