<?xml version="1.0" encoding="UTF-8" standalone="no"?><svg xmlns="http://www.w3.org/2000/svg" xmlns:xlink="http://www.w3.org/1999/xlink" contentScriptType="application/ecmascript" contentStyleType="text/css" height="624px" preserveAspectRatio="none" style="width:551px;height:624px;" version="1.1" viewBox="0 0 551 624" width="551px" zoomAndPan="magnify"><defs><filter height="300%" id="f1h644lglv98bo" width="300%" x="-1" y="-1"><feGaussianBlur result="blurOut" stdDeviation="2.0"/><feColorMatrix in="blurOut" result="blurOut2" type="matrix" values="0 0 0 0 0 0 0 0 0 0 0 0 0 0 0 0 0 0 .4 0"/><feOffset dx="4.0" dy="4.0" in="blurOut2" result="blurOut3"/><feBlend in="SourceGraphic" in2="blurOut3" mode="normal"/></filter></defs><g><rect fill="#FFFFFF" filter="url(#f1h644lglv98bo)" height="596.4004" style="stroke: #000000; stroke-width: 2.0;" width="523" x="11" y="11"/><path d="M305,12 L305,20.7999 L295,30.7999 L11,30.7999 " fill="none" style="stroke: #000000; stroke-width: 2.0;"/><text fill="#000000" font-family="sans-serif" font-size="14" lengthAdjust="spacingAndGlyphs" textLength="284" x="14" y="25.0059">UIManager::make_new_layout_view_name()</text><ellipse cx="322.75" cy="50.7999" fill="#000000" filter="url(#f1h644lglv98bo)" rx="10" ry="10" style="stroke: none; stroke-width: 1.0;"/><rect fill="#FEFECE" filter="url(#f1h644lglv98bo)" height="34.4001" rx="12.5" ry="12.5" style="stroke: #A80036; stroke-width: 1.5;" width="124" x="260.75" y="80.7999"/><text fill="#000000" font-family="sans-serif" font-size="12" lengthAdjust="spacingAndGlyphs" textLength="104" x="270.75" y="101.948">view = current view</text><polygon fill="#FEFECE" filter="url(#f1h644lglv98bo)" points="236.75,135.2,408.75,135.2,420.75,147.2,408.75,159.2,236.75,159.2,224.75,147.2,236.75,135.2" style="stroke: #A80036; stroke-width: 1.5;"/><text fill="#000000" font-family="sans-serif" font-size="11" lengthAdjust="spacingAndGlyphs" textLength="172" x="236.75" y="150.819">supposed to change to new layout?</text><text fill="#000000" font-family="sans-serif" font-size="11" lengthAdjust="spacingAndGlyphs" textLength="18" x="206.75" y="144.219">yes</text><text fill="#000000" font-family="sans-serif" font-size="11" lengthAdjust="spacingAndGlyphs" textLength="12" x="420.75" y="144.219">no</text><polygon fill="#FEFECE" filter="url(#f1h644lglv98bo)" points="119.5,169.2,267.5,169.2,279.5,181.2,267.5,193.2,119.5,193.2,107.5,181.2,119.5,169.2" style="stroke: #A80036; stroke-width: 1.5;"/><text fill="#000000" font-family="sans-serif" font-size="11" lengthAdjust="spacingAndGlyphs" textLength="148" x="119.5" y="184.819">new layouts name is 'previous'</text><text fill="#000000" font-family="sans-serif" font-size="11" lengthAdjust="spacingAndGlyphs" textLength="18" x="89.5" y="178.219">yes</text><text fill="#000000" font-family="sans-serif" font-size="11" lengthAdjust="spacingAndGlyphs" textLength="12" x="279.5" y="178.219">no</text><rect fill="#FEFECE" filter="url(#f1h644lglv98bo)" height="34.4001" rx="12.5" ry="12.5" style="stroke: #A80036; stroke-width: 1.5;" width="149" x="23" y="203.2"/><text fill="#000000" font-family="sans-serif" font-size="12" lengthAdjust="spacingAndGlyphs" textLength="129" x="33" y="224.3481">layout = previous layout</text><rect fill="#FEFECE" filter="url(#f1h644lglv98bo)" height="34.4001" rx="12.5" ry="12.5" style="stroke: #A80036; stroke-width: 1.5;" width="125" x="227" y="203.2"/><text fill="#000000" font-family="sans-serif" font-size="12" lengthAdjust="spacingAndGlyphs" textLength="105" x="237" y="224.3481">layout = new layout</text><polygon fill="#FEFECE" filter="url(#f1h644lglv98bo)" points="193.5,243.6001,205.5,255.6001,193.5,267.6001,181.5,255.6001,193.5,243.6001" style="stroke: #A80036; stroke-width: 1.5;"/><rect fill="#FEFECE" filter="url(#f1h644lglv98bo)" height="34.4001" rx="12.5" ry="12.5" style="stroke: #A80036; stroke-width: 1.5;" width="93" x="147" y="287.6001"/><text fill="#000000" font-family="sans-serif" font-size="12" lengthAdjust="spacingAndGlyphs" textLength="73" x="157" y="308.7482">view = "base"</text><rect fill="#FEFECE" filter="url(#f1h644lglv98bo)" height="34.4001" rx="12.5" ry="12.5" style="stroke: #A80036; stroke-width: 1.5;" width="140" x="382" y="169.2"/><text fill="#000000" font-family="sans-serif" font-size="12" lengthAdjust="spacingAndGlyphs" textLength="120" x="392" y="190.3481">layout = current layout</text><polygon fill="#FEFECE" filter="url(#f1h644lglv98bo)" points="322.75,328.0002,334.75,340.0002,322.75,352.0002,310.75,340.0002,322.75,328.0002" style="stroke: #A80036; stroke-width: 1.5;"/><rect fill="#FEFECE" filter="url(#f1h644lglv98bo)" height="34.4001" rx="12.5" ry="12.5" style="stroke: #A80036; stroke-width: 1.5;" width="109" x="268.25" y="420.6002"/><text fill="#000000" font-family="sans-serif" font-size="12" lengthAdjust="spacingAndGlyphs" textLength="89" x="278.25" y="441.7483">view = new view</text><polygon fill="#FEFECE" filter="url(#f1h644lglv98bo)" points="240.25,372.0002,405.25,372.0002,417.25,384.0002,405.25,396.0002,240.25,396.0002,228.25,384.0002,240.25,372.0002" style="stroke: #A80036; stroke-width: 1.5;"/><text fill="#000000" font-family="sans-serif" font-size="11" lengthAdjust="spacingAndGlyphs" textLength="18" x="326.75" y="406.2192">yes</text><text fill="#000000" font-family="sans-serif" font-size="11" lengthAdjust="spacingAndGlyphs" textLength="165" x="240.25" y="387.6192">supposed to change to new view?</text><text fill="#000000" font-family="sans-serif" font-size="11" lengthAdjust="spacingAndGlyphs" textLength="12" x="417.25" y="381.0193">no</text><polygon fill="#FEFECE" filter="url(#f1h644lglv98bo)" points="322.75,475.0003,334.75,487.0003,322.75,499.0003,310.75,487.0003,322.75,475.0003" style="stroke: #A80036; stroke-width: 1.5;"/><rect fill="#FEFECE" filter="url(#f1h644lglv98bo)" height="34.4001" style="stroke: #A80036; stroke-width: 1.5;" width="95" x="275.25" y="519.0003"/><text fill="#000000" font-family="sans-serif" font-size="12" lengthAdjust="spacingAndGlyphs" textLength="72" x="288.25" y="540.1484">(layout, view)</text><ellipse cx="322.75" cy="584.4004" fill="#FFFFFF" filter="url(#f1h644lglv98bo)" rx="11" ry="11" style="stroke: #000000; stroke-width: 1.0;"/><ellipse cx="322.75" cy="584.4004" fill="#000000" rx="6" ry="6" style="stroke: #7F7F7F; stroke-width: 1.0;"/><line style="stroke: #A80036; stroke-width: 1.5;" x1="322.75" x2="322.75" y1="60.7999" y2="80.7999"/><polygon fill="#A80036" points="318.75,70.7999,322.75,80.7999,326.75,70.7999,322.75,74.7999" style="stroke: #A80036; stroke-width: 1.0;"/><line style="stroke: #A80036; stroke-width: 1.5;" x1="107.5" x2="97.5" y1="181.2" y2="181.2"/><line style="stroke: #A80036; stroke-width: 1.5;" x1="97.5" x2="97.5" y1="181.2" y2="203.2"/><polygon fill="#A80036" points="93.5,193.2,97.5,203.2,101.5,193.2,97.5,197.2" style="stroke: #A80036; stroke-width: 1.0;"/><line style="stroke: #A80036; stroke-width: 1.5;" x1="279.5" x2="289.5" y1="181.2" y2="181.2"/><line style="stroke: #A80036; stroke-width: 1.5;" x1="289.5" x2="289.5" y1="181.2" y2="203.2"/><polygon fill="#A80036" points="285.5,193.2,289.5,203.2,293.5,193.2,289.5,197.2" style="stroke: #A80036; stroke-width: 1.0;"/><line style="stroke: #A80036; stroke-width: 1.5;" x1="97.5" x2="97.5" y1="237.6001" y2="255.6001"/><line style="stroke: #A80036; stroke-width: 1.5;" x1="97.5" x2="181.5" y1="255.6001" y2="255.6001"/><polygon fill="#A80036" points="171.5,251.6001,181.5,255.6001,171.5,259.6001,175.5,255.6001" style="stroke: #A80036; stroke-width: 1.0;"/><line style="stroke: #A80036; stroke-width: 1.5;" x1="289.5" x2="289.5" y1="237.6001" y2="255.6001"/><line style="stroke: #A80036; stroke-width: 1.5;" x1="289.5" x2="205.5" y1="255.6001" y2="255.6001"/><polygon fill="#A80036" points="215.5,251.6001,205.5,255.6001,215.5,259.6001,211.5,255.6001" style="stroke: #A80036; stroke-width: 1.0;"/><line style="stroke: #A80036; stroke-width: 1.5;" x1="193.5" x2="193.5" y1="267.6001" y2="287.6001"/><polygon fill="#A80036" points="189.5,277.6001,193.5,287.6001,197.5,277.6001,193.5,281.6001" style="stroke: #A80036; stroke-width: 1.0;"/><line style="stroke: #A80036; stroke-width: 1.5;" x1="224.75" x2="193.5" y1="147.2" y2="147.2"/><line style="stroke: #A80036; stroke-width: 1.5;" x1="193.5" x2="193.5" y1="147.2" y2="169.2"/><polygon fill="#A80036" points="189.5,159.2,193.5,169.2,197.5,159.2,193.5,163.2" style="stroke: #A80036; stroke-width: 1.0;"/><line style="stroke: #A80036; stroke-width: 1.5;" x1="420.75" x2="452" y1="147.2" y2="147.2"/><line style="stroke: #A80036; stroke-width: 1.5;" x1="452" x2="452" y1="147.2" y2="169.2"/><polygon fill="#A80036" points="448,159.2,452,169.2,456,159.2,452,163.2" style="stroke: #A80036; stroke-width: 1.0;"/><line style="stroke: #A80036; stroke-width: 1.5;" x1="193.5" x2="193.5" y1="322.0002" y2="340.0002"/><line style="stroke: #A80036; stroke-width: 1.5;" x1="193.5" x2="310.75" y1="340.0002" y2="340.0002"/><polygon fill="#A80036" points="300.75,336.0002,310.75,340.0002,300.75,344.0002,304.75,340.0002" style="stroke: #A80036; stroke-width: 1.0;"/><line style="stroke: #A80036; stroke-width: 1.5;" x1="452" x2="452" y1="203.6001" y2="340.0002"/><line style="stroke: #A80036; stroke-width: 1.5;" x1="452" x2="334.75" y1="340.0002" y2="340.0002"/><polygon fill="#A80036" points="344.75,336.0002,334.75,340.0002,344.75,344.0002,340.75,340.0002" style="stroke: #A80036; stroke-width: 1.0;"/><line style="stroke: #A80036; stroke-width: 1.5;" x1="322.75" x2="322.75" y1="115.2" y2="135.2"/><polygon fill="#A80036" points="318.75,125.2,322.75,135.2,326.75,125.2,322.75,129.2" style="stroke: #A80036; stroke-width: 1.0;"/><line style="stroke: #A80036; stroke-width: 1.5;" x1="322.75" x2="322.75" y1="396.0002" y2="420.6002"/><polygon fill="#A80036" points="318.75,410.6002,322.75,420.6002,326.75,410.6002,322.75,414.6002" style="stroke: #A80036; stroke-width: 1.0;"/><line style="stroke: #A80036; stroke-width: 1.5;" x1="417.25" x2="429.25" y1="384.0002" y2="384.0002"/><polygon fill="#A80036" points="425.25,427.8002,429.25,437.8002,433.25,427.8002,429.25,431.8002" style="stroke: #A80036; stroke-width: 1.5;"/><line style="stroke: #A80036; stroke-width: 1.5;" x1="429.25" x2="429.25" y1="384.0002" y2="487.0003"/><line style="stroke: #A80036; stroke-width: 1.5;" x1="429.25" x2="334.75" y1="487.0003" y2="487.0003"/><polygon fill="#A80036" points="344.75,483.0003,334.75,487.0003,344.75,491.0003,340.75,487.0003" style="stroke: #A80036; stroke-width: 1.0;"/><line style="stroke: #A80036; stroke-width: 1.5;" x1="322.75" x2="322.75" y1="455.0003" y2="475.0003"/><polygon fill="#A80036" points="318.75,465.0003,322.75,475.0003,326.75,465.0003,322.75,469.0003" style="stroke: #A80036; stroke-width: 1.0;"/><line style="stroke: #A80036; stroke-width: 1.5;" x1="322.75" x2="322.75" y1="352.0002" y2="372.0002"/><polygon fill="#A80036" points="318.75,362.0002,322.75,372.0002,326.75,362.0002,322.75,366.0002" style="stroke: #A80036; stroke-width: 1.0;"/><line style="stroke: #A80036; stroke-width: 1.5;" x1="322.75" x2="322.75" y1="499.0003" y2="519.0003"/><polygon fill="#A80036" points="318.75,509.0003,322.75,519.0003,326.75,509.0003,322.75,513.0003" style="stroke: #A80036; stroke-width: 1.0;"/><line style="stroke: #A80036; stroke-width: 1.5;" x1="322.75" x2="322.75" y1="553.4004" y2="573.4004"/><polygon fill="#A80036" points="318.75,563.4004,322.75,573.4004,326.75,563.4004,322.75,567.4004" style="stroke: #A80036; stroke-width: 1.0;"/><!--MD5=[28e8d5fe7edcc2d518753a20b266242d]
@startuml uimanager::make_new_layout_view_name

partition "UIManager::make_new_layout_view_name()"{
  start
  :view = current view;
  
  if (supposed to change to new layout?) then (yes)
    if (new layouts name is 'previous') then (yes)
      :layout = previous layout;
    else (no)
      :layout = new layout;
    endif
    :view = "base";
  else (no)
    :layout = current layout;
  endif
  
  if (supposed to change to new view?) then (yes)
    :view = new view;
  else (no)
  endif
  
  : (layout, view)]

  stop
}
@enduml

PlantUML version 1.2020.15(Sun Jun 28 13:39:45 CEST 2020)
(MIT source distribution)
Java Runtime: OpenJDK Runtime Environment
JVM: OpenJDK 64-Bit Server VM
Default Encoding: UTF-8
Language: en
Country: US
--></g></svg>